<?xml version="1.0" encoding="utf-8"?>
<!-- Generator: Adobe Illustrator 27.7.0, SVG Export Plug-In . SVG Version: 6.00 Build 0)  -->
<svg version="1.1" id="Layer_1" xmlns="http://www.w3.org/2000/svg" xmlns:xlink="http://www.w3.org/1999/xlink" x="0px" y="0px"
	 viewBox="0 0 81 92.1" style="enable-background:new 0 0 81 92.1;" xml:space="preserve">
<style type="text/css">
	.st0{fill:#123457;}
	.st1{display:none;}
	.st2{display:inline;}
	.st3{fill:none;stroke:#FFFFFF;stroke-width:2;stroke-miterlimit:10;}
	.st4{display:inline;fill:none;stroke:#FFFFFF;stroke-width:2;stroke-miterlimit:10;}
	.st5{fill:#FFFFFF;}
	.st6{fill:#123557;}
</style>
<g>
	<g>
		<g>
			<path id="Polygon_88_00000116206777653450988870000006612154428331284885_" class="st0" d="M81,66.1c0,2.1-1.1,4.1-3,5.2
				l-34.5,20c-1.9,1.1-4.2,1.1-6,0L3,71.3c-1.8-1.1-3-3.1-3-5.2V26c0-2.1,1.1-4.1,3-5.2l34.5-20c1.9-1.1,4.2-1.1,6,0l34.5,20
				c1.8,1.1,3,3.1,3,5.2V66.1z"/>
			<g class="st1">
				<g class="st2">
					<circle class="st3" cx="40.5" cy="19.7" r="9.4"/>
				</g>
				<path class="st4" d="M39.5,32.5h-8.4c0,0-13.8,3-14,17.9v16.4c0,0,0.1,3.8,2.7,5h1.9c0,0,3,0.4,3.1-5l-0.1-16.2
					c0,0,1.1-6.6,3.6-7V71h24.3V43c0,0,2.3,0.4,3.9,6.8v18.3c0,0,0.4,2.9,2.5,3.7h2.4c0,0,2.4-0.2,2.7-3.5V49.6c0,0-1.1-13-14-17
					H39.5z"/>
				<g class="st2">
					<path class="st5" d="M39.9,33.3v3.1c0,0,0.1,1.8-1.5,1.7c0,0-0.4-3.3-1.9-4.1c-0.4-0.3-1-0.1-1.4,0.3c-0.4,0.4-1,1.1-1.5,2
						l-3.6,9.5c0,0-0.9,3.2,1.6,3.1c0,0,4.7,0.6,6.8-1.9c0.2-0.2,0.2-0.4,0.3-0.6l0.7-6.8h0.6V49v0.6h0.7v2.3c0,0-3,3.7-4.6,4
						c-1.6,0.3-2.8,0.5-3.4,2.3s-0.2,0.3-0.2,0.3s-0.2,2.3,1.8,3.2h12.8c0,0,1.2,0.7,0,1.3H33.1c0,0-2.3,1.8-0.2,4.1h13.8
						c0,0,1.3,0.5,0,1.2h-6.9c0,0-1.1,0.9-1,1.9h1.2l0.1-0.7l6.8,0.1c0,0,1.6,0.1,2.2-1.3c0,0,0.6-2.5-2.4-2.4l-13.1-0.2
						c0,0-0.3-0.5-0.1-1.2h14.2c0,0,1.7,0,1.8-1.6s-1.1-2.4-1.7-2.4L35,60.6c0,0-1.5-1-0.5-2.6l1.1-0.1c0,0,1,1.7,2.7,1.8h2.5
						c0,0,3.5-0.6,4.5-4.3c0,0,1.3-4.2-3.1-6l-0.1-0.6l-0.6-0.1l-0.1-9.1l0.6,0.1v6.4c0,0.4,0.1,0.9,0.4,1.2
						c0.6,0.7,1.8,1.6,4.1,1.7c0,0,1.4,0.4,3-0.1c0,0,2.4-0.6,0.8-3.5L46.3,35c0,0-2-3.4-3.4,1.5l-0.1,1.2h-1.3l0.1-4.4H39.9z"/>
				</g>
			</g>
		</g>
	</g>
	<g>
		<path class="st6" d="M41.9,29.9c0,1.8-1.3,3.1-3.1,3.2c-0.8,0-1.7-0.4-2.3-1s-1-1.4-1-2.3c0-1.7,1.6-3.1,3.2-3.1
			S41.9,28.2,41.9,29.9z M37.7,20.6c-4.6,0.6-8,4.3-8.2,9c-0.1,4.4,3,8.5,7.4,9.4c2.4,0.5,4.9-0.1,7-1.4c1.7-1.1,2.9-2.8,3.6-4.7
			h0.7c1.9,0,3.8,0,5.9,0c0.5,0,1.1,0.1,1.4,0.2c4.6,0.8,7.9,5.2,7.6,9.8c-0.4,4.7-4.3,8.4-8.9,8.4c-1.9,0.1-3.8,0.1-5.6,0.1h-2.2
			c-0.8-3-2.6-5.5-5.4-7.9c-0.5-0.4-1.1-0.5-1.4-0.6h-0.1c-0.1-0.1-0.2-0.1-0.4-0.1H39c-1.9-1.4-4-2.5-6.1-3.4
			c-4.4-1.8-8.3-2.4-12-1.8c-3.4,0.5-5.6,2.3-6.6,5.2c-0.4,0.7-0.6,1.6-0.7,2.3c-0.1,0.5-0.2,1-0.5,1.4c-1.4,1.3-1.7,3.5-0.6,5
			c1.2,1.6,3.4,2,5,1c1.7-1,2.3-2.9,1.6-4.6v-0.2c0.4-1,0.6-1.9,0.8-2.9c0.2-0.5,0.5-1,1.4-1.1c0.7-0.2,1.3-0.2,1.9-0.2
			c4.1,0,8,1.3,12.1,4.1v0.1c0.1,0.1,0.1,0.2,0.2,0.4c0.1,0.2,0.4,0.6,0.6,1c0.4,0.5,0.7,0.8,1.1,1.2c0.5,0.5,1,1,1.3,1.4
			c1.2,1.8,1.2,3.6,0,5.4c-0.4,0.5-0.8,1.1-1.3,1.6c-0.4,0.4-0.7,0.7-1,1.1c-0.2,0.4-0.5,0.7-0.7,1c0,0.1-0.1,0.2-0.1,0.4
			c-0.1,0.1-0.1,0.1-0.2,0.2s-0.4,0.2-0.6,0.4c-1,0.6-1.9,1.2-2.9,1.7c-3.5,1.6-6.6,2.3-9.7,2c-1.4-0.2-1.9-0.5-2.4-1.9
			c-0.2-0.7-0.4-1.6-0.6-2.4V61c0.7-1.7,0.1-3.7-1.6-4.7c-1.7-1-4-0.5-5,1.1c-1.1,1.7-0.8,3.7,0.6,5c0.1,0.5,0.2,1,0.4,1.3
			c0.2,0.7,0.5,1.4,0.7,2.2c1,2.9,3,4.7,6,5.3c1.9,0.4,3.8,0.5,5.8,0.2c4.7-0.6,9-2.3,13-5.2c0.1,0,0.2-0.1,0.2-0.1
			c0.7,0,1.4-0.4,2-0.8c2.8-2.4,4.4-4.9,5.2-7.8c0.8,0,1.7,0,2.5,0c0.6,0,1.3,0,2,0c1.7,0,3.4,0.1,5.2-0.1c4-0.5,7.6-2.6,10.1-6
			c2-2.6,3.1-5.9,3.1-9.1c0-0.8-0.1-1.7-0.2-2.4c-1.2-7.6-7.6-13-15.2-13h-4.7h-1.6C45.9,22.8,42,20.2,37.7,20.6z"/>
		<path class="st5" d="M43.7,29.9c0-2.8-2.2-4.9-4.9-4.9c-2.8,0-5,2.2-5,4.9c0,2.8,2.3,5,5,5C41.5,34.8,43.7,32.6,43.7,29.9z
			 M46.1,31.2c-0.8,4.6-5.2,6.7-8.8,6c-3.6-0.7-6.1-4-6-7.6c0.1-3.7,2.9-6.7,6.6-7.2c3.6-0.4,7.3,1.9,8.2,6.2h0.7c2.3,0,4.7,0,7,0
			c6.8,0,12.4,4.8,13.6,11.4c1.2,7.4-4.2,14.5-11.5,15.5c-2.3,0.2-4.7,0.1-7.1,0.1c-1.1,0-2.3,0-3.4,0c-0.4,0-0.5,0.1-0.5,0.5
			c-0.6,3.2-2.5,5.6-4.9,7.8c-0.2,0.2-0.6,0.4-0.8,0.4c-0.6,0-1,0.2-1.3,0.5c-3.6,2.5-7.7,4.2-12,4.8c-1.8,0.2-3.6,0.1-5.3-0.2
			c-2.4-0.4-4-1.8-4.7-4.1c-0.4-1.1-0.6-2.3-1-3.5c-0.1-0.2-0.2-0.5-0.5-0.7c-0.8-0.6-1.1-1.8-0.4-2.6c0.5-0.8,1.7-1.1,2.5-0.6
			c1,0.6,1.2,1.7,0.7,2.6c0,0.1-0.1,0.4,0,0.6c0.2,1,0.4,2,0.7,3c0.7,2,1.8,2.9,4,3c3.8,0.4,7.3-0.6,10.7-2.2c1.3-0.6,2.6-1.4,4-2.3
			c0.1-0.1,0.2-0.4,0.4-0.6c0.2-0.4,0.5-0.7,0.7-1.1c0.8-1,1.8-1.8,2.5-2.9c1.6-2.4,1.4-4.9-0.1-7.3c-0.7-1-1.6-1.8-2.4-2.8
			c-0.2-0.4-0.5-0.8-0.7-1.2c-0.1-0.1-0.2-0.4-0.4-0.5c-4-2.8-8.4-4.6-13.3-4.6c-0.7,0-1.6,0.1-2.3,0.2c-1.3,0.2-2.3,1-2.8,2.3
			c-0.4,1.2-0.7,2.4-1.1,3.7c0,0.1,0.1,0.4,0.1,0.5c0.5,1,0.2,2-0.6,2.6c-1,0.5-2,0.2-2.6-0.6s-0.5-2,0.4-2.6
			c0.2-0.2,0.4-0.5,0.5-0.8c0.4-1.2,0.6-2.4,1.1-3.6c0.8-2.4,2.6-3.6,5.2-4c3.8-0.6,7.6,0.2,11.2,1.7c2,0.8,4.1,1.9,5.9,3.2
			c0.2,0.1,0.5,0.1,0.7,0.2c0.4,0.1,0.7,0.1,1,0.4c2.3,1.9,4.1,4.2,4.8,7.1c0.4,1.2,0.4,1.2,1.6,1.2c2.6,0,5.4,0,8-0.1
			c5.5-0.1,10.2-4.6,10.7-10.1c0.5-5.6-3.5-10.8-9-11.8c-0.6-0.1-1.2-0.2-1.8-0.2c-2.6,0-5.2,0-7.8,0C46.2,31.1,46.2,31.1,46.1,31.2
			z"/>
	</g>
</g>
<g>
</g>
<g>
</g>
<g>
</g>
<g>
</g>
<g>
</g>
<g>
</g>
<g>
</g>
<g>
</g>
<g>
</g>
<g>
</g>
<g>
</g>
</svg>
