<?xml version="1.0" encoding="utf-8"?>
<!-- Generator: Adobe Illustrator 27.7.0, SVG Export Plug-In . SVG Version: 6.00 Build 0)  -->
<svg version="1.1" id="Layer_1" xmlns="http://www.w3.org/2000/svg" xmlns:xlink="http://www.w3.org/1999/xlink" x="0px" y="0px"
	 viewBox="0 0 69.1 76.5" style="enable-background:new 0 0 69.1 76.5;" xml:space="preserve">
<style type="text/css">
	.st0{fill:#FFFFFF;}
	.st1{fill:#123557;}
</style>
<g>
	<g id="Group_503" transform="translate(63.26 82.362)">
		<path id="Path_1509" class="st0" d="M-58.4-66.8c-2.8,1.9-4.6,5-4.8,8.4v28.7c0.2,3.4,2,6.5,4.8,8.4L-33.5-7c3,1.5,6.6,1.5,9.7,0
			L1-21.4c2.8-1.9,4.6-5,4.8-8.4v-28.7c-0.2-3.4-2-6.5-4.8-8.4l-24.9-14.4c-3-1.5-6.6-1.5-9.7,0L-58.4-66.8z"/>
	</g>
	<g>
		<path class="st1" d="M35.6,25c0,1.5-1.1,2.5-2.5,2.6c-0.7,0-1.4-0.3-1.9-0.8c-0.5-0.5-0.8-1.2-0.8-1.9c0-1.4,1.3-2.5,2.6-2.5
			C34.5,22.5,35.6,23.7,35.6,25z M32.2,17.5c-3.7,0.5-6.6,3.5-6.7,7.3c-0.1,3.6,2.4,7,6.1,7.6c2,0.4,4-0.1,5.7-1.2
			c1.4-0.9,2.3-2.3,2.9-3.8h0.6c1.6,0,3.1,0,4.8,0c0.4,0,0.9,0.1,1.2,0.2c3.7,0.7,6.5,4.2,6.2,8c-0.3,3.8-3.5,6.9-7.2,6.9
			c-1.6,0.1-3.1,0.1-4.6,0.1h-1.8c-0.7-2.4-2.2-4.5-4.4-6.5c-0.4-0.3-0.9-0.4-1.2-0.5h-0.1c-0.1-0.1-0.2-0.1-0.3-0.1h-0.1
			c-1.6-1.2-3.2-2.1-5-2.7c-3.6-1.5-6.8-2-9.8-1.5c-2.7,0.4-4.6,1.9-5.4,4.2c-0.3,0.6-0.5,1.3-0.6,1.9c-0.1,0.4-0.2,0.8-0.4,1.2
			c-1.2,1.1-1.4,2.8-0.5,4.1c1,1.3,2.7,1.7,4.1,0.8c1.4-0.8,1.9-2.3,1.3-3.7v-0.2c0.3-0.8,0.5-1.6,0.7-2.3c0.2-0.4,0.4-0.8,1.2-0.9
			c0.6-0.2,1.1-0.2,1.6-0.2c3.3,0,6.6,1.1,9.9,3.3v0.1c0.1,0.1,0.1,0.2,0.2,0.3c0.1,0.2,0.3,0.5,0.5,0.8c0.3,0.4,0.6,0.7,0.9,1
			c0.4,0.4,0.8,0.8,1.1,1.2c1,1.5,1,2.9,0,4.4c-0.3,0.4-0.7,0.9-1.1,1.3c-0.3,0.3-0.6,0.6-0.8,0.9c-0.2,0.3-0.4,0.6-0.6,0.8
			c0,0.1-0.1,0.2-0.1,0.3c-0.1,0.1-0.1,0.1-0.2,0.2c-0.1,0.1-0.3,0.2-0.5,0.3c-0.8,0.5-1.6,1-2.3,1.4c-2.8,1.3-5.4,1.9-7.9,1.7
			c-1.2-0.2-1.6-0.4-2-1.6c-0.2-0.6-0.3-1.3-0.5-2v-0.1c0.6-1.4,0.1-3-1.3-3.8c-1.4-0.8-3.2-0.4-4.1,0.9c-0.9,1.4-0.7,3,0.5,4.1
			c0.1,0.4,0.2,0.8,0.3,1.1c0.2,0.6,0.4,1.2,0.6,1.8c0.8,2.3,2.4,3.8,4.9,4.3c1.6,0.3,3.1,0.4,4.7,0.2c3.8-0.5,7.3-1.9,10.6-4.2
			c0.1,0,0.2-0.1,0.2-0.1c0.6,0,1.2-0.3,1.7-0.7c2.3-2,3.6-4,4.2-6.4c0.7,0,1.4,0,2.1,0c0.5,0,1.1,0,1.7,0c1.4,0,2.7,0.1,4.2-0.1
			c3.2-0.4,6.2-2.2,8.2-4.9c1.7-2.2,2.5-4.8,2.5-7.4c0-0.7-0.1-1.4-0.2-2c-1-6.2-6.2-10.6-12.4-10.6h-3.8h-1.3
			C39,19.3,35.7,17.1,32.2,17.5z"/>
		<path class="st0" d="M37.1,25c0-2.3-1.8-4-4-4c-2.3,0-4.1,1.8-4.1,4c0,2.3,1.9,4.1,4.1,4.1C35.4,29.1,37.1,27.3,37.1,25z
			 M39.1,26.1c-0.7,3.7-4.2,5.5-7.1,4.9c-2.9-0.6-5-3.2-4.9-6.2c0.1-3,2.3-5.5,5.4-5.9c2.9-0.3,6,1.6,6.7,5.1h0.6c1.9,0,3.8,0,5.7,0
			c5.6,0,10.1,3.9,11.1,9.3c1,6.1-3.4,11.8-9.4,12.6c-1.9,0.2-3.8,0.1-5.8,0.1c-0.9,0-1.9,0-2.7,0c-0.3,0-0.4,0.1-0.4,0.4
			c-0.5,2.6-2.1,4.6-4,6.4c-0.2,0.2-0.5,0.3-0.7,0.3c-0.5,0-0.8,0.2-1.1,0.4c-2.9,2.1-6.3,3.4-9.8,3.9c-1.5,0.2-2.9,0.1-4.3-0.2
			c-2-0.3-3.2-1.5-3.8-3.3c-0.3-0.9-0.5-1.9-0.8-2.8c-0.1-0.2-0.2-0.4-0.4-0.6c-0.7-0.5-0.9-1.5-0.3-2.2c0.4-0.7,1.4-0.9,2.1-0.5
			c0.8,0.5,1,1.4,0.6,2.2c0,0.1-0.1,0.3,0,0.5c0.2,0.8,0.3,1.7,0.6,2.4c0.6,1.7,1.5,2.3,3.2,2.4c3.1,0.3,6-0.5,8.7-1.8
			c1.1-0.5,2.2-1.2,3.2-1.9c0.1-0.1,0.2-0.3,0.3-0.5c0.2-0.3,0.4-0.6,0.6-0.9c0.7-0.8,1.5-1.5,2.1-2.3c1.3-2,1.2-4-0.1-6
			c-0.6-0.8-1.3-1.5-2-2.3c-0.2-0.3-0.4-0.7-0.6-1c-0.1-0.1-0.2-0.3-0.3-0.4c-3.2-2.3-6.9-3.7-10.9-3.7c-0.6,0-1.3,0.1-1.9,0.2
			c-1.1,0.2-1.9,0.8-2.3,1.9c-0.3,1-0.6,2-0.9,3c0,0.1,0.1,0.3,0.1,0.4c0.4,0.8,0.2,1.7-0.5,2.2c-0.8,0.4-1.7,0.2-2.2-0.5
			c-0.5-0.7-0.4-1.7,0.3-2.2c0.2-0.2,0.3-0.4,0.4-0.7c0.3-1,0.5-2,0.9-2.9c0.7-2,2.2-2.9,4.2-3.2c3.1-0.5,6.2,0.2,9.1,1.4
			c1.7,0.7,3.3,1.6,4.8,2.6c0.2,0.1,0.4,0.1,0.6,0.2c0.3,0.1,0.6,0.1,0.8,0.3c1.9,1.6,3.3,3.4,3.9,5.8c0.3,1,0.3,1,1.3,1
			c2.2,0,4.4,0,6.6-0.1c4.5-0.1,8.3-3.7,8.7-8.2c0.4-4.6-2.8-8.8-7.3-9.6c-0.5-0.1-1-0.2-1.5-0.2c-2.2,0-4.2,0-6.4,0
			C39.2,26,39.2,26,39.1,26.1z"/>
	</g>
</g>
<g>
</g>
<g>
</g>
<g>
</g>
<g>
</g>
<g>
</g>
<g>
</g>
<g>
</g>
<g>
</g>
<g>
</g>
<g>
</g>
<g>
</g>
</svg>
