<?xml version="1.0" encoding="utf-8"?>
<!-- Generator: Adobe Illustrator 26.3.1, SVG Export Plug-In . SVG Version: 6.00 Build 0)  -->
<svg version="1.1" id="Layer_1" xmlns="http://www.w3.org/2000/svg" xmlns:xlink="http://www.w3.org/1999/xlink" x="0px" y="0px"
	 viewBox="0 0 69.1 76.5" style="enable-background:new 0 0 69.1 76.5;" xml:space="preserve">
<style type="text/css">
	.st0{fill:#123457;}
	.st1{display:none;}
	.st2{display:inline;}
	.st3{fill:none;stroke:#FFFFFF;stroke-width:2;stroke-miterlimit:10;}
	.st4{display:inline;fill:none;stroke:#FFFFFF;stroke-width:2;stroke-miterlimit:10;}
	.st5{fill:#FFFFFF;}
	.st6{fill:#0062B8;}
	.st7{fill:#123557;}
</style>
<g>
	<g>
		<path id="Polygon_88_00000116206777653450988870000006612154428331284885_" class="st0" d="M-26,58.3c0,2.1-1.1,4.1-3,5.2
			l-34.5,20c-1.9,1.1-4.2,1.1-6,0l-34.5-20c-1.8-1.1-3-3.1-3-5.2V18.2c0-2.1,1.1-4.1,3-5.2l34.5-20c1.9-1.1,4.2-1.1,6,0l34.5,20
			c1.8,1.1,3,3.1,3,5.2V58.3z"/>
		<g class="st1">
			<g class="st2">
				<circle class="st3" cx="-66.5" cy="11.9" r="9.4"/>
			</g>
			<path class="st4" d="M-67.5,24.7h-8.4c0,0-13.8,3-14,17.9V59c0,0,0.1,3.8,2.7,5h1.9c0,0,3,0.4,3.1-5l-0.1-16.2c0,0,1.1-6.6,3.6-7
				v27.4h24.3v-28c0,0,2.3,0.4,3.9,6.8v18.3c0,0,0.4,2.9,2.5,3.7h2.4c0,0,2.4-0.2,2.7-3.5V41.8c0,0-1.1-13-14-17H-67.5z"/>
			<g class="st2">
				<path class="st5" d="M-67.1,25.5v3.1c0,0,0.1,1.8-1.5,1.7c0,0-0.4-3.3-1.9-4.1c-0.4-0.3-1-0.1-1.4,0.3c-0.4,0.4-1,1.1-1.5,2
					l-3.6,9.5c0,0-0.9,3.2,1.6,3.1c0,0,4.7,0.6,6.8-1.9c0.2-0.2,0.2-0.4,0.3-0.6l0.7-6.8h0.6v9.4v0.6h0.7v2.3c0,0-3,3.7-4.6,4
					c-1.6,0.3-2.8,0.5-3.4,2.3c-0.6,1.8-0.2,0.3-0.2,0.3s-0.2,2.3,1.8,3.2h12.8c0,0,1.2,0.7,0,1.3h-14.1c0,0-2.3,1.8-0.2,4.1h13.8
					c0,0,1.3,0.5,0,1.2h-6.9c0,0-1.1,0.9-1,1.9h1.2l0.1-0.7l6.8,0.1c0,0,1.6,0.1,2.2-1.3c0,0,0.6-2.5-2.4-2.4l-13.1-0.2
					c0,0-0.3-0.5-0.1-1.2h14.2c0,0,1.7,0,1.8-1.6s-1.1-2.4-1.7-2.4L-72,52.8c0,0-1.5-1-0.5-2.6l1.1-0.1c0,0,1,1.7,2.7,1.8h2.5
					c0,0,3.5-0.6,4.5-4.3c0,0,1.3-4.2-3.1-6l-0.1-0.6l-0.6-0.1l-0.1-9.1l0.6,0.1v6.4c0,0.4,0.1,0.9,0.4,1.2c0.6,0.7,1.8,1.6,4.1,1.7
					c0,0,1.4,0.4,3-0.1c0,0,2.4-0.6,0.8-3.5l-4.2-10.5c0,0-2-3.4-3.4,1.5l-0.1,1.2h-1.3l0.1-4.4H-67.1z"/>
			</g>
		</g>
	</g>
	<path class="st5" d="M-35.1,45c-1.3-1.7-2.9-2.6-4.9-2.7c0.3-2.2-0.7-3.7-2.3-5c-0.3-0.1-0.6-0.4-0.9-0.6c-0.4-0.3-0.9-0.1-1,0.3
		c-0.1,0.3,0,0.7,0.1,1c0.4,0.4,1,0.9,1.4,1.3c0.7,0.7,1.1,1.4,1,2.6c0,0.3-0.1,0.6-0.6,0.7c-0.3,0-0.7,0.1-1,0.3
		c-0.4,0.1-0.7,0.4-0.4,1c0.1,0.4,0.4,0.6,1,0.4c1.3-0.4,2.6-0.6,3.9-0.1c1,0.4,1.9,1,2.3,1.9c0.6,1.1,0.6,2.2-0.3,3.2
		c-0.9,1.1-1.7,2.2-3.4,2c-3.3-0.3-6.3-1.4-8.6-3.9c-0.7-0.9-0.9-1.9-0.4-2.9c0-0.1,0.1-0.4,0.1-0.6c0.1-0.4,0.1-0.9-0.4-1
		c-0.4-0.1-0.7,0-1,0.4c-1.1,2-0.4,4.6,1.4,5.9c0.1,0,0.1,0.1,0.3,0.1c-1.4,0.3-2.7,0.6-4,0.9c-1.1,0.4-2.2,1-3.2,1.4
		c-1.4,0.4-2.9,0.4-4.4,0.3c-1.3-0.1-2.7-0.1-4,0.3c-1.9,0.9-3.7,0.6-5.6-0.1c-0.3-0.1-0.7-0.3-1-0.1c-0.1,0-0.4,0.4-0.4,0.7
		c0.1,0.3,0.3,0.6,0.6,0.7c0.9,0.3,1.7,0.6,2.6,0.7c0.1,0.1,0.3,0.1,0.3,0.1c-0.9,1-1.4,2.2-2.4,2.9c-0.6,0.6-1.6,0.9-2.4,1
		c-1.4,0.3-3-0.1-4.4-0.9c-1.7-0.7-3.6-1.6-5.2-2.9c-1.1-0.9-1.3-1.1-0.9-2.4c0.7-2.3,2-4,3.6-5.7c1.1-1.3,2.3-2.6,3.9-3.4
		c1.1-0.6,2.4-1.1,3.9-1.1c2.7-0.1,5.2-1,7.2-2.9c0.7-0.7,1.3-1.6,2.4-1.6c0.6-0.1,1.1-0.1,1.7-0.1c0.7,0,1.4,0,2.2-0.1
		c0.6-0.1,1-0.7,1.3-1.1c0.1-0.1,0.1-0.7-0.1-0.9c-0.1-0.4-0.7-0.4-1-0.1c-0.6,0.7-1.3,0.7-2,0.7c-1,0-1.9,0-2.9,0.3
		c-0.6,0-1,0.4-1.6,0.9c-0.3,0.1-0.4,0.1-0.7-0.1c-0.4-0.6-1-1.1-1.3-1.7c-0.3-1.4,0-2.7,1-3.9c0.7-0.7,1.6-1.4,2.3-2.2
		c0.4-0.3,0.7-0.7,0.3-1.1c-0.4-0.4-0.9-0.3-1.3,0.1c-0.7,0.6-1.4,1-2.2,1.6c-0.9,0.9-1.4,1.9-1.6,3.2c-0.3,1.3-0.4,2.6,0.4,3.7
		c0.3,0.6,0.9,1.1,1.4,1.9c-1.1,0.9-2.3,1.6-3.9,1.7c-2.6,0.1-5,0.7-7.3,2.3c-0.1,0.1-0.4,0.3-0.6,0.4c-0.3,0-0.4,0.1-0.6,0.3h-0.1
		c0.1-1.1,0.1-2.3,0.4-3.3c0.3-1.3,0.9-2.3,1.1-3.4c0.3-1,0.4-2.2,0.6-3.2c0.1-1.1,0.9-1.7,1.9-1.9c1.3-0.3,2.4-0.7,3.4-1.7
		c1.3-1.1,1.9-2.7,2.3-4.3c0-0.3,0.1-0.6,0-0.7c0-0.3-0.3-0.7-0.6-0.9c-0.3-0.1-0.7,0-0.9,0.4c-0.1,0.6-0.3,1.1-0.4,1.6
		c-0.6,2.2-1.9,3.6-4.2,4c-1.6,1-3.2,0.1-4.7,0c-1.7-0.3-2.9,0.4-4,1.4c-0.6,0.4-0.9,0.9-1.3,1.3c-0.3,0.6-0.3,1.1,0.1,1.3
		c0.4,0.4,0.9,0.3,1.1-0.3c0.6-0.9,1.3-1.9,2.4-2c0.9-0.1,1.9,0,2.7,0c0.1,0,0.4,0.1,0.6,0.1c-0.1,1.3-0.3,2.6-0.6,3.7
		c-0.1,0.6-0.3,1.1-0.6,1.7c-0.7,1.6-1,3.3-1,5c0,0.7,0,1.4,0,2.3c0,0.1-0.1,0.3-0.1,0.4c-1.9,2.3-3.3,3.7-4.4,6.9
		c-0.4,0-0.9,0.1-1.1,0.1c-2.3,0.3-4.3-0.1-6.2-1.4c-1.6-1-2.7-2.6-3.3-4.4c-0.3-0.9-0.3-1.9-0.4-3c1.1,0.1,2.2,0.3,3.2,0.6
		c0.7,0.1,1,0.9,1.1,1.6c0.3,0.6,0.4,1,1,0.9c0.6-0.1,0.7-0.9,0.6-1.4c-0.7-1.9-2.2-3-4.2-2.9c-1.7,0-2.7-0.9-3.4-2.7
		c-0.4-1.1-0.3-2.2,0-3.3c0.4-1.6,1-2.9,2.2-4c0.1,0.7,0.3,1.3,0.6,2c0.4,1.6,1.9,2.2,3.3,2.4c1,0.3,1.7,0.7,1.9,1.9
		c0.4,1.7,3,3.6,4.9,3.4c0.7-0.1,1.1-0.6,1-1c0-0.4-0.4-0.6-1.1-0.6c-0.7-0.1-1.4-0.4-2-0.9c-0.7-0.4-1-1-1.3-1.9
		c-0.3-1.4-1.4-2.2-2.9-2.4c-1.1-0.3-2.3-0.7-2.4-2.2c-0.1-1.1-0.4-2.4,0.6-3.4c0.9-1,1.4-2,2.3-3c1.3-1.6,3-2.3,4.7-2.9
		c1.6-0.6,3.3-0.9,5-0.7c0.1,0,0.3,0,0.4,0c0.1,1.1,0.1,2.2,0.4,3.2c0,0.4,0.3,0.9,0.9,0.7c0.6,0,0.9-0.4,0.7-1.1
		c-0.1-0.7-0.4-1.4-0.3-2.2c0-1,0.7-1.7,1.6-2.3c1.1-0.9,2.7-1.3,4.2-1.4c1.6-0.3,3.2-0.3,4.9-0.4c1.4-0.1,2.7-0.1,4.2-0.1
		c2,0.1,4,0.4,5.6,1.7c1.6,1.3,2.3,2.7,2,4.7c-0.1,1-0.4,1.9-1.1,2.7c-0.4,0.3-0.4,0.7-0.1,1c0.3,0.4,0.9,0.4,1.1,0.1
		c0.6-0.7,1.1-1.4,1.4-2.2c0.7-2.2,0.4-4.3-0.9-6.2c4.2,0.9,7.9,2.2,10.6,5.6c-0.6,0.1-1,0.3-1.6,0.6c-2.3,0.9-3.6,2.6-3.9,5
		c-0.3,2-0.4,4-1.3,5.9c-0.7,1.4-1.3,2.9-3,3.3c-0.7,0.1-1.4,0.1-2,0.1c-1.3,0-2.6-0.3-3.7,0.6c-0.6,0.4-0.9,1.1-1.3,1.7
		c-0.7,1.1-1.9,1.9-3,2.3c-0.1,0.1-0.4,0-0.7,0c-0.3,0-0.9,0-1,0.1c-0.3,0.3-0.3,0.9,0.1,1.1c0.7,0.6,1.4,0.6,2,0.3
		c1.9-0.7,3.3-1.7,4.3-3.4c0.4-1.1,1.1-1.3,2.3-1.1c2,0.3,4,0.3,5.5-1.3c1.3-1.3,2.2-2.7,2.4-4.4c0.4-1.7,0.6-3.3,0.9-5
		c0.4-2.2,1.6-3.4,3.9-4c1.7-0.6,2.7,0,3.9,1.6c1,1.4,1.6,3,2,4.7c0,0.3,0.1,0.6,0.3,0.6c1.7,0.6,2.7,1.9,3.3,3.3
		C-35.1,40-34.9,42.4-35.1,45z"/>
</g>
<g>
	<g>
		<g>
			<path class="st6" d="M166.2,34.9c-0.8-1.9-1.9-3.2-3.3-4c-0.5-1.7-1.2-3.2-2.1-4.5c-0.4-0.7-1.6-2.3-3.7-2.7l0.1-0.5
				c-2.9-3.9-7.2-5.2-11.2-6.1l-0.7,0.9c-0.1-0.3-0.4-0.4-0.5-0.5c-2.4-1.9-5.1-2.1-6.8-2.3c-1.3,0-2.8,0-4,0.1h-0.3
				c-1.5,0.1-2.9,0.3-4.7,0.4c-1.5,0.3-3.3,0.7-5.1,1.9c-0.4,0.3-0.8,0.7-1.3,1.2l-0.1-0.1h-0.1c-2-0.1-3.9,0.1-5.9,0.8
				c-1.9,0.7-3.9,1.6-5.5,3.5c-0.4,0.4-0.8,0.9-1.1,1.3c-0.4,0.5-0.8,0.9-1.1,1.5c-0.8,0.8-1.1,1.6-1.2,2.5l-0.9-0.3
				c-1.6,1.6-2.3,3.3-2.7,4.8c-0.5,1.6-0.5,3.3,0,4.8c0.5,1.2,1.1,2.1,1.7,2.8l-0.3,0.3c0,0.4,0.1,0.7,0.1,0.9
				c0,0.8,0.1,1.5,0.4,2.4c0.5,2.3,2,4.1,4,5.6c2.1,1.5,4.5,2,7.3,1.7c0.3,0.8,0.8,1.5,1.6,2c1.7,1.5,3.7,2.4,5.5,3.2
				c1.6,0.7,2.9,1.1,4.4,1.1c0.4,0,0.8-0.1,1.2-0.1c0.3,0,0.5-0.1,0.8-0.1c0.5,0.7,1.3,1.1,2,1.3c2.4,1.1,5.2,1.7,8.3,2.1
				c0.4,0,0.8,0.1,1.3,0.1c0.7,0,1.5-0.1,2.1-0.4c1.2,0.5,2.4,0.8,3.6,0.8h0.4c2,0,4-0.4,5.9-1.2c1.9-0.8,4.5-2,6.5-4.7
				c1.1-1.5,1.7-3.2,2-5.1c1.2-0.7,2-1.6,2.4-2.3c1.2-1.5,1.5-3.3,0.9-5.1l1.1-0.3C167.6,40.4,167.6,37.6,166.2,34.9z M141.4,58.1
				c-2.5-0.3-5.2-0.9-7.5-2c-1.7-0.7-1.1-0.7-0.4-1.9c0.4-0.8,0.9-2,1.7-2.5c0.9-0.5,1.7-0.1,2.8-0.3c0.8-0.1,1.7-0.9,2.5-0.7
				c0,1.9,0.8,3.5,1.5,5.2c0.3,0.3,0.4,0.7,0.7,0.9c0.4,0.3,1.1,0.5,1.2,0.9C143.1,58.3,142.3,58.3,141.4,58.1z M158.9,53.9
				c-1.5,1.9-3.3,2.9-5.3,3.7c-1.7,0.7-3.3,1.1-5.1,1.1c-1.6,0.1-2.8-0.5-4-1.5c-1.6-1.5-2.4-3.2-2.7-5.3c0-0.4-0.1-0.8-0.3-1.2
				c1.7,0.3,3.3-0.1,4.9-0.8c0.8-0.3,1.6-0.5,2.3-0.9c1.3-0.7,2.7-0.7,3.9-0.4c2.3,0.3,4.5,0.8,6.7,1.3h1.2
				C160.4,51.3,159.8,52.7,158.9,53.9z M164.8,42.6c-1.2-1.6-2.7-2.4-4.5-2.5c0.3-2-0.7-3.5-2.1-4.7c-0.3-0.1-0.5-0.4-0.8-0.5
				c-0.4-0.3-0.8-0.1-0.9,0.3c-0.1,0.3,0,0.7,0.1,0.9c0.4,0.4,0.9,0.8,1.3,1.2c0.7,0.7,1.1,1.3,0.9,2.4c0,0.3-0.1,0.5-0.5,0.7
				c-0.3,0-0.7,0.1-0.9,0.3c-0.4,0.1-0.7,0.4-0.4,0.9c0.1,0.4,0.4,0.5,0.9,0.4c1.2-0.4,2.4-0.5,3.6-0.1c0.9,0.4,1.7,0.9,2.1,1.7
				c0.5,1.1,0.5,2-0.3,2.9c-0.8,1.1-1.6,2-3.2,1.9c-3.1-0.3-5.9-1.3-8-3.6c-0.7-0.8-0.8-1.7-0.4-2.7c0-0.1,0.1-0.4,0.1-0.5
				c0.1-0.4,0.1-0.8-0.4-0.9c-0.4-0.1-0.7,0-0.9,0.4c-1.1,1.9-0.4,4.3,1.3,5.5c0.1,0,0.1,0.1,0.3,0.1c-1.3,0.3-2.5,0.5-3.7,0.8
				c-1.1,0.4-2,0.9-2.9,1.3c-1.3,0.4-2.7,0.4-4.1,0.3c-1.2-0.1-2.5-0.1-3.7,0.3c-1.7,0.8-3.5,0.5-5.2-0.1c-0.3-0.1-0.7-0.3-0.9-0.1
				c-0.1,0-0.4,0.4-0.4,0.7c0.1,0.3,0.3,0.5,0.5,0.7c0.8,0.3,1.6,0.5,2.4,0.7c0.1,0.1,0.3,0.1,0.3,0.1c-0.8,0.9-1.3,2-2.3,2.7
				c-0.5,0.5-1.5,0.8-2.3,0.9c-1.3,0.3-2.8-0.1-4.1-0.8c-1.6-0.7-3.3-1.5-4.8-2.7c-1.1-0.8-1.2-1.1-0.8-2.3c0.7-2.1,1.9-3.7,3.3-5.3
				c1.1-1.2,2.1-2.4,3.6-3.2c1.1-0.5,2.3-1.1,3.6-1.1c2.5-0.1,4.8-0.9,6.7-2.7c0.7-0.7,1.2-1.5,2.3-1.5c0.5-0.1,1.1-0.1,1.6-0.1
				c0.7,0,1.3,0,2-0.1c0.5-0.1,0.9-0.7,1.2-1.1c0.1-0.1,0.1-0.7-0.1-0.8c-0.1-0.4-0.7-0.4-0.9-0.1c-0.5,0.7-1.2,0.7-1.9,0.7
				c-0.9,0-1.7,0-2.7,0.3c-0.5,0-0.9,0.4-1.5,0.8c-0.3,0.1-0.4,0.1-0.7-0.1c-0.4-0.5-0.9-1.1-1.2-1.6c-0.3-1.3,0-2.5,0.9-3.6
				c0.7-0.7,1.5-1.3,2.1-2c0.4-0.3,0.7-0.7,0.3-1.1c-0.4-0.4-0.8-0.3-1.2,0.1c-0.7,0.5-1.3,0.9-2,1.5c-0.8,0.8-1.3,1.7-1.5,2.9
				c-0.3,1.2-0.4,2.4,0.4,3.5c0.3,0.5,0.8,1.1,1.3,1.7c-1.1,0.8-2.1,1.5-3.6,1.6c-2.4,0.1-4.7,0.7-6.8,2.1c-0.1,0.1-0.4,0.3-0.5,0.4
				c-0.3,0-0.4,0.1-0.5,0.3H124c0.1-1.1,0.1-2.1,0.4-3.1c0.3-1.2,0.8-2.1,1.1-3.2c0.3-0.9,0.4-2,0.5-2.9c0.1-1.1,0.8-1.6,1.7-1.7
				c1.2-0.3,2.3-0.7,3.2-1.6c1.2-1.1,1.7-2.5,2.1-4c0-0.3,0.1-0.5,0-0.7c0-0.3-0.3-0.7-0.5-0.8c-0.3-0.1-0.7,0-0.8,0.4
				c-0.1,0.5-0.3,1.1-0.4,1.5c-0.5,2-1.7,3.3-3.9,3.7c-1.5,0.9-2.9,0.1-4.4,0c-1.6-0.3-2.7,0.4-3.7,1.3c-0.5,0.4-0.8,0.8-1.2,1.2
				c-0.3,0.5-0.3,1.1,0.1,1.2c0.4,0.4,0.8,0.3,1.1-0.3c0.5-0.8,1.2-1.7,2.3-1.9c0.8-0.1,1.7,0,2.5,0c0.1,0,0.4,0.1,0.5,0.1
				c-0.1,1.2-0.3,2.4-0.5,3.5c-0.1,0.5-0.3,1.1-0.5,1.6c-0.7,1.5-0.9,3.1-0.9,4.7v2.1c0,0.1-0.1,0.3-0.1,0.4
				c-1.7,2.1-3.1,3.5-4.1,6.4c-0.4,0-0.8,0.1-1.1,0.1c-2.1,0.3-4-0.1-5.7-1.3c-1.5-0.9-2.5-2.4-3.1-4.1c-0.3-0.8-0.3-1.7-0.4-2.8
				c1.1,0.1,2,0.3,2.9,0.5c0.7,0.1,0.9,0.8,1.1,1.5c0.3,0.5,0.4,0.9,0.9,0.8c0.5-0.1,0.7-0.8,0.5-1.3c-0.7-1.7-2-2.8-3.9-2.7
				c-1.6,0-2.5-0.8-3.2-2.5c-0.4-1.1-0.3-2,0-3.1c0.4-1.5,0.9-2.7,2-3.7c0.1,0.7,0.3,1.2,0.5,1.9c0.4,1.5,1.7,2,3.1,2.3
				c0.9,0.3,1.6,0.7,1.7,1.7c0.4,1.6,2.8,3.3,4.5,3.2c0.7-0.1,1.1-0.5,0.9-0.9c0-0.4-0.4-0.5-1.1-0.5c-0.7-0.1-1.3-0.4-1.9-0.8
				c-0.7-0.4-0.9-0.9-1.2-1.7c-0.3-1.3-1.3-2-2.7-2.3c-1.1-0.3-2.1-0.7-2.3-2c-0.1-1.1-0.4-2.3,0.5-3.2c0.8-0.9,1.3-1.9,2.1-2.8
				c1.2-1.5,2.8-2.1,4.4-2.7c1.5-0.5,3.1-0.8,4.7-0.7h0.4c0.1,1.1,0.1,2,0.4,2.9c0,0.4,0.3,0.8,0.8,0.7c0.5,0,0.8-0.4,0.7-1.1
				c-0.1-0.7-0.4-1.3-0.3-2c0-0.9,0.7-1.6,1.5-2.1c1.1-0.8,2.5-1.2,3.9-1.3c1.5-0.3,2.9-0.3,4.5-0.4c1.3-0.1,2.5-0.1,3.9-0.1
				c1.9,0.1,3.7,0.4,5.2,1.6c1.5,1.2,2.1,2.5,1.9,4.4c-0.1,0.9-0.4,1.7-1.1,2.5c-0.4,0.3-0.4,0.7-0.1,0.9c0.3,0.4,0.8,0.4,1.1,0.1
				c0.5-0.7,1.1-1.3,1.3-2c0.7-2,0.4-4-0.8-5.7c3.9,0.8,7.3,2,9.9,5.2c-0.5,0.1-0.9,0.3-1.5,0.5c-2.1,0.8-3.3,2.4-3.6,4.7
				c-0.3,1.9-0.4,3.7-1.2,5.5c-0.7,1.3-1.2,2.7-2.8,3.1c-0.7,0.1-1.3,0.1-1.9,0.1c-1.2,0-2.4-0.3-3.5,0.5c-0.5,0.4-0.8,1.1-1.2,1.6
				c-0.7,1.1-1.7,1.7-2.8,2.1c-0.1,0.1-0.4,0-0.7,0c-0.3,0-0.8,0-0.9,0.1c-0.3,0.3-0.3,0.8,0.1,1.1c0.7,0.5,1.3,0.5,1.9,0.3
				c1.7-0.7,3.1-1.6,4-3.2c0.4-1.1,1.1-1.2,2.1-1.1c1.9,0.3,3.7,0.3,5.1-1.2c1.2-1.2,2-2.5,2.3-4.1c0.4-1.6,0.5-3.1,0.8-4.7
				c0.4-2,1.5-3.2,3.6-3.7c1.6-0.5,2.5,0,3.6,1.5c0.9,1.3,1.5,2.8,1.9,4.4c0,0.3,0.1,0.5,0.3,0.5c1.6,0.5,2.5,1.7,3.1,3.1
				C164.8,38,164.9,40.2,164.8,42.6z"/>
		</g>
	</g>
</g>
<g>
	<g id="Group_503" transform="translate(63.26 82.362)">
		<path id="Path_1509" class="st5" d="M-58.4-66.8c-2.8,1.9-4.6,5-4.8,8.4v28.7c0.2,3.4,2,6.5,4.8,8.4L-33.5-7c3,1.5,6.6,1.5,9.7,0
			L1-21.4c2.8-1.9,4.6-5,4.8-8.4v-28.7c-0.2-3.4-2-6.5-4.8-8.4l-24.9-14.4c-3-1.5-6.6-1.5-9.7,0L-58.4-66.8z"/>
	</g>
	<g>
		<path class="st7" d="M63.4,35.3c-0.8-1.7-1.8-3-3.1-3.7c-0.5-1.6-1.1-3-2-4.2c-0.4-0.6-1.5-2.1-3.5-2.5l0.1-0.5
			c-2.8-3.6-6.8-4.8-10.5-5.7l-0.6,0.9c-0.1-0.2-0.4-0.4-0.5-0.5c-2.3-1.7-4.8-2-6.4-2.1c-1.3,0-2.6,0-3.8,0.1h-0.3
			c-1.4,0.1-2.8,0.2-4.4,0.4c-1.4,0.2-3.1,0.6-4.8,1.7c-0.4,0.2-0.8,0.6-1.3,1.1l-0.1-0.1h-0.1c-1.9-0.1-3.6,0.1-5.5,0.7
			c-1.8,0.6-3.6,1.5-5.1,3.2c-0.4,0.4-0.8,0.9-1,1.2c-0.4,0.5-0.8,0.9-1,1.4c-0.8,0.7-1,1.5-1.1,2.4l-0.9-0.2
			c-1.5,1.5-2.1,3.1-2.5,4.5c-0.5,1.5-0.5,3.1,0,4.5c0.5,1.1,1,2,1.6,2.6l-0.3,0.2c0,0.4,0.1,0.6,0.1,0.9c0,0.7,0.1,1.4,0.4,2.2
			c0.5,2.1,1.9,3.9,3.8,5.2c2,1.4,4.3,1.9,6.9,1.6c0.3,0.7,0.8,1.4,1.5,1.9c1.6,1.4,3.5,2.2,5.1,3c1.5,0.6,2.8,1,4.1,1
			c0.4,0,0.8-0.1,1.1-0.1c0.3,0,0.5-0.1,0.8-0.1c0.5,0.6,1.3,1,1.9,1.2c2.3,1,4.9,1.6,7.8,2c0.4,0,0.8,0.1,1.3,0.1
			c0.6,0,1.4-0.1,2-0.4c1.1,0.5,2.3,0.7,3.4,0.7c0.1,0,0.3,0,0.4,0c1.9,0,3.8-0.4,5.5-1.1c1.8-0.7,4.3-1.9,6.1-4.3
			c1-1.4,1.6-3,1.9-4.7c1.1-0.6,1.9-1.5,2.3-2.1c1.1-1.4,1.4-3.1,0.9-4.7l1-0.2C64.6,40.4,64.6,37.8,63.4,35.3z"/>
		<path class="st5" d="M62,42.5c-1.1-1.5-2.5-2.2-4.3-2.4c0.3-1.9-0.6-3.2-2-4.3c-0.3-0.1-0.5-0.4-0.8-0.5c-0.4-0.2-0.8-0.1-0.9,0.2
			c-0.1,0.2,0,0.6,0.1,0.9c0.4,0.4,0.9,0.7,1.3,1.1c0.6,0.6,1,1.2,0.9,2.2c0,0.2-0.1,0.5-0.5,0.6c-0.3,0-0.6,0.1-0.9,0.2
			c-0.4,0.1-0.6,0.4-0.4,0.9c0.1,0.4,0.4,0.5,0.9,0.4c1.1-0.4,2.3-0.5,3.4-0.1c0.9,0.4,1.6,0.9,2,1.6c0.5,1,0.5,1.9-0.3,2.7
			c-0.8,1-1.5,1.9-3,1.7c-2.9-0.2-5.5-1.2-7.5-3.4c-0.6-0.7-0.8-1.6-0.4-2.5c0-0.1,0.1-0.4,0.1-0.5c0.1-0.4,0.1-0.7-0.4-0.9
			c-0.4-0.1-0.6,0-0.9,0.4c-1,1.7-0.4,4,1.3,5.1c0.1,0,0.1,0.1,0.3,0.1c-1.3,0.2-2.4,0.5-3.5,0.7c-1,0.4-1.9,0.9-2.8,1.2
			c-1.3,0.4-2.5,0.4-3.9,0.2c-1.1-0.1-2.4-0.1-3.5,0.2c-1.6,0.7-3.3,0.5-4.9-0.1c-0.3-0.1-0.6-0.2-0.9-0.1c-0.1,0-0.4,0.4-0.4,0.6
			c0.1,0.2,0.3,0.5,0.5,0.6c0.8,0.2,1.5,0.5,2.3,0.6c0.1,0.1,0.3,0.1,0.3,0.1c-0.8,0.9-1.3,1.9-2.1,2.5c-0.5,0.5-1.4,0.7-2.1,0.9
			c-1.3,0.2-2.6-0.1-3.9-0.7c-1.5-0.6-3.1-1.4-4.5-2.5c-1-0.7-1.1-1-0.8-2.1c0.6-2,1.8-3.5,3.1-5c1-1.1,2-2.2,3.4-3
			c1-0.5,2.1-1,3.4-1c2.4-0.1,4.5-0.9,6.3-2.5c0.6-0.6,1.1-1.4,2.1-1.4c0.5-0.1,1-0.1,1.5-0.1c0.6,0,1.3,0,1.9-0.1
			c0.5-0.1,0.9-0.6,1.1-1c0.1-0.1,0.1-0.6-0.1-0.7c-0.1-0.4-0.6-0.4-0.9-0.1c-0.5,0.6-1.1,0.6-1.8,0.6c-0.9,0-1.6,0-2.5,0.2
			c-0.5,0-0.9,0.4-1.4,0.7c-0.3,0.1-0.4,0.1-0.6-0.1c-0.4-0.5-0.9-1-1.1-1.5c-0.3-1.2,0-2.4,0.9-3.4c0.6-0.6,1.4-1.2,2-1.9
			c0.4-0.2,0.6-0.6,0.3-1c-0.4-0.4-0.8-0.2-1.1,0.1c-0.6,0.5-1.3,0.9-1.9,1.4c-0.8,0.7-1.3,1.6-1.4,2.7c-0.3,1.1-0.4,2.2,0.4,3.2
			c0.3,0.5,0.8,1,1.3,1.6c-1,0.7-2,1.4-3.4,1.5c-2.3,0.1-4.4,0.6-6.4,2c-0.1,0.1-0.4,0.2-0.5,0.4c-0.3,0-0.4,0.1-0.5,0.2h-0.1
			c0.1-1,0.1-2,0.4-2.9c0.3-1.1,0.8-2,1-3c0.3-0.9,0.4-1.9,0.5-2.7c0.1-1,0.8-1.5,1.6-1.6c1.1-0.2,2.1-0.6,3-1.5
			c1.1-1,1.6-2.4,2-3.7c0-0.2,0.1-0.5,0-0.6c0-0.2-0.3-0.6-0.5-0.7c-0.3-0.1-0.6,0-0.8,0.4c-0.1,0.5-0.3,1-0.4,1.4
			C30.2,27.4,29,28.6,27,29c-1.4,0.9-2.8,0.1-4.1,0c-1.5-0.2-2.5,0.4-3.5,1.2c-0.5,0.4-0.8,0.7-1.1,1.1c-0.3,0.5-0.3,1,0.1,1.1
			c0.4,0.4,0.8,0.2,1-0.2c0.5-0.7,1.1-1.6,2.1-1.7c0.8-0.1,1.6,0,2.4,0c0.1,0,0.4,0.1,0.5,0.1c-0.1,1.1-0.3,2.2-0.5,3.2
			c-0.1,0.5-0.3,1-0.5,1.5c-0.6,1.4-0.9,2.9-0.9,4.3c0,0.6,0,1.2,0,2c0,0.1-0.1,0.2-0.1,0.4c-1.6,2-2.9,3.2-3.9,6
			c-0.4,0-0.8,0.1-1,0.1c-2,0.2-3.8-0.1-5.4-1.2C10.7,46,9.7,44.6,9.2,43C9,42.3,9,41.4,8.8,40.4c1,0.1,1.9,0.2,2.8,0.5
			c0.6,0.1,0.9,0.7,1,1.4c0.3,0.5,0.4,0.9,0.9,0.7c0.5-0.1,0.6-0.7,0.5-1.2c-0.6-1.6-1.9-2.6-3.6-2.5c-1.5,0-2.4-0.7-3-2.4
			c-0.4-1-0.3-1.9,0-2.9c0.4-1.4,0.9-2.5,1.9-3.5c0.1,0.6,0.3,1.1,0.5,1.7c0.4,1.4,1.6,1.9,2.9,2.1c0.9,0.2,1.5,0.6,1.6,1.6
			c0.4,1.5,2.6,3.1,4.3,3c0.6-0.1,1-0.5,0.9-0.9c0-0.4-0.4-0.5-1-0.5c-0.6-0.1-1.3-0.4-1.8-0.7c-0.6-0.4-0.9-0.9-1.1-1.6
			c-0.3-1.2-1.3-1.9-2.5-2.1c-1-0.2-2-0.6-2.1-1.9c-0.1-1-0.4-2.1,0.5-3c0.8-0.9,1.3-1.7,2-2.6c1.1-1.4,2.6-2,4.1-2.5
			c1.4-0.5,2.9-0.7,4.4-0.6c0.1,0,0.3,0,0.4,0c0.1,1,0.1,1.9,0.4,2.7c0,0.4,0.3,0.7,0.8,0.6c0.5,0,0.8-0.4,0.6-1
			c-0.1-0.6-0.4-1.2-0.3-1.9c0-0.9,0.6-1.5,1.4-2c1-0.7,2.4-1.1,3.6-1.2c1.4-0.2,2.8-0.2,4.3-0.4c1.3-0.1,2.4-0.1,3.6-0.1
			c1.8,0.1,3.5,0.4,4.9,1.5c1.4,1.1,2,2.4,1.8,4.1c-0.1,0.9-0.4,1.6-1,2.4c-0.4,0.2-0.4,0.6-0.1,0.9c0.3,0.4,0.8,0.4,1,0.1
			c0.5-0.6,1-1.2,1.3-1.9c0.6-1.9,0.4-3.7-0.8-5.3c3.6,0.7,6.9,1.9,9.3,4.8c-0.5,0.1-0.9,0.2-1.4,0.5c-2,0.7-3.1,2.2-3.4,4.3
			c-0.3,1.7-0.4,3.5-1.1,5.1c-0.6,1.2-1.1,2.5-2.6,2.9c-0.6,0.1-1.3,0.1-1.8,0.1c-1.1,0-2.3-0.2-3.3,0.5c-0.5,0.4-0.8,1-1.1,1.5
			c-0.6,1-1.6,1.6-2.6,2c-0.1,0.1-0.4,0-0.6,0c-0.3,0-0.8,0-0.9,0.1c-0.3,0.2-0.3,0.7,0.1,1c0.6,0.5,1.3,0.5,1.8,0.2
			c1.6-0.6,2.9-1.5,3.8-3c0.4-1,1-1.1,2-1c1.8,0.2,3.5,0.2,4.8-1.1c1.1-1.1,1.9-2.4,2.1-3.9c0.4-1.5,0.5-2.9,0.8-4.3
			c0.4-1.9,1.4-3,3.4-3.5c1.5-0.5,2.4,0,3.4,1.4c0.9,1.2,1.4,2.6,1.8,4.1c0,0.2,0.1,0.5,0.3,0.5c1.5,0.5,2.4,1.6,2.9,2.9
			C62,38.2,62.1,40.3,62,42.5z"/>
		<path class="st5" d="M40.2,50c1.6,0.2,3.1-0.1,4.6-0.7c0.8-0.2,1.5-0.5,2.1-0.9c1.3-0.6,2.5-0.6,3.6-0.4c2.1,0.2,4.3,0.7,6.3,1.2
			c0.4,0,0.8,0,1.1,0c-0.1,1.4-0.6,2.6-1.5,3.7c-1.4,1.7-3.1,2.7-5,3.5c-1.6,0.6-3.1,1-4.8,1c-1.5,0.1-2.6-0.5-3.8-1.4
			c-1.5-1.4-2.3-3-2.5-5C40.4,50.7,40.3,50.4,40.2,50z"/>
		<path class="st5" d="M34.3,51c0.9-0.5,1.6-0.1,2.6-0.2c0.8-0.1,1.6-0.9,2.4-0.6c0,1.7,0.8,3.2,1.4,4.8c0.3,0.2,0.4,0.6,0.6,0.9
			c0.4,0.2,1,0.5,1.1,0.9c-0.8,0.4-1.5,0.4-2.4,0.2c-2.4-0.2-4.9-0.9-7-1.9c-1.6-0.6-1-0.6-0.4-1.7C33,52.6,33.5,51.5,34.3,51z"/>
	</g>
</g>
<g>
</g>
<g>
</g>
<g>
</g>
<g>
</g>
<g>
</g>
<g>
</g>
<g>
</g>
<g>
</g>
<g>
</g>
<g>
</g>
<g>
</g>
<g>
</g>
<g>
</g>
<g>
</g>
<g>
</g>
</svg>
