<?xml version="1.0" encoding="utf-8"?>
<!-- Generator: Adobe Illustrator 26.3.1, SVG Export Plug-In . SVG Version: 6.00 Build 0)  -->
<svg version="1.1" id="Layer_1" xmlns="http://www.w3.org/2000/svg" xmlns:xlink="http://www.w3.org/1999/xlink" x="0px" y="0px"
	 viewBox="0 0 63.9 46.2" style="enable-background:new 0 0 63.9 46.2;" xml:space="preserve">
<style type="text/css">
	.st0{fill:#123457;}
	.st1{display:none;}
	.st2{display:inline;}
	.st3{fill:none;stroke:#FFFFFF;stroke-width:2;stroke-miterlimit:10;}
	.st4{display:inline;fill:none;stroke:#FFFFFF;stroke-width:2;stroke-miterlimit:10;}
	.st5{fill:#FFFFFF;}
	.st6{fill:#123557;}
	.st7{fill:#0062B8;}
</style>
<g>
	<g>
		<path id="Polygon_88_00000116206777653450988870000006612154428331284885_" class="st0" d="M-129.6,43.1c0,2.1-1.1,4.1-3,5.2
			l-34.5,20c-1.9,1.1-4.2,1.1-6,0l-34.5-20c-1.8-1.1-3-3.1-3-5.2V3.1c0-2.1,1.1-4.1,3-5.2l34.5-20c1.9-1.1,4.2-1.1,6,0l34.5,20
			c1.8,1.1,3,3.1,3,5.2V43.1z"/>
		<g class="st1">
			<g class="st2">
				<circle class="st3" cx="-170.1" cy="-3.2" r="9.4"/>
			</g>
			<path class="st4" d="M-171.1,9.6h-8.4c0,0-13.8,3-14,17.9v16.4c0,0,0.1,3.8,2.7,5h1.9c0,0,3,0.4,3.1-5l-0.1-16.2
				c0,0,1.1-6.6,3.6-7v27.4h24.3V20c0,0,2.3,0.4,3.9,6.8v18.3c0,0,0.4,2.9,2.5,3.7h2.4c0,0,2.4-0.2,2.7-3.5V26.6c0,0-1.1-13-14-17
				H-171.1z"/>
			<g class="st2">
				<path class="st5" d="M-170.6,10.3v3.1c0,0,0.1,1.8-1.5,1.7c0,0-0.4-3.3-1.9-4.1c-0.4-0.3-1-0.1-1.4,0.3c-0.4,0.4-1,1.1-1.5,2
					l-3.6,9.5c0,0-0.9,3.2,1.6,3.1c0,0,4.7,0.6,6.8-1.9c0.2-0.2,0.2-0.4,0.3-0.6l0.7-6.8h0.6V26v0.6h0.7v2.3c0,0-3,3.7-4.6,4
					c-1.6,0.3-2.8,0.5-3.4,2.3c-0.6,1.8-0.2,0.3-0.2,0.3s-0.2,2.3,1.8,3.2h12.8c0,0,1.2,0.7,0,1.3h-14.1c0,0-2.3,1.8-0.2,4.1h13.8
					c0,0,1.3,0.5,0,1.2h-6.9c0,0-1.1,0.9-1,1.9h1.2l0.1-0.7l6.8,0.1c0,0,1.6,0.1,2.2-1.3c0,0,0.6-2.5-2.4-2.4l-13.1-0.2
					c0,0-0.3-0.5-0.1-1.2h14.2c0,0,1.7,0,1.8-1.6c0.1-1.6-1.1-2.4-1.7-2.4l-12.9,0.1c0,0-1.5-1-0.5-2.6l1.1-0.1c0,0,1,1.7,2.7,1.8
					h2.5c0,0,3.5-0.6,4.5-4.3c0,0,1.3-4.2-3.1-6l-0.1-0.6l-0.6-0.1l-0.1-9.1l0.6,0.1v6.4c0,0.4,0.1,0.9,0.4,1.2
					c0.6,0.7,1.8,1.6,4.1,1.7c0,0,1.4,0.4,3-0.1c0,0,2.4-0.6,0.8-3.5l-4.2-10.5c0,0-2-3.4-3.4,1.5l-0.1,1.2h-1.3l0.1-4.4H-170.6z"/>
			</g>
		</g>
	</g>
	<path class="st5" d="M-138.7,29.9c-1.3-1.7-2.9-2.6-4.9-2.7c0.3-2.2-0.7-3.7-2.3-5c-0.3-0.1-0.6-0.4-0.9-0.6
		c-0.4-0.3-0.9-0.1-1,0.3c-0.1,0.3,0,0.7,0.1,1c0.4,0.4,1,0.9,1.4,1.3c0.7,0.7,1.1,1.4,1,2.6c0,0.3-0.1,0.6-0.6,0.7
		c-0.3,0-0.7,0.1-1,0.3c-0.4,0.1-0.7,0.4-0.4,1c0.1,0.4,0.4,0.6,1,0.4c1.3-0.4,2.6-0.6,3.9-0.1c1,0.4,1.9,1,2.3,1.9
		c0.6,1.1,0.6,2.2-0.3,3.2c-0.9,1.1-1.7,2.2-3.4,2c-3.3-0.3-6.3-1.4-8.6-3.9c-0.7-0.9-0.9-1.9-0.4-2.9c0-0.1,0.1-0.4,0.1-0.6
		c0.1-0.4,0.1-0.9-0.4-1c-0.4-0.1-0.7,0-1,0.4c-1.1,2-0.4,4.6,1.4,5.9c0.1,0,0.1,0.1,0.3,0.1c-1.4,0.3-2.7,0.6-4,0.9
		c-1.1,0.4-2.2,1-3.2,1.4c-1.4,0.4-2.9,0.4-4.4,0.3c-1.3-0.1-2.7-0.1-4,0.3c-1.9,0.9-3.7,0.6-5.6-0.1c-0.3-0.1-0.7-0.3-1-0.1
		c-0.1,0-0.4,0.4-0.4,0.7c0.1,0.3,0.3,0.6,0.6,0.7c0.9,0.3,1.7,0.6,2.6,0.7c0.1,0.1,0.3,0.1,0.3,0.1c-0.9,1-1.4,2.2-2.4,2.9
		c-0.6,0.6-1.6,0.9-2.4,1c-1.4,0.3-3-0.1-4.4-0.9c-1.7-0.7-3.6-1.6-5.2-2.9c-1.1-0.9-1.3-1.1-0.9-2.4c0.7-2.3,2-4,3.6-5.7
		c1.1-1.3,2.3-2.6,3.9-3.4c1.1-0.6,2.4-1.1,3.9-1.1c2.7-0.1,5.2-1,7.2-2.9c0.7-0.7,1.3-1.6,2.4-1.6c0.6-0.1,1.1-0.1,1.7-0.1
		c0.7,0,1.4,0,2.2-0.1c0.6-0.1,1-0.7,1.3-1.1c0.1-0.1,0.1-0.7-0.1-0.9c-0.1-0.4-0.7-0.4-1-0.1c-0.6,0.7-1.3,0.7-2,0.7
		c-1,0-1.9,0-2.9,0.3c-0.6,0-1,0.4-1.6,0.9c-0.3,0.1-0.4,0.1-0.7-0.1c-0.4-0.6-1-1.1-1.3-1.7c-0.3-1.4,0-2.7,1-3.9
		c0.7-0.7,1.6-1.4,2.3-2.2c0.4-0.3,0.7-0.7,0.3-1.1c-0.4-0.4-0.9-0.3-1.3,0.1c-0.7,0.6-1.4,1-2.2,1.6c-0.9,0.9-1.4,1.9-1.6,3.2
		c-0.3,1.3-0.4,2.6,0.4,3.7c0.3,0.6,0.9,1.1,1.4,1.9c-1.1,0.9-2.3,1.6-3.9,1.7c-2.6,0.1-5,0.7-7.3,2.3c-0.1,0.1-0.4,0.3-0.6,0.4
		c-0.3,0-0.4,0.1-0.6,0.3h-0.1c0.1-1.1,0.1-2.3,0.4-3.3c0.3-1.3,0.9-2.3,1.1-3.4c0.3-1,0.4-2.2,0.6-3.2c0.1-1.1,0.9-1.7,1.9-1.9
		c1.3-0.3,2.4-0.7,3.4-1.7c1.3-1.1,1.9-2.7,2.3-4.3c0-0.3,0.1-0.6,0-0.7c0-0.3-0.3-0.7-0.6-0.9c-0.3-0.1-0.7,0-0.9,0.4
		c-0.1,0.6-0.3,1.1-0.4,1.6c-0.6,2.2-1.9,3.6-4.2,4c-1.6,1-3.2,0.1-4.7,0c-1.7-0.3-2.9,0.4-4,1.4c-0.6,0.4-0.9,0.9-1.3,1.3
		c-0.3,0.6-0.3,1.1,0.1,1.3c0.4,0.4,0.9,0.3,1.1-0.3c0.6-0.9,1.3-1.9,2.4-2c0.9-0.1,1.9,0,2.7,0c0.1,0,0.4,0.1,0.6,0.1
		c-0.1,1.3-0.3,2.6-0.6,3.7c-0.1,0.6-0.3,1.1-0.6,1.7c-0.7,1.6-1,3.3-1,5c0,0.7,0,1.4,0,2.3c0,0.1-0.1,0.3-0.1,0.4
		c-1.9,2.3-3.3,3.7-4.4,6.9c-0.4,0-0.9,0.1-1.1,0.1c-2.3,0.3-4.3-0.1-6.2-1.4c-1.6-1-2.7-2.6-3.3-4.4c-0.3-0.9-0.3-1.9-0.4-3
		c1.1,0.1,2.2,0.3,3.2,0.6c0.7,0.1,1,0.9,1.1,1.6c0.3,0.6,0.4,1,1,0.9c0.6-0.1,0.7-0.9,0.6-1.4c-0.7-1.9-2.2-3-4.2-2.9
		c-1.7,0-2.7-0.9-3.4-2.7c-0.4-1.1-0.3-2.2,0-3.3c0.4-1.6,1-2.9,2.2-4c0.1,0.7,0.3,1.3,0.6,2c0.4,1.6,1.9,2.2,3.3,2.4
		c1,0.3,1.7,0.7,1.9,1.9c0.4,1.7,3,3.6,4.9,3.4c0.7-0.1,1.1-0.6,1-1c0-0.4-0.4-0.6-1.1-0.6c-0.7-0.1-1.4-0.4-2-0.9
		c-0.7-0.4-1-1-1.3-1.9c-0.3-1.4-1.4-2.2-2.9-2.4c-1.1-0.3-2.3-0.7-2.4-2.2c-0.1-1.1-0.4-2.4,0.6-3.4c0.9-1,1.4-2,2.3-3
		c1.3-1.6,3-2.3,4.7-2.9c1.6-0.6,3.3-0.9,5-0.7c0.1,0,0.3,0,0.4,0c0.1,1.1,0.1,2.2,0.4,3.2c0,0.4,0.3,0.9,0.9,0.7
		c0.6,0,0.9-0.4,0.7-1.1c-0.1-0.7-0.4-1.4-0.3-2.2c0-1,0.7-1.7,1.6-2.3c1.1-0.9,2.7-1.3,4.2-1.4c1.6-0.3,3.2-0.3,4.9-0.4
		c1.4-0.1,2.7-0.1,4.2-0.1c2,0.1,4,0.4,5.6,1.7c1.6,1.3,2.3,2.7,2,4.7c-0.1,1-0.4,1.9-1.1,2.7c-0.4,0.3-0.4,0.7-0.1,1
		c0.3,0.4,0.9,0.4,1.1,0.1c0.6-0.7,1.1-1.4,1.4-2.2c0.7-2.2,0.4-4.3-0.9-6.2c4.2,0.9,7.9,2.2,10.6,5.6c-0.6,0.1-1,0.3-1.6,0.6
		c-2.3,0.9-3.6,2.6-3.9,5c-0.3,2-0.4,4-1.3,5.9c-0.7,1.4-1.3,2.9-3,3.3c-0.7,0.1-1.4,0.1-2,0.1c-1.3,0-2.6-0.3-3.7,0.6
		c-0.6,0.4-0.9,1.1-1.3,1.7c-0.7,1.1-1.9,1.9-3,2.3c-0.1,0.1-0.4,0-0.7,0c-0.3,0-0.9,0-1,0.1c-0.3,0.3-0.3,0.9,0.1,1.1
		c0.7,0.6,1.4,0.6,2,0.3c1.9-0.7,3.3-1.7,4.3-3.4c0.4-1.1,1.1-1.3,2.3-1.1c2,0.3,4,0.3,5.5-1.3c1.3-1.3,2.2-2.7,2.4-4.4
		c0.4-1.7,0.6-3.3,0.9-5c0.4-2.2,1.6-3.4,3.9-4c1.7-0.6,2.7,0,3.9,1.6c1,1.4,1.6,3,2,4.7c0,0.3,0.1,0.6,0.3,0.6
		c1.7,0.6,2.7,1.9,3.3,3.3C-138.7,24.9-138.5,27.3-138.7,29.9z"/>
</g>
<g>
	<g>
		<path id="Polygon_88_00000070091411082156699990000002010420446393597101_" class="st5" d="M-28.6,43.1c0,2.1-1.1,4.1-3,5.2
			l-34.5,20c-1.9,1.1-4.2,1.1-6,0l-34.5-20c-1.8-1.1-3-3.1-3-5.2V3.1c0-2.1,1.1-4.1,3-5.2l34.5-20c1.9-1.1,4.2-1.1,6,0l34.5,20
			c1.8,1.1,3,3.1,3,5.2V43.1z"/>
		<g class="st1">
			<g class="st2">
				<circle class="st3" cx="-69.1" cy="-3.2" r="9.4"/>
			</g>
			<path class="st4" d="M-70.1,9.6h-8.4c0,0-13.8,3-14,17.9v16.4c0,0,0.1,3.8,2.7,5h1.9c0,0,3,0.4,3.1-5l-0.1-16.2
				c0,0,1.1-6.6,3.6-7v27.4H-57V20c0,0,2.3,0.4,3.9,6.8v18.3c0,0,0.4,2.9,2.5,3.7h2.4c0,0,2.4-0.2,2.7-3.5V26.6c0,0-1.1-13-14-17
				H-70.1z"/>
			<g class="st2">
				<path class="st5" d="M-69.6,10.3v3.1c0,0,0.1,1.8-1.5,1.7c0,0-0.4-3.3-1.9-4.1c-0.4-0.3-1-0.1-1.4,0.3c-0.4,0.4-1,1.1-1.5,2
					l-3.6,9.5c0,0-0.9,3.2,1.6,3.1c0,0,4.7,0.6,6.8-1.9c0.2-0.2,0.2-0.4,0.3-0.6l0.7-6.8h0.6V26v0.6h0.7v2.3c0,0-3,3.7-4.6,4
					c-1.6,0.3-2.8,0.5-3.4,2.3s-0.2,0.3-0.2,0.3s-0.2,2.3,1.8,3.2h12.8c0,0,1.2,0.7,0,1.3h-14.1c0,0-2.3,1.8-0.2,4.1h13.8
					c0,0,1.3,0.5,0,1.2h-6.9c0,0-1.1,0.9-1,1.9h1.2l0.1-0.7l6.8,0.1c0,0,1.6,0.1,2.2-1.3c0,0,0.6-2.5-2.4-2.4l-13.1-0.2
					c0,0-0.3-0.5-0.1-1.2h14.2c0,0,1.7,0,1.8-1.6c0.1-1.6-1.1-2.4-1.7-2.4l-12.9,0.1c0,0-1.5-1-0.5-2.6L-74,35c0,0,1,1.7,2.7,1.8
					h2.5c0,0,3.5-0.6,4.5-4.3c0,0,1.3-4.2-3.1-6l-0.1-0.6l-0.6-0.1l-0.1-9.1l0.6,0.1v6.4c0,0.4,0.1,0.9,0.4,1.2
					c0.6,0.7,1.8,1.6,4.1,1.7c0,0,1.4,0.4,3-0.1c0,0,2.4-0.6,0.8-3.5L-63.3,12c0,0-2-3.4-3.4,1.5l-0.1,1.2h-1.3l0.1-4.4H-69.6z"/>
			</g>
		</g>
	</g>
	<g>
		<path class="st6" d="M-38.3,22.3c-0.8-1.9-1.9-3.2-3.3-4c-0.5-1.7-1.2-3.2-2.1-4.5c-0.4-0.7-1.6-2.3-3.7-2.7l0.1-0.5
			c-2.9-3.9-7.2-5.2-11.2-6.1l-0.7,0.9c-0.1-0.3-0.4-0.4-0.5-0.5c-2.4-1.9-5.1-2.1-6.8-2.3c-1.3,0-2.8,0-4,0.1h-0.3
			c-1.5,0.1-2.9,0.3-4.7,0.4c-1.5,0.3-3.3,0.7-5.1,1.9C-81,5.2-81.4,5.6-82,6.1L-82.1,6h-0.1c-2-0.1-3.9,0.1-5.9,0.8
			c-1.9,0.7-3.9,1.6-5.5,3.5c-0.4,0.4-0.8,0.9-1.1,1.3c-0.4,0.5-0.8,0.9-1.1,1.5c-0.8,0.8-1.1,1.6-1.2,2.5l-0.9-0.3
			c-1.6,1.6-2.3,3.3-2.7,4.8c-0.5,1.6-0.5,3.3,0,4.8c0.5,1.2,1.1,2.1,1.7,2.8l-0.3,0.3c0,0.4,0.1,0.7,0.1,0.9c0,0.8,0.1,1.5,0.4,2.4
			c0.5,2.3,2,4.1,4,5.6c2.1,1.5,4.5,2,7.3,1.7c0.3,0.8,0.8,1.5,1.6,2c1.7,1.5,3.7,2.4,5.5,3.2c1.6,0.7,2.9,1.1,4.4,1.1
			c0.4,0,0.8-0.1,1.2-0.1c0.3,0,0.5-0.1,0.8-0.1c0.5,0.7,1.3,1.1,2,1.3c2.4,1.1,5.2,1.7,8.3,2.1c0.4,0,0.8,0.1,1.3,0.1
			c0.7,0,1.5-0.1,2.1-0.4c1.2,0.5,2.4,0.8,3.6,0.8c0.1,0,0.3,0,0.4,0c2,0,4-0.4,5.9-1.2c1.9-0.8,4.5-2,6.5-4.7
			c1.1-1.5,1.7-3.2,2-5.1c1.2-0.7,2-1.6,2.4-2.3c1.2-1.5,1.5-3.3,0.9-5.1l1.1-0.3C-37,27.8-37,25-38.3,22.3z"/>
		<path class="st5" d="M-39.8,30c-1.2-1.6-2.7-2.4-4.5-2.5c0.3-2-0.7-3.5-2.1-4.7c-0.3-0.1-0.5-0.4-0.8-0.5
			c-0.4-0.3-0.8-0.1-0.9,0.3c-0.1,0.3,0,0.7,0.1,0.9c0.4,0.4,0.9,0.8,1.3,1.2c0.7,0.7,1.1,1.3,0.9,2.4c0,0.3-0.1,0.5-0.5,0.7
			c-0.3,0-0.7,0.1-0.9,0.3c-0.4,0.1-0.7,0.4-0.4,0.9c0.1,0.4,0.4,0.5,0.9,0.4c1.2-0.4,2.4-0.5,3.6-0.1c0.9,0.4,1.7,0.9,2.1,1.7
			c0.5,1.1,0.5,2-0.3,2.9c-0.8,1.1-1.6,2-3.2,1.9c-3.1-0.3-5.9-1.3-8-3.6c-0.7-0.8-0.8-1.7-0.4-2.7c0-0.1,0.1-0.4,0.1-0.5
			c0.1-0.4,0.1-0.8-0.4-0.9c-0.4-0.1-0.7,0-0.9,0.4c-1.1,1.9-0.4,4.3,1.3,5.5c0.1,0,0.1,0.1,0.3,0.1c-1.3,0.3-2.5,0.5-3.7,0.8
			c-1.1,0.4-2,0.9-2.9,1.3c-1.3,0.4-2.7,0.4-4.1,0.3c-1.2-0.1-2.5-0.1-3.7,0.3c-1.7,0.8-3.5,0.5-5.2-0.1c-0.3-0.1-0.7-0.3-0.9-0.1
			c-0.1,0-0.4,0.4-0.4,0.7c0.1,0.3,0.3,0.5,0.5,0.7c0.8,0.3,1.6,0.5,2.4,0.7c0.1,0.1,0.3,0.1,0.3,0.1c-0.8,0.9-1.3,2-2.3,2.7
			c-0.5,0.5-1.5,0.8-2.3,0.9c-1.3,0.3-2.8-0.1-4.1-0.8c-1.6-0.7-3.3-1.5-4.8-2.7c-1.1-0.8-1.2-1.1-0.8-2.3c0.7-2.1,1.9-3.7,3.3-5.3
			c1.1-1.2,2.1-2.4,3.6-3.2c1.1-0.5,2.3-1.1,3.6-1.1c2.5-0.1,4.8-0.9,6.7-2.7c0.7-0.7,1.2-1.5,2.3-1.5c0.5-0.1,1.1-0.1,1.6-0.1
			c0.7,0,1.3,0,2-0.1c0.5-0.1,0.9-0.7,1.2-1.1c0.1-0.1,0.1-0.7-0.1-0.8c-0.1-0.4-0.7-0.4-0.9-0.1c-0.5,0.7-1.2,0.7-1.9,0.7
			c-0.9,0-1.7,0-2.7,0.3c-0.5,0-0.9,0.4-1.5,0.8c-0.3,0.1-0.4,0.1-0.7-0.1c-0.4-0.5-0.9-1.1-1.2-1.6c-0.3-1.3,0-2.5,0.9-3.6
			c0.7-0.7,1.5-1.3,2.1-2c0.4-0.3,0.7-0.7,0.3-1.1c-0.4-0.4-0.8-0.3-1.2,0.1c-0.7,0.5-1.3,0.9-2,1.5c-0.8,0.8-1.3,1.7-1.5,2.9
			c-0.3,1.2-0.4,2.4,0.4,3.5c0.3,0.5,0.8,1.1,1.3,1.7c-1.1,0.8-2.1,1.5-3.6,1.6c-2.4,0.1-4.7,0.7-6.8,2.1c-0.1,0.1-0.4,0.3-0.5,0.4
			c-0.3,0-0.4,0.1-0.5,0.3h-0.1c0.1-1.1,0.1-2.1,0.4-3.1c0.3-1.2,0.8-2.1,1.1-3.2c0.3-0.9,0.4-2,0.5-2.9c0.1-1.1,0.8-1.6,1.7-1.7
			c1.2-0.3,2.3-0.7,3.2-1.6c1.2-1.1,1.7-2.5,2.1-4c0-0.3,0.1-0.5,0-0.7c0-0.3-0.3-0.7-0.5-0.8c-0.3-0.1-0.7,0-0.8,0.4
			c-0.1,0.5-0.3,1.1-0.4,1.5c-0.5,2-1.7,3.3-3.9,3.7c-1.5,0.9-2.9,0.1-4.4,0c-1.6-0.3-2.7,0.4-3.7,1.3c-0.5,0.4-0.8,0.8-1.2,1.2
			c-0.3,0.5-0.3,1.1,0.1,1.2c0.4,0.4,0.8,0.3,1.1-0.3c0.5-0.8,1.2-1.7,2.3-1.9c0.8-0.1,1.7,0,2.5,0c0.1,0,0.4,0.1,0.5,0.1
			c-0.1,1.2-0.3,2.4-0.5,3.5c-0.1,0.5-0.3,1.1-0.5,1.6c-0.7,1.5-0.9,3.1-0.9,4.7c0,0.7,0,1.3,0,2.1c0,0.1-0.1,0.3-0.1,0.4
			c-1.7,2.1-3.1,3.5-4.1,6.4c-0.4,0-0.8,0.1-1.1,0.1c-2.1,0.3-4-0.1-5.7-1.3c-1.5-0.9-2.5-2.4-3.1-4.1c-0.3-0.8-0.3-1.7-0.4-2.8
			c1.1,0.1,2,0.3,2.9,0.5c0.7,0.1,0.9,0.8,1.1,1.5c0.3,0.5,0.4,0.9,0.9,0.8c0.5-0.1,0.7-0.8,0.5-1.3c-0.7-1.7-2-2.8-3.9-2.7
			c-1.6,0-2.5-0.8-3.2-2.5c-0.4-1.1-0.3-2,0-3.1c0.4-1.5,0.9-2.7,2-3.7c0.1,0.7,0.3,1.2,0.5,1.9c0.4,1.5,1.7,2,3.1,2.3
			c0.9,0.3,1.6,0.7,1.7,1.7c0.4,1.6,2.8,3.3,4.5,3.2c0.7-0.1,1.1-0.5,0.9-0.9c0-0.4-0.4-0.5-1.1-0.5c-0.7-0.1-1.3-0.4-1.9-0.8
			c-0.7-0.4-0.9-0.9-1.2-1.7c-0.3-1.3-1.3-2-2.7-2.3c-1.1-0.3-2.1-0.7-2.3-2c-0.1-1.1-0.4-2.3,0.5-3.2c0.8-0.9,1.3-1.9,2.1-2.8
			c1.2-1.5,2.8-2.1,4.4-2.7c1.5-0.5,3.1-0.8,4.7-0.7c0.1,0,0.3,0,0.4,0c0.1,1.1,0.1,2,0.4,2.9c0,0.4,0.3,0.8,0.8,0.7
			c0.5,0,0.8-0.4,0.7-1.1c-0.1-0.7-0.4-1.3-0.3-2c0-0.9,0.7-1.6,1.5-2.1c1.1-0.8,2.5-1.2,3.9-1.3c1.5-0.3,2.9-0.3,4.5-0.4
			c1.3-0.1,2.5-0.1,3.9-0.1c1.9,0.1,3.7,0.4,5.2,1.6c1.5,1.2,2.1,2.5,1.9,4.4c-0.1,0.9-0.4,1.7-1.1,2.5c-0.4,0.3-0.4,0.7-0.1,0.9
			c0.3,0.4,0.8,0.4,1.1,0.1c0.5-0.7,1.1-1.3,1.3-2c0.7-2,0.4-4-0.8-5.7c3.9,0.8,7.3,2,9.9,5.2c-0.5,0.1-0.9,0.3-1.5,0.5
			c-2.1,0.8-3.3,2.4-3.6,4.7c-0.3,1.9-0.4,3.7-1.2,5.5c-0.7,1.3-1.2,2.7-2.8,3.1c-0.7,0.1-1.3,0.1-1.9,0.1c-1.2,0-2.4-0.3-3.5,0.5
			c-0.5,0.4-0.8,1.1-1.2,1.6c-0.7,1.1-1.7,1.7-2.8,2.1c-0.1,0.1-0.4,0-0.7,0c-0.3,0-0.8,0-0.9,0.1c-0.3,0.3-0.3,0.8,0.1,1.1
			c0.7,0.5,1.3,0.5,1.9,0.3c1.7-0.7,3.1-1.6,4-3.2c0.4-1.1,1.1-1.2,2.1-1.1c1.9,0.3,3.7,0.3,5.1-1.2c1.2-1.2,2-2.5,2.3-4.1
			c0.4-1.6,0.5-3.1,0.8-4.7c0.4-2,1.5-3.2,3.6-3.7c1.6-0.5,2.5,0,3.6,1.5c0.9,1.3,1.5,2.8,1.9,4.4c0,0.3,0.1,0.5,0.3,0.5
			c1.6,0.5,2.5,1.7,3.1,3.1C-39.8,25.4-39.6,27.6-39.8,30z"/>
		<path class="st5" d="M-63,38c1.7,0.3,3.3-0.1,4.9-0.8c0.8-0.3,1.6-0.5,2.3-0.9c1.3-0.7,2.7-0.7,3.9-0.4c2.3,0.3,4.5,0.8,6.7,1.3
			c0.4,0,0.8,0,1.2,0c-0.1,1.5-0.7,2.8-1.6,4c-1.5,1.9-3.3,2.9-5.3,3.7c-1.7,0.7-3.3,1.1-5.1,1.1c-1.6,0.1-2.8-0.5-4-1.5
			c-1.6-1.5-2.4-3.2-2.7-5.3C-62.7,38.8-62.9,38.4-63,38z"/>
		<path class="st5" d="M-69.3,39.1c0.9-0.5,1.7-0.1,2.8-0.3c0.8-0.1,1.7-0.9,2.5-0.7c0,1.9,0.8,3.5,1.5,5.2c0.3,0.3,0.4,0.7,0.7,0.9
			c0.4,0.3,1.1,0.5,1.2,0.9c-0.8,0.4-1.6,0.4-2.5,0.3c-2.5-0.3-5.2-0.9-7.5-2c-1.7-0.7-1.1-0.7-0.4-1.9
			C-70.6,40.8-70.1,39.6-69.3,39.1z"/>
	</g>
</g>
<g>
	<g>
		<g>
			<path class="st7" d="M62.6,19.8c-0.8-1.9-1.9-3.2-3.3-4c-0.5-1.7-1.2-3.2-2.1-4.5c-0.4-0.7-1.6-2.3-3.7-2.7L53.5,8
				c-2.9-3.9-7.2-5.2-11.2-6.1l-0.7,0.9c-0.1-0.3-0.4-0.4-0.5-0.5c-2.4-1.9-5.1-2.1-6.8-2.3c-1.3,0-2.8,0-4,0.1H30
				c-1.5,0.1-2.9,0.3-4.7,0.4c-1.5,0.3-3.3,0.7-5.1,1.9c-0.4,0.3-0.8,0.7-1.3,1.2l-0.1-0.1h-0.1c-2-0.1-3.9,0.1-5.9,0.8
				c-1.9,0.7-3.9,1.6-5.5,3.5C6.9,8.2,6.5,8.7,6.3,9.1C5.9,9.6,5.5,10,5.2,10.5c-0.8,0.8-1.1,1.6-1.2,2.5l-0.9-0.3
				c-1.6,1.6-2.3,3.3-2.7,4.8c-0.5,1.6-0.5,3.3,0,4.8c0.5,1.2,1.1,2.1,1.7,2.8l-0.3,0.3c0,0.4,0.1,0.7,0.1,0.9
				c0,0.8,0.1,1.5,0.4,2.4c0.5,2.3,2,4.1,4,5.6c2.1,1.5,4.5,2,7.3,1.7c0.3,0.8,0.8,1.5,1.6,2c1.7,1.5,3.7,2.4,5.5,3.2
				c1.6,0.7,2.9,1.1,4.4,1.1c0.4,0,0.8-0.1,1.2-0.1c0.3,0,0.5-0.1,0.8-0.1c0.5,0.7,1.3,1.1,2,1.3c2.4,1.1,5.2,1.7,8.3,2.1
				c0.4,0,0.8,0.1,1.3,0.1c0.7,0,1.5-0.1,2.1-0.4c1.2,0.5,2.4,0.8,3.6,0.8H45c2,0,4-0.4,5.9-1.2c1.9-0.8,4.5-2,6.5-4.7
				c1.1-1.5,1.7-3.2,2-5.1c1.2-0.7,2-1.6,2.4-2.3c1.2-1.5,1.5-3.3,0.9-5.1l1.1-0.3C64,25.2,64,22.4,62.6,19.8z M37.8,43
				c-2.5-0.3-5.2-0.9-7.5-2c-1.7-0.7-1.1-0.7-0.4-1.9c0.4-0.8,0.9-2,1.7-2.5c0.9-0.5,1.7-0.1,2.8-0.3c0.8-0.1,1.7-0.9,2.5-0.7
				c0,1.9,0.8,3.5,1.5,5.2c0.3,0.3,0.4,0.7,0.7,0.9c0.4,0.3,1.1,0.5,1.2,0.9C39.5,43.1,38.7,43.1,37.8,43z M55.3,38.7
				c-1.5,1.9-3.3,2.9-5.3,3.7c-1.7,0.7-3.3,1.1-5.1,1.1c-1.6,0.1-2.8-0.5-4-1.5c-1.6-1.5-2.4-3.2-2.7-5.3c0-0.4-0.1-0.8-0.3-1.2
				c1.7,0.3,3.3-0.1,4.9-0.8c0.8-0.3,1.6-0.5,2.3-0.9c1.3-0.7,2.7-0.7,3.9-0.4c2.3,0.3,4.5,0.8,6.7,1.3h1.2
				C56.8,36.2,56.2,37.5,55.3,38.7z M61.2,27.5c-1.2-1.6-2.7-2.4-4.5-2.5c0.3-2-0.7-3.5-2.1-4.7c-0.3-0.1-0.5-0.4-0.8-0.5
				c-0.4-0.3-0.8-0.1-0.9,0.3c-0.1,0.3,0,0.7,0.1,0.9c0.4,0.4,0.9,0.8,1.3,1.2c0.7,0.7,1.1,1.3,0.9,2.4c0,0.3-0.1,0.5-0.5,0.7
				c-0.3,0-0.7,0.1-0.9,0.3c-0.4,0.1-0.7,0.4-0.4,0.9c0.1,0.4,0.4,0.5,0.9,0.4c1.2-0.4,2.4-0.5,3.6-0.1c0.9,0.4,1.7,0.9,2.1,1.7
				c0.5,1.1,0.5,2-0.3,2.9c-0.8,1.1-1.6,2-3.2,1.9c-3.1-0.3-5.9-1.3-8-3.6c-0.7-0.8-0.8-1.7-0.4-2.7c0-0.1,0.1-0.4,0.1-0.5
				c0.1-0.4,0.1-0.8-0.4-0.9c-0.4-0.1-0.7,0-0.9,0.4c-1.1,1.9-0.4,4.3,1.3,5.5c0.1,0,0.1,0.1,0.3,0.1c-1.3,0.3-2.5,0.5-3.7,0.8
				c-1.1,0.4-2,0.9-2.9,1.3c-1.3,0.4-2.7,0.4-4.1,0.3c-1.2-0.1-2.5-0.1-3.7,0.3c-1.7,0.8-3.5,0.5-5.2-0.1c-0.3-0.1-0.7-0.3-0.9-0.1
				c-0.1,0-0.4,0.4-0.4,0.7c0.1,0.3,0.3,0.5,0.5,0.7c0.8,0.3,1.6,0.5,2.4,0.7c0.1,0.1,0.3,0.1,0.3,0.1c-0.8,0.9-1.3,2-2.3,2.7
				c-0.5,0.5-1.5,0.8-2.3,0.9c-1.3,0.3-2.8-0.1-4.1-0.8c-1.6-0.7-3.3-1.5-4.8-2.7c-1.1-0.8-1.2-1.1-0.8-2.3c0.7-2.1,1.9-3.7,3.3-5.3
				c1.1-1.2,2.1-2.4,3.6-3.2c1.1-0.5,2.3-1.1,3.6-1.1c2.5-0.1,4.8-0.9,6.7-2.7c0.7-0.7,1.2-1.5,2.3-1.5c0.5-0.1,1.1-0.1,1.6-0.1
				c0.7,0,1.3,0,2-0.1c0.5-0.1,0.9-0.7,1.2-1.1c0.1-0.1,0.1-0.7-0.1-0.8c-0.1-0.4-0.7-0.4-0.9-0.1c-0.5,0.7-1.2,0.7-1.9,0.7
				c-0.9,0-1.7,0-2.7,0.3c-0.5,0-0.9,0.4-1.5,0.8c-0.3,0.1-0.4,0.1-0.7-0.1c-0.4-0.5-0.9-1.1-1.2-1.6c-0.3-1.3,0-2.5,0.9-3.6
				c0.7-0.7,1.5-1.3,2.1-2c0.4-0.3,0.7-0.7,0.3-1.1c-0.4-0.4-0.8-0.3-1.2,0.1c-0.7,0.5-1.3,0.9-2,1.5c-0.8,0.8-1.3,1.7-1.5,2.9
				c-0.3,1.2-0.4,2.4,0.4,3.5c0.3,0.5,0.8,1.1,1.3,1.7c-1.1,0.8-2.1,1.5-3.6,1.6c-2.4,0.1-4.7,0.7-6.8,2.1c-0.1,0.1-0.4,0.3-0.5,0.4
				c-0.3,0-0.4,0.1-0.5,0.3h-0.1c0.1-1.1,0.1-2.1,0.4-3.1c0.3-1.2,0.8-2.1,1.1-3.2c0.3-0.9,0.4-2,0.5-2.9c0.1-1.1,0.8-1.6,1.7-1.7
				c1.2-0.3,2.3-0.7,3.2-1.6c1.2-1.1,1.7-2.5,2.1-4c0-0.3,0.1-0.5,0-0.7c0-0.3-0.3-0.7-0.5-0.8c-0.3-0.1-0.7,0-0.8,0.4
				c-0.1,0.5-0.3,1.1-0.4,1.5c-0.5,2-1.7,3.3-3.9,3.7c-1.5,0.9-2.9,0.1-4.4,0c-1.6-0.3-2.7,0.4-3.7,1.3c-0.5,0.4-0.8,0.8-1.2,1.2
				c-0.3,0.5-0.3,1.1,0.1,1.2c0.4,0.4,0.8,0.3,1.1-0.3c0.5-0.8,1.2-1.7,2.3-1.9c0.8-0.1,1.7,0,2.5,0c0.1,0,0.4,0.1,0.5,0.1
				c-0.1,1.2-0.3,2.4-0.5,3.5c-0.1,0.5-0.3,1.1-0.5,1.6c-0.7,1.5-0.9,3.1-0.9,4.7v2.1c0,0.1-0.1,0.3-0.1,0.4
				c-1.7,2.1-3.1,3.5-4.1,6.4c-0.4,0-0.8,0.1-1.1,0.1c-2.1,0.3-4-0.1-5.7-1.3c-1.5-0.9-2.5-2.4-3.1-4.1c-0.3-0.8-0.3-1.7-0.4-2.8
				c1.1,0.1,2,0.3,2.9,0.5c0.7,0.1,0.9,0.8,1.1,1.5c0.3,0.5,0.4,0.9,0.9,0.8c0.5-0.1,0.7-0.8,0.5-1.3C9.3,25,8,23.9,6.1,24
				c-1.6,0-2.5-0.8-3.2-2.5c-0.4-1.1-0.3-2,0-3.1c0.4-1.5,0.9-2.7,2-3.7c0.1,0.7,0.3,1.2,0.5,1.9c0.4,1.5,1.7,2,3.1,2.3
				c0.9,0.3,1.6,0.7,1.7,1.7c0.4,1.6,2.8,3.3,4.5,3.2c0.7-0.1,1.1-0.5,0.9-0.9c0-0.4-0.4-0.5-1.1-0.5c-0.7-0.1-1.3-0.4-1.9-0.8
				c-0.7-0.4-0.9-0.9-1.2-1.7c-0.3-1.3-1.3-2-2.7-2.3c-1.1-0.3-2.1-0.7-2.3-2c-0.1-1.1-0.4-2.3,0.5-3.2c0.8-0.9,1.3-1.9,2.1-2.8
				c1.2-1.5,2.8-2.1,4.4-2.7c1.5-0.5,3.1-0.8,4.7-0.7h0.4c0.1,1.1,0.1,2,0.4,2.9c0,0.4,0.3,0.8,0.8,0.7c0.5,0,0.8-0.4,0.7-1.1
				c-0.1-0.7-0.4-1.3-0.3-2c0-0.9,0.7-1.6,1.5-2.1c1.1-0.8,2.5-1.2,3.9-1.3c1.5-0.3,2.9-0.3,4.5-0.4c1.3-0.1,2.5-0.1,3.9-0.1
				c1.9,0.1,3.7,0.4,5.2,1.6c1.5,1.2,2.1,2.5,1.9,4.4c-0.1,0.9-0.4,1.7-1.1,2.5c-0.4,0.3-0.4,0.7-0.1,0.9c0.3,0.4,0.8,0.4,1.1,0.1
				c0.5-0.7,1.1-1.3,1.3-2c0.7-2,0.4-4-0.8-5.7c3.9,0.8,7.3,2,9.9,5.2c-0.5,0.1-0.9,0.3-1.5,0.5c-2.1,0.8-3.3,2.4-3.6,4.7
				c-0.3,1.9-0.4,3.7-1.2,5.5c-0.7,1.3-1.2,2.7-2.8,3.1c-0.7,0.1-1.3,0.1-1.9,0.1c-1.2,0-2.4-0.3-3.5,0.5c-0.5,0.4-0.8,1.1-1.2,1.6
				c-0.7,1.1-1.7,1.7-2.8,2.1c-0.1,0.1-0.4,0-0.7,0c-0.3,0-0.8,0-0.9,0.1c-0.3,0.3-0.3,0.8,0.1,1.1c0.7,0.5,1.3,0.5,1.9,0.3
				c1.7-0.7,3.1-1.6,4-3.2c0.4-1.1,1.1-1.2,2.1-1.1c1.9,0.3,3.7,0.3,5.1-1.2c1.2-1.2,2-2.5,2.3-4.1c0.4-1.6,0.5-3.1,0.8-4.7
				c0.4-2,1.5-3.2,3.6-3.7c1.6-0.5,2.5,0,3.6,1.5c0.9,1.3,1.5,2.8,1.9,4.4c0,0.3,0.1,0.5,0.3,0.5c1.6,0.5,2.5,1.7,3.1,3.1
				C61.2,22.8,61.3,25.1,61.2,27.5z"/>
		</g>
	</g>
</g>
<g>
</g>
<g>
</g>
<g>
</g>
<g>
</g>
<g>
</g>
<g>
</g>
<g>
</g>
<g>
</g>
<g>
</g>
<g>
</g>
<g>
</g>
<g>
</g>
<g>
</g>
<g>
</g>
<g>
</g>
</svg>
