<?xml version="1.0" encoding="UTF-8"?><svg id="Layer_2" xmlns="http://www.w3.org/2000/svg" viewBox="0 0 69.1 76.5"><defs><style>.cls-1{fill:#fff;}.cls-2{fill:#123557;}</style></defs><g id="Layer_1-2"><g id="Group_503"><path id="Path_1509" class="cls-1" d="m64.3,15.5c2.8,1.9,4.6,5,4.8,8.4v28.7c-.2,3.4-2,6.5-4.8,8.4l-24.9,14.4c-3,1.5-6.6,1.5-9.7,0l-24.9-14.4c-2.8-1.9-4.6-5-4.8-8.4v-28.7c.2-3.4,2-6.5,4.8-8.4L29.7,1.1c3-1.5,6.6-1.5,9.7,0l24.9,14.4Z"/></g><path class="cls-2" d="m49.7,12.3l2.4,2.4-1,1.6c-.1.1-.2.2-.2.4-.2.2-.5.5-.5.7-.2.7-.2,1.4,0,2.2.1.8.4,1.6.5,2.3.1,0,.2,0,.2.1,1.1.2,2.2.5,3.2.5s.8-.1,1.3-.4c.1-.1.4-.2.5-.4l1.7-1.2,6.7,6.6-2,1.7c-1,.8-1.9,1.4-3,2-1.9.7-4.1,1.2-6.2,1,.2,1.7,0,3.2-.5,4.8-1,3.4-3.4,6-6.7,7.1-1.7.6-3.5.8-5.3.7,0,1.3-.1,2.8-.4,4-.7,3.7-3.4,6.7-6.8,7.9-1.7.7-3.6,1-5.4,1,.1,1,.1,2,0,3.1-.2,1.7-1,3.4-2,4.8-.2.2-.5.5-.6.8l-1.1,1.3-1.2,1.2-1.2-1.2-.7-.8-3-3.1h-.1c0-.1-1.7-1.8-1.7-1.8l1.2-1.6c.2-.2.4-.5.5-.7.2-1.1.1-2.3-.1-3.4l-.4-1.2h-.2c-.5-.2-1-.4-1.4-.4-.7-.2-1.6-.2-2.4-.1-.4.1-.7.2-1,.5l-1.7,1.3-3.7-3.7-2.9-3,2-1.7.2-.2c2.5-1.9,5.8-2.9,8.9-2.9v-.7c0-.5,0-1,.1-1.4.1-1,.2-2,.6-3,1.2-3.8,4.6-6.6,8.6-7.2,1.1-.1,2.2-.2,3.2-.1-.1-1.1-.1-2.2.1-3.2.6-4.2,3.6-7.7,7.7-9,1.6-.5,3.1-.6,4.8-.5,0-1.2,0-2.3.2-3.4.2-1.7,1-3.4,2-4.7.1-.2.4-.5.6-.7l1.8-2.5,4.2,4.3Z"/><path class="cls-1" d="m24.4,39.8c.6-.4,1.3-.6,2-.7.2-.1.6,0,.8.2.2.2.6.5.8.8,1.7,2,3.2,4.2,4.9,6.4q.6.7.1,1.6t-.5,0c-.2-.1-.5-.4-.7-.6-2.2-2.2-4.3-4.4-6.6-6.6-.2-.4-.6-.7-1-1.1Zm12.5-12.5c.4-.2.6-.4.8-.5.2-.1.5-.1.6,0,1.4,1.1,2.9,2.2,4.3,3.2,1.1.8,2.2,1.8,3.2,2.6.5.4.7.8.4,1.4,0,.1,0,.2-.1.4-.1.4-.4.8-.7,1.3-2.9-2.8-5.6-5.6-8.5-8.5Zm-14,15.8c0-.2,0-.5.1-.7.1-.6.4-1.1.6-1.7,0-.1.2-.2.4,0,.1.1.2.1.4.4,2.4,2.3,4.7,4.6,7,6.8.2.2.5.5.7.8q.2.2-.1.5c-.1.1-.4.2-.6.4-.2,0-.4,0-.6-.1-1.6-1.2-3.1-2.4-4.8-3.6-.8-.7-1.8-1.4-2.8-2.2-.1-.1-.4-.2-.2-.6Zm13.4-15.1h.1c2.8,2.8,5.6,5.5,8.4,8.4h-.1c-.1.2-.2.2-.2.2-.7.5-1.6.7-2.4.7s-.5-.1-.6-.2c-1.2-1.6-2.3-3-3.4-4.4-.7-1.1-1.4-2-2.2-3,0-.1-.1-.2-.1-.4.1-.5.2-.8.5-1.3Zm-13,36.7c.4-.4.6-.7.8-1.1.8-1.1,1.4-2.4,1.7-3.7.1-1.3.1-2.6-.2-3.8-.6-2.6-1.3-5.3-1.9-7.9-.2-1.1-.5-2.2-.7-3.2v-.2c2.4,1.7,4.6,3.4,6.8,5.2-1.8,0-3.4-.4-5-.7v.2c.5,1.6.8,3,1.3,4.6.1.4.4.6.7.6,2,.4,4.1.2,6-.5,2.9-1.1,4.7-3.2,5.4-6.2.6-2.4.4-4.8-.5-7.1-.7-2-1.3-4.1-1.7-6.2-.1-1.1-.2-2-.4-3.1v-.4h.1c1.6,2,3.1,4.1,4.7,6.2-1.1-.1-2-.4-3.1-.6v.2c.5,1.3.8,2.6,1.2,4,.1.2.1.5.2.7.1.1.2.4.5.4,2,.1,4.1.1,6.1-.6,2.8-1,4.4-2.9,5.3-5.6.5-1.3.5-2.6.4-4-.1-2.9-1-5.5-1.9-8.2-.4-1.2-.7-2.4-1-3.5-.2-1.1-.2-2.2,0-3.2.1-.6.5-1.2,1-1.8h0c-1.1-1.2-2.2-2.3-3.4-3.4-.1.2-.4.5-.6.8-.7,1.2-1.4,2.4-1.7,3.8-.2,1.2-.2,2.5-.1,3.8.2,2.3,1.1,4.4,1.8,6.6.5,1.4,1,2.9,1.2,4.3,0,.4,0,.6.1,1-2.5-1.9-4.8-3.8-7.3-5.6,1.9-.2,3.6.2,5.3.6-.1-.5-.4-1.1-.5-1.6-.2-1-.6-2-1-3.1-.1-.4-.4-.6-.7-.6-1.8-.1-3.7-.2-5.5.4-3.4,1.2-5.4,3.5-6,7.1-.2,1.6-.1,3.2.2,4.8.5,2.3,1.2,4.6,1.9,6.7.4,1.3.7,2.6.8,4.1v1c-1.9-2.2-3.6-4.4-5.4-6.7h.1c.5,0,1.1.1,1.6.2.6.1,1.1.2,1.8.5-.1-.4-.2-.6-.2-.8-.5-1.3-.8-2.6-1.2-4-.1-.5-.2-.5-.7-.6-1.4,0-2.9-.1-4.3.1-3.4.6-5.6,2.4-6.8,5.6-.2.8-.4,1.6-.4,2.4-.2,2.6.2,5.2,1.1,7.7.5,1.7,1,3.4,1.4,5,.2,1.4.4,2.9,0,4.3-.1.7-.4,1.2-.7,1.8,0,0,.1.1.1.2,1.1,1,2,1.9,3,3,.1,0,.1.1.2.1Z"/><path class="cls-1" d="m61.1,27c-1.1-1.1-2.2-2.3-3.4-3.4-.1.1-.2.1-.4.2-.8.7-1.7.8-2.8,1-1.3,0-2.6-.2-4-.6-.1-.1-.4-.1-.6-.1h-.1c.1.5.4.8.5,1.3.4,1.2.7,2.4,1.1,3.6,0,.1.1.2.1.2,2.4.4,4.8.2,7.1-.7.8-.4,1.7-1,2.4-1.6Z"/><path class="cls-1" d="m11.3,52.8c.6-.5,1.3-.8,2.2-1,1.1-.1,2.2-.1,3.1.1.8.1,1.7.4,2.4.6v-.2c-.5-1.6-.8-3.1-1.3-4.7-.1-.4-.4-.5-.7-.6-3.2-.4-6.2.4-8.8,2.3q-.1.1-.2.1c1.2,1.2,2.3,2.3,3.4,3.4Z"/></g></svg>