<svg id="Hexogen_Pattern-2" data-name="Hexogen Pattern-2" xmlns="http://www.w3.org/2000/svg" xmlns:xlink="http://www.w3.org/1999/xlink" width="316" height="267" viewBox="0 0 316 267">
  <defs>
    <clipPath id="clip-path">
      <path id="Rectangle_1240" data-name="Rectangle 1240" d="M0,0H316a0,0,0,0,1,0,0V252a15,15,0,0,1-15,15H15A15,15,0,0,1,0,252V0A0,0,0,0,1,0,0Z" transform="translate(659.072 17)" fill="#ecf5ff"/>
    </clipPath>
  </defs>
  <g id="Mask_Group_19" data-name="Mask Group 19" transform="translate(-659.072 -17)" opacity="0.42" clip-path="url(#clip-path)">
    <g id="Group_190" data-name="Group 190" transform="translate(-1 -2)" opacity="0.56">
      <path id="Polygon_14" data-name="Polygon 14" d="M39.038,0a5,5,0,0,1,4.325,2.491L54.435,21.582a5,5,0,0,1,0,5.017L43.363,45.69a5,5,0,0,1-4.325,2.491H16.853a5,5,0,0,1-4.325-2.491L1.455,26.6a5,5,0,0,1,0-5.017L12.528,2.491A5,5,0,0,1,16.853,0Z" transform="translate(992.072 128.427) rotate(90)" fill="#c8d2db"/>
      <path id="Polygon_28" data-name="Polygon 28" d="M39.038,0a5,5,0,0,1,4.325,2.491L54.435,21.582a5,5,0,0,1,0,5.017L43.363,45.69a5,5,0,0,1-4.325,2.491H16.853a5,5,0,0,1-4.325-2.491L1.455,26.6a5,5,0,0,1,0-5.017L12.528,2.491A5,5,0,0,1,16.853,0Z" transform="translate(991.072 222.427) rotate(90)" fill="#c8d2db"/>
      <path id="Polygon_24" data-name="Polygon 24" d="M39.038,0a5,5,0,0,1,4.325,2.491L54.435,21.582a5,5,0,0,1,0,5.017L43.363,45.69a5,5,0,0,1-4.325,2.491H16.853a5,5,0,0,1-4.325-2.491L1.455,26.6a5,5,0,0,1,0-5.017L12.528,2.491A5,5,0,0,1,16.853,0Z" transform="translate(912.072 175.427) rotate(90)" fill="#c8d2db"/>
      <path id="Polygon_32" data-name="Polygon 32" d="M39.038,0a5,5,0,0,1,4.325,2.491L54.435,21.582a5,5,0,0,1,0,5.017L43.363,45.69a5,5,0,0,1-4.325,2.491H16.853a5,5,0,0,1-4.325-2.491L1.455,26.6a5,5,0,0,1,0-5.017L12.528,2.491A5,5,0,0,1,16.853,0Z" transform="translate(910.072 269.427) rotate(90)" fill="#c8d2db"/>
      <path id="Polygon_26" data-name="Polygon 26" d="M39.038,0a5,5,0,0,1,4.325,2.491L54.435,21.582a5,5,0,0,1,0,5.017L43.363,45.69a5,5,0,0,1-4.325,2.491H16.853a5,5,0,0,1-4.325-2.491L1.455,26.6a5,5,0,0,1,0-5.017L12.528,2.491A5,5,0,0,1,16.853,0Z" transform="translate(858.072 175.427) rotate(90)" fill="#c8d2db"/>
      <path id="Polygon_31" data-name="Polygon 31" d="M39.038,0a5,5,0,0,1,4.325,2.491L54.435,21.582a5,5,0,0,1,0,5.017L43.363,45.69a5,5,0,0,1-4.325,2.491H16.853a5,5,0,0,1-4.325-2.491L1.455,26.6a5,5,0,0,1,0-5.017L12.528,2.491A5,5,0,0,1,16.853,0Z" transform="translate(856.072 269.427) rotate(90)" fill="#c8d2db"/>
      <path id="Polygon_25" data-name="Polygon 25" d="M39.038,0a5,5,0,0,1,4.325,2.491L54.435,21.582a5,5,0,0,1,0,5.017L43.363,45.69a5,5,0,0,1-4.325,2.491H16.853a5,5,0,0,1-4.325-2.491L1.455,26.6a5,5,0,0,1,0-5.017L12.528,2.491A5,5,0,0,1,16.853,0Z" transform="translate(965.072 175.427) rotate(90)" fill="#c8d2db"/>
      <path id="Polygon_15" data-name="Polygon 15" d="M39.038,0a5,5,0,0,1,4.325,2.491L54.435,21.582a5,5,0,0,1,0,5.017L43.363,45.69a5,5,0,0,1-4.325,2.491H16.853a5,5,0,0,1-4.325-2.491L1.455,26.6a5,5,0,0,1,0-5.017L12.528,2.491A5,5,0,0,1,16.853,0Z" transform="translate(938.072 128.427) rotate(90)" fill="#c8d2db"/>
      <path id="Polygon_27" data-name="Polygon 27" d="M39.038,0a5,5,0,0,1,4.325,2.491L54.435,21.582a5,5,0,0,1,0,5.017L43.363,45.69a5,5,0,0,1-4.325,2.491H16.853a5,5,0,0,1-4.325-2.491L1.455,26.6a5,5,0,0,1,0-5.017L12.528,2.491A5,5,0,0,1,16.853,0Z" transform="translate(937.072 222.427) rotate(90)" fill="#c8d2db"/>
      <path id="Polygon_16" data-name="Polygon 16" d="M39.038,0a5,5,0,0,1,4.325,2.491L54.435,21.582a5,5,0,0,1,0,5.017L43.363,45.69a5,5,0,0,1-4.325,2.491H16.853a5,5,0,0,1-4.325-2.491L1.455,26.6a5,5,0,0,1,0-5.017L12.528,2.491A5,5,0,0,1,16.853,0Z" transform="translate(885.072 128.427) rotate(90)" fill="#c8d2db"/>
      <path id="Polygon_29" data-name="Polygon 29" d="M39.038,0a5,5,0,0,1,4.325,2.491L54.435,21.582a5,5,0,0,1,0,5.017L43.363,45.69a5,5,0,0,1-4.325,2.491H16.853a5,5,0,0,1-4.325-2.491L1.455,26.6a5,5,0,0,1,0-5.017L12.528,2.491A5,5,0,0,1,16.853,0Z" transform="translate(884.072 222.427) rotate(90)" fill="#c8d2db"/>
      <path id="Polygon_17" data-name="Polygon 17" d="M39.038,0a5,5,0,0,1,4.325,2.491L54.435,21.582a5,5,0,0,1,0,5.017L43.363,45.69a5,5,0,0,1-4.325,2.491H16.853a5,5,0,0,1-4.325-2.491L1.455,26.6a5,5,0,0,1,0-5.017L12.528,2.491A5,5,0,0,1,16.853,0Z" transform="translate(831.072 128.427) rotate(90)" fill="#c8d2db"/>
      <path id="Polygon_30" data-name="Polygon 30" d="M39.038,0a5,5,0,0,1,4.325,2.491L54.435,21.582a5,5,0,0,1,0,5.017L43.363,45.69a5,5,0,0,1-4.325,2.491H16.853a5,5,0,0,1-4.325-2.491L1.455,26.6a5,5,0,0,1,0-5.017L12.528,2.491A5,5,0,0,1,16.853,0Z" transform="translate(830.072 222.427) rotate(90)" fill="#c8d2db"/>
      <path id="Polygon_18" data-name="Polygon 18" d="M39.038,0a5,5,0,0,1,4.325,2.491L54.435,21.582a5,5,0,0,1,0,5.017L43.363,45.69a5,5,0,0,1-4.325,2.491H16.853a5,5,0,0,1-4.325-2.491L1.455,26.6a5,5,0,0,1,0-5.017L12.528,2.491A5,5,0,0,1,16.853,0Z" transform="translate(777.072 128.427) rotate(90)" fill="#c8d2db"/>
      <path id="Polygon_19" data-name="Polygon 19" d="M39.038,0a5,5,0,0,1,4.325,2.491L54.435,21.582a5,5,0,0,1,0,5.017L43.363,45.69a5,5,0,0,1-4.325,2.491H16.853a5,5,0,0,1-4.325-2.491L1.455,26.6a5,5,0,0,1,0-5.017L12.528,2.491A5,5,0,0,1,16.853,0Z" transform="translate(749.072 81.427) rotate(90)" fill="#c8d2db"/>
      <path id="Polygon_20" data-name="Polygon 20" d="M39.038,0a5,5,0,0,1,4.325,2.491L54.435,21.582a5,5,0,0,1,0,5.017L43.363,45.69a5,5,0,0,1-4.325,2.491H16.853a5,5,0,0,1-4.325-2.491L1.455,26.6a5,5,0,0,1,0-5.017L12.528,2.491A5,5,0,0,1,16.853,0Z" transform="translate(858.072 81.427) rotate(90)" fill="#c8d2db"/>
      <path id="Polygon_21" data-name="Polygon 21" d="M39.038,0a5,5,0,0,1,4.325,2.491L54.435,21.582a5,5,0,0,1,0,5.017L43.363,45.69a5,5,0,0,1-4.325,2.491H16.853a5,5,0,0,1-4.325-2.491L1.455,26.6a5,5,0,0,1,0-5.017L12.528,2.491A5,5,0,0,1,16.853,0Z" transform="translate(912.072 81.427) rotate(90)" fill="#c8d2db"/>
      <path id="Polygon_22" data-name="Polygon 22" d="M39.038,0a5,5,0,0,1,4.325,2.491L54.435,21.582a5,5,0,0,1,0,5.017L43.363,45.69a5,5,0,0,1-4.325,2.491H16.853a5,5,0,0,1-4.325-2.491L1.455,26.6a5,5,0,0,1,0-5.017L12.528,2.491A5,5,0,0,1,16.853,0Z" transform="translate(965.072 81.427) rotate(90)" fill="#c8d2db"/>
      <path id="Polygon_23" data-name="Polygon 23" d="M39.038,0a5,5,0,0,1,4.325,2.491L54.435,21.582a5,5,0,0,1,0,5.017L43.363,45.69a5,5,0,0,1-4.325,2.491H16.853a5,5,0,0,1-4.325-2.491L1.455,26.6a5,5,0,0,1,0-5.017L12.528,2.491A5,5,0,0,1,16.853,0Z" transform="translate(992.072 35.427) rotate(90)" fill="#c8d2db"/>
    </g>
    <g id="Group_191" data-name="Group 191" transform="translate(-1 -2)">
      <g id="Group_164" data-name="Group 164" transform="translate(356 46)">
        <g id="Polygon_4" data-name="Polygon 4" transform="translate(613.072 178.427) rotate(90)" fill="none">
          <path d="M39.038,0a5,5,0,0,1,4.325,2.491L54.435,21.582a5,5,0,0,1,0,5.017L43.363,45.69a5,5,0,0,1-4.325,2.491H16.853a5,5,0,0,1-4.325-2.491L1.455,26.6a5,5,0,0,1,0-5.017L12.528,2.491A5,5,0,0,1,16.853,0Z" stroke="none"/>
          <path d="M 16.85274124145508 1.000003814697266 C 15.43151092529297 1.000003814697266 14.10567092895508 1.763721466064453 13.39260864257812 2.993133544921875 L 2.320011138916016 22.08382225036621 C 1.602039337158203 23.32170295715332 1.602039337158203 24.85968208312988 2.320011138916016 26.09756278991699 L 13.39260864257812 45.18825149536133 C 14.10565948486328 46.41766357421875 15.43151092529297 47.18138122558594 16.85274124145508 47.18138122558594 L 39.03765106201172 47.18138122558594 C 40.45888900756836 47.18137359619141 41.78472900390625 46.41765213012695 42.4977912902832 45.18825149536133 L 53.57038879394531 26.09756278991699 C 54.28836059570312 24.85968208312988 54.28836059570312 23.32170295715332 53.57038879394531 22.08382225036621 L 42.4977912902832 2.993133544921875 C 41.78472900390625 1.763721466064453 40.45888900756836 1.000003814697266 39.03767013549805 1.000003814697266 L 16.85274124145508 1.000003814697266 M 16.85274124145508 3.814697265625e-06 L 39.03767013549805 3.814697265625e-06 C 40.82044982910156 3.814697265625e-06 42.46836090087891 0.9492416381835938 43.36281967163086 2.491413116455078 L 54.43542098999023 21.58210182189941 C 55.33520889282227 23.13346290588379 55.33520889282227 25.04791259765625 54.43542098999023 26.59928321838379 L 43.36281967163086 45.68997192382812 C 42.46836090087891 47.23213195800781 40.82044982910156 48.18137359619141 39.03765869140625 48.18138122558594 L 16.85274124145508 48.18138122558594 C 15.06996154785156 48.18138122558594 13.42203140258789 47.23213195800781 12.52758026123047 45.68996429443359 L 1.454978942871094 26.59928321838379 C 0.5551910400390625 25.04791259765625 0.5551910400390625 23.13346290588379 1.454978942871094 21.58210182189941 L 12.52758026123047 2.491413116455078 C 13.42203903198242 0.9492416381835938 15.06996154785156 3.814697265625e-06 16.85274124145508 3.814697265625e-06 Z" stroke="none" fill="#9ec9e9"/>
        </g>
        <g id="Polygon_3" data-name="Polygon 3" transform="translate(610.181 176.5) rotate(90)" fill="none">
          <path d="M39.038,0a5,5,0,0,1,4.325,2.491L54.435,21.582a5,5,0,0,1,0,5.017L43.363,45.69a5,5,0,0,1-4.325,2.491H16.853a5,5,0,0,1-4.325-2.491L1.455,26.6a5,5,0,0,1,0-5.017L12.528,2.491A5,5,0,0,1,16.853,0Z" stroke="none"/>
          <path d="M 16.85274124145508 1.000003814697266 C 15.43151092529297 1.000003814697266 14.10567092895508 1.763721466064453 13.39260864257812 2.993133544921875 L 2.320011138916016 22.08382225036621 C 1.602039337158203 23.32170295715332 1.602039337158203 24.85968208312988 2.320011138916016 26.09756278991699 L 13.39260864257812 45.18825149536133 C 14.10565948486328 46.41766357421875 15.43151092529297 47.18138122558594 16.85274124145508 47.18138122558594 L 39.03765106201172 47.18138122558594 C 40.45888900756836 47.18137359619141 41.78472900390625 46.41765213012695 42.4977912902832 45.18825149536133 L 53.57038879394531 26.09756278991699 C 54.28836059570312 24.85968208312988 54.28836059570312 23.32170295715332 53.57038879394531 22.08382225036621 L 42.4977912902832 2.993133544921875 C 41.78472900390625 1.763721466064453 40.45888900756836 1.000003814697266 39.03767013549805 1.000003814697266 L 16.85274124145508 1.000003814697266 M 16.85274124145508 3.814697265625e-06 L 39.03767013549805 3.814697265625e-06 C 40.82044982910156 3.814697265625e-06 42.46836090087891 0.9492416381835938 43.36281967163086 2.491413116455078 L 54.43542098999023 21.58210182189941 C 55.33520889282227 23.13346290588379 55.33520889282227 25.04791259765625 54.43542098999023 26.59928321838379 L 43.36281967163086 45.68997192382812 C 42.46836090087891 47.23213195800781 40.82044982910156 48.18137359619141 39.03765869140625 48.18138122558594 L 16.85274124145508 48.18138122558594 C 15.06996154785156 48.18138122558594 13.42203140258789 47.23213195800781 12.52758026123047 45.68996429443359 L 1.454978942871094 26.59928321838379 C 0.5551910400390625 25.04791259765625 0.5551910400390625 23.13346290588379 1.454978942871094 21.58210182189941 L 12.52758026123047 2.491413116455078 C 13.42203903198242 0.9492416381835938 15.06996154785156 3.814697265625e-06 16.85274124145508 3.814697265625e-06 Z" stroke="none" fill="#0e3455"/>
        </g>
      </g>
      <g id="Group_165" data-name="Group 165" transform="translate(301 46)">
        <g id="Polygon_4-2" data-name="Polygon 4" transform="translate(613.072 178.427) rotate(90)" fill="none">
          <path d="M39.038,0a5,5,0,0,1,4.325,2.491L54.435,21.582a5,5,0,0,1,0,5.017L43.363,45.69a5,5,0,0,1-4.325,2.491H16.853a5,5,0,0,1-4.325-2.491L1.455,26.6a5,5,0,0,1,0-5.017L12.528,2.491A5,5,0,0,1,16.853,0Z" stroke="none"/>
          <path d="M 16.85274124145508 1.000003814697266 C 15.43151092529297 1.000003814697266 14.10567092895508 1.763721466064453 13.39260864257812 2.993133544921875 L 2.320011138916016 22.08382225036621 C 1.602039337158203 23.32170295715332 1.602039337158203 24.85968208312988 2.320011138916016 26.09756278991699 L 13.39260864257812 45.18825149536133 C 14.10565948486328 46.41766357421875 15.43151092529297 47.18138122558594 16.85274124145508 47.18138122558594 L 39.03765106201172 47.18138122558594 C 40.45888900756836 47.18137359619141 41.78472900390625 46.41765213012695 42.4977912902832 45.18825149536133 L 53.57038879394531 26.09756278991699 C 54.28836059570312 24.85968208312988 54.28836059570312 23.32170295715332 53.57038879394531 22.08382225036621 L 42.4977912902832 2.993133544921875 C 41.78472900390625 1.763721466064453 40.45888900756836 1.000003814697266 39.03767013549805 1.000003814697266 L 16.85274124145508 1.000003814697266 M 16.85274124145508 3.814697265625e-06 L 39.03767013549805 3.814697265625e-06 C 40.82044982910156 3.814697265625e-06 42.46836090087891 0.9492416381835938 43.36281967163086 2.491413116455078 L 54.43542098999023 21.58210182189941 C 55.33520889282227 23.13346290588379 55.33520889282227 25.04791259765625 54.43542098999023 26.59928321838379 L 43.36281967163086 45.68997192382812 C 42.46836090087891 47.23213195800781 40.82044982910156 48.18137359619141 39.03765869140625 48.18138122558594 L 16.85274124145508 48.18138122558594 C 15.06996154785156 48.18138122558594 13.42203140258789 47.23213195800781 12.52758026123047 45.68996429443359 L 1.454978942871094 26.59928321838379 C 0.5551910400390625 25.04791259765625 0.5551910400390625 23.13346290588379 1.454978942871094 21.58210182189941 L 12.52758026123047 2.491413116455078 C 13.42203903198242 0.9492416381835938 15.06996154785156 3.814697265625e-06 16.85274124145508 3.814697265625e-06 Z" stroke="none" fill="#9ec9e9"/>
        </g>
        <g id="Polygon_3-2" data-name="Polygon 3" transform="translate(610.181 176.5) rotate(90)" fill="none">
          <path d="M39.038,0a5,5,0,0,1,4.325,2.491L54.435,21.582a5,5,0,0,1,0,5.017L43.363,45.69a5,5,0,0,1-4.325,2.491H16.853a5,5,0,0,1-4.325-2.491L1.455,26.6a5,5,0,0,1,0-5.017L12.528,2.491A5,5,0,0,1,16.853,0Z" stroke="none"/>
          <path d="M 16.85274124145508 1.000003814697266 C 15.43151092529297 1.000003814697266 14.10567092895508 1.763721466064453 13.39260864257812 2.993133544921875 L 2.320011138916016 22.08382225036621 C 1.602039337158203 23.32170295715332 1.602039337158203 24.85968208312988 2.320011138916016 26.09756278991699 L 13.39260864257812 45.18825149536133 C 14.10565948486328 46.41766357421875 15.43151092529297 47.18138122558594 16.85274124145508 47.18138122558594 L 39.03765106201172 47.18138122558594 C 40.45888900756836 47.18137359619141 41.78472900390625 46.41765213012695 42.4977912902832 45.18825149536133 L 53.57038879394531 26.09756278991699 C 54.28836059570312 24.85968208312988 54.28836059570312 23.32170295715332 53.57038879394531 22.08382225036621 L 42.4977912902832 2.993133544921875 C 41.78472900390625 1.763721466064453 40.45888900756836 1.000003814697266 39.03767013549805 1.000003814697266 L 16.85274124145508 1.000003814697266 M 16.85274124145508 3.814697265625e-06 L 39.03767013549805 3.814697265625e-06 C 40.82044982910156 3.814697265625e-06 42.46836090087891 0.9492416381835938 43.36281967163086 2.491413116455078 L 54.43542098999023 21.58210182189941 C 55.33520889282227 23.13346290588379 55.33520889282227 25.04791259765625 54.43542098999023 26.59928321838379 L 43.36281967163086 45.68997192382812 C 42.46836090087891 47.23213195800781 40.82044982910156 48.18137359619141 39.03765869140625 48.18138122558594 L 16.85274124145508 48.18138122558594 C 15.06996154785156 48.18138122558594 13.42203140258789 47.23213195800781 12.52758026123047 45.68996429443359 L 1.454978942871094 26.59928321838379 C 0.5551910400390625 25.04791259765625 0.5551910400390625 23.13346290588379 1.454978942871094 21.58210182189941 L 12.52758026123047 2.491413116455078 C 13.42203903198242 0.9492416381835938 15.06996154785156 3.814697265625e-06 16.85274124145508 3.814697265625e-06 Z" stroke="none" fill="#0e3455"/>
        </g>
      </g>
      <g id="Group_166" data-name="Group 166" transform="translate(247 46)">
        <g id="Polygon_4-3" data-name="Polygon 4" transform="translate(613.072 178.427) rotate(90)" fill="none">
          <path d="M39.038,0a5,5,0,0,1,4.325,2.491L54.435,21.582a5,5,0,0,1,0,5.017L43.363,45.69a5,5,0,0,1-4.325,2.491H16.853a5,5,0,0,1-4.325-2.491L1.455,26.6a5,5,0,0,1,0-5.017L12.528,2.491A5,5,0,0,1,16.853,0Z" stroke="none"/>
          <path d="M 16.85274124145508 1.000003814697266 C 15.43151092529297 1.000003814697266 14.10567092895508 1.763721466064453 13.39260864257812 2.993133544921875 L 2.320011138916016 22.08382225036621 C 1.602039337158203 23.32170295715332 1.602039337158203 24.85968208312988 2.320011138916016 26.09756278991699 L 13.39260864257812 45.18825149536133 C 14.10565948486328 46.41766357421875 15.43151092529297 47.18138122558594 16.85274124145508 47.18138122558594 L 39.03765106201172 47.18138122558594 C 40.45888900756836 47.18137359619141 41.78472900390625 46.41765213012695 42.4977912902832 45.18825149536133 L 53.57038879394531 26.09756278991699 C 54.28836059570312 24.85968208312988 54.28836059570312 23.32170295715332 53.57038879394531 22.08382225036621 L 42.4977912902832 2.993133544921875 C 41.78472900390625 1.763721466064453 40.45888900756836 1.000003814697266 39.03767013549805 1.000003814697266 L 16.85274124145508 1.000003814697266 M 16.85274124145508 3.814697265625e-06 L 39.03767013549805 3.814697265625e-06 C 40.82044982910156 3.814697265625e-06 42.46836090087891 0.9492416381835938 43.36281967163086 2.491413116455078 L 54.43542098999023 21.58210182189941 C 55.33520889282227 23.13346290588379 55.33520889282227 25.04791259765625 54.43542098999023 26.59928321838379 L 43.36281967163086 45.68997192382812 C 42.46836090087891 47.23213195800781 40.82044982910156 48.18137359619141 39.03765869140625 48.18138122558594 L 16.85274124145508 48.18138122558594 C 15.06996154785156 48.18138122558594 13.42203140258789 47.23213195800781 12.52758026123047 45.68996429443359 L 1.454978942871094 26.59928321838379 C 0.5551910400390625 25.04791259765625 0.5551910400390625 23.13346290588379 1.454978942871094 21.58210182189941 L 12.52758026123047 2.491413116455078 C 13.42203903198242 0.9492416381835938 15.06996154785156 3.814697265625e-06 16.85274124145508 3.814697265625e-06 Z" stroke="none" fill="#9ec9e9"/>
        </g>
        <g id="Polygon_3-3" data-name="Polygon 3" transform="translate(610.181 176.5) rotate(90)" fill="none">
          <path d="M39.038,0a5,5,0,0,1,4.325,2.491L54.435,21.582a5,5,0,0,1,0,5.017L43.363,45.69a5,5,0,0,1-4.325,2.491H16.853a5,5,0,0,1-4.325-2.491L1.455,26.6a5,5,0,0,1,0-5.017L12.528,2.491A5,5,0,0,1,16.853,0Z" stroke="none"/>
          <path d="M 16.85274124145508 1.000003814697266 C 15.43151092529297 1.000003814697266 14.10567092895508 1.763721466064453 13.39260864257812 2.993133544921875 L 2.320011138916016 22.08382225036621 C 1.602039337158203 23.32170295715332 1.602039337158203 24.85968208312988 2.320011138916016 26.09756278991699 L 13.39260864257812 45.18825149536133 C 14.10565948486328 46.41766357421875 15.43151092529297 47.18138122558594 16.85274124145508 47.18138122558594 L 39.03765106201172 47.18138122558594 C 40.45888900756836 47.18137359619141 41.78472900390625 46.41765213012695 42.4977912902832 45.18825149536133 L 53.57038879394531 26.09756278991699 C 54.28836059570312 24.85968208312988 54.28836059570312 23.32170295715332 53.57038879394531 22.08382225036621 L 42.4977912902832 2.993133544921875 C 41.78472900390625 1.763721466064453 40.45888900756836 1.000003814697266 39.03767013549805 1.000003814697266 L 16.85274124145508 1.000003814697266 M 16.85274124145508 3.814697265625e-06 L 39.03767013549805 3.814697265625e-06 C 40.82044982910156 3.814697265625e-06 42.46836090087891 0.9492416381835938 43.36281967163086 2.491413116455078 L 54.43542098999023 21.58210182189941 C 55.33520889282227 23.13346290588379 55.33520889282227 25.04791259765625 54.43542098999023 26.59928321838379 L 43.36281967163086 45.68997192382812 C 42.46836090087891 47.23213195800781 40.82044982910156 48.18137359619141 39.03765869140625 48.18138122558594 L 16.85274124145508 48.18138122558594 C 15.06996154785156 48.18138122558594 13.42203140258789 47.23213195800781 12.52758026123047 45.68996429443359 L 1.454978942871094 26.59928321838379 C 0.5551910400390625 25.04791259765625 0.5551910400390625 23.13346290588379 1.454978942871094 21.58210182189941 L 12.52758026123047 2.491413116455078 C 13.42203903198242 0.9492416381835938 15.06996154785156 3.814697265625e-06 16.85274124145508 3.814697265625e-06 Z" stroke="none" fill="#0e3455"/>
        </g>
      </g>
      <g id="Group_167" data-name="Group 167" transform="translate(274 93)">
        <g id="Polygon_4-4" data-name="Polygon 4" transform="translate(613.072 178.427) rotate(90)" fill="none">
          <path d="M39.038,0a5,5,0,0,1,4.325,2.491L54.435,21.582a5,5,0,0,1,0,5.017L43.363,45.69a5,5,0,0,1-4.325,2.491H16.853a5,5,0,0,1-4.325-2.491L1.455,26.6a5,5,0,0,1,0-5.017L12.528,2.491A5,5,0,0,1,16.853,0Z" stroke="none"/>
          <path d="M 16.85274124145508 1.000003814697266 C 15.43151092529297 1.000003814697266 14.10567092895508 1.763721466064453 13.39260864257812 2.993133544921875 L 2.320011138916016 22.08382225036621 C 1.602039337158203 23.32170295715332 1.602039337158203 24.85968208312988 2.320011138916016 26.09756278991699 L 13.39260864257812 45.18825149536133 C 14.10565948486328 46.41766357421875 15.43151092529297 47.18138122558594 16.85274124145508 47.18138122558594 L 39.03765106201172 47.18138122558594 C 40.45888900756836 47.18137359619141 41.78472900390625 46.41765213012695 42.4977912902832 45.18825149536133 L 53.57038879394531 26.09756278991699 C 54.28836059570312 24.85968208312988 54.28836059570312 23.32170295715332 53.57038879394531 22.08382225036621 L 42.4977912902832 2.993133544921875 C 41.78472900390625 1.763721466064453 40.45888900756836 1.000003814697266 39.03767013549805 1.000003814697266 L 16.85274124145508 1.000003814697266 M 16.85274124145508 3.814697265625e-06 L 39.03767013549805 3.814697265625e-06 C 40.82044982910156 3.814697265625e-06 42.46836090087891 0.9492416381835938 43.36281967163086 2.491413116455078 L 54.43542098999023 21.58210182189941 C 55.33520889282227 23.13346290588379 55.33520889282227 25.04791259765625 54.43542098999023 26.59928321838379 L 43.36281967163086 45.68997192382812 C 42.46836090087891 47.23213195800781 40.82044982910156 48.18137359619141 39.03765869140625 48.18138122558594 L 16.85274124145508 48.18138122558594 C 15.06996154785156 48.18138122558594 13.42203140258789 47.23213195800781 12.52758026123047 45.68996429443359 L 1.454978942871094 26.59928321838379 C 0.5551910400390625 25.04791259765625 0.5551910400390625 23.13346290588379 1.454978942871094 21.58210182189941 L 12.52758026123047 2.491413116455078 C 13.42203903198242 0.9492416381835938 15.06996154785156 3.814697265625e-06 16.85274124145508 3.814697265625e-06 Z" stroke="none" fill="#9ec9e9"/>
        </g>
        <g id="Polygon_3-4" data-name="Polygon 3" transform="translate(610.181 176.5) rotate(90)" fill="none">
          <path d="M39.038,0a5,5,0,0,1,4.325,2.491L54.435,21.582a5,5,0,0,1,0,5.017L43.363,45.69a5,5,0,0,1-4.325,2.491H16.853a5,5,0,0,1-4.325-2.491L1.455,26.6a5,5,0,0,1,0-5.017L12.528,2.491A5,5,0,0,1,16.853,0Z" stroke="none"/>
          <path d="M 16.85274124145508 1.000003814697266 C 15.43151092529297 1.000003814697266 14.10567092895508 1.763721466064453 13.39260864257812 2.993133544921875 L 2.320011138916016 22.08382225036621 C 1.602039337158203 23.32170295715332 1.602039337158203 24.85968208312988 2.320011138916016 26.09756278991699 L 13.39260864257812 45.18825149536133 C 14.10565948486328 46.41766357421875 15.43151092529297 47.18138122558594 16.85274124145508 47.18138122558594 L 39.03765106201172 47.18138122558594 C 40.45888900756836 47.18137359619141 41.78472900390625 46.41765213012695 42.4977912902832 45.18825149536133 L 53.57038879394531 26.09756278991699 C 54.28836059570312 24.85968208312988 54.28836059570312 23.32170295715332 53.57038879394531 22.08382225036621 L 42.4977912902832 2.993133544921875 C 41.78472900390625 1.763721466064453 40.45888900756836 1.000003814697266 39.03767013549805 1.000003814697266 L 16.85274124145508 1.000003814697266 M 16.85274124145508 3.814697265625e-06 L 39.03767013549805 3.814697265625e-06 C 40.82044982910156 3.814697265625e-06 42.46836090087891 0.9492416381835938 43.36281967163086 2.491413116455078 L 54.43542098999023 21.58210182189941 C 55.33520889282227 23.13346290588379 55.33520889282227 25.04791259765625 54.43542098999023 26.59928321838379 L 43.36281967163086 45.68997192382812 C 42.46836090087891 47.23213195800781 40.82044982910156 48.18137359619141 39.03765869140625 48.18138122558594 L 16.85274124145508 48.18138122558594 C 15.06996154785156 48.18138122558594 13.42203140258789 47.23213195800781 12.52758026123047 45.68996429443359 L 1.454978942871094 26.59928321838379 C 0.5551910400390625 25.04791259765625 0.5551910400390625 23.13346290588379 1.454978942871094 21.58210182189941 L 12.52758026123047 2.491413116455078 C 13.42203903198242 0.9492416381835938 15.06996154785156 3.814697265625e-06 16.85274124145508 3.814697265625e-06 Z" stroke="none" fill="#0e3455"/>
        </g>
      </g>
      <g id="Group_168" data-name="Group 168" transform="translate(274 -1)">
        <g id="Polygon_4-5" data-name="Polygon 4" transform="translate(613.072 178.427) rotate(90)" fill="none">
          <path d="M39.038,0a5,5,0,0,1,4.325,2.491L54.435,21.582a5,5,0,0,1,0,5.017L43.363,45.69a5,5,0,0,1-4.325,2.491H16.853a5,5,0,0,1-4.325-2.491L1.455,26.6a5,5,0,0,1,0-5.017L12.528,2.491A5,5,0,0,1,16.853,0Z" stroke="none"/>
          <path d="M 16.85274124145508 1.000003814697266 C 15.43151092529297 1.000003814697266 14.10567092895508 1.763721466064453 13.39260864257812 2.993133544921875 L 2.320011138916016 22.08382225036621 C 1.602039337158203 23.32170295715332 1.602039337158203 24.85968208312988 2.320011138916016 26.09756278991699 L 13.39260864257812 45.18825149536133 C 14.10565948486328 46.41766357421875 15.43151092529297 47.18138122558594 16.85274124145508 47.18138122558594 L 39.03765106201172 47.18138122558594 C 40.45888900756836 47.18137359619141 41.78472900390625 46.41765213012695 42.4977912902832 45.18825149536133 L 53.57038879394531 26.09756278991699 C 54.28836059570312 24.85968208312988 54.28836059570312 23.32170295715332 53.57038879394531 22.08382225036621 L 42.4977912902832 2.993133544921875 C 41.78472900390625 1.763721466064453 40.45888900756836 1.000003814697266 39.03767013549805 1.000003814697266 L 16.85274124145508 1.000003814697266 M 16.85274124145508 3.814697265625e-06 L 39.03767013549805 3.814697265625e-06 C 40.82044982910156 3.814697265625e-06 42.46836090087891 0.9492416381835938 43.36281967163086 2.491413116455078 L 54.43542098999023 21.58210182189941 C 55.33520889282227 23.13346290588379 55.33520889282227 25.04791259765625 54.43542098999023 26.59928321838379 L 43.36281967163086 45.68997192382812 C 42.46836090087891 47.23213195800781 40.82044982910156 48.18137359619141 39.03765869140625 48.18138122558594 L 16.85274124145508 48.18138122558594 C 15.06996154785156 48.18138122558594 13.42203140258789 47.23213195800781 12.52758026123047 45.68996429443359 L 1.454978942871094 26.59928321838379 C 0.5551910400390625 25.04791259765625 0.5551910400390625 23.13346290588379 1.454978942871094 21.58210182189941 L 12.52758026123047 2.491413116455078 C 13.42203903198242 0.9492416381835938 15.06996154785156 3.814697265625e-06 16.85274124145508 3.814697265625e-06 Z" stroke="none" fill="#9ec9e9"/>
        </g>
        <g id="Polygon_3-5" data-name="Polygon 3" transform="translate(610.181 176.5) rotate(90)" fill="none">
          <path d="M39.038,0a5,5,0,0,1,4.325,2.491L54.435,21.582a5,5,0,0,1,0,5.017L43.363,45.69a5,5,0,0,1-4.325,2.491H16.853a5,5,0,0,1-4.325-2.491L1.455,26.6a5,5,0,0,1,0-5.017L12.528,2.491A5,5,0,0,1,16.853,0Z" stroke="none"/>
          <path d="M 16.85274124145508 1.000003814697266 C 15.43151092529297 1.000003814697266 14.10567092895508 1.763721466064453 13.39260864257812 2.993133544921875 L 2.320011138916016 22.08382225036621 C 1.602039337158203 23.32170295715332 1.602039337158203 24.85968208312988 2.320011138916016 26.09756278991699 L 13.39260864257812 45.18825149536133 C 14.10565948486328 46.41766357421875 15.43151092529297 47.18138122558594 16.85274124145508 47.18138122558594 L 39.03765106201172 47.18138122558594 C 40.45888900756836 47.18137359619141 41.78472900390625 46.41765213012695 42.4977912902832 45.18825149536133 L 53.57038879394531 26.09756278991699 C 54.28836059570312 24.85968208312988 54.28836059570312 23.32170295715332 53.57038879394531 22.08382225036621 L 42.4977912902832 2.993133544921875 C 41.78472900390625 1.763721466064453 40.45888900756836 1.000003814697266 39.03767013549805 1.000003814697266 L 16.85274124145508 1.000003814697266 M 16.85274124145508 3.814697265625e-06 L 39.03767013549805 3.814697265625e-06 C 40.82044982910156 3.814697265625e-06 42.46836090087891 0.9492416381835938 43.36281967163086 2.491413116455078 L 54.43542098999023 21.58210182189941 C 55.33520889282227 23.13346290588379 55.33520889282227 25.04791259765625 54.43542098999023 26.59928321838379 L 43.36281967163086 45.68997192382812 C 42.46836090087891 47.23213195800781 40.82044982910156 48.18137359619141 39.03765869140625 48.18138122558594 L 16.85274124145508 48.18138122558594 C 15.06996154785156 48.18138122558594 13.42203140258789 47.23213195800781 12.52758026123047 45.68996429443359 L 1.454978942871094 26.59928321838379 C 0.5551910400390625 25.04791259765625 0.5551910400390625 23.13346290588379 1.454978942871094 21.58210182189941 L 12.52758026123047 2.491413116455078 C 13.42203903198242 0.9492416381835938 15.06996154785156 3.814697265625e-06 16.85274124145508 3.814697265625e-06 Z" stroke="none" fill="#0e3455"/>
        </g>
      </g>
      <g id="Group_180" data-name="Group 180" transform="translate(328 -1)">
        <g id="Polygon_4-6" data-name="Polygon 4" transform="translate(613.072 178.427) rotate(90)" fill="none">
          <path d="M39.038,0a5,5,0,0,1,4.325,2.491L54.435,21.582a5,5,0,0,1,0,5.017L43.363,45.69a5,5,0,0,1-4.325,2.491H16.853a5,5,0,0,1-4.325-2.491L1.455,26.6a5,5,0,0,1,0-5.017L12.528,2.491A5,5,0,0,1,16.853,0Z" stroke="none"/>
          <path d="M 16.85274124145508 1.000003814697266 C 15.43151092529297 1.000003814697266 14.10567092895508 1.763721466064453 13.39260864257812 2.993133544921875 L 2.320011138916016 22.08382225036621 C 1.602039337158203 23.32170295715332 1.602039337158203 24.85968208312988 2.320011138916016 26.09756278991699 L 13.39260864257812 45.18825149536133 C 14.10565948486328 46.41766357421875 15.43151092529297 47.18138122558594 16.85274124145508 47.18138122558594 L 39.03765106201172 47.18138122558594 C 40.45888900756836 47.18137359619141 41.78472900390625 46.41765213012695 42.4977912902832 45.18825149536133 L 53.57038879394531 26.09756278991699 C 54.28836059570312 24.85968208312988 54.28836059570312 23.32170295715332 53.57038879394531 22.08382225036621 L 42.4977912902832 2.993133544921875 C 41.78472900390625 1.763721466064453 40.45888900756836 1.000003814697266 39.03767013549805 1.000003814697266 L 16.85274124145508 1.000003814697266 M 16.85274124145508 3.814697265625e-06 L 39.03767013549805 3.814697265625e-06 C 40.82044982910156 3.814697265625e-06 42.46836090087891 0.9492416381835938 43.36281967163086 2.491413116455078 L 54.43542098999023 21.58210182189941 C 55.33520889282227 23.13346290588379 55.33520889282227 25.04791259765625 54.43542098999023 26.59928321838379 L 43.36281967163086 45.68997192382812 C 42.46836090087891 47.23213195800781 40.82044982910156 48.18137359619141 39.03765869140625 48.18138122558594 L 16.85274124145508 48.18138122558594 C 15.06996154785156 48.18138122558594 13.42203140258789 47.23213195800781 12.52758026123047 45.68996429443359 L 1.454978942871094 26.59928321838379 C 0.5551910400390625 25.04791259765625 0.5551910400390625 23.13346290588379 1.454978942871094 21.58210182189941 L 12.52758026123047 2.491413116455078 C 13.42203903198242 0.9492416381835938 15.06996154785156 3.814697265625e-06 16.85274124145508 3.814697265625e-06 Z" stroke="none" fill="#9ec9e9"/>
        </g>
        <g id="Polygon_3-6" data-name="Polygon 3" transform="translate(610.181 176.5) rotate(90)" fill="none">
          <path d="M39.038,0a5,5,0,0,1,4.325,2.491L54.435,21.582a5,5,0,0,1,0,5.017L43.363,45.69a5,5,0,0,1-4.325,2.491H16.853a5,5,0,0,1-4.325-2.491L1.455,26.6a5,5,0,0,1,0-5.017L12.528,2.491A5,5,0,0,1,16.853,0Z" stroke="none"/>
          <path d="M 16.85274124145508 1.000003814697266 C 15.43151092529297 1.000003814697266 14.10567092895508 1.763721466064453 13.39260864257812 2.993133544921875 L 2.320011138916016 22.08382225036621 C 1.602039337158203 23.32170295715332 1.602039337158203 24.85968208312988 2.320011138916016 26.09756278991699 L 13.39260864257812 45.18825149536133 C 14.10565948486328 46.41766357421875 15.43151092529297 47.18138122558594 16.85274124145508 47.18138122558594 L 39.03765106201172 47.18138122558594 C 40.45888900756836 47.18137359619141 41.78472900390625 46.41765213012695 42.4977912902832 45.18825149536133 L 53.57038879394531 26.09756278991699 C 54.28836059570312 24.85968208312988 54.28836059570312 23.32170295715332 53.57038879394531 22.08382225036621 L 42.4977912902832 2.993133544921875 C 41.78472900390625 1.763721466064453 40.45888900756836 1.000003814697266 39.03767013549805 1.000003814697266 L 16.85274124145508 1.000003814697266 M 16.85274124145508 3.814697265625e-06 L 39.03767013549805 3.814697265625e-06 C 40.82044982910156 3.814697265625e-06 42.46836090087891 0.9492416381835938 43.36281967163086 2.491413116455078 L 54.43542098999023 21.58210182189941 C 55.33520889282227 23.13346290588379 55.33520889282227 25.04791259765625 54.43542098999023 26.59928321838379 L 43.36281967163086 45.68997192382812 C 42.46836090087891 47.23213195800781 40.82044982910156 48.18137359619141 39.03765869140625 48.18138122558594 L 16.85274124145508 48.18138122558594 C 15.06996154785156 48.18138122558594 13.42203140258789 47.23213195800781 12.52758026123047 45.68996429443359 L 1.454978942871094 26.59928321838379 C 0.5551910400390625 25.04791259765625 0.5551910400390625 23.13346290588379 1.454978942871094 21.58210182189941 L 12.52758026123047 2.491413116455078 C 13.42203903198242 0.9492416381835938 15.06996154785156 3.814697265625e-06 16.85274124145508 3.814697265625e-06 Z" stroke="none" fill="#0e3455"/>
        </g>
      </g>
      <g id="Group_169" data-name="Group 169" transform="translate(220 -1)">
        <g id="Polygon_4-7" data-name="Polygon 4" transform="translate(613.072 178.427) rotate(90)" fill="none">
          <path d="M39.038,0a5,5,0,0,1,4.325,2.491L54.435,21.582a5,5,0,0,1,0,5.017L43.363,45.69a5,5,0,0,1-4.325,2.491H16.853a5,5,0,0,1-4.325-2.491L1.455,26.6a5,5,0,0,1,0-5.017L12.528,2.491A5,5,0,0,1,16.853,0Z" stroke="none"/>
          <path d="M 16.85274124145508 1.000003814697266 C 15.43151092529297 1.000003814697266 14.10567092895508 1.763721466064453 13.39260864257812 2.993133544921875 L 2.320011138916016 22.08382225036621 C 1.602039337158203 23.32170295715332 1.602039337158203 24.85968208312988 2.320011138916016 26.09756278991699 L 13.39260864257812 45.18825149536133 C 14.10565948486328 46.41766357421875 15.43151092529297 47.18138122558594 16.85274124145508 47.18138122558594 L 39.03765106201172 47.18138122558594 C 40.45888900756836 47.18137359619141 41.78472900390625 46.41765213012695 42.4977912902832 45.18825149536133 L 53.57038879394531 26.09756278991699 C 54.28836059570312 24.85968208312988 54.28836059570312 23.32170295715332 53.57038879394531 22.08382225036621 L 42.4977912902832 2.993133544921875 C 41.78472900390625 1.763721466064453 40.45888900756836 1.000003814697266 39.03767013549805 1.000003814697266 L 16.85274124145508 1.000003814697266 M 16.85274124145508 3.814697265625e-06 L 39.03767013549805 3.814697265625e-06 C 40.82044982910156 3.814697265625e-06 42.46836090087891 0.9492416381835938 43.36281967163086 2.491413116455078 L 54.43542098999023 21.58210182189941 C 55.33520889282227 23.13346290588379 55.33520889282227 25.04791259765625 54.43542098999023 26.59928321838379 L 43.36281967163086 45.68997192382812 C 42.46836090087891 47.23213195800781 40.82044982910156 48.18137359619141 39.03765869140625 48.18138122558594 L 16.85274124145508 48.18138122558594 C 15.06996154785156 48.18138122558594 13.42203140258789 47.23213195800781 12.52758026123047 45.68996429443359 L 1.454978942871094 26.59928321838379 C 0.5551910400390625 25.04791259765625 0.5551910400390625 23.13346290588379 1.454978942871094 21.58210182189941 L 12.52758026123047 2.491413116455078 C 13.42203903198242 0.9492416381835938 15.06996154785156 3.814697265625e-06 16.85274124145508 3.814697265625e-06 Z" stroke="none" fill="#9ec9e9"/>
        </g>
        <g id="Polygon_3-7" data-name="Polygon 3" transform="translate(610.181 176.5) rotate(90)" fill="none">
          <path d="M39.038,0a5,5,0,0,1,4.325,2.491L54.435,21.582a5,5,0,0,1,0,5.017L43.363,45.69a5,5,0,0,1-4.325,2.491H16.853a5,5,0,0,1-4.325-2.491L1.455,26.6a5,5,0,0,1,0-5.017L12.528,2.491A5,5,0,0,1,16.853,0Z" stroke="none"/>
          <path d="M 16.85274124145508 1.000003814697266 C 15.43151092529297 1.000003814697266 14.10567092895508 1.763721466064453 13.39260864257812 2.993133544921875 L 2.320011138916016 22.08382225036621 C 1.602039337158203 23.32170295715332 1.602039337158203 24.85968208312988 2.320011138916016 26.09756278991699 L 13.39260864257812 45.18825149536133 C 14.10565948486328 46.41766357421875 15.43151092529297 47.18138122558594 16.85274124145508 47.18138122558594 L 39.03765106201172 47.18138122558594 C 40.45888900756836 47.18137359619141 41.78472900390625 46.41765213012695 42.4977912902832 45.18825149536133 L 53.57038879394531 26.09756278991699 C 54.28836059570312 24.85968208312988 54.28836059570312 23.32170295715332 53.57038879394531 22.08382225036621 L 42.4977912902832 2.993133544921875 C 41.78472900390625 1.763721466064453 40.45888900756836 1.000003814697266 39.03767013549805 1.000003814697266 L 16.85274124145508 1.000003814697266 M 16.85274124145508 3.814697265625e-06 L 39.03767013549805 3.814697265625e-06 C 40.82044982910156 3.814697265625e-06 42.46836090087891 0.9492416381835938 43.36281967163086 2.491413116455078 L 54.43542098999023 21.58210182189941 C 55.33520889282227 23.13346290588379 55.33520889282227 25.04791259765625 54.43542098999023 26.59928321838379 L 43.36281967163086 45.68997192382812 C 42.46836090087891 47.23213195800781 40.82044982910156 48.18137359619141 39.03765869140625 48.18138122558594 L 16.85274124145508 48.18138122558594 C 15.06996154785156 48.18138122558594 13.42203140258789 47.23213195800781 12.52758026123047 45.68996429443359 L 1.454978942871094 26.59928321838379 C 0.5551910400390625 25.04791259765625 0.5551910400390625 23.13346290588379 1.454978942871094 21.58210182189941 L 12.52758026123047 2.491413116455078 C 13.42203903198242 0.9492416381835938 15.06996154785156 3.814697265625e-06 16.85274124145508 3.814697265625e-06 Z" stroke="none" fill="#0e3455"/>
        </g>
      </g>
      <g id="Group_181" data-name="Group 181" transform="translate(220 93)">
        <g id="Polygon_4-8" data-name="Polygon 4" transform="translate(613.072 178.427) rotate(90)" fill="none">
          <path d="M39.038,0a5,5,0,0,1,4.325,2.491L54.435,21.582a5,5,0,0,1,0,5.017L43.363,45.69a5,5,0,0,1-4.325,2.491H16.853a5,5,0,0,1-4.325-2.491L1.455,26.6a5,5,0,0,1,0-5.017L12.528,2.491A5,5,0,0,1,16.853,0Z" stroke="none"/>
          <path d="M 16.85274124145508 1.000003814697266 C 15.43151092529297 1.000003814697266 14.10567092895508 1.763721466064453 13.39260864257812 2.993133544921875 L 2.320011138916016 22.08382225036621 C 1.602039337158203 23.32170295715332 1.602039337158203 24.85968208312988 2.320011138916016 26.09756278991699 L 13.39260864257812 45.18825149536133 C 14.10565948486328 46.41766357421875 15.43151092529297 47.18138122558594 16.85274124145508 47.18138122558594 L 39.03765106201172 47.18138122558594 C 40.45888900756836 47.18137359619141 41.78472900390625 46.41765213012695 42.4977912902832 45.18825149536133 L 53.57038879394531 26.09756278991699 C 54.28836059570312 24.85968208312988 54.28836059570312 23.32170295715332 53.57038879394531 22.08382225036621 L 42.4977912902832 2.993133544921875 C 41.78472900390625 1.763721466064453 40.45888900756836 1.000003814697266 39.03767013549805 1.000003814697266 L 16.85274124145508 1.000003814697266 M 16.85274124145508 3.814697265625e-06 L 39.03767013549805 3.814697265625e-06 C 40.82044982910156 3.814697265625e-06 42.46836090087891 0.9492416381835938 43.36281967163086 2.491413116455078 L 54.43542098999023 21.58210182189941 C 55.33520889282227 23.13346290588379 55.33520889282227 25.04791259765625 54.43542098999023 26.59928321838379 L 43.36281967163086 45.68997192382812 C 42.46836090087891 47.23213195800781 40.82044982910156 48.18137359619141 39.03765869140625 48.18138122558594 L 16.85274124145508 48.18138122558594 C 15.06996154785156 48.18138122558594 13.42203140258789 47.23213195800781 12.52758026123047 45.68996429443359 L 1.454978942871094 26.59928321838379 C 0.5551910400390625 25.04791259765625 0.5551910400390625 23.13346290588379 1.454978942871094 21.58210182189941 L 12.52758026123047 2.491413116455078 C 13.42203903198242 0.9492416381835938 15.06996154785156 3.814697265625e-06 16.85274124145508 3.814697265625e-06 Z" stroke="none" fill="#9ec9e9"/>
        </g>
        <g id="Polygon_3-8" data-name="Polygon 3" transform="translate(610.181 176.5) rotate(90)" fill="none">
          <path d="M39.038,0a5,5,0,0,1,4.325,2.491L54.435,21.582a5,5,0,0,1,0,5.017L43.363,45.69a5,5,0,0,1-4.325,2.491H16.853a5,5,0,0,1-4.325-2.491L1.455,26.6a5,5,0,0,1,0-5.017L12.528,2.491A5,5,0,0,1,16.853,0Z" stroke="none"/>
          <path d="M 16.85274124145508 1.000003814697266 C 15.43151092529297 1.000003814697266 14.10567092895508 1.763721466064453 13.39260864257812 2.993133544921875 L 2.320011138916016 22.08382225036621 C 1.602039337158203 23.32170295715332 1.602039337158203 24.85968208312988 2.320011138916016 26.09756278991699 L 13.39260864257812 45.18825149536133 C 14.10565948486328 46.41766357421875 15.43151092529297 47.18138122558594 16.85274124145508 47.18138122558594 L 39.03765106201172 47.18138122558594 C 40.45888900756836 47.18137359619141 41.78472900390625 46.41765213012695 42.4977912902832 45.18825149536133 L 53.57038879394531 26.09756278991699 C 54.28836059570312 24.85968208312988 54.28836059570312 23.32170295715332 53.57038879394531 22.08382225036621 L 42.4977912902832 2.993133544921875 C 41.78472900390625 1.763721466064453 40.45888900756836 1.000003814697266 39.03767013549805 1.000003814697266 L 16.85274124145508 1.000003814697266 M 16.85274124145508 3.814697265625e-06 L 39.03767013549805 3.814697265625e-06 C 40.82044982910156 3.814697265625e-06 42.46836090087891 0.9492416381835938 43.36281967163086 2.491413116455078 L 54.43542098999023 21.58210182189941 C 55.33520889282227 23.13346290588379 55.33520889282227 25.04791259765625 54.43542098999023 26.59928321838379 L 43.36281967163086 45.68997192382812 C 42.46836090087891 47.23213195800781 40.82044982910156 48.18137359619141 39.03765869140625 48.18138122558594 L 16.85274124145508 48.18138122558594 C 15.06996154785156 48.18138122558594 13.42203140258789 47.23213195800781 12.52758026123047 45.68996429443359 L 1.454978942871094 26.59928321838379 C 0.5551910400390625 25.04791259765625 0.5551910400390625 23.13346290588379 1.454978942871094 21.58210182189941 L 12.52758026123047 2.491413116455078 C 13.42203903198242 0.9492416381835938 15.06996154785156 3.814697265625e-06 16.85274124145508 3.814697265625e-06 Z" stroke="none" fill="#0e3455"/>
        </g>
      </g>
      <g id="Group_170" data-name="Group 170" transform="translate(192 46)">
        <g id="Polygon_4-9" data-name="Polygon 4" transform="translate(613.072 178.427) rotate(90)" fill="none">
          <path d="M39.038,0a5,5,0,0,1,4.325,2.491L54.435,21.582a5,5,0,0,1,0,5.017L43.363,45.69a5,5,0,0,1-4.325,2.491H16.853a5,5,0,0,1-4.325-2.491L1.455,26.6a5,5,0,0,1,0-5.017L12.528,2.491A5,5,0,0,1,16.853,0Z" stroke="none"/>
          <path d="M 16.85274124145508 1.000003814697266 C 15.43151092529297 1.000003814697266 14.10567092895508 1.763721466064453 13.39260864257812 2.993133544921875 L 2.320011138916016 22.08382225036621 C 1.602039337158203 23.32170295715332 1.602039337158203 24.85968208312988 2.320011138916016 26.09756278991699 L 13.39260864257812 45.18825149536133 C 14.10565948486328 46.41766357421875 15.43151092529297 47.18138122558594 16.85274124145508 47.18138122558594 L 39.03765106201172 47.18138122558594 C 40.45888900756836 47.18137359619141 41.78472900390625 46.41765213012695 42.4977912902832 45.18825149536133 L 53.57038879394531 26.09756278991699 C 54.28836059570312 24.85968208312988 54.28836059570312 23.32170295715332 53.57038879394531 22.08382225036621 L 42.4977912902832 2.993133544921875 C 41.78472900390625 1.763721466064453 40.45888900756836 1.000003814697266 39.03767013549805 1.000003814697266 L 16.85274124145508 1.000003814697266 M 16.85274124145508 3.814697265625e-06 L 39.03767013549805 3.814697265625e-06 C 40.82044982910156 3.814697265625e-06 42.46836090087891 0.9492416381835938 43.36281967163086 2.491413116455078 L 54.43542098999023 21.58210182189941 C 55.33520889282227 23.13346290588379 55.33520889282227 25.04791259765625 54.43542098999023 26.59928321838379 L 43.36281967163086 45.68997192382812 C 42.46836090087891 47.23213195800781 40.82044982910156 48.18137359619141 39.03765869140625 48.18138122558594 L 16.85274124145508 48.18138122558594 C 15.06996154785156 48.18138122558594 13.42203140258789 47.23213195800781 12.52758026123047 45.68996429443359 L 1.454978942871094 26.59928321838379 C 0.5551910400390625 25.04791259765625 0.5551910400390625 23.13346290588379 1.454978942871094 21.58210182189941 L 12.52758026123047 2.491413116455078 C 13.42203903198242 0.9492416381835938 15.06996154785156 3.814697265625e-06 16.85274124145508 3.814697265625e-06 Z" stroke="none" fill="#9ec9e9"/>
        </g>
        <g id="Polygon_3-9" data-name="Polygon 3" transform="translate(610.181 176.5) rotate(90)" fill="none">
          <path d="M39.038,0a5,5,0,0,1,4.325,2.491L54.435,21.582a5,5,0,0,1,0,5.017L43.363,45.69a5,5,0,0,1-4.325,2.491H16.853a5,5,0,0,1-4.325-2.491L1.455,26.6a5,5,0,0,1,0-5.017L12.528,2.491A5,5,0,0,1,16.853,0Z" stroke="none"/>
          <path d="M 16.85274124145508 1.000003814697266 C 15.43151092529297 1.000003814697266 14.10567092895508 1.763721466064453 13.39260864257812 2.993133544921875 L 2.320011138916016 22.08382225036621 C 1.602039337158203 23.32170295715332 1.602039337158203 24.85968208312988 2.320011138916016 26.09756278991699 L 13.39260864257812 45.18825149536133 C 14.10565948486328 46.41766357421875 15.43151092529297 47.18138122558594 16.85274124145508 47.18138122558594 L 39.03765106201172 47.18138122558594 C 40.45888900756836 47.18137359619141 41.78472900390625 46.41765213012695 42.4977912902832 45.18825149536133 L 53.57038879394531 26.09756278991699 C 54.28836059570312 24.85968208312988 54.28836059570312 23.32170295715332 53.57038879394531 22.08382225036621 L 42.4977912902832 2.993133544921875 C 41.78472900390625 1.763721466064453 40.45888900756836 1.000003814697266 39.03767013549805 1.000003814697266 L 16.85274124145508 1.000003814697266 M 16.85274124145508 3.814697265625e-06 L 39.03767013549805 3.814697265625e-06 C 40.82044982910156 3.814697265625e-06 42.46836090087891 0.9492416381835938 43.36281967163086 2.491413116455078 L 54.43542098999023 21.58210182189941 C 55.33520889282227 23.13346290588379 55.33520889282227 25.04791259765625 54.43542098999023 26.59928321838379 L 43.36281967163086 45.68997192382812 C 42.46836090087891 47.23213195800781 40.82044982910156 48.18137359619141 39.03765869140625 48.18138122558594 L 16.85274124145508 48.18138122558594 C 15.06996154785156 48.18138122558594 13.42203140258789 47.23213195800781 12.52758026123047 45.68996429443359 L 1.454978942871094 26.59928321838379 C 0.5551910400390625 25.04791259765625 0.5551910400390625 23.13346290588379 1.454978942871094 21.58210182189941 L 12.52758026123047 2.491413116455078 C 13.42203903198242 0.9492416381835938 15.06996154785156 3.814697265625e-06 16.85274124145508 3.814697265625e-06 Z" stroke="none" fill="#0e3455"/>
        </g>
      </g>
      <g id="Group_171" data-name="Group 171" transform="translate(301 -48)">
        <g id="Polygon_4-10" data-name="Polygon 4" transform="translate(613.072 178.427) rotate(90)" fill="none">
          <path d="M39.038,0a5,5,0,0,1,4.325,2.491L54.435,21.582a5,5,0,0,1,0,5.017L43.363,45.69a5,5,0,0,1-4.325,2.491H16.853a5,5,0,0,1-4.325-2.491L1.455,26.6a5,5,0,0,1,0-5.017L12.528,2.491A5,5,0,0,1,16.853,0Z" stroke="none"/>
          <path d="M 16.85274124145508 1.000003814697266 C 15.43151092529297 1.000003814697266 14.10567092895508 1.763721466064453 13.39260864257812 2.993133544921875 L 2.320011138916016 22.08382225036621 C 1.602039337158203 23.32170295715332 1.602039337158203 24.85968208312988 2.320011138916016 26.09756278991699 L 13.39260864257812 45.18825149536133 C 14.10565948486328 46.41766357421875 15.43151092529297 47.18138122558594 16.85274124145508 47.18138122558594 L 39.03765106201172 47.18138122558594 C 40.45888900756836 47.18137359619141 41.78472900390625 46.41765213012695 42.4977912902832 45.18825149536133 L 53.57038879394531 26.09756278991699 C 54.28836059570312 24.85968208312988 54.28836059570312 23.32170295715332 53.57038879394531 22.08382225036621 L 42.4977912902832 2.993133544921875 C 41.78472900390625 1.763721466064453 40.45888900756836 1.000003814697266 39.03767013549805 1.000003814697266 L 16.85274124145508 1.000003814697266 M 16.85274124145508 3.814697265625e-06 L 39.03767013549805 3.814697265625e-06 C 40.82044982910156 3.814697265625e-06 42.46836090087891 0.9492416381835938 43.36281967163086 2.491413116455078 L 54.43542098999023 21.58210182189941 C 55.33520889282227 23.13346290588379 55.33520889282227 25.04791259765625 54.43542098999023 26.59928321838379 L 43.36281967163086 45.68997192382812 C 42.46836090087891 47.23213195800781 40.82044982910156 48.18137359619141 39.03765869140625 48.18138122558594 L 16.85274124145508 48.18138122558594 C 15.06996154785156 48.18138122558594 13.42203140258789 47.23213195800781 12.52758026123047 45.68996429443359 L 1.454978942871094 26.59928321838379 C 0.5551910400390625 25.04791259765625 0.5551910400390625 23.13346290588379 1.454978942871094 21.58210182189941 L 12.52758026123047 2.491413116455078 C 13.42203903198242 0.9492416381835938 15.06996154785156 3.814697265625e-06 16.85274124145508 3.814697265625e-06 Z" stroke="none" fill="#9ec9e9"/>
        </g>
        <g id="Polygon_3-10" data-name="Polygon 3" transform="translate(610.181 176.5) rotate(90)" fill="none">
          <path d="M39.038,0a5,5,0,0,1,4.325,2.491L54.435,21.582a5,5,0,0,1,0,5.017L43.363,45.69a5,5,0,0,1-4.325,2.491H16.853a5,5,0,0,1-4.325-2.491L1.455,26.6a5,5,0,0,1,0-5.017L12.528,2.491A5,5,0,0,1,16.853,0Z" stroke="none"/>
          <path d="M 16.85274124145508 1.000003814697266 C 15.43151092529297 1.000003814697266 14.10567092895508 1.763721466064453 13.39260864257812 2.993133544921875 L 2.320011138916016 22.08382225036621 C 1.602039337158203 23.32170295715332 1.602039337158203 24.85968208312988 2.320011138916016 26.09756278991699 L 13.39260864257812 45.18825149536133 C 14.10565948486328 46.41766357421875 15.43151092529297 47.18138122558594 16.85274124145508 47.18138122558594 L 39.03765106201172 47.18138122558594 C 40.45888900756836 47.18137359619141 41.78472900390625 46.41765213012695 42.4977912902832 45.18825149536133 L 53.57038879394531 26.09756278991699 C 54.28836059570312 24.85968208312988 54.28836059570312 23.32170295715332 53.57038879394531 22.08382225036621 L 42.4977912902832 2.993133544921875 C 41.78472900390625 1.763721466064453 40.45888900756836 1.000003814697266 39.03767013549805 1.000003814697266 L 16.85274124145508 1.000003814697266 M 16.85274124145508 3.814697265625e-06 L 39.03767013549805 3.814697265625e-06 C 40.82044982910156 3.814697265625e-06 42.46836090087891 0.9492416381835938 43.36281967163086 2.491413116455078 L 54.43542098999023 21.58210182189941 C 55.33520889282227 23.13346290588379 55.33520889282227 25.04791259765625 54.43542098999023 26.59928321838379 L 43.36281967163086 45.68997192382812 C 42.46836090087891 47.23213195800781 40.82044982910156 48.18137359619141 39.03765869140625 48.18138122558594 L 16.85274124145508 48.18138122558594 C 15.06996154785156 48.18138122558594 13.42203140258789 47.23213195800781 12.52758026123047 45.68996429443359 L 1.454978942871094 26.59928321838379 C 0.5551910400390625 25.04791259765625 0.5551910400390625 23.13346290588379 1.454978942871094 21.58210182189941 L 12.52758026123047 2.491413116455078 C 13.42203903198242 0.9492416381835938 15.06996154785156 3.814697265625e-06 16.85274124145508 3.814697265625e-06 Z" stroke="none" fill="#0e3455"/>
        </g>
      </g>
      <g id="Group_172" data-name="Group 172" transform="translate(328 -95)">
        <g id="Polygon_4-11" data-name="Polygon 4" transform="translate(613.072 178.427) rotate(90)" fill="none">
          <path d="M39.038,0a5,5,0,0,1,4.325,2.491L54.435,21.582a5,5,0,0,1,0,5.017L43.363,45.69a5,5,0,0,1-4.325,2.491H16.853a5,5,0,0,1-4.325-2.491L1.455,26.6a5,5,0,0,1,0-5.017L12.528,2.491A5,5,0,0,1,16.853,0Z" stroke="none"/>
          <path d="M 16.85274124145508 1.000003814697266 C 15.43151092529297 1.000003814697266 14.10567092895508 1.763721466064453 13.39260864257812 2.993133544921875 L 2.320011138916016 22.08382225036621 C 1.602039337158203 23.32170295715332 1.602039337158203 24.85968208312988 2.320011138916016 26.09756278991699 L 13.39260864257812 45.18825149536133 C 14.10565948486328 46.41766357421875 15.43151092529297 47.18138122558594 16.85274124145508 47.18138122558594 L 39.03765106201172 47.18138122558594 C 40.45888900756836 47.18137359619141 41.78472900390625 46.41765213012695 42.4977912902832 45.18825149536133 L 53.57038879394531 26.09756278991699 C 54.28836059570312 24.85968208312988 54.28836059570312 23.32170295715332 53.57038879394531 22.08382225036621 L 42.4977912902832 2.993133544921875 C 41.78472900390625 1.763721466064453 40.45888900756836 1.000003814697266 39.03767013549805 1.000003814697266 L 16.85274124145508 1.000003814697266 M 16.85274124145508 3.814697265625e-06 L 39.03767013549805 3.814697265625e-06 C 40.82044982910156 3.814697265625e-06 42.46836090087891 0.9492416381835938 43.36281967163086 2.491413116455078 L 54.43542098999023 21.58210182189941 C 55.33520889282227 23.13346290588379 55.33520889282227 25.04791259765625 54.43542098999023 26.59928321838379 L 43.36281967163086 45.68997192382812 C 42.46836090087891 47.23213195800781 40.82044982910156 48.18137359619141 39.03765869140625 48.18138122558594 L 16.85274124145508 48.18138122558594 C 15.06996154785156 48.18138122558594 13.42203140258789 47.23213195800781 12.52758026123047 45.68996429443359 L 1.454978942871094 26.59928321838379 C 0.5551910400390625 25.04791259765625 0.5551910400390625 23.13346290588379 1.454978942871094 21.58210182189941 L 12.52758026123047 2.491413116455078 C 13.42203903198242 0.9492416381835938 15.06996154785156 3.814697265625e-06 16.85274124145508 3.814697265625e-06 Z" stroke="none" fill="#9ec9e9"/>
        </g>
        <g id="Polygon_3-11" data-name="Polygon 3" transform="translate(610.181 176.5) rotate(90)" fill="none">
          <path d="M39.038,0a5,5,0,0,1,4.325,2.491L54.435,21.582a5,5,0,0,1,0,5.017L43.363,45.69a5,5,0,0,1-4.325,2.491H16.853a5,5,0,0,1-4.325-2.491L1.455,26.6a5,5,0,0,1,0-5.017L12.528,2.491A5,5,0,0,1,16.853,0Z" stroke="none"/>
          <path d="M 16.85274124145508 1.000003814697266 C 15.43151092529297 1.000003814697266 14.10567092895508 1.763721466064453 13.39260864257812 2.993133544921875 L 2.320011138916016 22.08382225036621 C 1.602039337158203 23.32170295715332 1.602039337158203 24.85968208312988 2.320011138916016 26.09756278991699 L 13.39260864257812 45.18825149536133 C 14.10565948486328 46.41766357421875 15.43151092529297 47.18138122558594 16.85274124145508 47.18138122558594 L 39.03765106201172 47.18138122558594 C 40.45888900756836 47.18137359619141 41.78472900390625 46.41765213012695 42.4977912902832 45.18825149536133 L 53.57038879394531 26.09756278991699 C 54.28836059570312 24.85968208312988 54.28836059570312 23.32170295715332 53.57038879394531 22.08382225036621 L 42.4977912902832 2.993133544921875 C 41.78472900390625 1.763721466064453 40.45888900756836 1.000003814697266 39.03767013549805 1.000003814697266 L 16.85274124145508 1.000003814697266 M 16.85274124145508 3.814697265625e-06 L 39.03767013549805 3.814697265625e-06 C 40.82044982910156 3.814697265625e-06 42.46836090087891 0.9492416381835938 43.36281967163086 2.491413116455078 L 54.43542098999023 21.58210182189941 C 55.33520889282227 23.13346290588379 55.33520889282227 25.04791259765625 54.43542098999023 26.59928321838379 L 43.36281967163086 45.68997192382812 C 42.46836090087891 47.23213195800781 40.82044982910156 48.18137359619141 39.03765869140625 48.18138122558594 L 16.85274124145508 48.18138122558594 C 15.06996154785156 48.18138122558594 13.42203140258789 47.23213195800781 12.52758026123047 45.68996429443359 L 1.454978942871094 26.59928321838379 C 0.5551910400390625 25.04791259765625 0.5551910400390625 23.13346290588379 1.454978942871094 21.58210182189941 L 12.52758026123047 2.491413116455078 C 13.42203903198242 0.9492416381835938 15.06996154785156 3.814697265625e-06 16.85274124145508 3.814697265625e-06 Z" stroke="none" fill="#0e3455"/>
        </g>
      </g>
      <g id="Group_186" data-name="Group 186" transform="translate(220 -95)">
        <g id="Polygon_4-12" data-name="Polygon 4" transform="translate(613.072 178.427) rotate(90)" fill="none">
          <path d="M39.038,0a5,5,0,0,1,4.325,2.491L54.435,21.582a5,5,0,0,1,0,5.017L43.363,45.69a5,5,0,0,1-4.325,2.491H16.853a5,5,0,0,1-4.325-2.491L1.455,26.6a5,5,0,0,1,0-5.017L12.528,2.491A5,5,0,0,1,16.853,0Z" stroke="none"/>
          <path d="M 16.85274124145508 1.000003814697266 C 15.43151092529297 1.000003814697266 14.10567092895508 1.763721466064453 13.39260864257812 2.993133544921875 L 2.320011138916016 22.08382225036621 C 1.602039337158203 23.32170295715332 1.602039337158203 24.85968208312988 2.320011138916016 26.09756278991699 L 13.39260864257812 45.18825149536133 C 14.10565948486328 46.41766357421875 15.43151092529297 47.18138122558594 16.85274124145508 47.18138122558594 L 39.03765106201172 47.18138122558594 C 40.45888900756836 47.18137359619141 41.78472900390625 46.41765213012695 42.4977912902832 45.18825149536133 L 53.57038879394531 26.09756278991699 C 54.28836059570312 24.85968208312988 54.28836059570312 23.32170295715332 53.57038879394531 22.08382225036621 L 42.4977912902832 2.993133544921875 C 41.78472900390625 1.763721466064453 40.45888900756836 1.000003814697266 39.03767013549805 1.000003814697266 L 16.85274124145508 1.000003814697266 M 16.85274124145508 3.814697265625e-06 L 39.03767013549805 3.814697265625e-06 C 40.82044982910156 3.814697265625e-06 42.46836090087891 0.9492416381835938 43.36281967163086 2.491413116455078 L 54.43542098999023 21.58210182189941 C 55.33520889282227 23.13346290588379 55.33520889282227 25.04791259765625 54.43542098999023 26.59928321838379 L 43.36281967163086 45.68997192382812 C 42.46836090087891 47.23213195800781 40.82044982910156 48.18137359619141 39.03765869140625 48.18138122558594 L 16.85274124145508 48.18138122558594 C 15.06996154785156 48.18138122558594 13.42203140258789 47.23213195800781 12.52758026123047 45.68996429443359 L 1.454978942871094 26.59928321838379 C 0.5551910400390625 25.04791259765625 0.5551910400390625 23.13346290588379 1.454978942871094 21.58210182189941 L 12.52758026123047 2.491413116455078 C 13.42203903198242 0.9492416381835938 15.06996154785156 3.814697265625e-06 16.85274124145508 3.814697265625e-06 Z" stroke="none" fill="#9ec9e9"/>
        </g>
        <g id="Polygon_3-12" data-name="Polygon 3" transform="translate(610.181 176.5) rotate(90)" fill="none">
          <path d="M39.038,0a5,5,0,0,1,4.325,2.491L54.435,21.582a5,5,0,0,1,0,5.017L43.363,45.69a5,5,0,0,1-4.325,2.491H16.853a5,5,0,0,1-4.325-2.491L1.455,26.6a5,5,0,0,1,0-5.017L12.528,2.491A5,5,0,0,1,16.853,0Z" stroke="none"/>
          <path d="M 16.85274124145508 1.000003814697266 C 15.43151092529297 1.000003814697266 14.10567092895508 1.763721466064453 13.39260864257812 2.993133544921875 L 2.320011138916016 22.08382225036621 C 1.602039337158203 23.32170295715332 1.602039337158203 24.85968208312988 2.320011138916016 26.09756278991699 L 13.39260864257812 45.18825149536133 C 14.10565948486328 46.41766357421875 15.43151092529297 47.18138122558594 16.85274124145508 47.18138122558594 L 39.03765106201172 47.18138122558594 C 40.45888900756836 47.18137359619141 41.78472900390625 46.41765213012695 42.4977912902832 45.18825149536133 L 53.57038879394531 26.09756278991699 C 54.28836059570312 24.85968208312988 54.28836059570312 23.32170295715332 53.57038879394531 22.08382225036621 L 42.4977912902832 2.993133544921875 C 41.78472900390625 1.763721466064453 40.45888900756836 1.000003814697266 39.03767013549805 1.000003814697266 L 16.85274124145508 1.000003814697266 M 16.85274124145508 3.814697265625e-06 L 39.03767013549805 3.814697265625e-06 C 40.82044982910156 3.814697265625e-06 42.46836090087891 0.9492416381835938 43.36281967163086 2.491413116455078 L 54.43542098999023 21.58210182189941 C 55.33520889282227 23.13346290588379 55.33520889282227 25.04791259765625 54.43542098999023 26.59928321838379 L 43.36281967163086 45.68997192382812 C 42.46836090087891 47.23213195800781 40.82044982910156 48.18137359619141 39.03765869140625 48.18138122558594 L 16.85274124145508 48.18138122558594 C 15.06996154785156 48.18138122558594 13.42203140258789 47.23213195800781 12.52758026123047 45.68996429443359 L 1.454978942871094 26.59928321838379 C 0.5551910400390625 25.04791259765625 0.5551910400390625 23.13346290588379 1.454978942871094 21.58210182189941 L 12.52758026123047 2.491413116455078 C 13.42203903198242 0.9492416381835938 15.06996154785156 3.814697265625e-06 16.85274124145508 3.814697265625e-06 Z" stroke="none" fill="#0e3455"/>
        </g>
      </g>
      <g id="Group_173" data-name="Group 173" transform="translate(382 -95)">
        <g id="Polygon_4-13" data-name="Polygon 4" transform="translate(613.072 178.427) rotate(90)" fill="none">
          <path d="M39.038,0a5,5,0,0,1,4.325,2.491L54.435,21.582a5,5,0,0,1,0,5.017L43.363,45.69a5,5,0,0,1-4.325,2.491H16.853a5,5,0,0,1-4.325-2.491L1.455,26.6a5,5,0,0,1,0-5.017L12.528,2.491A5,5,0,0,1,16.853,0Z" stroke="none"/>
          <path d="M 16.85274124145508 1.000003814697266 C 15.43151092529297 1.000003814697266 14.10567092895508 1.763721466064453 13.39260864257812 2.993133544921875 L 2.320011138916016 22.08382225036621 C 1.602039337158203 23.32170295715332 1.602039337158203 24.85968208312988 2.320011138916016 26.09756278991699 L 13.39260864257812 45.18825149536133 C 14.10565948486328 46.41766357421875 15.43151092529297 47.18138122558594 16.85274124145508 47.18138122558594 L 39.03765106201172 47.18138122558594 C 40.45888900756836 47.18137359619141 41.78472900390625 46.41765213012695 42.4977912902832 45.18825149536133 L 53.57038879394531 26.09756278991699 C 54.28836059570312 24.85968208312988 54.28836059570312 23.32170295715332 53.57038879394531 22.08382225036621 L 42.4977912902832 2.993133544921875 C 41.78472900390625 1.763721466064453 40.45888900756836 1.000003814697266 39.03767013549805 1.000003814697266 L 16.85274124145508 1.000003814697266 M 16.85274124145508 3.814697265625e-06 L 39.03767013549805 3.814697265625e-06 C 40.82044982910156 3.814697265625e-06 42.46836090087891 0.9492416381835938 43.36281967163086 2.491413116455078 L 54.43542098999023 21.58210182189941 C 55.33520889282227 23.13346290588379 55.33520889282227 25.04791259765625 54.43542098999023 26.59928321838379 L 43.36281967163086 45.68997192382812 C 42.46836090087891 47.23213195800781 40.82044982910156 48.18137359619141 39.03765869140625 48.18138122558594 L 16.85274124145508 48.18138122558594 C 15.06996154785156 48.18138122558594 13.42203140258789 47.23213195800781 12.52758026123047 45.68996429443359 L 1.454978942871094 26.59928321838379 C 0.5551910400390625 25.04791259765625 0.5551910400390625 23.13346290588379 1.454978942871094 21.58210182189941 L 12.52758026123047 2.491413116455078 C 13.42203903198242 0.9492416381835938 15.06996154785156 3.814697265625e-06 16.85274124145508 3.814697265625e-06 Z" stroke="none" fill="#9ec9e9"/>
        </g>
        <g id="Polygon_3-13" data-name="Polygon 3" transform="translate(610.181 176.5) rotate(90)" fill="none">
          <path d="M39.038,0a5,5,0,0,1,4.325,2.491L54.435,21.582a5,5,0,0,1,0,5.017L43.363,45.69a5,5,0,0,1-4.325,2.491H16.853a5,5,0,0,1-4.325-2.491L1.455,26.6a5,5,0,0,1,0-5.017L12.528,2.491A5,5,0,0,1,16.853,0Z" stroke="none"/>
          <path d="M 16.85274124145508 1.000003814697266 C 15.43151092529297 1.000003814697266 14.10567092895508 1.763721466064453 13.39260864257812 2.993133544921875 L 2.320011138916016 22.08382225036621 C 1.602039337158203 23.32170295715332 1.602039337158203 24.85968208312988 2.320011138916016 26.09756278991699 L 13.39260864257812 45.18825149536133 C 14.10565948486328 46.41766357421875 15.43151092529297 47.18138122558594 16.85274124145508 47.18138122558594 L 39.03765106201172 47.18138122558594 C 40.45888900756836 47.18137359619141 41.78472900390625 46.41765213012695 42.4977912902832 45.18825149536133 L 53.57038879394531 26.09756278991699 C 54.28836059570312 24.85968208312988 54.28836059570312 23.32170295715332 53.57038879394531 22.08382225036621 L 42.4977912902832 2.993133544921875 C 41.78472900390625 1.763721466064453 40.45888900756836 1.000003814697266 39.03767013549805 1.000003814697266 L 16.85274124145508 1.000003814697266 M 16.85274124145508 3.814697265625e-06 L 39.03767013549805 3.814697265625e-06 C 40.82044982910156 3.814697265625e-06 42.46836090087891 0.9492416381835938 43.36281967163086 2.491413116455078 L 54.43542098999023 21.58210182189941 C 55.33520889282227 23.13346290588379 55.33520889282227 25.04791259765625 54.43542098999023 26.59928321838379 L 43.36281967163086 45.68997192382812 C 42.46836090087891 47.23213195800781 40.82044982910156 48.18137359619141 39.03765869140625 48.18138122558594 L 16.85274124145508 48.18138122558594 C 15.06996154785156 48.18138122558594 13.42203140258789 47.23213195800781 12.52758026123047 45.68996429443359 L 1.454978942871094 26.59928321838379 C 0.5551910400390625 25.04791259765625 0.5551910400390625 23.13346290588379 1.454978942871094 21.58210182189941 L 12.52758026123047 2.491413116455078 C 13.42203903198242 0.9492416381835938 15.06996154785156 3.814697265625e-06 16.85274124145508 3.814697265625e-06 Z" stroke="none" fill="#0e3455"/>
        </g>
      </g>
      <g id="Group_174" data-name="Group 174" transform="translate(355 -48)">
        <g id="Polygon_4-14" data-name="Polygon 4" transform="translate(613.072 178.427) rotate(90)" fill="none">
          <path d="M39.038,0a5,5,0,0,1,4.325,2.491L54.435,21.582a5,5,0,0,1,0,5.017L43.363,45.69a5,5,0,0,1-4.325,2.491H16.853a5,5,0,0,1-4.325-2.491L1.455,26.6a5,5,0,0,1,0-5.017L12.528,2.491A5,5,0,0,1,16.853,0Z" stroke="none"/>
          <path d="M 16.85274124145508 1.000003814697266 C 15.43151092529297 1.000003814697266 14.10567092895508 1.763721466064453 13.39260864257812 2.993133544921875 L 2.320011138916016 22.08382225036621 C 1.602039337158203 23.32170295715332 1.602039337158203 24.85968208312988 2.320011138916016 26.09756278991699 L 13.39260864257812 45.18825149536133 C 14.10565948486328 46.41766357421875 15.43151092529297 47.18138122558594 16.85274124145508 47.18138122558594 L 39.03765106201172 47.18138122558594 C 40.45888900756836 47.18137359619141 41.78472900390625 46.41765213012695 42.4977912902832 45.18825149536133 L 53.57038879394531 26.09756278991699 C 54.28836059570312 24.85968208312988 54.28836059570312 23.32170295715332 53.57038879394531 22.08382225036621 L 42.4977912902832 2.993133544921875 C 41.78472900390625 1.763721466064453 40.45888900756836 1.000003814697266 39.03767013549805 1.000003814697266 L 16.85274124145508 1.000003814697266 M 16.85274124145508 3.814697265625e-06 L 39.03767013549805 3.814697265625e-06 C 40.82044982910156 3.814697265625e-06 42.46836090087891 0.9492416381835938 43.36281967163086 2.491413116455078 L 54.43542098999023 21.58210182189941 C 55.33520889282227 23.13346290588379 55.33520889282227 25.04791259765625 54.43542098999023 26.59928321838379 L 43.36281967163086 45.68997192382812 C 42.46836090087891 47.23213195800781 40.82044982910156 48.18137359619141 39.03765869140625 48.18138122558594 L 16.85274124145508 48.18138122558594 C 15.06996154785156 48.18138122558594 13.42203140258789 47.23213195800781 12.52758026123047 45.68996429443359 L 1.454978942871094 26.59928321838379 C 0.5551910400390625 25.04791259765625 0.5551910400390625 23.13346290588379 1.454978942871094 21.58210182189941 L 12.52758026123047 2.491413116455078 C 13.42203903198242 0.9492416381835938 15.06996154785156 3.814697265625e-06 16.85274124145508 3.814697265625e-06 Z" stroke="none" fill="#9ec9e9"/>
        </g>
        <g id="Polygon_3-14" data-name="Polygon 3" transform="translate(610.181 176.5) rotate(90)" fill="none">
          <path d="M39.038,0a5,5,0,0,1,4.325,2.491L54.435,21.582a5,5,0,0,1,0,5.017L43.363,45.69a5,5,0,0,1-4.325,2.491H16.853a5,5,0,0,1-4.325-2.491L1.455,26.6a5,5,0,0,1,0-5.017L12.528,2.491A5,5,0,0,1,16.853,0Z" stroke="none"/>
          <path d="M 16.85274124145508 1.000003814697266 C 15.43151092529297 1.000003814697266 14.10567092895508 1.763721466064453 13.39260864257812 2.993133544921875 L 2.320011138916016 22.08382225036621 C 1.602039337158203 23.32170295715332 1.602039337158203 24.85968208312988 2.320011138916016 26.09756278991699 L 13.39260864257812 45.18825149536133 C 14.10565948486328 46.41766357421875 15.43151092529297 47.18138122558594 16.85274124145508 47.18138122558594 L 39.03765106201172 47.18138122558594 C 40.45888900756836 47.18137359619141 41.78472900390625 46.41765213012695 42.4977912902832 45.18825149536133 L 53.57038879394531 26.09756278991699 C 54.28836059570312 24.85968208312988 54.28836059570312 23.32170295715332 53.57038879394531 22.08382225036621 L 42.4977912902832 2.993133544921875 C 41.78472900390625 1.763721466064453 40.45888900756836 1.000003814697266 39.03767013549805 1.000003814697266 L 16.85274124145508 1.000003814697266 M 16.85274124145508 3.814697265625e-06 L 39.03767013549805 3.814697265625e-06 C 40.82044982910156 3.814697265625e-06 42.46836090087891 0.9492416381835938 43.36281967163086 2.491413116455078 L 54.43542098999023 21.58210182189941 C 55.33520889282227 23.13346290588379 55.33520889282227 25.04791259765625 54.43542098999023 26.59928321838379 L 43.36281967163086 45.68997192382812 C 42.46836090087891 47.23213195800781 40.82044982910156 48.18137359619141 39.03765869140625 48.18138122558594 L 16.85274124145508 48.18138122558594 C 15.06996154785156 48.18138122558594 13.42203140258789 47.23213195800781 12.52758026123047 45.68996429443359 L 1.454978942871094 26.59928321838379 C 0.5551910400390625 25.04791259765625 0.5551910400390625 23.13346290588379 1.454978942871094 21.58210182189941 L 12.52758026123047 2.491413116455078 C 13.42203903198242 0.9492416381835938 15.06996154785156 3.814697265625e-06 16.85274124145508 3.814697265625e-06 Z" stroke="none" fill="#0e3455"/>
        </g>
      </g>
      <g id="Group_179" data-name="Group 179" transform="translate(355 -142)">
        <g id="Polygon_4-15" data-name="Polygon 4" transform="translate(613.072 178.427) rotate(90)" fill="none">
          <path d="M39.038,0a5,5,0,0,1,4.325,2.491L54.435,21.582a5,5,0,0,1,0,5.017L43.363,45.69a5,5,0,0,1-4.325,2.491H16.853a5,5,0,0,1-4.325-2.491L1.455,26.6a5,5,0,0,1,0-5.017L12.528,2.491A5,5,0,0,1,16.853,0Z" stroke="none"/>
          <path d="M 16.85274124145508 1.000003814697266 C 15.43151092529297 1.000003814697266 14.10567092895508 1.763721466064453 13.39260864257812 2.993133544921875 L 2.320011138916016 22.08382225036621 C 1.602039337158203 23.32170295715332 1.602039337158203 24.85968208312988 2.320011138916016 26.09756278991699 L 13.39260864257812 45.18825149536133 C 14.10565948486328 46.41766357421875 15.43151092529297 47.18138122558594 16.85274124145508 47.18138122558594 L 39.03765106201172 47.18138122558594 C 40.45888900756836 47.18137359619141 41.78472900390625 46.41765213012695 42.4977912902832 45.18825149536133 L 53.57038879394531 26.09756278991699 C 54.28836059570312 24.85968208312988 54.28836059570312 23.32170295715332 53.57038879394531 22.08382225036621 L 42.4977912902832 2.993133544921875 C 41.78472900390625 1.763721466064453 40.45888900756836 1.000003814697266 39.03767013549805 1.000003814697266 L 16.85274124145508 1.000003814697266 M 16.85274124145508 3.814697265625e-06 L 39.03767013549805 3.814697265625e-06 C 40.82044982910156 3.814697265625e-06 42.46836090087891 0.9492416381835938 43.36281967163086 2.491413116455078 L 54.43542098999023 21.58210182189941 C 55.33520889282227 23.13346290588379 55.33520889282227 25.04791259765625 54.43542098999023 26.59928321838379 L 43.36281967163086 45.68997192382812 C 42.46836090087891 47.23213195800781 40.82044982910156 48.18137359619141 39.03765869140625 48.18138122558594 L 16.85274124145508 48.18138122558594 C 15.06996154785156 48.18138122558594 13.42203140258789 47.23213195800781 12.52758026123047 45.68996429443359 L 1.454978942871094 26.59928321838379 C 0.5551910400390625 25.04791259765625 0.5551910400390625 23.13346290588379 1.454978942871094 21.58210182189941 L 12.52758026123047 2.491413116455078 C 13.42203903198242 0.9492416381835938 15.06996154785156 3.814697265625e-06 16.85274124145508 3.814697265625e-06 Z" stroke="none" fill="#9ec9e9"/>
        </g>
        <g id="Polygon_3-15" data-name="Polygon 3" transform="translate(610.181 176.5) rotate(90)" fill="none">
          <path d="M39.038,0a5,5,0,0,1,4.325,2.491L54.435,21.582a5,5,0,0,1,0,5.017L43.363,45.69a5,5,0,0,1-4.325,2.491H16.853a5,5,0,0,1-4.325-2.491L1.455,26.6a5,5,0,0,1,0-5.017L12.528,2.491A5,5,0,0,1,16.853,0Z" stroke="none"/>
          <path d="M 16.85274124145508 1.000003814697266 C 15.43151092529297 1.000003814697266 14.10567092895508 1.763721466064453 13.39260864257812 2.993133544921875 L 2.320011138916016 22.08382225036621 C 1.602039337158203 23.32170295715332 1.602039337158203 24.85968208312988 2.320011138916016 26.09756278991699 L 13.39260864257812 45.18825149536133 C 14.10565948486328 46.41766357421875 15.43151092529297 47.18138122558594 16.85274124145508 47.18138122558594 L 39.03765106201172 47.18138122558594 C 40.45888900756836 47.18137359619141 41.78472900390625 46.41765213012695 42.4977912902832 45.18825149536133 L 53.57038879394531 26.09756278991699 C 54.28836059570312 24.85968208312988 54.28836059570312 23.32170295715332 53.57038879394531 22.08382225036621 L 42.4977912902832 2.993133544921875 C 41.78472900390625 1.763721466064453 40.45888900756836 1.000003814697266 39.03767013549805 1.000003814697266 L 16.85274124145508 1.000003814697266 M 16.85274124145508 3.814697265625e-06 L 39.03767013549805 3.814697265625e-06 C 40.82044982910156 3.814697265625e-06 42.46836090087891 0.9492416381835938 43.36281967163086 2.491413116455078 L 54.43542098999023 21.58210182189941 C 55.33520889282227 23.13346290588379 55.33520889282227 25.04791259765625 54.43542098999023 26.59928321838379 L 43.36281967163086 45.68997192382812 C 42.46836090087891 47.23213195800781 40.82044982910156 48.18137359619141 39.03765869140625 48.18138122558594 L 16.85274124145508 48.18138122558594 C 15.06996154785156 48.18138122558594 13.42203140258789 47.23213195800781 12.52758026123047 45.68996429443359 L 1.454978942871094 26.59928321838379 C 0.5551910400390625 25.04791259765625 0.5551910400390625 23.13346290588379 1.454978942871094 21.58210182189941 L 12.52758026123047 2.491413116455078 C 13.42203903198242 0.9492416381835938 15.06996154785156 3.814697265625e-06 16.85274124145508 3.814697265625e-06 Z" stroke="none" fill="#0e3455"/>
        </g>
      </g>
      <g id="Group_175" data-name="Group 175" transform="translate(247 -48)">
        <g id="Polygon_4-16" data-name="Polygon 4" transform="translate(613.072 178.427) rotate(90)" fill="none">
          <path d="M39.038,0a5,5,0,0,1,4.325,2.491L54.435,21.582a5,5,0,0,1,0,5.017L43.363,45.69a5,5,0,0,1-4.325,2.491H16.853a5,5,0,0,1-4.325-2.491L1.455,26.6a5,5,0,0,1,0-5.017L12.528,2.491A5,5,0,0,1,16.853,0Z" stroke="none"/>
          <path d="M 16.85274124145508 1.000003814697266 C 15.43151092529297 1.000003814697266 14.10567092895508 1.763721466064453 13.39260864257812 2.993133544921875 L 2.320011138916016 22.08382225036621 C 1.602039337158203 23.32170295715332 1.602039337158203 24.85968208312988 2.320011138916016 26.09756278991699 L 13.39260864257812 45.18825149536133 C 14.10565948486328 46.41766357421875 15.43151092529297 47.18138122558594 16.85274124145508 47.18138122558594 L 39.03765106201172 47.18138122558594 C 40.45888900756836 47.18137359619141 41.78472900390625 46.41765213012695 42.4977912902832 45.18825149536133 L 53.57038879394531 26.09756278991699 C 54.28836059570312 24.85968208312988 54.28836059570312 23.32170295715332 53.57038879394531 22.08382225036621 L 42.4977912902832 2.993133544921875 C 41.78472900390625 1.763721466064453 40.45888900756836 1.000003814697266 39.03767013549805 1.000003814697266 L 16.85274124145508 1.000003814697266 M 16.85274124145508 3.814697265625e-06 L 39.03767013549805 3.814697265625e-06 C 40.82044982910156 3.814697265625e-06 42.46836090087891 0.9492416381835938 43.36281967163086 2.491413116455078 L 54.43542098999023 21.58210182189941 C 55.33520889282227 23.13346290588379 55.33520889282227 25.04791259765625 54.43542098999023 26.59928321838379 L 43.36281967163086 45.68997192382812 C 42.46836090087891 47.23213195800781 40.82044982910156 48.18137359619141 39.03765869140625 48.18138122558594 L 16.85274124145508 48.18138122558594 C 15.06996154785156 48.18138122558594 13.42203140258789 47.23213195800781 12.52758026123047 45.68996429443359 L 1.454978942871094 26.59928321838379 C 0.5551910400390625 25.04791259765625 0.5551910400390625 23.13346290588379 1.454978942871094 21.58210182189941 L 12.52758026123047 2.491413116455078 C 13.42203903198242 0.9492416381835938 15.06996154785156 3.814697265625e-06 16.85274124145508 3.814697265625e-06 Z" stroke="none" fill="#9ec9e9"/>
        </g>
        <g id="Polygon_3-16" data-name="Polygon 3" transform="translate(610.181 176.5) rotate(90)" fill="none">
          <path d="M39.038,0a5,5,0,0,1,4.325,2.491L54.435,21.582a5,5,0,0,1,0,5.017L43.363,45.69a5,5,0,0,1-4.325,2.491H16.853a5,5,0,0,1-4.325-2.491L1.455,26.6a5,5,0,0,1,0-5.017L12.528,2.491A5,5,0,0,1,16.853,0Z" stroke="none"/>
          <path d="M 16.85274124145508 1.000003814697266 C 15.43151092529297 1.000003814697266 14.10567092895508 1.763721466064453 13.39260864257812 2.993133544921875 L 2.320011138916016 22.08382225036621 C 1.602039337158203 23.32170295715332 1.602039337158203 24.85968208312988 2.320011138916016 26.09756278991699 L 13.39260864257812 45.18825149536133 C 14.10565948486328 46.41766357421875 15.43151092529297 47.18138122558594 16.85274124145508 47.18138122558594 L 39.03765106201172 47.18138122558594 C 40.45888900756836 47.18137359619141 41.78472900390625 46.41765213012695 42.4977912902832 45.18825149536133 L 53.57038879394531 26.09756278991699 C 54.28836059570312 24.85968208312988 54.28836059570312 23.32170295715332 53.57038879394531 22.08382225036621 L 42.4977912902832 2.993133544921875 C 41.78472900390625 1.763721466064453 40.45888900756836 1.000003814697266 39.03767013549805 1.000003814697266 L 16.85274124145508 1.000003814697266 M 16.85274124145508 3.814697265625e-06 L 39.03767013549805 3.814697265625e-06 C 40.82044982910156 3.814697265625e-06 42.46836090087891 0.9492416381835938 43.36281967163086 2.491413116455078 L 54.43542098999023 21.58210182189941 C 55.33520889282227 23.13346290588379 55.33520889282227 25.04791259765625 54.43542098999023 26.59928321838379 L 43.36281967163086 45.68997192382812 C 42.46836090087891 47.23213195800781 40.82044982910156 48.18137359619141 39.03765869140625 48.18138122558594 L 16.85274124145508 48.18138122558594 C 15.06996154785156 48.18138122558594 13.42203140258789 47.23213195800781 12.52758026123047 45.68996429443359 L 1.454978942871094 26.59928321838379 C 0.5551910400390625 25.04791259765625 0.5551910400390625 23.13346290588379 1.454978942871094 21.58210182189941 L 12.52758026123047 2.491413116455078 C 13.42203903198242 0.9492416381835938 15.06996154785156 3.814697265625e-06 16.85274124145508 3.814697265625e-06 Z" stroke="none" fill="#0e3455"/>
        </g>
      </g>
      <g id="Group_183" data-name="Group 183" transform="translate(193 -48)">
        <g id="Polygon_4-17" data-name="Polygon 4" transform="translate(613.072 178.427) rotate(90)" fill="none">
          <path d="M39.038,0a5,5,0,0,1,4.325,2.491L54.435,21.582a5,5,0,0,1,0,5.017L43.363,45.69a5,5,0,0,1-4.325,2.491H16.853a5,5,0,0,1-4.325-2.491L1.455,26.6a5,5,0,0,1,0-5.017L12.528,2.491A5,5,0,0,1,16.853,0Z" stroke="none"/>
          <path d="M 16.85274124145508 1.000003814697266 C 15.43151092529297 1.000003814697266 14.10567092895508 1.763721466064453 13.39260864257812 2.993133544921875 L 2.320011138916016 22.08382225036621 C 1.602039337158203 23.32170295715332 1.602039337158203 24.85968208312988 2.320011138916016 26.09756278991699 L 13.39260864257812 45.18825149536133 C 14.10565948486328 46.41766357421875 15.43151092529297 47.18138122558594 16.85274124145508 47.18138122558594 L 39.03765106201172 47.18138122558594 C 40.45888900756836 47.18137359619141 41.78472900390625 46.41765213012695 42.4977912902832 45.18825149536133 L 53.57038879394531 26.09756278991699 C 54.28836059570312 24.85968208312988 54.28836059570312 23.32170295715332 53.57038879394531 22.08382225036621 L 42.4977912902832 2.993133544921875 C 41.78472900390625 1.763721466064453 40.45888900756836 1.000003814697266 39.03767013549805 1.000003814697266 L 16.85274124145508 1.000003814697266 M 16.85274124145508 3.814697265625e-06 L 39.03767013549805 3.814697265625e-06 C 40.82044982910156 3.814697265625e-06 42.46836090087891 0.9492416381835938 43.36281967163086 2.491413116455078 L 54.43542098999023 21.58210182189941 C 55.33520889282227 23.13346290588379 55.33520889282227 25.04791259765625 54.43542098999023 26.59928321838379 L 43.36281967163086 45.68997192382812 C 42.46836090087891 47.23213195800781 40.82044982910156 48.18137359619141 39.03765869140625 48.18138122558594 L 16.85274124145508 48.18138122558594 C 15.06996154785156 48.18138122558594 13.42203140258789 47.23213195800781 12.52758026123047 45.68996429443359 L 1.454978942871094 26.59928321838379 C 0.5551910400390625 25.04791259765625 0.5551910400390625 23.13346290588379 1.454978942871094 21.58210182189941 L 12.52758026123047 2.491413116455078 C 13.42203903198242 0.9492416381835938 15.06996154785156 3.814697265625e-06 16.85274124145508 3.814697265625e-06 Z" stroke="none" fill="#9ec9e9"/>
        </g>
        <g id="Polygon_3-17" data-name="Polygon 3" transform="translate(610.181 176.5) rotate(90)" fill="none">
          <path d="M39.038,0a5,5,0,0,1,4.325,2.491L54.435,21.582a5,5,0,0,1,0,5.017L43.363,45.69a5,5,0,0,1-4.325,2.491H16.853a5,5,0,0,1-4.325-2.491L1.455,26.6a5,5,0,0,1,0-5.017L12.528,2.491A5,5,0,0,1,16.853,0Z" stroke="none"/>
          <path d="M 16.85274124145508 1.000003814697266 C 15.43151092529297 1.000003814697266 14.10567092895508 1.763721466064453 13.39260864257812 2.993133544921875 L 2.320011138916016 22.08382225036621 C 1.602039337158203 23.32170295715332 1.602039337158203 24.85968208312988 2.320011138916016 26.09756278991699 L 13.39260864257812 45.18825149536133 C 14.10565948486328 46.41766357421875 15.43151092529297 47.18138122558594 16.85274124145508 47.18138122558594 L 39.03765106201172 47.18138122558594 C 40.45888900756836 47.18137359619141 41.78472900390625 46.41765213012695 42.4977912902832 45.18825149536133 L 53.57038879394531 26.09756278991699 C 54.28836059570312 24.85968208312988 54.28836059570312 23.32170295715332 53.57038879394531 22.08382225036621 L 42.4977912902832 2.993133544921875 C 41.78472900390625 1.763721466064453 40.45888900756836 1.000003814697266 39.03767013549805 1.000003814697266 L 16.85274124145508 1.000003814697266 M 16.85274124145508 3.814697265625e-06 L 39.03767013549805 3.814697265625e-06 C 40.82044982910156 3.814697265625e-06 42.46836090087891 0.9492416381835938 43.36281967163086 2.491413116455078 L 54.43542098999023 21.58210182189941 C 55.33520889282227 23.13346290588379 55.33520889282227 25.04791259765625 54.43542098999023 26.59928321838379 L 43.36281967163086 45.68997192382812 C 42.46836090087891 47.23213195800781 40.82044982910156 48.18137359619141 39.03765869140625 48.18138122558594 L 16.85274124145508 48.18138122558594 C 15.06996154785156 48.18138122558594 13.42203140258789 47.23213195800781 12.52758026123047 45.68996429443359 L 1.454978942871094 26.59928321838379 C 0.5551910400390625 25.04791259765625 0.5551910400390625 23.13346290588379 1.454978942871094 21.58210182189941 L 12.52758026123047 2.491413116455078 C 13.42203903198242 0.9492416381835938 15.06996154785156 3.814697265625e-06 16.85274124145508 3.814697265625e-06 Z" stroke="none" fill="#0e3455"/>
        </g>
      </g>
      <g id="Group_182" data-name="Group 182" transform="translate(139 -48)">
        <g id="Polygon_4-18" data-name="Polygon 4" transform="translate(613.072 178.427) rotate(90)" fill="none">
          <path d="M39.038,0a5,5,0,0,1,4.325,2.491L54.435,21.582a5,5,0,0,1,0,5.017L43.363,45.69a5,5,0,0,1-4.325,2.491H16.853a5,5,0,0,1-4.325-2.491L1.455,26.6a5,5,0,0,1,0-5.017L12.528,2.491A5,5,0,0,1,16.853,0Z" stroke="none"/>
          <path d="M 16.85274124145508 1.000003814697266 C 15.43151092529297 1.000003814697266 14.10567092895508 1.763721466064453 13.39260864257812 2.993133544921875 L 2.320011138916016 22.08382225036621 C 1.602039337158203 23.32170295715332 1.602039337158203 24.85968208312988 2.320011138916016 26.09756278991699 L 13.39260864257812 45.18825149536133 C 14.10565948486328 46.41766357421875 15.43151092529297 47.18138122558594 16.85274124145508 47.18138122558594 L 39.03765106201172 47.18138122558594 C 40.45888900756836 47.18137359619141 41.78472900390625 46.41765213012695 42.4977912902832 45.18825149536133 L 53.57038879394531 26.09756278991699 C 54.28836059570312 24.85968208312988 54.28836059570312 23.32170295715332 53.57038879394531 22.08382225036621 L 42.4977912902832 2.993133544921875 C 41.78472900390625 1.763721466064453 40.45888900756836 1.000003814697266 39.03767013549805 1.000003814697266 L 16.85274124145508 1.000003814697266 M 16.85274124145508 3.814697265625e-06 L 39.03767013549805 3.814697265625e-06 C 40.82044982910156 3.814697265625e-06 42.46836090087891 0.9492416381835938 43.36281967163086 2.491413116455078 L 54.43542098999023 21.58210182189941 C 55.33520889282227 23.13346290588379 55.33520889282227 25.04791259765625 54.43542098999023 26.59928321838379 L 43.36281967163086 45.68997192382812 C 42.46836090087891 47.23213195800781 40.82044982910156 48.18137359619141 39.03765869140625 48.18138122558594 L 16.85274124145508 48.18138122558594 C 15.06996154785156 48.18138122558594 13.42203140258789 47.23213195800781 12.52758026123047 45.68996429443359 L 1.454978942871094 26.59928321838379 C 0.5551910400390625 25.04791259765625 0.5551910400390625 23.13346290588379 1.454978942871094 21.58210182189941 L 12.52758026123047 2.491413116455078 C 13.42203903198242 0.9492416381835938 15.06996154785156 3.814697265625e-06 16.85274124145508 3.814697265625e-06 Z" stroke="none" fill="#9ec9e9"/>
        </g>
        <g id="Polygon_3-18" data-name="Polygon 3" transform="translate(610.181 176.5) rotate(90)" fill="none">
          <path d="M39.038,0a5,5,0,0,1,4.325,2.491L54.435,21.582a5,5,0,0,1,0,5.017L43.363,45.69a5,5,0,0,1-4.325,2.491H16.853a5,5,0,0,1-4.325-2.491L1.455,26.6a5,5,0,0,1,0-5.017L12.528,2.491A5,5,0,0,1,16.853,0Z" stroke="none"/>
          <path d="M 16.85274124145508 1.000003814697266 C 15.43151092529297 1.000003814697266 14.10567092895508 1.763721466064453 13.39260864257812 2.993133544921875 L 2.320011138916016 22.08382225036621 C 1.602039337158203 23.32170295715332 1.602039337158203 24.85968208312988 2.320011138916016 26.09756278991699 L 13.39260864257812 45.18825149536133 C 14.10565948486328 46.41766357421875 15.43151092529297 47.18138122558594 16.85274124145508 47.18138122558594 L 39.03765106201172 47.18138122558594 C 40.45888900756836 47.18137359619141 41.78472900390625 46.41765213012695 42.4977912902832 45.18825149536133 L 53.57038879394531 26.09756278991699 C 54.28836059570312 24.85968208312988 54.28836059570312 23.32170295715332 53.57038879394531 22.08382225036621 L 42.4977912902832 2.993133544921875 C 41.78472900390625 1.763721466064453 40.45888900756836 1.000003814697266 39.03767013549805 1.000003814697266 L 16.85274124145508 1.000003814697266 M 16.85274124145508 3.814697265625e-06 L 39.03767013549805 3.814697265625e-06 C 40.82044982910156 3.814697265625e-06 42.46836090087891 0.9492416381835938 43.36281967163086 2.491413116455078 L 54.43542098999023 21.58210182189941 C 55.33520889282227 23.13346290588379 55.33520889282227 25.04791259765625 54.43542098999023 26.59928321838379 L 43.36281967163086 45.68997192382812 C 42.46836090087891 47.23213195800781 40.82044982910156 48.18137359619141 39.03765869140625 48.18138122558594 L 16.85274124145508 48.18138122558594 C 15.06996154785156 48.18138122558594 13.42203140258789 47.23213195800781 12.52758026123047 45.68996429443359 L 1.454978942871094 26.59928321838379 C 0.5551910400390625 25.04791259765625 0.5551910400390625 23.13346290588379 1.454978942871094 21.58210182189941 L 12.52758026123047 2.491413116455078 C 13.42203903198242 0.9492416381835938 15.06996154785156 3.814697265625e-06 16.85274124145508 3.814697265625e-06 Z" stroke="none" fill="#0e3455"/>
        </g>
      </g>
      <g id="Group_184" data-name="Group 184" transform="translate(112 -95)">
        <g id="Polygon_4-19" data-name="Polygon 4" transform="translate(613.072 178.427) rotate(90)" fill="none">
          <path d="M39.038,0a5,5,0,0,1,4.325,2.491L54.435,21.582a5,5,0,0,1,0,5.017L43.363,45.69a5,5,0,0,1-4.325,2.491H16.853a5,5,0,0,1-4.325-2.491L1.455,26.6a5,5,0,0,1,0-5.017L12.528,2.491A5,5,0,0,1,16.853,0Z" stroke="none"/>
          <path d="M 16.85274124145508 1.000003814697266 C 15.43151092529297 1.000003814697266 14.10567092895508 1.763721466064453 13.39260864257812 2.993133544921875 L 2.320011138916016 22.08382225036621 C 1.602039337158203 23.32170295715332 1.602039337158203 24.85968208312988 2.320011138916016 26.09756278991699 L 13.39260864257812 45.18825149536133 C 14.10565948486328 46.41766357421875 15.43151092529297 47.18138122558594 16.85274124145508 47.18138122558594 L 39.03765106201172 47.18138122558594 C 40.45888900756836 47.18137359619141 41.78472900390625 46.41765213012695 42.4977912902832 45.18825149536133 L 53.57038879394531 26.09756278991699 C 54.28836059570312 24.85968208312988 54.28836059570312 23.32170295715332 53.57038879394531 22.08382225036621 L 42.4977912902832 2.993133544921875 C 41.78472900390625 1.763721466064453 40.45888900756836 1.000003814697266 39.03767013549805 1.000003814697266 L 16.85274124145508 1.000003814697266 M 16.85274124145508 3.814697265625e-06 L 39.03767013549805 3.814697265625e-06 C 40.82044982910156 3.814697265625e-06 42.46836090087891 0.9492416381835938 43.36281967163086 2.491413116455078 L 54.43542098999023 21.58210182189941 C 55.33520889282227 23.13346290588379 55.33520889282227 25.04791259765625 54.43542098999023 26.59928321838379 L 43.36281967163086 45.68997192382812 C 42.46836090087891 47.23213195800781 40.82044982910156 48.18137359619141 39.03765869140625 48.18138122558594 L 16.85274124145508 48.18138122558594 C 15.06996154785156 48.18138122558594 13.42203140258789 47.23213195800781 12.52758026123047 45.68996429443359 L 1.454978942871094 26.59928321838379 C 0.5551910400390625 25.04791259765625 0.5551910400390625 23.13346290588379 1.454978942871094 21.58210182189941 L 12.52758026123047 2.491413116455078 C 13.42203903198242 0.9492416381835938 15.06996154785156 3.814697265625e-06 16.85274124145508 3.814697265625e-06 Z" stroke="none" fill="#9ec9e9"/>
        </g>
        <g id="Polygon_3-19" data-name="Polygon 3" transform="translate(610.181 176.5) rotate(90)" fill="none">
          <path d="M39.038,0a5,5,0,0,1,4.325,2.491L54.435,21.582a5,5,0,0,1,0,5.017L43.363,45.69a5,5,0,0,1-4.325,2.491H16.853a5,5,0,0,1-4.325-2.491L1.455,26.6a5,5,0,0,1,0-5.017L12.528,2.491A5,5,0,0,1,16.853,0Z" stroke="none"/>
          <path d="M 16.85274124145508 1.000003814697266 C 15.43151092529297 1.000003814697266 14.10567092895508 1.763721466064453 13.39260864257812 2.993133544921875 L 2.320011138916016 22.08382225036621 C 1.602039337158203 23.32170295715332 1.602039337158203 24.85968208312988 2.320011138916016 26.09756278991699 L 13.39260864257812 45.18825149536133 C 14.10565948486328 46.41766357421875 15.43151092529297 47.18138122558594 16.85274124145508 47.18138122558594 L 39.03765106201172 47.18138122558594 C 40.45888900756836 47.18137359619141 41.78472900390625 46.41765213012695 42.4977912902832 45.18825149536133 L 53.57038879394531 26.09756278991699 C 54.28836059570312 24.85968208312988 54.28836059570312 23.32170295715332 53.57038879394531 22.08382225036621 L 42.4977912902832 2.993133544921875 C 41.78472900390625 1.763721466064453 40.45888900756836 1.000003814697266 39.03767013549805 1.000003814697266 L 16.85274124145508 1.000003814697266 M 16.85274124145508 3.814697265625e-06 L 39.03767013549805 3.814697265625e-06 C 40.82044982910156 3.814697265625e-06 42.46836090087891 0.9492416381835938 43.36281967163086 2.491413116455078 L 54.43542098999023 21.58210182189941 C 55.33520889282227 23.13346290588379 55.33520889282227 25.04791259765625 54.43542098999023 26.59928321838379 L 43.36281967163086 45.68997192382812 C 42.46836090087891 47.23213195800781 40.82044982910156 48.18137359619141 39.03765869140625 48.18138122558594 L 16.85274124145508 48.18138122558594 C 15.06996154785156 48.18138122558594 13.42203140258789 47.23213195800781 12.52758026123047 45.68996429443359 L 1.454978942871094 26.59928321838379 C 0.5551910400390625 25.04791259765625 0.5551910400390625 23.13346290588379 1.454978942871094 21.58210182189941 L 12.52758026123047 2.491413116455078 C 13.42203903198242 0.9492416381835938 15.06996154785156 3.814697265625e-06 16.85274124145508 3.814697265625e-06 Z" stroke="none" fill="#0e3455"/>
        </g>
      </g>
      <g id="Group_178" data-name="Group 178" transform="translate(274 -95)">
        <g id="Polygon_4-20" data-name="Polygon 4" transform="translate(613.072 178.427) rotate(90)" fill="none">
          <path d="M39.038,0a5,5,0,0,1,4.325,2.491L54.435,21.582a5,5,0,0,1,0,5.017L43.363,45.69a5,5,0,0,1-4.325,2.491H16.853a5,5,0,0,1-4.325-2.491L1.455,26.6a5,5,0,0,1,0-5.017L12.528,2.491A5,5,0,0,1,16.853,0Z" stroke="none"/>
          <path d="M 16.85274124145508 1.000003814697266 C 15.43151092529297 1.000003814697266 14.10567092895508 1.763721466064453 13.39260864257812 2.993133544921875 L 2.320011138916016 22.08382225036621 C 1.602039337158203 23.32170295715332 1.602039337158203 24.85968208312988 2.320011138916016 26.09756278991699 L 13.39260864257812 45.18825149536133 C 14.10565948486328 46.41766357421875 15.43151092529297 47.18138122558594 16.85274124145508 47.18138122558594 L 39.03765106201172 47.18138122558594 C 40.45888900756836 47.18137359619141 41.78472900390625 46.41765213012695 42.4977912902832 45.18825149536133 L 53.57038879394531 26.09756278991699 C 54.28836059570312 24.85968208312988 54.28836059570312 23.32170295715332 53.57038879394531 22.08382225036621 L 42.4977912902832 2.993133544921875 C 41.78472900390625 1.763721466064453 40.45888900756836 1.000003814697266 39.03767013549805 1.000003814697266 L 16.85274124145508 1.000003814697266 M 16.85274124145508 3.814697265625e-06 L 39.03767013549805 3.814697265625e-06 C 40.82044982910156 3.814697265625e-06 42.46836090087891 0.9492416381835938 43.36281967163086 2.491413116455078 L 54.43542098999023 21.58210182189941 C 55.33520889282227 23.13346290588379 55.33520889282227 25.04791259765625 54.43542098999023 26.59928321838379 L 43.36281967163086 45.68997192382812 C 42.46836090087891 47.23213195800781 40.82044982910156 48.18137359619141 39.03765869140625 48.18138122558594 L 16.85274124145508 48.18138122558594 C 15.06996154785156 48.18138122558594 13.42203140258789 47.23213195800781 12.52758026123047 45.68996429443359 L 1.454978942871094 26.59928321838379 C 0.5551910400390625 25.04791259765625 0.5551910400390625 23.13346290588379 1.454978942871094 21.58210182189941 L 12.52758026123047 2.491413116455078 C 13.42203903198242 0.9492416381835938 15.06996154785156 3.814697265625e-06 16.85274124145508 3.814697265625e-06 Z" stroke="none" fill="#9ec9e9"/>
        </g>
        <g id="Polygon_3-20" data-name="Polygon 3" transform="translate(610.181 176.5) rotate(90)" fill="none">
          <path d="M39.038,0a5,5,0,0,1,4.325,2.491L54.435,21.582a5,5,0,0,1,0,5.017L43.363,45.69a5,5,0,0,1-4.325,2.491H16.853a5,5,0,0,1-4.325-2.491L1.455,26.6a5,5,0,0,1,0-5.017L12.528,2.491A5,5,0,0,1,16.853,0Z" stroke="none"/>
          <path d="M 16.85274124145508 1.000003814697266 C 15.43151092529297 1.000003814697266 14.10567092895508 1.763721466064453 13.39260864257812 2.993133544921875 L 2.320011138916016 22.08382225036621 C 1.602039337158203 23.32170295715332 1.602039337158203 24.85968208312988 2.320011138916016 26.09756278991699 L 13.39260864257812 45.18825149536133 C 14.10565948486328 46.41766357421875 15.43151092529297 47.18138122558594 16.85274124145508 47.18138122558594 L 39.03765106201172 47.18138122558594 C 40.45888900756836 47.18137359619141 41.78472900390625 46.41765213012695 42.4977912902832 45.18825149536133 L 53.57038879394531 26.09756278991699 C 54.28836059570312 24.85968208312988 54.28836059570312 23.32170295715332 53.57038879394531 22.08382225036621 L 42.4977912902832 2.993133544921875 C 41.78472900390625 1.763721466064453 40.45888900756836 1.000003814697266 39.03767013549805 1.000003814697266 L 16.85274124145508 1.000003814697266 M 16.85274124145508 3.814697265625e-06 L 39.03767013549805 3.814697265625e-06 C 40.82044982910156 3.814697265625e-06 42.46836090087891 0.9492416381835938 43.36281967163086 2.491413116455078 L 54.43542098999023 21.58210182189941 C 55.33520889282227 23.13346290588379 55.33520889282227 25.04791259765625 54.43542098999023 26.59928321838379 L 43.36281967163086 45.68997192382812 C 42.46836090087891 47.23213195800781 40.82044982910156 48.18137359619141 39.03765869140625 48.18138122558594 L 16.85274124145508 48.18138122558594 C 15.06996154785156 48.18138122558594 13.42203140258789 47.23213195800781 12.52758026123047 45.68996429443359 L 1.454978942871094 26.59928321838379 C 0.5551910400390625 25.04791259765625 0.5551910400390625 23.13346290588379 1.454978942871094 21.58210182189941 L 12.52758026123047 2.491413116455078 C 13.42203903198242 0.9492416381835938 15.06996154785156 3.814697265625e-06 16.85274124145508 3.814697265625e-06 Z" stroke="none" fill="#0e3455"/>
        </g>
      </g>
    </g>
  </g>
</svg>
