<?xml version="1.0" encoding="utf-8"?>
<!-- Generator: Adobe Illustrator 26.3.1, SVG Export Plug-In . SVG Version: 6.00 Build 0)  -->
<svg version="1.1" id="Layer_1" xmlns="http://www.w3.org/2000/svg" xmlns:xlink="http://www.w3.org/1999/xlink" x="0px" y="0px"
	 viewBox="0 0 69.1 76.5" style="enable-background:new 0 0 69.1 76.5;" xml:space="preserve">
<style type="text/css">
	.st0{fill:#FFFFFF;}
	.st1{fill:#123456;}
</style>
<g id="Chemistry_icon" transform="translate(-63.26 -82.362)">
	<g id="Group_503" transform="translate(63.26 82.362)">
		<path id="Path_1509" class="st0" d="M4.8,15.5c-2.8,1.9-4.6,5-4.8,8.4v28.7C0.2,56,2,59.1,4.8,61l24.9,14.4c3,1.5,6.6,1.5,9.7,0
			L64.2,61c2.8-1.9,4.6-5,4.8-8.4V23.9c-0.2-3.4-2-6.5-4.8-8.4L39.4,1.1c-3-1.5-6.6-1.5-9.7,0L4.8,15.5z"/>
	</g>
	<g id="Group_504" transform="translate(81.211 98.196)">
		<path id="Path_1510" class="st1" d="M33.1,39.5c-0.2-1.2-0.4-2.4-0.7-3.5c-0.9-2.7-2-5.3-3.3-7.9c-0.6-1.2-1.2-2.3-1.8-3.5
			c-0.9-1.8-1.9-3.6-2.8-5.4c-1.3-2.5-2.1-5.3-2.2-8.2c-0.1-1.6-0.1-3.2-0.1-4.7c0-0.2,0-0.4,0-0.6c0.1-0.1,0.2-0.2,0.3-0.2
			c1-0.8,1.4-2.2,0.9-3.5c-0.5-1.2-1.7-2.1-3-2.1c-1,0-2,0-3,0h-2.3c-0.8,0-1.6,0-2.3,0c-1.7,0-3.2,1.4-3.2,3.1c0,0,0,0,0,0
			c0,1.1,0.5,2.1,1.4,2.6l0,0.4c0,1.5,0,3-0.1,4.4c-0.1,1.9-0.4,3.7-1,5.5c-0.7,2-1.6,3.9-2.6,5.8L7,22.7c-0.5,1-1.1,2.1-1.6,3.1
			c-0.8,1.5-1.5,3-2.3,4.5c-1.2,2.3-2.1,4.8-2.7,7.4l0,0.1C0,38.7,0,39.8,0,40.9c0.3,2.3,2.2,4,4.4,3.9h24.3c1.8,0,3.5-1.2,4.1-2.9
			C33.1,41.1,33.2,40.3,33.1,39.5 M19.8,2.2L19.8,2.2C19.9,2.1,19.9,2.1,19.8,2.2L19.8,2.2z"/>
	</g>
	<g id="Group_505" transform="translate(83.363 100.349)">
		<path id="Path_1511" class="st0" d="M28.8,37.6c-0.1-1.1-0.4-2.2-0.7-3.2c-0.8-2.6-1.9-5.1-3.2-7.5c-1.5-3-3.1-5.9-4.6-8.9
			C19,15.2,18.1,12.1,18,9c-0.1-2.3-0.1-4.5-0.2-6.8c0-0.1,0-0.1,0-0.2c0.1,0,0.3,0,0.4,0C18.5,2,18.8,1.9,19,1.7
			c0.3-0.3,0.4-0.7,0.2-1.1c-0.1-0.4-0.5-0.7-1-0.6c-1.4,0-2.8,0-4.2,0c-1.1,0-2.2,0-3.3,0c-0.6,0-1,0.4-1.1,1c0,0,0,0,0,0
			c0,0.6,0.5,1,1,1c0,0,0,0,0.1,0H11c0,0.1,0,0.1,0,0.2c0,2.1,0,4.3-0.1,6.4c-0.1,2.1-0.4,4.1-1.1,6.1C9,17,7.9,19.3,6.7,21.5
			c-1.3,2.5-2.6,5-3.9,7.6c-1.1,2.2-2,4.5-2.6,6.9C0.1,36.8,0,37.6,0,38.5c0.1,1.2,1.1,2.1,2.3,2.1h24.3c0.9,0,1.7-0.6,2-1.4
			C28.8,38.6,28.9,38.1,28.8,37.6 M18.5,18.7h-8.2c0.1-0.1,0.1-0.2,0.1-0.3c1-2.2,1.6-4.5,2-6.9c0.2-1.8,0.3-3.6,0.3-5.4
			c0-1.3,0-2.5,0-3.8c0-0.1,0-0.2,0-0.3h3.3c0,0.1,0,0.2,0,0.3c0,1.9,0,3.9,0.1,5.8c0.1,3.5,0.8,6.9,2.2,10
			C18.4,18.3,18.5,18.5,18.5,18.7C18.5,18.7,18.5,18.7,18.5,18.7 M26.4,38.5c-0.3,0.6-0.9,1-1.5,1c-0.4,0-0.8,0-1.3,0.1
			c0.8-1.1,0.6-2.3,0.4-3.5c-0.6-3.1-1.5-6-2.7-8.9c-0.9-2.4-1.6-4.1-2.5-6.5c0-0.1-0.1-0.2-0.1-0.4c0.4,0,0.7,0,1,0
			c0.1,0,0.1,0.1,0.1,0.1c1.8,3.8,3.6,6.7,5.2,10.6c0.8,1.8,1.3,3.7,1.7,5.6C26.8,37.1,26.8,37.8,26.4,38.5"/>
	</g>
</g>
</svg>
