<?xml version="1.0" encoding="utf-8"?>
<!-- Generator: Adobe Illustrator 25.2.1, SVG Export Plug-In . SVG Version: 6.00 Build 0)  -->
<svg version="1.1" id="Layer_1" xmlns="http://www.w3.org/2000/svg" xmlns:xlink="http://www.w3.org/1999/xlink" x="0px" y="0px"
	 viewBox="0 0 23.24 25" style="enable-background:new 0 0 23.24 25;" xml:space="preserve">
<style type="text/css">
	.st0{fill:none;stroke:#0062B8;stroke-width:1.5;stroke-linecap:round;stroke-miterlimit:10;}
	.st1{fill:#0062B8;stroke:#0062B8;stroke-width:1.5;stroke-linecap:round;stroke-miterlimit:10;}
	.st2{fill:#0062B8;}
</style>
<g>
	<line class="st0" x1="3.67" y1="24.11" x2="3.67" y2="19.72"/>
	<line class="st0" x1="5.84" y1="24.11" x2="5.84" y2="19.72"/>
	<line class="st0" x1="8.01" y1="24.11" x2="8.01" y2="19.72"/>
	<path class="st1" d="M9.13,12.59v-1.83l2.77-0.04l0.16,1.15c0.27,1.56,1.25,2.75,2.65,2.74c2.05,0,3.1-1.32,3.06-3.52
		c0-0.23-0.01-0.37,0.03-0.37c1.44,0,3.12,0,3.12,0l-0.71,12.53c-0.01,0.15-0.13,0.26-0.28,0.26h-7.21V17.4
		c0.02-1.79-0.64-2.93-1.5-3.72C10.69,13.19,10.18,12.83,9.13,12.59z"/>
	<circle class="st0" cx="11.26" cy="6.9" r="1.07"/>
	<circle class="st0" cx="15.15" cy="9.23" r="1.07"/>
	<path class="st0" d="M11.97,10.8c0,0-0.18,3.11,2.11,3.72c0.66,0.18,1.35,0.11,1.96-0.21c0.78-0.41,1.82-1.51,1.77-3.59"/>
	<circle class="st2" cx="14.63" cy="4.79" r="0.78"/>
	<circle class="st2" cx="16.88" cy="6.5" r="0.67"/>
	<polyline class="st1" points="8.01,10.72 16.21,10.72 18.48,10.72 20.93,10.72 21.91,10.72 	"/>
	<path class="st0" d="M6.01,0.89v13.58l-2,0c-0.75,0-1.48,0.31-1.98,0.87c-0.39,0.44-0.73,1.02-0.71,1.71c0.03,1.15,0,7.07,0,7.07"
		/>
	<path class="st1" d="M1.34,18.81h2.33h6.84c0,0,0.02-0.79-0.06-2.15c-0.03-0.53-0.34-0.96-0.7-1.3c-0.64-0.61-1.52-0.9-2.41-0.9
		l-0.31,0H4.69c0,0-3.36-0.15-3.36,2.58L1.34,18.81z"/>
	<line class="st0" x1="10.51" y1="24.11" x2="10.51" y2="18.64"/>
	<path class="st0" d="M16.53,10.19c0.08-0.66,0.39-1.14,0.77-1.48c1.05-0.94,2.7-0.82,3.51,0.33c0.41,0.59,0.44,1.15,0.44,1.15"/>
</g>
</svg>
