<?xml version="1.0" encoding="utf-8"?>
<!-- Generator: Adobe Illustrator 27.5.0, SVG Export Plug-In . SVG Version: 6.00 Build 0)  -->
<svg version="1.1" id="Layer_1" xmlns="http://www.w3.org/2000/svg" xmlns:xlink="http://www.w3.org/1999/xlink" x="0px" y="0px"
	 viewBox="0 0 69.08 76.49" style="enable-background:new 0 0 69.08 76.49;" xml:space="preserve">
<style type="text/css">
	.st0{fill:#FFFFFF;}
	.st1{fill:#123557;}
</style>
<g>
	<g id="Group_503" transform="translate(63.26 82.362)">
		<path id="Path_1509" class="st0" d="M-58.43-66.85c-2.85,1.86-4.64,4.97-4.83,8.36v28.73c0.19,3.4,1.98,6.5,4.83,8.36l24.88,14.37
			c3.04,1.53,6.62,1.53,9.65,0L0.99-21.39c2.85-1.86,4.64-4.97,4.83-8.36v-28.73c-0.19-3.4-1.98-6.5-4.83-8.36l-24.89-14.37
			c-3.04-1.53-6.62-1.53-9.65,0L-58.43-66.85z"/>
	</g>
	<g>
		<path class="st1" d="M57.01,39.5h-0.12c0.12,0,0.12,0,0.12-0.12V39.5z M60.25,39.74c-0.24-0.72-0.72-1.32-1.56-1.56
			c-0.12-0.12-7.2-2.16-13.8-0.84c1.92-2.4,2.4-5.16,2.52-6.84c0.24-4.32-1.08-8.88-3.36-11.16c-0.96-0.96-2.16-1.8-3.24-2.64
			l-0.6-0.48c-0.96-0.72-2.76-2.04-3.12-2.64c0-1.2-1.08-2.28-2.4-2.28c-1.2,0-2.28,1.08-2.4,2.28c-0.36,0.6-2.16,1.92-3.12,2.64
			c-1.2,0.84-2.64,1.92-3.84,3.12c-2.28,2.28-3.6,6.84-3.36,11.04c0,1.44,0.36,4.44,2.4,6.96c-6.6-1.32-13.8,0.72-13.92,0.84
			c-1.08,0.36-1.8,1.56-1.68,2.76c0.36,1.44,3,13.8,11.16,17.04c1.44,0.48,2.76,0.72,4.08,0.72c2.52,0,5.16-0.84,8.04-2.52v6.6
			c0,1.32,1.08,2.4,2.4,2.4s2.52-1.08,2.52-2.4v-6.6c2.76,1.68,5.52,2.52,8.04,2.52c1.56,0,2.88-0.24,4.08-0.72
			c7.68-3.12,10.56-14.4,11.04-16.8C60.37,40.7,60.37,40.22,60.25,39.74z"/>
		<path class="st0" d="M33.97,24.74c0-0.36,0.36-0.6,0.6-0.6c0.36,0,0.6,0.36,0.6,0.6v18.48c-0.24,0.36-0.36,0.84-0.6,1.08
			c-0.12-0.24-0.36-0.72-0.6-1.08V24.74z M27.25,37.58c4.56,3.48,6.48,7.68,6.72,8.28c0,0.12,0.12,0.12,0.12,0.12
			c0,0.36,0.24,0.48,0.48,0.48c0.24,0,0.6-0.12,0.6-0.36c0,0,0-0.12,0.12-0.12c0.24-0.72,2.16-4.92,6.72-8.28
			c2.64-2.04,3.48-5.16,3.6-7.32c0.24-3.72-0.96-7.8-2.76-9.72c-1.08-1.08-2.4-2.04-3.72-3c-1.92-1.32-3.84-2.76-3.84-3.96
			c0-0.36-0.24-0.6-0.6-0.6c-0.24,0-0.6,0.36-0.6,0.6c0,1.2-1.92,2.64-3.84,3.96c-1.32,0.96-2.52,1.92-3.6,3
			c-1.92,1.92-3.12,6-2.88,9.72C23.77,32.54,24.61,35.66,27.25,37.58z"/>
		<path class="st0" d="M51.01,44.3c-8.76,2.28-12.6,8.52-12.72,8.88c-0.24-0.12-0.36-0.24-0.48-0.36c-0.12-0.36-0.12-0.72-0.24-1.08
			c1.44-2.04,5.4-6.72,13.08-8.64c0.36-0.12,0.6,0.12,0.72,0.48C51.49,43.94,51.25,44.3,51.01,44.3z M31.45,52.94
			c-0.12,0.12-0.36,0.12-0.48,0.24c-0.24-0.24-3.96-6.48-12.72-8.76c-0.36-0.12-0.6-0.48-0.48-0.72c0.12-0.36,0.48-0.6,0.72-0.48
			c7.56,1.92,11.64,6.6,13.08,8.52C31.45,52.1,31.45,52.46,31.45,52.94z M58.21,39.86c-0.6-0.12-12.6-3.48-18.6,1.92
			c-2.76,2.4-3.72,6.12-3.12,11.16l-1.32,0.72v-6.84c0,0.36-0.24,0.6-0.6,0.6c-0.24,0-0.6-0.36-0.6-0.6v6.84l-1.2-0.72
			c0.6-5.04-0.36-8.76-3.12-11.16c-6-5.4-18.12-2.04-18.6-1.92c-0.36,0.12-0.48,0.36-0.48,0.72c0.12,0.48,2.64,12.72,10.08,15.72
			c1.08,0.36,2.16,0.6,3.36,0.6c2.4,0,5.16-0.96,7.92-2.88l1.92,1.2v7.56c0,0.36,0.36,0.6,0.6,0.6c0.36,0,0.72-0.24,0.72-0.6v-7.56
			l1.92-1.2c2.76,1.92,5.52,2.88,7.92,2.88c1.2,0,2.4-0.12,3.36-0.6c7.44-3,9.96-15.24,10.08-15.72
			C58.69,40.22,58.45,39.98,58.21,39.86z"/>
	</g>
</g>
<g>
</g>
<g>
</g>
<g>
</g>
<g>
</g>
<g>
</g>
<g>
</g>
<g>
</g>
<g>
</g>
<g>
</g>
<g>
</g>
<g>
</g>
</svg>
