<?xml version="1.0" encoding="utf-8"?>
<!-- Generator: Adobe Illustrator 27.5.0, SVG Export Plug-In . SVG Version: 6.00 Build 0)  -->
<svg version="1.1" id="Layer_1" xmlns="http://www.w3.org/2000/svg" xmlns:xlink="http://www.w3.org/1999/xlink" x="0px" y="0px"
	 viewBox="0 0 81 92.13" style="enable-background:new 0 0 81 92.13;" xml:space="preserve">
<style type="text/css">
	.st0{fill:#123457;}
	.st1{display:none;}
	.st2{display:inline;}
	.st3{fill:none;stroke:#FFFFFF;stroke-width:2;stroke-miterlimit:10;}
	.st4{display:inline;fill:none;stroke:#FFFFFF;stroke-width:2;stroke-miterlimit:10;}
	.st5{fill:#FFFFFF;}
	.st6{fill:#123557;}
</style>
<g>
	<g>
		<g>
			<path id="Polygon_88_00000116206777653450988870000006612154428331284885_" class="st0" d="M81,66.11c0,2.14-1.14,4.12-2.99,5.19
				l-34.5,20.02c-1.86,1.08-4.16,1.08-6.02,0L2.99,71.3C1.14,70.22,0,68.25,0,66.11V26.02c0-2.14,1.14-4.12,2.99-5.19l34.5-20.02
				c1.86-1.08,4.16-1.08,6.02,0l34.5,20.02C79.86,21.9,81,23.88,81,26.02V66.11z"/>
			<g class="st1">
				<g class="st2">
					<circle class="st3" cx="40.49" cy="19.75" r="9.43"/>
				</g>
				<path class="st4" d="M39.48,32.54h-8.42c0,0-13.8,3.02-14.02,17.91v16.4c0,0,0.11,3.78,2.7,4.96h1.94c0,0,3.02,0.43,3.13-4.96
					L24.7,50.66c0,0,1.08-6.58,3.56-7.01v27.4h24.27V43c0,0,2.27,0.43,3.88,6.8v18.34c0,0,0.43,2.93,2.48,3.68h2.37
					c0,0,2.37-0.22,2.7-3.46V49.58c0,0-1.08-13-14.05-17.04H39.48z"/>
				<g class="st2">
					<path class="st5" d="M39.91,33.29v3.13c0,0,0.11,1.83-1.51,1.73c0,0-0.39-3.27-1.9-4.12c-0.45-0.25-1.03-0.11-1.38,0.26
						c-0.41,0.43-1.02,1.13-1.46,2.03l-3.56,9.49c0,0-0.93,3.19,1.62,3.13c0,0,4.72,0.6,6.79-1.87c0.15-0.18,0.23-0.41,0.26-0.65
						l0.72-6.76h0.64v9.35v0.63h0.71v2.27c0,0-3.02,3.72-4.58,3.99c-1.56,0.27-2.75,0.54-3.4,2.32s-0.22,0.27-0.22,0.27
						s-0.22,2.27,1.78,3.24h12.78c0,0,1.24,0.7,0,1.29H33.11c0,0-2.32,1.83-0.16,4.1H46.7c0,0,1.29,0.49,0,1.24h-6.85
						c0,0-1.13,0.86-1,1.94h1.21l0.05-0.7l6.8,0.05c0,0,1.62,0.11,2.21-1.35c0,0,0.59-2.48-2.37-2.43L33.7,65.71
						c0,0-0.27-0.49-0.05-1.24h14.24c0,0,1.67,0,1.78-1.56s-1.08-2.37-1.73-2.37L35,60.58c0,0-1.46-1.02-0.54-2.59l1.13-0.05
						c0,0,0.97,1.73,2.7,1.83h2.54c0,0,3.45-0.65,4.48-4.32c0,0,1.26-4.25-3.13-5.99l-0.05-0.59l-0.59-0.11l-0.05-9.06l0.65,0.05
						v6.41c0,0.44,0.15,0.86,0.43,1.19c0.57,0.67,1.79,1.64,4.1,1.68c0,0,1.36,0.38,3.03-0.11c0,0,2.42-0.65,0.8-3.51l-4.21-10.46
						c0,0-2.01-3.4-3.4,1.51l-0.11,1.24h-1.29l0.11-4.42H39.91z"/>
				</g>
			</g>
		</g>
	</g>
	<g>
		<path class="st6" d="M62.97,47.32h-0.12c0.12,0,0.12,0,0.12-0.12V47.32z M66.21,47.56c-0.24-0.72-0.72-1.32-1.56-1.56
			c-0.12-0.12-7.2-2.16-13.8-0.84c1.92-2.4,2.4-5.16,2.52-6.84c0.24-4.32-1.08-8.88-3.36-11.16c-0.96-0.96-2.16-1.8-3.24-2.64
			l-0.6-0.48c-0.96-0.72-2.76-2.04-3.12-2.64c0-1.2-1.08-2.28-2.4-2.28c-1.2,0-2.28,1.08-2.4,2.28c-0.36,0.6-2.16,1.92-3.12,2.64
			c-1.2,0.84-2.64,1.92-3.84,3.12c-2.28,2.28-3.6,6.84-3.36,11.04c0,1.44,0.36,4.44,2.4,6.96c-6.6-1.32-13.8,0.72-13.92,0.84
			c-1.08,0.36-1.8,1.56-1.68,2.76c0.36,1.44,3,13.8,11.16,17.04c1.44,0.48,2.76,0.72,4.08,0.72c2.52,0,5.16-0.84,8.04-2.52v6.6
			c0,1.32,1.08,2.4,2.4,2.4s2.52-1.08,2.52-2.4V64c2.76,1.68,5.52,2.52,8.04,2.52c1.56,0,2.88-0.24,4.08-0.72
			c7.68-3.12,10.56-14.4,11.04-16.8C66.33,48.52,66.33,48.04,66.21,47.56z"/>
		<path class="st5" d="M39.93,32.56c0-0.36,0.36-0.6,0.6-0.6c0.36,0,0.6,0.36,0.6,0.6v18.48c-0.24,0.36-0.36,0.84-0.6,1.08
			c-0.12-0.24-0.36-0.72-0.6-1.08V32.56z M33.21,45.4c4.56,3.48,6.48,7.68,6.72,8.28c0,0.12,0.12,0.12,0.12,0.12
			c0,0.36,0.24,0.48,0.48,0.48c0.24,0,0.6-0.12,0.6-0.36c0,0,0-0.12,0.12-0.12c0.24-0.72,2.16-4.92,6.72-8.28
			c2.64-2.04,3.48-5.16,3.6-7.32c0.24-3.72-0.96-7.8-2.76-9.72c-1.08-1.08-2.4-2.04-3.72-3c-1.92-1.32-3.84-2.76-3.84-3.96
			c0-0.36-0.24-0.6-0.6-0.6c-0.24,0-0.6,0.36-0.6,0.6c0,1.2-1.92,2.64-3.84,3.96c-1.32,0.96-2.52,1.92-3.6,3
			c-1.92,1.92-3.12,6-2.88,9.72C29.73,40.36,30.57,43.48,33.21,45.4z"/>
		<path class="st5" d="M56.97,52.12c-8.76,2.28-12.6,8.52-12.72,8.88c-0.24-0.12-0.36-0.24-0.48-0.36
			c-0.12-0.36-0.12-0.72-0.24-1.08c1.44-2.04,5.4-6.72,13.08-8.64c0.36-0.12,0.6,0.12,0.72,0.48
			C57.45,51.76,57.21,52.12,56.97,52.12z M37.41,60.76c-0.12,0.12-0.36,0.12-0.48,0.24c-0.24-0.24-3.96-6.48-12.72-8.76
			c-0.36-0.12-0.6-0.48-0.48-0.72c0.12-0.36,0.48-0.6,0.72-0.48c7.56,1.92,11.64,6.6,13.08,8.52
			C37.41,59.92,37.41,60.28,37.41,60.76z M64.17,47.68c-0.6-0.12-12.6-3.48-18.6,1.92c-2.76,2.4-3.72,6.12-3.12,11.16l-1.32,0.72
			v-6.84c0,0.36-0.24,0.6-0.6,0.6c-0.24,0-0.6-0.36-0.6-0.6v6.84l-1.2-0.72c0.6-5.04-0.36-8.76-3.12-11.16
			c-6-5.4-18.12-2.04-18.6-1.92c-0.36,0.12-0.48,0.36-0.48,0.72c0.12,0.48,2.64,12.72,10.08,15.72c1.08,0.36,2.16,0.6,3.36,0.6
			c2.4,0,5.16-0.96,7.92-2.88l1.92,1.2v7.56c0,0.36,0.36,0.6,0.6,0.6c0.36,0,0.72-0.24,0.72-0.6v-7.56l1.92-1.2
			c2.76,1.92,5.52,2.88,7.92,2.88c1.2,0,2.4-0.12,3.36-0.6c7.44-3,9.96-15.24,10.08-15.72C64.65,48.04,64.41,47.8,64.17,47.68z"/>
	</g>
</g>
<g>
</g>
<g>
</g>
<g>
</g>
<g>
</g>
<g>
</g>
<g>
</g>
<g>
</g>
<g>
</g>
<g>
</g>
<g>
</g>
<g>
</g>
</svg>
