<?xml version="1.0" encoding="utf-8"?>
<!-- Generator: Adobe Illustrator 27.5.0, SVG Export Plug-In . SVG Version: 6.00 Build 0)  -->
<svg version="1.1" id="Layer_1" xmlns="http://www.w3.org/2000/svg" xmlns:xlink="http://www.w3.org/1999/xlink" x="0px" y="0px"
	 viewBox="0 0 47.98 50.28" style="enable-background:new 0 0 47.98 50.28;" xml:space="preserve">
<style type="text/css">
	.st0{fill:#0062B8;}
</style>
<g>
	<path class="st0" d="M23.4,11.64c0-0.36,0.36-0.6,0.6-0.6c0.36,0,0.6,0.36,0.6,0.6v18.48c-0.24,0.36-0.36,0.84-0.6,1.08
		c-0.12-0.24-0.36-0.72-0.6-1.08V11.64z M16.68,24.48c4.56,3.48,6.48,7.68,6.72,8.28c0,0.12,0.12,0.12,0.12,0.12
		c0,0.36,0.24,0.48,0.48,0.48c0.24,0,0.6-0.12,0.6-0.36c0,0,0-0.12,0.12-0.12c0.24-0.72,2.16-4.92,6.72-8.28
		c2.64-2.04,3.48-5.16,3.6-7.32c0.24-3.72-0.96-7.8-2.76-9.72c-1.08-1.08-2.4-2.04-3.72-3c-1.92-1.32-3.84-2.76-3.84-3.96
		c0-0.36-0.24-0.6-0.6-0.6c-0.24,0-0.6,0.36-0.6,0.6c0,1.2-1.92,2.64-3.84,3.96c-1.32,0.96-2.52,1.92-3.6,3
		c-1.92,1.92-3.12,6-2.88,9.72C13.2,19.44,14.04,22.56,16.68,24.48z"/>
	<path class="st0" d="M40.44,31.2c-8.76,2.28-12.6,8.52-12.72,8.88c-0.24-0.12-0.36-0.24-0.48-0.36C27.12,39.36,27.12,39,27,38.64
		c1.44-2.04,5.4-6.72,13.08-8.64c0.36-0.12,0.6,0.12,0.72,0.48C40.92,30.84,40.68,31.2,40.44,31.2z M20.88,39.84
		c-0.12,0.12-0.36,0.12-0.48,0.24c-0.24-0.24-3.96-6.48-12.72-8.76c-0.36-0.12-0.6-0.48-0.48-0.72c0.12-0.36,0.48-0.6,0.72-0.48
		c7.56,1.92,11.64,6.6,13.08,8.52C20.88,39,20.88,39.36,20.88,39.84z M47.64,26.76c-0.6-0.12-12.6-3.48-18.6,1.92
		c-2.76,2.4-3.72,6.12-3.12,11.16l-1.32,0.72v-6.84c0,0.36-0.24,0.6-0.6,0.6c-0.24,0-0.6-0.36-0.6-0.6v6.84l-1.2-0.72
		c0.6-5.04-0.36-8.76-3.12-11.16c-6-5.4-18.12-2.04-18.6-1.92C0.12,26.88,0,27.12,0,27.48C0.12,27.96,2.64,40.2,10.08,43.2
		c1.08,0.36,2.16,0.6,3.36,0.6c2.4,0,5.16-0.96,7.92-2.88l1.92,1.2v7.56c0,0.36,0.36,0.6,0.6,0.6c0.36,0,0.72-0.24,0.72-0.6v-7.56
		l1.92-1.2c2.76,1.92,5.52,2.88,7.92,2.88c1.2,0,2.4-0.12,3.36-0.6c7.44-3,9.96-15.24,10.08-15.72
		C48.12,27.12,47.88,26.88,47.64,26.76z"/>
</g>
<g>
</g>
<g>
</g>
<g>
</g>
<g>
</g>
<g>
</g>
<g>
</g>
<g>
</g>
<g>
</g>
<g>
</g>
<g>
</g>
<g>
</g>
</svg>
