<svg xmlns="http://www.w3.org/2000/svg" xmlns:xlink="http://www.w3.org/1999/xlink" width="102.942" height="38.786" viewBox="0 0 102.942 38.786">
  <defs>
    <clipPath id="clip-path">
      <rect id="Rectangle_1252" data-name="Rectangle 1252" width="102.942" height="38.786" fill="#fff"/>
    </clipPath>
  </defs>
  <g id="Logo" transform="translate(0 0)">
    <g id="Logo-2" data-name="Logo" transform="translate(-1 -22.415)">
      <g id="Group_200" data-name="Group 200" transform="translate(1 22.415)">
        <g id="Group_199" data-name="Group 199" transform="translate(0 0)" clip-path="url(#clip-path)">
          <path id="Path_940" data-name="Path 940" d="M76.678.665h4.649A50.526,50.526,0,0,1,84.173,5.95V.695H89.35V23.989H84.193c.062-4.994.239-9.935-2.332-14.452V24.061c-1.8.042-3.482.018-5.129.018-.3-1.1-.346-21.96-.054-23.413" transform="translate(-0.922 -0.008)" fill="#fff"/>
          <path id="Path_941" data-name="Path 941" d="M42.112,24.015H36.669c-.45-3.439-.9-6.886-1.338-10.249a1.649,1.649,0,0,0-1.152-.112V23.988H29.036V.773c.288-.268.677-.133,1.028-.136,1.8-.014,3.6.015,5.4-.016a11.7,11.7,0,0,1,2.61.27,4.056,4.056,0,0,1,3.355,3.1,13.19,13.19,0,0,1,.334,5.47,5.05,5.05,0,0,1-1.52,3.086c.614,3.778,1.231,7.578,1.864,11.47M33.983,9.441c1.041.027,2.1.287,2.517-.824a3.344,3.344,0,0,0-.182-3.164,2.047,2.047,0,0,0-2.336-.558Z" transform="translate(-0.35 -0.007)" fill="#fff"/>
          <path id="Path_942" data-name="Path 942" d="M91.235,23.895c.089-3.62-.12-7.256.254-10.9a32.226,32.226,0,0,1,2-8.854A15.84,15.84,0,0,1,95.325.686h4.622a20.171,20.171,0,0,1,2.948,6.849,36.271,36.271,0,0,1,1.1,8.2c.071,2.721.016,5.444.016,8.158a17,17,0,0,1-5.174,0V20.308a9.044,9.044,0,0,0-2.363-.07v3.6a15.538,15.538,0,0,1-5.234.059M97.527,5.974A34.327,34.327,0,0,0,96.5,15.606a6.069,6.069,0,0,0,2.229-.057,26.13,26.13,0,0,0-1.2-9.575" transform="translate(-1.099 -0.008)" fill="#fff"/>
          <path id="Path_943" data-name="Path 943" d="M27.137,24.006H21.965V20.368a5.9,5.9,0,0,0-2.335-.119c-.264,1.208.017,2.413-.165,3.571a14.539,14.539,0,0,1-5.164.109c0-1.676,0-3.374,0-5.072A46.466,46.466,0,0,1,15.424,7.749,21.512,21.512,0,0,1,18.378.7H23.06a19.911,19.911,0,0,1,2.9,6.771A42.977,42.977,0,0,1,27.139,18.3c-.009,1.883,0,3.766,0,5.7M19.571,15.6a7.4,7.4,0,0,0,2.3-.034A29.859,29.859,0,0,0,20.7,6.19a30.672,30.672,0,0,0-1.125,9.41" transform="translate(-0.172 -0.008)" fill="#fff"/>
          <path id="Path_944" data-name="Path 944" d="M13,9.865H7.853C7.512,8.286,8.1,6.672,7.432,5.2a1.934,1.934,0,0,0-1.615-.168,1.611,1.611,0,0,0-.531,1.495q.006,5.822,0,11.646A1.954,1.954,0,0,0,5.672,19.6c1.582.409,2.042.091,2.071-1.5.026-1.43.006-2.86.006-4.382h5.285c.007,2.594.271,5.259-.818,7.792A4.183,4.183,0,0,1,9.5,23.91a10.047,10.047,0,0,1-5.717.081,4.465,4.465,0,0,1-3.28-3.238,10.3,10.3,0,0,1-.489-2.988c0-3.605.012-7.209,0-10.814A9.126,9.126,0,0,1,.377,4.357C1.11,1.832,2.263.735,5.525.365A10,10,0,0,1,8.964.612,4.529,4.529,0,0,1,12.474,3.8,16.316,16.316,0,0,1,13,9.865" transform="translate(0 -0.003)" fill="#fff"/>
          <path id="Path_945" data-name="Path 945" d="M43.5,13.868c0-2.4,0-4.8,0-7.207A6.95,6.95,0,0,1,45.584,1.7a5.651,5.651,0,0,1,8.438.416,6.722,6.722,0,0,1,1.685,4.3c.041,4.989.035,9.978.015,14.967a6.687,6.687,0,0,1-1.385,3.986c-2.815,3.8-7.876,3.16-10.015-.835a6.781,6.781,0,0,1-.824-3.314c.02-2.448.006-4.9.006-7.345m9.193.066c0-2.265-.009-4.531,0-6.8a4.674,4.674,0,0,0-.514-2.265,2.877,2.877,0,0,0-2.7-1.819A2.929,2.929,0,0,0,46.95,4.931a5.644,5.644,0,0,0-.448,2.7q0,6.312,0,12.622c0,.46.046.922.064,1.383a3.548,3.548,0,0,0,.816,2.02,2.673,2.673,0,0,0,4.533-.184A4.79,4.79,0,0,0,52.7,20.73c-.02-2.265-.006-4.531-.006-6.8" transform="translate(-0.524 0)" fill="#fff"/>
          <path id="Path_946" data-name="Path 946" d="M63.056,19.478H68.29A42.516,42.516,0,0,1,68.418,24h-10.5V.707h4.988a.815.815,0,0,1,.067.064c.031.033.08.07.08.106,0,6.142,0,12.285,0,18.6" transform="translate(-0.698 -0.008)" fill="#fff"/>
          <path id="Path_947" data-name="Path 947" d="M74.207.733v23.1a14.882,14.882,0,0,1-5.09.1V.733Z" transform="translate(-0.833 -0.008)" fill="#fff"/>
          <path id="Path_948" data-name="Path 948" d="M.056,39.247v-.97H102.791c.24.26.137.578.084.97Z" transform="translate(-0.001 -0.461)" fill="#fff"/>
          <path id="Path_949" data-name="Path 949" d="M44.651,28H.241c-.371-.341-.215-.755-.169-1.243h43.6c.307.269.859.529.975,1.243" transform="translate(0 -0.322)" fill="#fff"/>
          <path id="Path_950" data-name="Path 950" d="M54.148,27.758l.961-1.031h48.307c.264.315.166.631.106,1.031Z" transform="translate(-0.652 -0.322)" fill="#fff"/>
          <path id="Path_951" data-name="Path 951" d="M84.974,36.053H83.288c-.884-.994-1.386-2.362-2.451-3.619v3.509a1.929,1.929,0,0,1-1.466.036V30.144a5.558,5.558,0,0,1,1.923-.086l2.233,3.552V30.316a1.518,1.518,0,0,1,1.447-.205Z" transform="translate(-0.956 -0.361)" fill="#fff"/>
          <path id="Path_952" data-name="Path 952" d="M33.4,33.485V30.148a2.413,2.413,0,0,1,1.492-.016V35.9a2.87,2.87,0,0,1-1.83.147l-2.17-3.429-.22.079v3.2a1.466,1.466,0,0,1-1.44.065V30.112a7.535,7.535,0,0,1,1.806-.068c.915.988,1.342,2.3,2.362,3.441" transform="translate(-0.352 -0.361)" fill="#fff"/>
          <path id="Path_953" data-name="Path 953" d="M90.7,35.971V30.185c.626-.312,1.268-.06,1.909-.191l2.248,3.574v-3.3a1.815,1.815,0,0,1,1.514-.16v5.767c-.52.445-1.127.113-1.74.249l-2.216-3.5-.259.058v3.26a1.894,1.894,0,0,1-1.455.028" transform="translate(-1.093 -0.361)" fill="#fff"/>
          <path id="Path_954" data-name="Path 954" d="M103.925,30.645l-.914,1.082c-1.609-.683-2.536-.537-3.042.442a1.773,1.773,0,0,0,.6,2.306,1.277,1.277,0,0,0,1.939-.356c-.029-.568-.619-.257-.835-.53a2.176,2.176,0,0,1-.054-1.131A7.009,7.009,0,0,1,104,32.352a15.491,15.491,0,0,1,.058,3.16,4.3,4.3,0,0,1-3.485.576c-1.371-.313-2.476-1.266-2.327-3.416a2.935,2.935,0,0,1,2.547-2.829,3.655,3.655,0,0,1,3.133.8" transform="translate(-1.184 -0.358)" fill="#fff"/>
          <path id="Path_955" data-name="Path 955" d="M.174,36.024v-5.91a11.4,11.4,0,0,1,3.306,0,2.735,2.735,0,0,1,2.292,2.857A2.962,2.962,0,0,1,3.49,35.884a8.665,8.665,0,0,1-3.316.14m1.561-1.481c.96.054,1.828.067,2.293-.9a1.389,1.389,0,0,0-.151-1.55,1.833,1.833,0,0,0-2.2-.521,20.293,20.293,0,0,0,.057,2.967" transform="translate(-0.002 -0.361)" fill="#fff"/>
          <path id="Path_956" data-name="Path 956" d="M76.2,36.094c-.73-.718-.835-1.727-1.625-2.463-.373.8-.047,1.586-.272,2.319a1.58,1.58,0,0,1-1.48-.036c-.007-1.851-.008-3.759,0-5.751a9.238,9.238,0,0,1,3.432-.047,1.8,1.8,0,0,1,.99,2.765,4.7,4.7,0,0,1-.7.7c.151.873.92,1.456,1.149,2.4a4.29,4.29,0,0,1-1.5.11m-1.626-4.838a.827.827,0,0,0-.026,1.029,1.622,1.622,0,0,0,1.362-.246c-.123-.862-.714-.817-1.337-.783" transform="translate(-0.877 -0.361)" fill="#fff"/>
          <path id="Path_957" data-name="Path 957" d="M63.195,33.712H61.066a.691.691,0,0,0-.031.8c.793.214,1.678-.034,2.51.133.3.466.13.9.119,1.4H59.392V30.093a28.013,28.013,0,0,1,4.082,0c.265.461.123.847.09,1.341H60.99c-.1.5-.1.81.442.815.6.006,1.2,0,1.834,0a1.356,1.356,0,0,1-.071,1.465" transform="translate(-0.716 -0.361)" fill="#fff"/>
          <path id="Path_958" data-name="Path 958" d="M43.9,30.089h3.929a1.362,1.362,0,0,1,.058,1.279c-.859.2-1.753-.086-2.594.194.24.561.24.561,2.456.771a1.45,1.45,0,0,1,.036,1.3H45.529a.658.658,0,0,0-.166.846c.831.3,1.78-.069,2.593.2A1.337,1.337,0,0,1,48.064,36H43.9Z" transform="translate(-0.529 -0.362)" fill="#fff"/>
          <path id="Path_959" data-name="Path 959" d="M23.761,30.135a2.951,2.951,0,0,1,1.382-.042c.829,1.888,1.685,3.842,2.55,5.812-.545.36-1.041.118-1.416.185-.553-.305-.495-.872-.86-1.224a9.023,9.023,0,0,0-1.945-.044l-.568,1.2a2.588,2.588,0,0,1-1.622-.081c.833-1.951,1.653-3.869,2.479-5.8M24.9,33.269c-.247-.2-.072-.688-.566-.715-.209.265-.31.5-.147.778a.6.6,0,0,0,.713-.062" transform="translate(-0.256 -0.361)" fill="#fff"/>
          <path id="Path_960" data-name="Path 960" d="M71.391,35.923a2.164,2.164,0,0,1-1.5.1c-.473-.274-.436-.824-.752-1.187H67.273c-.452.305-.348.906-.849,1.214A3.294,3.294,0,0,1,64.936,36l2.519-5.819a2.127,2.127,0,0,1,1.414-.075c.808,1.861,1.642,3.785,2.522,5.814M68.452,33.3a.871.871,0,0,0-.461-.984c.063.409-.368.633-.228,1.041a.692.692,0,0,0,.69-.057" transform="translate(-0.782 -0.361)" fill="#fff"/>
          <path id="Path_961" data-name="Path 961" d="M10.625,35.385a2.023,2.023,0,0,1,.937-1.106c1.141.585,1.141.585,1.9-.028-.265-.587-.889-.589-1.364-.8-.978-.431-1.4-.912-1.382-1.682A1.981,1.981,0,0,1,12.3,29.9a2.518,2.518,0,0,1,2.6.568c-.072.507-.489.733-.8,1.055-.6-.082-1.235-.7-1.737.208.211.474.694.494,1.114.641,1.205.424,1.728,1.154,1.558,2.117A2.124,2.124,0,0,1,12.8,36.181a2.574,2.574,0,0,1-2.178-.8" transform="translate(-0.128 -0.358)" fill="#fff"/>
          <path id="Path_962" data-name="Path 962" d="M42.061,30.784l-.995.865c-1.326-.585-1.92-.52-2.462.248a1.969,1.969,0,0,0,.142,2.424c.594.6,1.163.577,2.25-.1a2.086,2.086,0,0,1,1.069.754,2.917,2.917,0,0,1-4.2.578,3.355,3.355,0,0,1-.6-4.468,3.144,3.144,0,0,1,4.8-.3" transform="translate(-0.442 -0.359)" fill="#fff"/>
          <path id="Path_963" data-name="Path 963" d="M19.46,35.973a2.212,2.212,0,0,1-1.48,0V31.454l-1.468-.106c-.351-.348-.2-.754-.148-1.241,1.542-.169,3.087-.034,4.6-.086a.964.964,0,0,1,.129,1.172c-.41.362-.919.079-1.421.306-.3,1.423.067,2.946-.209,4.473" transform="translate(-0.196 -0.361)" fill="#fff"/>
          <path id="Path_964" data-name="Path 964" d="M53.954,30.139a2.013,2.013,0,0,1,1.38.028v4.419h2.3a1.907,1.907,0,0,1,.043,1.451H53.954Z" transform="translate(-0.65 -0.361)" fill="#fff"/>
          <path id="Path_965" data-name="Path 965" d="M88.646,35.982a2.785,2.785,0,0,1-1.406.068,10.529,10.529,0,0,1-.138-2.956c-.041-.958-.009-1.919-.009-2.846.543-.369,1.021-.169,1.553-.17Z" transform="translate(-1.049 -0.361)" fill="#fff"/>
          <path id="Path_966" data-name="Path 966" d="M8.921,35.993a2,2,0,0,1-1.271.029,19.534,19.534,0,0,1-.123-5.865c.432-.238.879-.084,1.395-.1Z" transform="translate(-0.089 -0.361)" fill="#fff"/>
          <path id="Path_967" data-name="Path 967" d="M51.938,5.953c-.943,1.613-.524,3.506-1.065,5.2a.594.594,0,0,0,.057.4,2.1,2.1,0,0,1-.21,2.089l.575.846c-.2.615-.347,1.246-.6,1.835a1.58,1.58,0,0,0,.379,1.876c1.113,1.205,1.119,1.5.206,2.862-.459.684-.957,1.341-1.463,2.044a17.241,17.241,0,0,1-1.8-2.664,1.592,1.592,0,0,1,.221-2.035c1.044-1,.727-2.067.292-3.158-.3-.745-.32-.736.249-1.435-.341-.723-.773-1.45-.2-2.3.182-.268-.012-.623-.126-.929a6.127,6.127,0,0,1-.367-1.747c-.073-1.071.011-2.184-.965-3.105,1.592.312,1.741.5,1.769,2.129.491-.062.868.335,1.438.427.455-.866-.256-2.489,1.525-2.417Z" transform="translate(-0.568 -0.069)" fill="#fff"/>
          <path id="Path_968" data-name="Path 968" d="M51.917,5.875c.055-.052.148-.156.159-.148.2.146.028.177-.08.225Z" transform="translate(-0.626 -0.069)" fill="#fff"/>
        </g>
      </g>
    </g>
  </g>
</svg>
