<?xml version="1.0" encoding="utf-8"?>
<!-- Generator: Adobe Illustrator 27.7.0, SVG Export Plug-In . SVG Version: 6.00 Build 0)  -->
<svg version="1.1" id="Layer_1" xmlns="http://www.w3.org/2000/svg" xmlns:xlink="http://www.w3.org/1999/xlink" x="0px" y="0px"
	 viewBox="0 0 69.08 76.49" style="enable-background:new 0 0 69.08 76.49;" xml:space="preserve">
<style type="text/css">
	.st0{fill:#FFFFFF;}
	.st1{fill:#123557;}
	.st2{fill:none;stroke:#123557;stroke-width:3.6;stroke-linecap:round;stroke-linejoin:round;stroke-miterlimit:10;}
</style>
<g>
	<g id="Group_503" transform="translate(63.26 82.362)">
		<path id="Path_1509" class="st0" d="M-58.43-66.85c-2.85,1.86-4.64,4.97-4.83,8.36v28.73c0.19,3.4,1.98,6.5,4.83,8.36l24.88,14.37
			c3.04,1.53,6.62,1.53,9.65,0L0.99-21.39c2.85-1.86,4.64-4.97,4.83-8.36v-28.73c-0.19-3.4-1.98-6.5-4.83-8.36l-24.89-14.37
			c-3.04-1.53-6.62-1.53-9.65,0L-58.43-66.85z"/>
	</g>
	<g>
		<path class="st1" d="M22.4,22.84c-0.49,0.19-1.07,0.1-1.36-0.39c-0.29-0.49-0.1-1.07,0.39-1.36c3.88-2.33,8.45-3.5,13.11-3.5
			c4.66,0,9.23,1.17,13.11,3.5c0.49,0.29,0.68,0.87,0.39,1.36c-0.29,0.49-0.87,0.68-1.36,0.39c-3.59-2.14-7.77-3.3-12.14-3.3
			C30.27,19.54,26.09,20.71,22.4,22.84z"/>
		<path class="st2" d="M22.4,22.84c-0.49,0.19-1.07,0.1-1.36-0.39c-0.29-0.49-0.1-1.07,0.39-1.36c3.88-2.33,8.45-3.5,13.11-3.5
			c4.66,0,9.23,1.17,13.11,3.5c0.49,0.29,0.68,0.87,0.39,1.36c-0.29,0.49-0.87,0.68-1.36,0.39c-3.59-2.14-7.77-3.3-12.14-3.3
			C30.27,19.54,26.09,20.71,22.4,22.84z"/>
		<path class="st1" d="M18.22,33.53c-0.29,0.39-0.97,0.58-1.36,0.29c-0.49-0.29-0.58-0.87-0.29-1.36
			c3.88-6.31,10.58-10.1,17.97-10.1c7.48,0,14.18,3.88,17.97,10.1c0.29,0.49,0.19,1.07-0.29,1.36c-0.49,0.29-1.07,0.1-1.36-0.29
			c-3.4-5.73-9.52-9.23-16.31-9.23C27.84,24.3,21.82,27.8,18.22,33.53z"/>
		<path class="st2" d="M18.22,33.53c-0.29,0.39-0.97,0.58-1.36,0.29c-0.49-0.29-0.58-0.87-0.29-1.36
			c3.88-6.31,10.58-10.1,17.97-10.1c7.48,0,14.18,3.88,17.97,10.1c0.29,0.49,0.19,1.07-0.29,1.36c-0.49,0.29-1.07,0.1-1.36-0.29
			c-3.4-5.73-9.52-9.23-16.31-9.23C27.84,24.3,21.82,27.8,18.22,33.53z"/>
		<path class="st1" d="M31.33,56.83c0.39,0.39,0.39,0.97,0,1.36c-0.39,0.39-1.07,0.39-1.46,0c-4.18-4.37-6.6-9.81-6.6-14.28
			c0-6.7,4.76-11.94,11.26-11.94c6.31,0,10.88,4.76,11.56,11.46c0.1,0.58-0.39,1.07-0.87,1.07c-0.58,0.1-1.07-0.29-1.07-0.87
			c-0.58-5.73-4.37-9.71-9.61-9.71c-5.34,0-9.32,4.37-9.32,10C25.22,47.9,27.45,52.85,31.33,56.83z"/>
		<path class="st2" d="M31.33,56.83c0.39,0.39,0.39,0.97,0,1.36c-0.39,0.39-1.07,0.39-1.46,0c-4.18-4.37-6.6-9.81-6.6-14.28
			c0-6.7,4.76-11.94,11.26-11.94c6.31,0,10.88,4.76,11.56,11.46c0.1,0.58-0.39,1.07-0.87,1.07c-0.58,0.1-1.07-0.29-1.07-0.87
			c-0.58-5.73-4.37-9.71-9.61-9.71c-5.34,0-9.32,4.37-9.32,10C25.22,47.9,27.45,52.85,31.33,56.83z"/>
		<path class="st1" d="M33.28,43.14c-0.1-0.58,0.29-1.07,0.78-1.17c0.58-0.1,1.07,0.29,1.17,0.87c0.39,2.52,1.07,4.37,2.23,5.83
			c0.97,1.36,2.43,2.52,3.98,3.2c1.07,0.39,2.14,0.58,3.2,0.58c0.78,0,1.55-0.1,2.23-0.29c0.58-0.19,1.07,0.19,1.26,0.68
			c0.1,0.49-0.19,1.07-0.68,1.17c-0.97,0.29-1.85,0.39-2.82,0.39c-1.36,0-2.72-0.19-3.88-0.68c-1.94-0.78-3.69-2.23-4.95-3.88
			C34.54,48.09,33.76,45.96,33.28,43.14z"/>
		<path class="st2" d="M33.28,43.14c-0.1-0.58,0.29-1.07,0.78-1.17c0.58-0.1,1.07,0.29,1.17,0.87c0.39,2.52,1.07,4.37,2.23,5.83
			c0.97,1.36,2.43,2.52,3.98,3.2c1.07,0.39,2.14,0.58,3.2,0.58c0.78,0,1.55-0.1,2.23-0.29c0.58-0.19,1.07,0.19,1.26,0.68
			c0.1,0.49-0.19,1.07-0.68,1.17c-0.97,0.29-1.85,0.39-2.82,0.39c-1.36,0-2.72-0.19-3.88-0.68c-1.94-0.78-3.69-2.23-4.95-3.88
			C34.54,48.09,33.76,45.96,33.28,43.14z"/>
		<path class="st1" d="M22.11,51.2c0.29,0.49,0.1,1.07-0.39,1.36c-0.49,0.19-1.07,0-1.36-0.49c-1.26-2.23-1.85-5.15-1.85-8.16
			c0-9.42,6.89-16.8,16.02-16.7c9.42,0,16.7,7.96,16.41,16.7c-0.19,3.59-2.72,5.34-6.02,5.44c-3.01,0-5.54-2.14-6.12-5.34
			c-0.58-3.59-2.14-5.24-4.66-5.05c-2.52,0.19-3.88,1.75-3.88,4.56c-0.1,3.88,2.43,8.55,5.54,10.97c1.55,1.26,3.01,1.85,6.12,2.43
			c0.49,0.1,0.87,0.68,0.68,1.17c-0.1,0.58-0.58,0.87-1.17,0.78c-3.3-0.68-5.05-1.36-6.8-2.82c-3.59-2.82-6.41-7.96-6.31-12.53
			c0-3.79,2.04-6.31,5.73-6.51c3.59-0.29,6.02,2.14,6.7,6.7c0.39,2.23,2.14,3.69,4.18,3.69c2.33-0.1,3.98-1.17,3.98-3.5
			c0.29-7.67-6.12-14.76-14.37-14.76c-7.96,0-14.08,6.41-14.08,14.76C20.46,46.63,21.04,49.16,22.11,51.2z"/>
		<path class="st2" d="M22.11,51.2c0.29,0.49,0.1,1.07-0.39,1.36c-0.49,0.19-1.07,0-1.36-0.49c-1.26-2.23-1.85-5.15-1.85-8.16
			c0-9.42,6.89-16.8,16.02-16.7c9.42,0,16.7,7.96,16.41,16.7c-0.19,3.59-2.72,5.34-6.02,5.44c-3.01,0-5.54-2.14-6.12-5.34
			c-0.58-3.59-2.14-5.24-4.66-5.05c-2.52,0.19-3.88,1.75-3.88,4.56c-0.1,3.88,2.43,8.55,5.54,10.97c1.55,1.26,3.01,1.85,6.12,2.43
			c0.49,0.1,0.87,0.68,0.68,1.17c-0.1,0.58-0.58,0.87-1.17,0.78c-3.3-0.68-5.05-1.36-6.8-2.82c-3.59-2.82-6.41-7.96-6.31-12.53
			c0-3.79,2.04-6.31,5.73-6.51c3.59-0.29,6.02,2.14,6.7,6.7c0.39,2.23,2.14,3.69,4.18,3.69c2.33-0.1,3.98-1.17,3.98-3.5
			c0.29-7.67-6.12-14.76-14.37-14.76c-7.96,0-14.08,6.41-14.08,14.76C20.46,46.63,21.04,49.16,22.11,51.2z"/>
		<path class="st0" d="M22.4,22.84c-0.49,0.19-1.07,0.1-1.36-0.39c-0.29-0.49-0.1-1.07,0.39-1.36c3.88-2.33,8.45-3.5,13.11-3.5
			c4.66,0,9.23,1.17,13.11,3.5c0.49,0.29,0.68,0.87,0.39,1.36c-0.29,0.49-0.87,0.68-1.36,0.39c-3.59-2.14-7.77-3.3-12.14-3.3
			C30.27,19.54,26.09,20.71,22.4,22.84z"/>
		<path class="st0" d="M18.22,33.53c-0.29,0.39-0.97,0.58-1.36,0.29c-0.49-0.29-0.58-0.87-0.29-1.36
			c3.88-6.31,10.58-10.1,17.97-10.1c7.48,0,14.18,3.88,17.97,10.1c0.29,0.49,0.19,1.07-0.29,1.36c-0.49,0.29-1.07,0.1-1.36-0.29
			c-3.4-5.73-9.52-9.23-16.31-9.23C27.84,24.3,21.82,27.8,18.22,33.53z"/>
		<path class="st0" d="M31.33,56.83c0.39,0.39,0.39,0.97,0,1.36c-0.39,0.39-1.07,0.39-1.46,0c-4.18-4.37-6.6-9.81-6.6-14.28
			c0-6.7,4.76-11.94,11.26-11.94c6.31,0,10.88,4.76,11.56,11.46c0.1,0.58-0.39,1.07-0.87,1.07c-0.58,0.1-1.07-0.29-1.07-0.87
			c-0.58-5.73-4.37-9.71-9.61-9.71c-5.34,0-9.32,4.37-9.32,10C25.22,47.9,27.45,52.85,31.33,56.83z"/>
		<path class="st0" d="M33.28,43.14c-0.1-0.58,0.29-1.07,0.78-1.17c0.58-0.1,1.07,0.29,1.17,0.87c0.39,2.52,1.07,4.37,2.23,5.83
			c0.97,1.36,2.43,2.52,3.98,3.2c1.07,0.39,2.14,0.58,3.2,0.58c0.78,0,1.55-0.1,2.23-0.29c0.58-0.19,1.07,0.19,1.26,0.68
			c0.1,0.49-0.19,1.07-0.68,1.17c-0.97,0.29-1.85,0.39-2.82,0.39c-1.36,0-2.72-0.19-3.88-0.68c-1.94-0.78-3.69-2.23-4.95-3.88
			C34.54,48.09,33.76,45.96,33.28,43.14z"/>
		<path class="st0" d="M22.11,51.2c0.29,0.49,0.1,1.07-0.39,1.36c-0.49,0.19-1.07,0-1.36-0.49c-1.26-2.23-1.85-5.15-1.85-8.16
			c0-9.42,6.89-16.8,16.02-16.7c9.42,0,16.7,7.96,16.41,16.7c-0.19,3.59-2.72,5.34-6.02,5.44c-3.01,0-5.54-2.14-6.12-5.34
			c-0.58-3.59-2.14-5.24-4.66-5.05c-2.52,0.19-3.88,1.75-3.88,4.56c-0.1,3.88,2.43,8.55,5.54,10.97c1.55,1.26,3.01,1.85,6.12,2.43
			c0.49,0.1,0.87,0.68,0.68,1.17c-0.1,0.58-0.58,0.87-1.17,0.78c-3.3-0.68-5.05-1.36-6.8-2.82c-3.59-2.82-6.41-7.96-6.31-12.53
			c0-3.79,2.04-6.31,5.73-6.51c3.59-0.29,6.02,2.14,6.7,6.7c0.39,2.23,2.14,3.69,4.18,3.69c2.33-0.1,3.98-1.17,3.98-3.5
			c0.29-7.67-6.12-14.76-14.37-14.76c-7.96,0-14.08,6.41-14.08,14.76C20.46,46.63,21.04,49.16,22.11,51.2z"/>
	</g>
</g>
<g>
</g>
<g>
</g>
<g>
</g>
<g>
</g>
<g>
</g>
<g>
</g>
<g>
</g>
<g>
</g>
<g>
</g>
<g>
</g>
<g>
</g>
</svg>
