<?xml version="1.0" encoding="utf-8"?>
<!-- Generator: Adobe Illustrator 27.7.0, SVG Export Plug-In . SVG Version: 6.00 Build 0)  -->
<svg version="1.1" id="Layer_1" xmlns="http://www.w3.org/2000/svg" xmlns:xlink="http://www.w3.org/1999/xlink" x="0px" y="0px"
	 viewBox="0 0 81 92.13" style="enable-background:new 0 0 81 92.13;" xml:space="preserve">
<style type="text/css">
	.st0{fill:#123457;}
	.st1{display:none;}
	.st2{display:inline;}
	.st3{fill:none;stroke:#FFFFFF;stroke-width:2;stroke-miterlimit:10;}
	.st4{display:inline;fill:none;stroke:#FFFFFF;stroke-width:2;stroke-miterlimit:10;}
	.st5{fill:#FFFFFF;}
	.st6{fill:#123557;}
	.st7{fill:none;stroke:#123557;stroke-width:3.6;stroke-linecap:round;stroke-linejoin:round;stroke-miterlimit:10;}
</style>
<g>
	<g>
		<g>
			<path id="Polygon_88_00000116206777653450988870000006612154428331284885_" class="st0" d="M81,66.11c0,2.14-1.14,4.12-2.99,5.19
				l-34.5,20.02c-1.86,1.08-4.16,1.08-6.02,0L2.99,71.3C1.14,70.22,0,68.25,0,66.11V26.02c0-2.14,1.14-4.12,2.99-5.19l34.5-20.02
				c1.86-1.08,4.16-1.08,6.02,0l34.5,20.02C79.86,21.9,81,23.88,81,26.02V66.11z"/>
			<g class="st1">
				<g class="st2">
					<circle class="st3" cx="40.49" cy="19.75" r="9.43"/>
				</g>
				<path class="st4" d="M39.48,32.54h-8.42c0,0-13.8,3.02-14.02,17.91v16.4c0,0,0.11,3.78,2.7,4.96h1.94c0,0,3.02,0.43,3.13-4.96
					L24.7,50.66c0,0,1.08-6.58,3.56-7.01v27.4h24.27V43c0,0,2.27,0.43,3.88,6.8v18.34c0,0,0.43,2.93,2.48,3.68h2.37
					c0,0,2.37-0.22,2.7-3.46V49.58c0,0-1.08-13-14.05-17.04H39.48z"/>
				<g class="st2">
					<path class="st5" d="M39.91,33.29v3.13c0,0,0.11,1.83-1.51,1.73c0,0-0.39-3.27-1.9-4.12c-0.45-0.25-1.03-0.11-1.38,0.26
						c-0.41,0.43-1.02,1.13-1.46,2.03l-3.56,9.49c0,0-0.93,3.19,1.62,3.13c0,0,4.72,0.6,6.79-1.87c0.15-0.18,0.23-0.41,0.26-0.65
						l0.72-6.76h0.64v9.35v0.63h0.71v2.27c0,0-3.02,3.72-4.58,3.99c-1.56,0.27-2.75,0.54-3.4,2.32s-0.22,0.27-0.22,0.27
						s-0.22,2.27,1.78,3.24h12.78c0,0,1.24,0.7,0,1.29H33.11c0,0-2.32,1.83-0.16,4.1H46.7c0,0,1.29,0.49,0,1.24h-6.85
						c0,0-1.13,0.86-1,1.94h1.21l0.05-0.7l6.8,0.05c0,0,1.62,0.11,2.21-1.35c0,0,0.59-2.48-2.37-2.43L33.7,65.71
						c0,0-0.27-0.49-0.05-1.24h14.24c0,0,1.67,0,1.78-1.56s-1.08-2.37-1.73-2.37L35,60.58c0,0-1.46-1.02-0.54-2.59l1.13-0.05
						c0,0,0.97,1.73,2.7,1.83h2.54c0,0,3.45-0.65,4.48-4.32c0,0,1.26-4.25-3.13-5.99l-0.05-0.59l-0.59-0.11l-0.05-9.06l0.65,0.05
						v6.41c0,0.44,0.15,0.86,0.43,1.19c0.57,0.67,1.79,1.64,4.1,1.68c0,0,1.36,0.38,3.03-0.11c0,0,2.42-0.65,0.8-3.51l-4.21-10.46
						c0,0-2.01-3.4-3.4,1.51l-0.11,1.24h-1.29l0.11-4.42H39.91z"/>
				</g>
			</g>
		</g>
	</g>
	<g>
		<path class="st6" d="M25.5,27.03c-0.6,0.24-1.32,0.12-1.68-0.48c-0.36-0.6-0.12-1.32,0.48-1.68c4.8-2.88,10.44-4.32,16.2-4.32
			c5.76,0,11.4,1.44,16.2,4.32c0.6,0.36,0.84,1.08,0.48,1.68c-0.36,0.6-1.08,0.84-1.68,0.48c-4.44-2.64-9.6-4.08-15-4.08
			C35.22,22.95,30.06,24.39,25.5,27.03z"/>
		<path class="st7" d="M25.5,27.03c-0.6,0.24-1.32,0.12-1.68-0.48c-0.36-0.6-0.12-1.32,0.48-1.68c4.8-2.88,10.44-4.32,16.2-4.32
			c5.76,0,11.4,1.44,16.2,4.32c0.6,0.36,0.84,1.08,0.48,1.68c-0.36,0.6-1.08,0.84-1.68,0.48c-4.44-2.64-9.6-4.08-15-4.08
			C35.22,22.95,30.06,24.39,25.5,27.03z"/>
		<path class="st6" d="M20.34,40.23c-0.36,0.48-1.2,0.72-1.68,0.36c-0.6-0.36-0.72-1.08-0.36-1.68c4.8-7.8,13.08-12.48,22.2-12.48
			c9.24,0,17.52,4.8,22.2,12.48c0.36,0.6,0.24,1.32-0.36,1.68c-0.6,0.36-1.32,0.12-1.68-0.36c-4.2-7.08-11.76-11.4-20.16-11.4
			C32.22,28.83,24.78,33.15,20.34,40.23z"/>
		<path class="st7" d="M20.34,40.23c-0.36,0.48-1.2,0.72-1.68,0.36c-0.6-0.36-0.72-1.08-0.36-1.68c4.8-7.8,13.08-12.48,22.2-12.48
			c9.24,0,17.52,4.8,22.2,12.48c0.36,0.6,0.24,1.32-0.36,1.68c-0.6,0.36-1.32,0.12-1.68-0.36c-4.2-7.08-11.76-11.4-20.16-11.4
			C32.22,28.83,24.78,33.15,20.34,40.23z"/>
		<path class="st6" d="M36.54,69.03c0.48,0.48,0.48,1.2,0,1.68c-0.48,0.48-1.32,0.48-1.8,0c-5.16-5.4-8.16-12.12-8.16-17.64
			c0-8.28,5.88-14.76,13.92-14.76c7.8,0,13.44,5.88,14.28,14.16c0.12,0.72-0.48,1.32-1.08,1.32c-0.72,0.12-1.32-0.36-1.32-1.08
			c-0.72-7.08-5.4-12-11.88-12c-6.6,0-11.52,5.4-11.52,12.36C28.98,57.99,31.74,64.11,36.54,69.03z"/>
		<path class="st7" d="M36.54,69.03c0.48,0.48,0.48,1.2,0,1.68c-0.48,0.48-1.32,0.48-1.8,0c-5.16-5.4-8.16-12.12-8.16-17.64
			c0-8.28,5.88-14.76,13.92-14.76c7.8,0,13.44,5.88,14.28,14.16c0.12,0.72-0.48,1.32-1.08,1.32c-0.72,0.12-1.32-0.36-1.32-1.08
			c-0.72-7.08-5.4-12-11.88-12c-6.6,0-11.52,5.4-11.52,12.36C28.98,57.99,31.74,64.11,36.54,69.03z"/>
		<path class="st6" d="M38.94,52.11c-0.12-0.72,0.36-1.32,0.96-1.44c0.72-0.12,1.32,0.36,1.44,1.08c0.48,3.12,1.32,5.4,2.76,7.2
			c1.2,1.68,3,3.12,4.92,3.96c1.32,0.48,2.64,0.72,3.96,0.72c0.96,0,1.92-0.12,2.76-0.36c0.72-0.24,1.32,0.24,1.56,0.84
			c0.12,0.6-0.24,1.32-0.84,1.44c-1.2,0.36-2.28,0.48-3.48,0.48c-1.68,0-3.36-0.24-4.8-0.84c-2.4-0.96-4.56-2.76-6.12-4.8
			C40.5,58.23,39.54,55.59,38.94,52.11z"/>
		<path class="st7" d="M38.94,52.11c-0.12-0.72,0.36-1.32,0.96-1.44c0.72-0.12,1.32,0.36,1.44,1.08c0.48,3.12,1.32,5.4,2.76,7.2
			c1.2,1.68,3,3.12,4.92,3.96c1.32,0.48,2.64,0.72,3.96,0.72c0.96,0,1.92-0.12,2.76-0.36c0.72-0.24,1.32,0.24,1.56,0.84
			c0.12,0.6-0.24,1.32-0.84,1.44c-1.2,0.36-2.28,0.48-3.48,0.48c-1.68,0-3.36-0.24-4.8-0.84c-2.4-0.96-4.56-2.76-6.12-4.8
			C40.5,58.23,39.54,55.59,38.94,52.11z"/>
		<path class="st6" d="M25.14,62.07c0.36,0.6,0.12,1.32-0.48,1.68c-0.6,0.24-1.32,0-1.68-0.6c-1.56-2.76-2.28-6.36-2.28-10.08
			c0-11.64,8.52-20.76,19.8-20.64c11.64,0,20.64,9.84,20.28,20.64c-0.24,4.44-3.36,6.6-7.44,6.72c-3.72,0-6.84-2.64-7.56-6.6
			c-0.72-4.44-2.64-6.48-5.76-6.24c-3.12,0.24-4.8,2.16-4.8,5.64c-0.12,4.8,3,10.56,6.84,13.56c1.92,1.56,3.72,2.28,7.56,3
			c0.6,0.12,1.08,0.84,0.84,1.44c-0.12,0.72-0.72,1.08-1.44,0.96c-4.08-0.84-6.24-1.68-8.4-3.48c-4.44-3.48-7.92-9.84-7.8-15.48
			c0-4.68,2.52-7.8,7.08-8.04c4.44-0.36,7.44,2.64,8.28,8.28c0.48,2.76,2.64,4.56,5.16,4.56c2.88-0.12,4.92-1.44,4.92-4.32
			c0.36-9.48-7.56-18.24-17.76-18.24c-9.84,0-17.4,7.92-17.4,18.24C23.1,56.43,23.82,59.55,25.14,62.07z"/>
		<path class="st7" d="M25.14,62.07c0.36,0.6,0.12,1.32-0.48,1.68c-0.6,0.24-1.32,0-1.68-0.6c-1.56-2.76-2.28-6.36-2.28-10.08
			c0-11.64,8.52-20.76,19.8-20.64c11.64,0,20.64,9.84,20.28,20.64c-0.24,4.44-3.36,6.6-7.44,6.72c-3.72,0-6.84-2.64-7.56-6.6
			c-0.72-4.44-2.64-6.48-5.76-6.24c-3.12,0.24-4.8,2.16-4.8,5.64c-0.12,4.8,3,10.56,6.84,13.56c1.92,1.56,3.72,2.28,7.56,3
			c0.6,0.12,1.08,0.84,0.84,1.44c-0.12,0.72-0.72,1.08-1.44,0.96c-4.08-0.84-6.24-1.68-8.4-3.48c-4.44-3.48-7.92-9.84-7.8-15.48
			c0-4.68,2.52-7.8,7.08-8.04c4.44-0.36,7.44,2.64,8.28,8.28c0.48,2.76,2.64,4.56,5.16,4.56c2.88-0.12,4.92-1.44,4.92-4.32
			c0.36-9.48-7.56-18.24-17.76-18.24c-9.84,0-17.4,7.92-17.4,18.24C23.1,56.43,23.82,59.55,25.14,62.07z"/>
		<path class="st5" d="M25.5,27.03c-0.6,0.24-1.32,0.12-1.68-0.48c-0.36-0.6-0.12-1.32,0.48-1.68c4.8-2.88,10.44-4.32,16.2-4.32
			c5.76,0,11.4,1.44,16.2,4.32c0.6,0.36,0.84,1.08,0.48,1.68c-0.36,0.6-1.08,0.84-1.68,0.48c-4.44-2.64-9.6-4.08-15-4.08
			C35.22,22.95,30.06,24.39,25.5,27.03z"/>
		<path class="st5" d="M20.34,40.23c-0.36,0.48-1.2,0.72-1.68,0.36c-0.6-0.36-0.72-1.08-0.36-1.68c4.8-7.8,13.08-12.48,22.2-12.48
			c9.24,0,17.52,4.8,22.2,12.48c0.36,0.6,0.24,1.32-0.36,1.68c-0.6,0.36-1.32,0.12-1.68-0.36c-4.2-7.08-11.76-11.4-20.16-11.4
			C32.22,28.83,24.78,33.15,20.34,40.23z"/>
		<path class="st5" d="M36.54,69.03c0.48,0.48,0.48,1.2,0,1.68c-0.48,0.48-1.32,0.48-1.8,0c-5.16-5.4-8.16-12.12-8.16-17.64
			c0-8.28,5.88-14.76,13.92-14.76c7.8,0,13.44,5.88,14.28,14.16c0.12,0.72-0.48,1.32-1.08,1.32c-0.72,0.12-1.32-0.36-1.32-1.08
			c-0.72-7.08-5.4-12-11.88-12c-6.6,0-11.52,5.4-11.52,12.36C28.98,57.99,31.74,64.11,36.54,69.03z"/>
		<path class="st5" d="M38.94,52.11c-0.12-0.72,0.36-1.32,0.96-1.44c0.72-0.12,1.32,0.36,1.44,1.08c0.48,3.12,1.32,5.4,2.76,7.2
			c1.2,1.68,3,3.12,4.92,3.96c1.32,0.48,2.64,0.72,3.96,0.72c0.96,0,1.92-0.12,2.76-0.36c0.72-0.24,1.32,0.24,1.56,0.84
			c0.12,0.6-0.24,1.32-0.84,1.44c-1.2,0.36-2.28,0.48-3.48,0.48c-1.68,0-3.36-0.24-4.8-0.84c-2.4-0.96-4.56-2.76-6.12-4.8
			C40.5,58.23,39.54,55.59,38.94,52.11z"/>
		<path class="st5" d="M25.14,62.07c0.36,0.6,0.12,1.32-0.48,1.68c-0.6,0.24-1.32,0-1.68-0.6c-1.56-2.76-2.28-6.36-2.28-10.08
			c0-11.64,8.52-20.76,19.8-20.64c11.64,0,20.64,9.84,20.28,20.64c-0.24,4.44-3.36,6.6-7.44,6.72c-3.72,0-6.84-2.64-7.56-6.6
			c-0.72-4.44-2.64-6.48-5.76-6.24c-3.12,0.24-4.8,2.16-4.8,5.64c-0.12,4.8,3,10.56,6.84,13.56c1.92,1.56,3.72,2.28,7.56,3
			c0.6,0.12,1.08,0.84,0.84,1.44c-0.12,0.72-0.72,1.08-1.44,0.96c-4.08-0.84-6.24-1.68-8.4-3.48c-4.44-3.48-7.92-9.84-7.8-15.48
			c0-4.68,2.52-7.8,7.08-8.04c4.44-0.36,7.44,2.64,8.28,8.28c0.48,2.76,2.64,4.56,5.16,4.56c2.88-0.12,4.92-1.44,4.92-4.32
			c0.36-9.48-7.56-18.24-17.76-18.24c-9.84,0-17.4,7.92-17.4,18.24C23.1,56.43,23.82,59.55,25.14,62.07z"/>
	</g>
</g>
<g>
</g>
<g>
</g>
<g>
</g>
<g>
</g>
<g>
</g>
<g>
</g>
<g>
</g>
<g>
</g>
<g>
</g>
<g>
</g>
<g>
</g>
</svg>
