<?xml version="1.0" encoding="utf-8"?>
<!-- Generator: Adobe Illustrator 27.7.0, SVG Export Plug-In . SVG Version: 6.00 Build 0)  -->
<svg version="1.1" id="Layer_1" xmlns="http://www.w3.org/2000/svg" xmlns:xlink="http://www.w3.org/1999/xlink" x="0px" y="0px"
	 viewBox="0 0 40.26 45.29" style="enable-background:new 0 0 40.26 45.29;" xml:space="preserve">
<style type="text/css">
	.st0{fill:#0062B8;stroke:#0062B8;stroke-width:4;stroke-miterlimit:10;}
	.st1{fill:#FFFFFF;}
</style>
<g>
	<path class="st0" d="M7.99,7.24C7.5,7.44,6.92,7.34,6.63,6.86C6.34,6.37,6.53,5.79,7.02,5.5C10.9,3.17,15.47,2,20.13,2
		c4.66,0,9.23,1.17,13.11,3.5c0.49,0.29,0.68,0.87,0.39,1.36c-0.29,0.49-0.87,0.68-1.36,0.39c-3.59-2.14-7.77-3.3-12.14-3.3
		C15.86,3.94,11.68,5.11,7.99,7.24z"/>
	<path class="st0" d="M7.99,7.24C7.5,7.44,6.92,7.34,6.63,6.86C6.34,6.37,6.53,5.79,7.02,5.5C10.9,3.17,15.47,2,20.13,2
		c4.66,0,9.23,1.17,13.11,3.5c0.49,0.29,0.68,0.87,0.39,1.36c-0.29,0.49-0.87,0.68-1.36,0.39c-3.59-2.14-7.77-3.3-12.14-3.3
		C15.86,3.94,11.68,5.11,7.99,7.24z"/>
	<path class="st0" d="M3.81,17.93c-0.29,0.39-0.97,0.58-1.36,0.29c-0.49-0.29-0.58-0.87-0.29-1.36c3.88-6.31,10.58-10.1,17.97-10.1
		c7.48,0,14.18,3.88,17.97,10.1c0.29,0.49,0.19,1.07-0.29,1.36c-0.49,0.29-1.07,0.1-1.36-0.29c-3.4-5.73-9.52-9.23-16.31-9.23
		C13.43,8.7,7.41,12.2,3.81,17.93z"/>
	<path class="st0" d="M3.81,17.93c-0.29,0.39-0.97,0.58-1.36,0.29c-0.49-0.29-0.58-0.87-0.29-1.36c3.88-6.31,10.58-10.1,17.97-10.1
		c7.48,0,14.18,3.88,17.97,10.1c0.29,0.49,0.19,1.07-0.29,1.36c-0.49,0.29-1.07,0.1-1.36-0.29c-3.4-5.73-9.52-9.23-16.31-9.23
		C13.43,8.7,7.41,12.2,3.81,17.93z"/>
	<path class="st0" d="M16.92,41.23c0.39,0.39,0.39,0.97,0,1.36c-0.39,0.39-1.07,0.39-1.46,0c-4.18-4.37-6.6-9.81-6.6-14.28
		c0-6.7,4.76-11.94,11.26-11.94c6.31,0,10.88,4.76,11.56,11.46c0.1,0.58-0.39,1.07-0.87,1.07c-0.58,0.1-1.07-0.29-1.07-0.87
		c-0.58-5.73-4.37-9.71-9.61-9.71c-5.34,0-9.32,4.37-9.32,10C10.81,32.3,13.04,37.25,16.92,41.23z"/>
	<path class="st0" d="M16.92,41.23c0.39,0.39,0.39,0.97,0,1.36c-0.39,0.39-1.07,0.39-1.46,0c-4.18-4.37-6.6-9.81-6.6-14.28
		c0-6.7,4.76-11.94,11.26-11.94c6.31,0,10.88,4.76,11.56,11.46c0.1,0.58-0.39,1.07-0.87,1.07c-0.58,0.1-1.07-0.29-1.07-0.87
		c-0.58-5.73-4.37-9.71-9.61-9.71c-5.34,0-9.32,4.37-9.32,10C10.81,32.3,13.04,37.25,16.92,41.23z"/>
	<path class="st0" d="M18.87,27.54c-0.1-0.58,0.29-1.07,0.78-1.17c0.58-0.1,1.07,0.29,1.17,0.87c0.39,2.52,1.07,4.37,2.23,5.83
		c0.97,1.36,2.43,2.52,3.98,3.2c1.07,0.39,2.14,0.58,3.2,0.58c0.78,0,1.55-0.1,2.23-0.29c0.58-0.19,1.07,0.19,1.26,0.68
		c0.1,0.49-0.19,1.07-0.68,1.17c-0.97,0.29-1.85,0.39-2.82,0.39c-1.36,0-2.72-0.19-3.88-0.68c-1.94-0.78-3.69-2.23-4.95-3.88
		C20.13,32.49,19.35,30.36,18.87,27.54z"/>
	<path class="st0" d="M18.87,27.54c-0.1-0.58,0.29-1.07,0.78-1.17c0.58-0.1,1.07,0.29,1.17,0.87c0.39,2.52,1.07,4.37,2.23,5.83
		c0.97,1.36,2.43,2.52,3.98,3.2c1.07,0.39,2.14,0.58,3.2,0.58c0.78,0,1.55-0.1,2.23-0.29c0.58-0.19,1.07,0.19,1.26,0.68
		c0.1,0.49-0.19,1.07-0.68,1.17c-0.97,0.29-1.85,0.39-2.82,0.39c-1.36,0-2.72-0.19-3.88-0.68c-1.94-0.78-3.69-2.23-4.95-3.88
		C20.13,32.49,19.35,30.36,18.87,27.54z"/>
	<path class="st0" d="M7.7,35.6c0.29,0.49,0.1,1.07-0.39,1.36c-0.49,0.19-1.07,0-1.36-0.49c-1.26-2.23-1.85-5.15-1.85-8.16
		c0-9.42,6.89-16.8,16.02-16.7c9.42,0,16.7,7.96,16.41,16.7c-0.19,3.59-2.72,5.34-6.02,5.44c-3.01,0-5.54-2.14-6.12-5.34
		c-0.58-3.59-2.14-5.24-4.66-5.05c-2.52,0.19-3.88,1.75-3.88,4.56c-0.1,3.88,2.43,8.55,5.54,10.97c1.55,1.26,3.01,1.85,6.12,2.43
		c0.49,0.1,0.87,0.68,0.68,1.17c-0.1,0.58-0.58,0.87-1.17,0.78c-3.3-0.68-5.05-1.36-6.8-2.82c-3.59-2.82-6.41-7.96-6.31-12.53
		c0-3.79,2.04-6.31,5.73-6.51c3.59-0.29,6.02,2.14,6.7,6.7c0.39,2.23,2.14,3.69,4.18,3.69c2.33-0.1,3.98-1.17,3.98-3.5
		c0.29-7.67-6.12-14.76-14.37-14.76c-7.96,0-14.08,6.41-14.08,14.76C6.05,31.04,6.63,33.56,7.7,35.6z"/>
	<path class="st0" d="M7.7,35.6c0.29,0.49,0.1,1.07-0.39,1.36c-0.49,0.19-1.07,0-1.36-0.49c-1.26-2.23-1.85-5.15-1.85-8.16
		c0-9.42,6.89-16.8,16.02-16.7c9.42,0,16.7,7.96,16.41,16.7c-0.19,3.59-2.72,5.34-6.02,5.44c-3.01,0-5.54-2.14-6.12-5.34
		c-0.58-3.59-2.14-5.24-4.66-5.05c-2.52,0.19-3.88,1.75-3.88,4.56c-0.1,3.88,2.43,8.55,5.54,10.97c1.55,1.26,3.01,1.85,6.12,2.43
		c0.49,0.1,0.87,0.68,0.68,1.17c-0.1,0.58-0.58,0.87-1.17,0.78c-3.3-0.68-5.05-1.36-6.8-2.82c-3.59-2.82-6.41-7.96-6.31-12.53
		c0-3.79,2.04-6.31,5.73-6.51c3.59-0.29,6.02,2.14,6.7,6.7c0.39,2.23,2.14,3.69,4.18,3.69c2.33-0.1,3.98-1.17,3.98-3.5
		c0.29-7.67-6.12-14.76-14.37-14.76c-7.96,0-14.08,6.41-14.08,14.76C6.05,31.04,6.63,33.56,7.7,35.6z"/>
	<path class="st1" d="M7.99,7.24C7.5,7.44,6.92,7.34,6.63,6.86C6.34,6.37,6.53,5.79,7.02,5.5C10.9,3.17,15.47,2,20.13,2
		c4.66,0,9.23,1.17,13.11,3.5c0.49,0.29,0.68,0.87,0.39,1.36c-0.29,0.49-0.87,0.68-1.36,0.39c-3.59-2.14-7.77-3.3-12.14-3.3
		C15.86,3.94,11.68,5.11,7.99,7.24z"/>
	<path class="st1" d="M3.81,17.93c-0.29,0.39-0.97,0.58-1.36,0.29c-0.49-0.29-0.58-0.87-0.29-1.36c3.88-6.31,10.58-10.1,17.97-10.1
		c7.48,0,14.18,3.88,17.97,10.1c0.29,0.49,0.19,1.07-0.29,1.36c-0.49,0.29-1.07,0.1-1.36-0.29c-3.4-5.73-9.52-9.23-16.31-9.23
		C13.43,8.7,7.41,12.2,3.81,17.93z"/>
	<path class="st1" d="M16.92,41.23c0.39,0.39,0.39,0.97,0,1.36c-0.39,0.39-1.07,0.39-1.46,0c-4.18-4.37-6.6-9.81-6.6-14.28
		c0-6.7,4.76-11.94,11.26-11.94c6.31,0,10.88,4.76,11.56,11.46c0.1,0.58-0.39,1.07-0.87,1.07c-0.58,0.1-1.07-0.29-1.07-0.87
		c-0.58-5.73-4.37-9.71-9.61-9.71c-5.34,0-9.32,4.37-9.32,10C10.81,32.3,13.04,37.25,16.92,41.23z"/>
	<path class="st1" d="M18.87,27.54c-0.1-0.58,0.29-1.07,0.78-1.17c0.58-0.1,1.07,0.29,1.17,0.87c0.39,2.52,1.07,4.37,2.23,5.83
		c0.97,1.36,2.43,2.52,3.98,3.2c1.07,0.39,2.14,0.58,3.2,0.58c0.78,0,1.55-0.1,2.23-0.29c0.58-0.19,1.07,0.19,1.26,0.68
		c0.1,0.49-0.19,1.07-0.68,1.17c-0.97,0.29-1.85,0.39-2.82,0.39c-1.36,0-2.72-0.19-3.88-0.68c-1.94-0.78-3.69-2.23-4.95-3.88
		C20.13,32.49,19.35,30.36,18.87,27.54z"/>
	<path class="st1" d="M7.7,35.6c0.29,0.49,0.1,1.07-0.39,1.36c-0.49,0.19-1.07,0-1.36-0.49c-1.26-2.23-1.85-5.15-1.85-8.16
		c0-9.42,6.89-16.8,16.02-16.7c9.42,0,16.7,7.96,16.41,16.7c-0.19,3.59-2.72,5.34-6.02,5.44c-3.01,0-5.54-2.14-6.12-5.34
		c-0.58-3.59-2.14-5.24-4.66-5.05c-2.52,0.19-3.88,1.75-3.88,4.56c-0.1,3.88,2.43,8.55,5.54,10.97c1.55,1.26,3.01,1.85,6.12,2.43
		c0.49,0.1,0.87,0.68,0.68,1.17c-0.1,0.58-0.58,0.87-1.17,0.78c-3.3-0.68-5.05-1.36-6.8-2.82c-3.59-2.82-6.41-7.96-6.31-12.53
		c0-3.79,2.04-6.31,5.73-6.51c3.59-0.29,6.02,2.14,6.7,6.7c0.39,2.23,2.14,3.69,4.18,3.69c2.33-0.1,3.98-1.17,3.98-3.5
		c0.29-7.67-6.12-14.76-14.37-14.76c-7.96,0-14.08,6.41-14.08,14.76C6.05,31.04,6.63,33.56,7.7,35.6z"/>
</g>
<g>
</g>
<g>
</g>
<g>
</g>
<g>
</g>
<g>
</g>
<g>
</g>
<g>
</g>
<g>
</g>
<g>
</g>
<g>
</g>
<g>
</g>
</svg>
