<?xml version="1.0" encoding="utf-8"?>
<!-- Generator: Adobe Illustrator 27.7.0, SVG Export Plug-In . SVG Version: 6.00 Build 0)  -->
<svg version="1.1" id="Layer_1" xmlns="http://www.w3.org/2000/svg" xmlns:xlink="http://www.w3.org/1999/xlink" x="0px" y="0px"
	 viewBox="0 0 81 92.13" style="enable-background:new 0 0 81 92.13;" xml:space="preserve">
<style type="text/css">
	.st0{fill:#123457;}
	.st1{display:none;}
	.st2{display:inline;}
	.st3{fill:none;stroke:#FFFFFF;stroke-width:2;stroke-miterlimit:10;}
	.st4{display:inline;fill:none;stroke:#FFFFFF;stroke-width:2;stroke-miterlimit:10;}
	.st5{fill:#FFFFFF;}
	.st6{fill:#123557;}
	.st7{fill:none;stroke:#123557;stroke-width:4.8;stroke-linecap:round;stroke-linejoin:round;stroke-miterlimit:10;}
</style>
<g>
	<g>
		<path id="Polygon_88_00000116206777653450988870000006612154428331284885_" class="st0" d="M81,66.11c0,2.14-1.14,4.12-2.99,5.19
			l-34.5,20.02c-1.86,1.08-4.16,1.08-6.02,0L2.99,71.3C1.14,70.22,0,68.25,0,66.11V26.02c0-2.14,1.14-4.12,2.99-5.19l34.5-20.02
			c1.86-1.08,4.16-1.08,6.02,0l34.5,20.02C79.86,21.9,81,23.88,81,26.02V66.11z"/>
		<g class="st1">
			<g class="st2">
				<circle class="st3" cx="40.49" cy="19.75" r="9.43"/>
			</g>
			<path class="st4" d="M39.48,32.54h-8.42c0,0-13.8,3.02-14.02,17.91v16.4c0,0,0.11,3.78,2.7,4.96h1.94c0,0,3.02,0.43,3.13-4.96
				L24.7,50.66c0,0,1.08-6.58,3.56-7.01v27.4h24.27V43c0,0,2.27,0.43,3.88,6.8v18.34c0,0,0.43,2.93,2.48,3.68h2.37
				c0,0,2.37-0.22,2.7-3.46V49.58c0,0-1.08-13-14.05-17.04H39.48z"/>
			<g class="st2">
				<path class="st5" d="M39.91,33.29v3.13c0,0,0.11,1.83-1.51,1.73c0,0-0.39-3.27-1.9-4.12c-0.45-0.25-1.03-0.11-1.38,0.26
					c-0.41,0.43-1.02,1.13-1.46,2.03l-3.56,9.49c0,0-0.93,3.19,1.62,3.13c0,0,4.72,0.6,6.79-1.87c0.15-0.18,0.23-0.41,0.26-0.65
					l0.72-6.76h0.64v9.35v0.63h0.71v2.27c0,0-3.02,3.72-4.58,3.99c-1.56,0.27-2.75,0.54-3.4,2.32s-0.22,0.27-0.22,0.27
					s-0.22,2.27,1.78,3.24h12.78c0,0,1.24,0.7,0,1.29H33.11c0,0-2.32,1.83-0.16,4.1H46.7c0,0,1.29,0.49,0,1.24h-6.85
					c0,0-1.13,0.86-1,1.94h1.21l0.05-0.7l6.8,0.05c0,0,1.62,0.11,2.21-1.35c0,0,0.59-2.48-2.37-2.43L33.7,65.71
					c0,0-0.27-0.49-0.05-1.24h14.24c0,0,1.67,0,1.78-1.56s-1.08-2.37-1.73-2.37L35,60.58c0,0-1.46-1.02-0.54-2.59l1.13-0.05
					c0,0,0.97,1.73,2.7,1.83h2.54c0,0,3.45-0.65,4.48-4.32c0,0,1.26-4.25-3.13-5.99l-0.05-0.59l-0.59-0.11l-0.05-9.06l0.65,0.05
					v6.41c0,0.44,0.15,0.86,0.43,1.19c0.57,0.67,1.79,1.64,4.1,1.68c0,0,1.36,0.38,3.03-0.11c0,0,2.42-0.65,0.8-3.51l-4.21-10.46
					c0,0-2.01-3.4-3.4,1.51l-0.11,1.24h-1.29l0.11-4.42H39.91z"/>
			</g>
		</g>
	</g>
	<g>
		<polygon class="st6" points="37.98,68.98 38.46,69.1 37.98,64.78 39.78,61.42 31.02,44.98 22.38,56.14 		"/>
		<polygon class="st7" points="37.98,68.98 38.46,69.1 37.98,64.78 39.78,61.42 31.02,44.98 22.38,56.14 		"/>
		<polygon class="st6" points="30.06,44.86 18.3,47.14 21.9,55.42 		"/>
		<polygon class="st7" points="30.06,44.86 18.3,47.14 21.9,55.42 		"/>
		<polygon class="st6" points="38.46,70.06 37.62,69.7 21.66,56.74 16.02,60.1 35.94,70.9 38.58,70.66 		"/>
		<polygon class="st7" points="38.46,70.06 37.62,69.7 21.66,56.74 16.02,60.1 35.94,70.9 38.58,70.66 		"/>
		<polygon class="st6" points="17.94,48.34 15.66,59.26 21.18,56.02 		"/>
		<polygon class="st7" points="17.94,48.34 15.66,59.26 21.18,56.02 		"/>
		<polygon class="st6" points="44.94,51.94 49.62,43.3 53.34,44.02 56.94,32.38 46.62,34.9 		"/>
		<polygon class="st7" points="44.94,51.94 49.62,43.3 53.34,44.02 56.94,32.38 46.62,34.9 		"/>
		<polygon class="st6" points="56.46,31.66 41.46,21.58 46.5,34.18 		"/>
		<polygon class="st7" points="56.46,31.66 41.46,21.58 46.5,34.18 		"/>
		<polygon class="st6" points="31.5,43.3 40.5,60.1 43.86,53.86 45.78,35.02 24.3,32.26 27.78,44.02 		"/>
		<polygon class="st7" points="31.5,43.3 40.5,60.1 43.86,53.86 45.78,35.02 24.3,32.26 27.78,44.02 		"/>
		<polygon class="st6" points="40.38,21.22 24.9,31.54 45.54,34.06 		"/>
		<polygon class="st7" points="40.38,21.22 24.9,31.54 45.54,34.06 		"/>
		<polygon class="st6" points="39.3,65.02 50.1,44.98 58.74,56.14 43.02,68.98 39.78,70.18 		"/>
		<polygon class="st7" points="39.3,65.02 50.1,44.98 58.74,56.14 43.02,68.98 39.78,70.18 		"/>
		<polygon class="st6" points="41.22,70.54 43.5,69.7 59.34,56.74 65.1,60.1 45.18,70.9 		"/>
		<polygon class="st7" points="41.22,70.54 43.5,69.7 59.34,56.74 65.1,60.1 45.18,70.9 		"/>
		<polygon class="st6" points="59.82,56.02 63.18,48.34 65.34,59.26 		"/>
		<polygon class="st7" points="59.82,56.02 63.18,48.34 65.34,59.26 		"/>
		<polygon class="st6" points="51.06,44.86 62.7,47.14 59.22,55.42 		"/>
		<polygon class="st7" points="51.06,44.86 62.7,47.14 59.22,55.42 		"/>
		<polygon class="st5" points="37.98,68.98 38.46,69.1 37.98,64.78 39.78,61.42 31.02,44.98 22.38,56.14 		"/>
		<polygon class="st5" points="30.06,44.86 18.3,47.14 21.9,55.42 		"/>
		<polygon class="st5" points="38.46,70.06 37.62,69.7 21.66,56.74 16.02,60.1 35.94,70.9 38.58,70.66 		"/>
		<polygon class="st5" points="17.94,48.34 15.66,59.26 21.18,56.02 		"/>
		<polygon class="st5" points="44.94,51.94 49.62,43.3 53.34,44.02 56.94,32.38 46.62,34.9 		"/>
		<polygon class="st5" points="56.46,31.66 41.46,21.58 46.5,34.18 		"/>
		<polygon class="st5" points="31.5,43.3 40.5,60.1 43.86,53.86 45.78,35.02 24.3,32.26 27.78,44.02 		"/>
		<polygon class="st5" points="40.38,21.22 24.9,31.54 45.54,34.06 		"/>
		<polygon class="st5" points="39.3,65.02 50.1,44.98 58.74,56.14 43.02,68.98 39.78,70.18 		"/>
		<polygon class="st5" points="41.22,70.54 43.5,69.7 59.34,56.74 65.1,60.1 45.18,70.9 		"/>
		<polygon class="st5" points="59.82,56.02 63.18,48.34 65.34,59.26 		"/>
		<polygon class="st5" points="51.06,44.86 62.7,47.14 59.22,55.42 		"/>
	</g>
</g>
<g>
</g>
<g>
</g>
<g>
</g>
<g>
</g>
<g>
</g>
<g>
</g>
<g>
</g>
<g>
</g>
<g>
</g>
<g>
</g>
<g>
</g>
</svg>
