<?xml version="1.0" encoding="utf-8"?>
<!-- Generator: Adobe Illustrator 27.7.0, SVG Export Plug-In . SVG Version: 6.00 Build 0)  -->
<svg version="1.1" id="Layer_1" xmlns="http://www.w3.org/2000/svg" xmlns:xlink="http://www.w3.org/1999/xlink" x="0px" y="0px"
	 viewBox="0 0 69.08 76.49" style="enable-background:new 0 0 69.08 76.49;" xml:space="preserve">
<style type="text/css">
	.st0{fill:#FFFFFF;}
	.st1{fill:#123557;}
	.st2{fill:none;stroke:#123557;stroke-width:4.8;stroke-linecap:round;stroke-linejoin:round;stroke-miterlimit:10;}
</style>
<g>
	<g id="Group_503" transform="translate(63.26 82.362)">
		<path id="Path_1509" class="st0" d="M-58.43-66.85c-2.85,1.86-4.64,4.97-4.83,8.36v28.73c0.19,3.4,1.98,6.5,4.83,8.36l24.88,14.37
			c3.04,1.53,6.62,1.53,9.65,0L0.99-21.39c2.85-1.86,4.64-4.97,4.83-8.36v-28.73c-0.19-3.4-1.98-6.5-4.83-8.36l-24.89-14.37
			c-3.04-1.53-6.62-1.53-9.65,0L-58.43-66.85z"/>
	</g>
	<g>
		<polygon class="st1" points="32.02,61.16 32.5,61.28 32.02,56.96 33.82,53.6 25.06,37.16 16.42,48.32 		"/>
		<polygon class="st2" points="32.02,61.16 32.5,61.28 32.02,56.96 33.82,53.6 25.06,37.16 16.42,48.32 		"/>
		<polygon class="st1" points="24.1,37.04 12.34,39.32 15.94,47.6 		"/>
		<polygon class="st2" points="24.1,37.04 12.34,39.32 15.94,47.6 		"/>
		<polygon class="st1" points="32.5,62.24 31.66,61.88 15.7,48.92 10.06,52.28 29.98,63.08 32.62,62.84 		"/>
		<polygon class="st2" points="32.5,62.24 31.66,61.88 15.7,48.92 10.06,52.28 29.98,63.08 32.62,62.84 		"/>
		<polygon class="st1" points="11.98,40.52 9.7,51.44 15.22,48.2 		"/>
		<polygon class="st2" points="11.98,40.52 9.7,51.44 15.22,48.2 		"/>
		<polygon class="st1" points="38.98,44.12 43.66,35.48 47.38,36.2 50.98,24.56 40.66,27.08 		"/>
		<polygon class="st2" points="38.98,44.12 43.66,35.48 47.38,36.2 50.98,24.56 40.66,27.08 		"/>
		<polygon class="st1" points="50.5,23.84 35.5,13.76 40.54,26.36 		"/>
		<polygon class="st2" points="50.5,23.84 35.5,13.76 40.54,26.36 		"/>
		<polygon class="st1" points="25.54,35.48 34.54,52.28 37.9,46.04 39.82,27.2 18.34,24.44 21.82,36.2 		"/>
		<polygon class="st2" points="25.54,35.48 34.54,52.28 37.9,46.04 39.82,27.2 18.34,24.44 21.82,36.2 		"/>
		<polygon class="st1" points="34.42,13.4 18.94,23.72 39.58,26.24 		"/>
		<polygon class="st2" points="34.42,13.4 18.94,23.72 39.58,26.24 		"/>
		<polygon class="st1" points="33.34,57.2 44.14,37.16 52.78,48.32 37.06,61.16 33.82,62.36 		"/>
		<polygon class="st2" points="33.34,57.2 44.14,37.16 52.78,48.32 37.06,61.16 33.82,62.36 		"/>
		<polygon class="st1" points="35.26,62.72 37.54,61.88 53.38,48.92 59.14,52.28 39.22,63.08 		"/>
		<polygon class="st2" points="35.26,62.72 37.54,61.88 53.38,48.92 59.14,52.28 39.22,63.08 		"/>
		<polygon class="st1" points="53.86,48.2 57.22,40.52 59.38,51.44 		"/>
		<polygon class="st2" points="53.86,48.2 57.22,40.52 59.38,51.44 		"/>
		<polygon class="st1" points="45.1,37.04 56.74,39.32 53.26,47.6 		"/>
		<polygon class="st2" points="45.1,37.04 56.74,39.32 53.26,47.6 		"/>
		<polygon class="st0" points="32.02,61.16 32.5,61.28 32.02,56.96 33.82,53.6 25.06,37.16 16.42,48.32 		"/>
		<polygon class="st0" points="24.1,37.04 12.34,39.32 15.94,47.6 		"/>
		<polygon class="st0" points="32.5,62.24 31.66,61.88 15.7,48.92 10.06,52.28 29.98,63.08 32.62,62.84 		"/>
		<polygon class="st0" points="11.98,40.52 9.7,51.44 15.22,48.2 		"/>
		<polygon class="st0" points="38.98,44.12 43.66,35.48 47.38,36.2 50.98,24.56 40.66,27.08 		"/>
		<polygon class="st0" points="50.5,23.84 35.5,13.76 40.54,26.36 		"/>
		<polygon class="st0" points="25.54,35.48 34.54,52.28 37.9,46.04 39.82,27.2 18.34,24.44 21.82,36.2 		"/>
		<polygon class="st0" points="34.42,13.4 18.94,23.72 39.58,26.24 		"/>
		<polygon class="st0" points="33.34,57.2 44.14,37.16 52.78,48.32 37.06,61.16 33.82,62.36 		"/>
		<polygon class="st0" points="35.26,62.72 37.54,61.88 53.38,48.92 59.14,52.28 39.22,63.08 		"/>
		<polygon class="st0" points="53.86,48.2 57.22,40.52 59.38,51.44 		"/>
		<polygon class="st0" points="45.1,37.04 56.74,39.32 53.26,47.6 		"/>
	</g>
</g>
<g>
</g>
<g>
</g>
<g>
</g>
<g>
</g>
<g>
</g>
<g>
</g>
<g>
</g>
<g>
</g>
<g>
</g>
<g>
</g>
<g>
</g>
</svg>
