<?xml version="1.0" encoding="utf-8"?>
<!-- Generator: Adobe Illustrator 27.7.0, SVG Export Plug-In . SVG Version: 6.00 Build 0)  -->
<svg version="1.1" id="Layer_1" xmlns="http://www.w3.org/2000/svg" xmlns:xlink="http://www.w3.org/1999/xlink" x="0px" y="0px"
	 viewBox="0 0 54.48 54.48" style="enable-background:new 0 0 54.48 54.48;" xml:space="preserve">
<style type="text/css">
	.st0{fill:#0062B8;}
	.st1{fill:#0062B8;stroke:#0062B8;stroke-width:4.8;stroke-linecap:round;stroke-linejoin:round;stroke-miterlimit:10;}
	.st2{fill:#FFFFFF;}
</style>
<g>
	<polygon class="st0" points="24.72,50.16 25.2,50.28 24.72,45.96 26.52,42.6 17.76,26.16 9.12,37.32 	"/>
	<polygon class="st1" points="24.72,50.16 25.2,50.28 24.72,45.96 26.52,42.6 17.76,26.16 9.12,37.32 	"/>
	<polygon class="st0" points="16.8,26.04 5.04,28.32 8.64,36.6 	"/>
	<polygon class="st1" points="16.8,26.04 5.04,28.32 8.64,36.6 	"/>
	<polygon class="st0" points="25.2,51.24 24.36,50.88 8.4,37.92 2.76,41.28 22.68,52.08 25.32,51.84 	"/>
	<polygon class="st1" points="25.2,51.24 24.36,50.88 8.4,37.92 2.76,41.28 22.68,52.08 25.32,51.84 	"/>
	<polygon class="st0" points="4.68,29.52 2.4,40.44 7.92,37.2 	"/>
	<polygon class="st1" points="4.68,29.52 2.4,40.44 7.92,37.2 	"/>
	<polygon class="st0" points="31.68,33.12 36.36,24.48 40.08,25.2 43.68,13.56 33.36,16.08 	"/>
	<polygon class="st1" points="31.68,33.12 36.36,24.48 40.08,25.2 43.68,13.56 33.36,16.08 	"/>
	<polygon class="st0" points="43.2,12.84 28.2,2.76 33.24,15.36 	"/>
	<polygon class="st1" points="43.2,12.84 28.2,2.76 33.24,15.36 	"/>
	<polygon class="st0" points="18.24,24.48 27.24,41.28 30.6,35.04 32.52,16.2 11.04,13.44 14.52,25.2 	"/>
	<polygon class="st1" points="18.24,24.48 27.24,41.28 30.6,35.04 32.52,16.2 11.04,13.44 14.52,25.2 	"/>
	<polygon class="st0" points="27.12,2.4 11.64,12.72 32.28,15.24 	"/>
	<polygon class="st1" points="27.12,2.4 11.64,12.72 32.28,15.24 	"/>
	<polygon class="st0" points="26.04,46.2 36.84,26.16 45.48,37.32 29.76,50.16 26.52,51.36 	"/>
	<polygon class="st1" points="26.04,46.2 36.84,26.16 45.48,37.32 29.76,50.16 26.52,51.36 	"/>
	<polygon class="st0" points="27.96,51.72 30.24,50.88 46.08,37.92 51.84,41.28 31.92,52.08 	"/>
	<polygon class="st1" points="27.96,51.72 30.24,50.88 46.08,37.92 51.84,41.28 31.92,52.08 	"/>
	<polygon class="st0" points="46.56,37.2 49.92,29.52 52.08,40.44 	"/>
	<polygon class="st1" points="46.56,37.2 49.92,29.52 52.08,40.44 	"/>
	<polygon class="st0" points="37.8,26.04 49.44,28.32 45.96,36.6 	"/>
	<polygon class="st1" points="37.8,26.04 49.44,28.32 45.96,36.6 	"/>
	<polygon class="st2" points="24.72,50.16 25.2,50.28 24.72,45.96 26.52,42.6 17.76,26.16 9.12,37.32 	"/>
	<polygon class="st2" points="16.8,26.04 5.04,28.32 8.64,36.6 	"/>
	<polygon class="st2" points="25.2,51.24 24.36,50.88 8.4,37.92 2.76,41.28 22.68,52.08 25.32,51.84 	"/>
	<polygon class="st2" points="4.68,29.52 2.4,40.44 7.92,37.2 	"/>
	<polygon class="st2" points="31.68,33.12 36.36,24.48 40.08,25.2 43.68,13.56 33.36,16.08 	"/>
	<polygon class="st2" points="43.2,12.84 28.2,2.76 33.24,15.36 	"/>
	<polygon class="st2" points="18.24,24.48 27.24,41.28 30.6,35.04 32.52,16.2 11.04,13.44 14.52,25.2 	"/>
	<polygon class="st2" points="27.12,2.4 11.64,12.72 32.28,15.24 	"/>
	<polygon class="st2" points="26.04,46.2 36.84,26.16 45.48,37.32 29.76,50.16 26.52,51.36 	"/>
	<polygon class="st2" points="27.96,51.72 30.24,50.88 46.08,37.92 51.84,41.28 31.92,52.08 	"/>
	<polygon class="st2" points="46.56,37.2 49.92,29.52 52.08,40.44 	"/>
	<polygon class="st2" points="37.8,26.04 49.44,28.32 45.96,36.6 	"/>
</g>
<g>
</g>
<g>
</g>
<g>
</g>
<g>
</g>
<g>
</g>
<g>
</g>
<g>
</g>
<g>
</g>
<g>
</g>
<g>
</g>
<g>
</g>
</svg>
