<?xml version="1.0" encoding="utf-8"?>
<!-- Generator: Adobe Illustrator 26.2.1, SVG Export Plug-In . SVG Version: 6.00 Build 0)  -->
<svg version="1.1" id="Glossary-Initial" xmlns="http://www.w3.org/2000/svg" xmlns:xlink="http://www.w3.org/1999/xlink" x="0px"
	 y="0px" viewBox="0 0 18.8 25" style="enable-background:new 0 0 18.8 25;" xml:space="preserve">
<style type="text/css">
	.st0{fill:#0062B8;}
</style>
<path id="Glossary" class="st0" d="M16.4,25H2.3C1.1,25,0,24,0,22.7V5.5c0-1.3,1.1-2.3,2.3-2.3h3.9C6.3,1.4,7.6,0,9.4,0
	s3.1,1.4,3.1,3.1c0,0,0,0,0,0h3.9c1.3,0,2.3,1.1,2.3,2.3v17.2C18.7,24,17.7,25,16.4,25z M6.3,20.8c-0.3,0-0.5,0.2-0.5,0.5v0.4
	c0,0.3,0.2,0.5,0.5,0.5h9.2c0.3,0,0.5-0.2,0.5-0.5v-0.4c0-0.3-0.2-0.5-0.5-0.5H6.3z M3.3,20.8c-0.3,0-0.5,0.2-0.5,0.5v0.4
	c0,0.3,0.2,0.5,0.5,0.5h1.2C4.7,22.2,5,22,5,21.7v-0.4c0-0.3-0.2-0.5-0.5-0.5H3.3z M3.3,18c-0.3,0-0.5,0.2-0.5,0.5v0.4
	c0,0.3,0.2,0.5,0.5,0.5h1.2c0.3,0,0.5-0.2,0.5-0.5v-0.4C5,18.2,4.7,18,4.5,18L3.3,18z M6.3,18c-0.3,0-0.5,0.2-0.5,0.5v0.4
	c0,0.3,0.2,0.5,0.5,0.5h9.2c0.3,0,0.5-0.2,0.5-0.5v-0.4c0-0.3-0.2-0.5-0.5-0.5L6.3,18z M6.3,15.2c-0.3,0-0.5,0.2-0.5,0.5v0.4
	c0,0.3,0.2,0.5,0.5,0.5h9.2c0.3,0,0.5-0.2,0.5-0.5v-0.4c0-0.3-0.2-0.5-0.5-0.5H6.3z M3.3,15.2c-0.3,0-0.5,0.2-0.5,0.5v0.4
	c0,0.3,0.2,0.5,0.5,0.5h1.2c0.3,0,0.5-0.2,0.5-0.5v-0.4c0-0.3-0.2-0.5-0.5-0.5H3.3z M12,7.9v0.9h2.5L11.8,12v0.9H16V12h-2.8L16,8.8
	V7.9H12z M4.1,11.8h1.9l0.4,1.1h1.1l-1.9-5H4.5l-1.9,5h1.1L4.1,11.8L4.1,11.8z M8.5,10.6v0.9h2.1v-0.9H8.5z M9.4,2
	C8.7,2,8.2,2.5,8.2,3.1s0.5,1.2,1.2,1.2s1.2-0.5,1.2-1.2c0,0,0,0,0,0C10.5,2.5,10,2,9.4,2L9.4,2z M5.6,11H4.3L5,9.1h0L5.6,11L5.6,11
	z"/>
</svg>
