<svg xmlns="http://www.w3.org/2000/svg" width="25.2" height="25.2" viewBox="0 0 25.2 25.2">
  <path id="Icon_ionic-md-help-circle" data-name="Icon ionic-md-help-circle" d="M15.975,3.375a12.6,12.6,0,1,0,12.6,12.6A12.606,12.606,0,0,0,15.975,3.375Zm1.272,20.172H14.7V21h2.544Zm-.012-3.816h-2.52c0-4.059,3.78-3.768,3.78-6.288a2.531,2.531,0,0,0-2.52-2.526,2.557,2.557,0,0,0-2.52,2.514h-2.52a5.04,5.04,0,0,1,10.08.006C21.015,16.587,17.235,16.944,17.235,19.731Z" transform="translate(-3.375 -3.375)" fill="#0062b8"/>
</svg>
