<?xml version="1.0" encoding="utf-8"?>
<!-- Generator: Adobe Illustrator 25.2.1, SVG Export Plug-In . SVG Version: 6.00 Build 0)  -->
<svg version="1.1" id="Layer_1" xmlns="http://www.w3.org/2000/svg" xmlns:xlink="http://www.w3.org/1999/xlink" x="0px" y="0px"
	 viewBox="0 0 100 100" style="enable-background:new 0 0 100 100;" xml:space="preserve">
<style type="text/css">
	.st0{fill:url(#SVGID_1_);}
	.st1{fill:none;stroke:#8E8989;stroke-width:0.5;}
	.st2{fill:url(#SVGID_2_);}
	.st3{fill:none;stroke:#CBCBCB;stroke-width:0.5;}
	.st4{fill:#FFFFFF;}
	.st5{fill:url(#SVGID_3_);}
</style>
<g transform="translate(4.5 4.5)">
	<g transform="matrix(1, 0, 0, 1, -4.5, -4.5)">
		<g transform="translate(4.5 4.5)">
			
				<linearGradient id="SVGID_1_" gradientUnits="userSpaceOnUse" x1="-571.8671" y1="395.9685" x2="-571.8671" y2="392.5438" gradientTransform="matrix(29.2 0 0 -29.2 16744.0195 11557.7803)">
				<stop  offset="0" style="stop-color:#E2E2E2"/>
				<stop  offset="0.477" style="stop-color:#989898"/>
				<stop  offset="1" style="stop-color:#E9E9E9"/>
			</linearGradient>
			<circle class="st0" cx="45.5" cy="45.5" r="50"/>
			<circle class="st1" cx="45.5" cy="45.5" r="49.1"/>
		</g>
	</g>
	<g transform="translate(2 2)">
		
			<radialGradient id="SVGID_2_" cx="-570.4968" cy="390.4079" r="1.7123" gradientTransform="matrix(25.2 0 0 -25.2 14420.0205 9881.7803)" gradientUnits="userSpaceOnUse">
			<stop  offset="0" style="stop-color:#2184DC"/>
			<stop  offset="0.289" style="stop-color:#2184DC"/>
			<stop  offset="1" style="stop-color:#001F3A"/>
		</radialGradient>
		<circle class="st2" cx="43.5" cy="43.5" r="43.2"/>
		<circle class="st3" cx="43.5" cy="43.5" r="42.3"/>
	</g>
	<g transform="translate(12 3.201)">
		<path class="st4" d="M36.9,59.4c0.7,0,0.7,0.3,0.7,1c0,1.1-0.5,2.1-1.4,2.7c-1.2,1.4-3,2.1-4.8,2.1c-2,0.1-3.9-1-4.8-2.7
			c-0.3-0.8-0.4-1.6-0.3-2.4c-0.1-1,0.1-2.1,0.3-3.1c0.4-1.3,0.8-2.5,1.4-3.8c0.4-1.3,1-2.6,1.7-3.8l1.7-3.8
			c0.8-1.8,1.3-3.6,1.7-5.5c0.1-0.6,0-1.2-0.3-1.7c-0.2-0.4-0.4-0.7-0.7-1l-0.7-0.3c-0.3,0-0.3-0.3-0.3-0.7c0.1-0.4,0.2-0.7,0.3-1
			c0,0,0.7-0.7,1-0.7c1-0.7,2.2-1.1,3.4-1c3.1,0,4.5,0.7,4.5,2.4c0,2.1-0.5,4.2-1.4,6.2c-1,2.4-1.7,4.1-2.4,5.5l-1.7,4.1
			c-1.1,2-1.8,4.2-2.1,6.5c0,1,0.3,1.4,1.4,1.4c0.7,0.1,1.4,0,2.1-0.3C36.9,59.1,36.6,59.4,36.9,59.4z M43.1,26.5
			c-0.5,0.6-1.1,1-1.7,1.4c-0.5,0.3-1.1,0.4-1.7,0.3c-0.6,0.1-1.2,0-1.7-0.3c-0.7,0-1-0.3-1.4-1c-0.9-0.8-1.4-1.9-1.4-3.1
			c-0.1-0.8,0-1.6,0.3-2.4c0.5-0.3,1-0.6,1.4-1c0.8-0.6,1.7-1,2.7-1c0.7-0.1,1.4,0.1,2.1,0.3c0.5,0.1,1,0.3,1.4,0.7
			c0.9,0.5,1.4,1.4,1.4,2.4c0.1,0.8,0,1.6-0.3,2.4C43.8,25.5,43.4,26.2,43.1,26.5z"/>
	</g>
	
		<linearGradient id="SVGID_3_" gradientUnits="userSpaceOnUse" x1="-560.4812" y1="382.3724" x2="-560.4812" y2="378.9477" gradientTransform="matrix(19 0 0 -13 10694.2998 4977.2998)">
		<stop  offset="0" style="stop-color:#FFFFFF;stop-opacity:0.502"/>
		<stop  offset="1" style="stop-color:#808080;stop-opacity:0"/>
	</linearGradient>
	<ellipse class="st5" cx="45.2" cy="28.7" rx="32.5" ry="22.3"/>
</g>
</svg>
