<?xml version="1.0" encoding="utf-8"?>
<!-- Generator: Adobe Illustrator 27.8.0, SVG Export Plug-In . SVG Version: 6.00 Build 0)  -->
<svg version="1.1" id="Layer_1" xmlns="http://www.w3.org/2000/svg" xmlns:xlink="http://www.w3.org/1999/xlink" x="0px" y="0px"
	 viewBox="0 0 39.5 48.6" style="enable-background:new 0 0 39.5 48.6;" xml:space="preserve">
<style type="text/css">
	.st0{fill:none;stroke:#0062B8;stroke-width:2;stroke-linecap:round;stroke-linejoin:round;stroke-miterlimit:10;}
	.st1{fill:none;stroke:#0062B8;stroke-width:1.6;stroke-linecap:round;stroke-linejoin:round;stroke-miterlimit:10;}
	.st2{fill:none;stroke:#0062B8;stroke-width:1.2;stroke-linecap:round;stroke-linejoin:round;stroke-miterlimit:10;}
	.st3{fill:#0062B8;}
</style>
<g>
	<polyline class="st0" points="13.3,17.4 8.3,17.4 8.3,13.1 18.3,13.1 18.3,17.4 17,17.4 16,17.4 	"/>
	<line class="st0" x1="17" y1="21" x2="17" y2="17.4"/>
	<path class="st0" d="M20.3,47.6h-16c0,0-5.2-0.8-2.6-6.6l8.1-13.7v-9.9"/>
	<line class="st0" x1="13.9" y1="33.3" x2="6.3" y2="33.3"/>
	<path class="st0" d="M28,20.5c0,0-7.7,4.3-10.3,4.7v10.2c0,0-0.3,4.1,2.6,6.2c0,0,3.6,3.5,7.7,5.2c0,0,3.9-1.3,7.4-4.7
		c3.5-3.4,3-5.4,3.1-7.5c0.1-2,0-9.6,0-9.6S36.5,25.2,28,20.5z"/>
	<path class="st0" d="M26.1,25.6c0,0-3.6,1.7-4.8,1.9v8"/>
	<circle class="st0" cx="14.5" cy="3.1" r="2.1"/>
	<circle class="st1" cx="12.2" cy="9.3" r="0.9"/>
	<circle class="st2" cx="9.8" cy="38.8" r="0.9"/>
	<circle class="st3" cx="12.6" cy="42.8" r="0.8"/>
</g>
<g>
</g>
<g>
</g>
<g>
</g>
<g>
</g>
<g>
</g>
<g>
</g>
</svg>
