<svg id="Next_slide" data-name="Next slide" xmlns="http://www.w3.org/2000/svg" width="54.263" height="71" viewBox="0 0 54.263 71">
  <path id="Intersection_7" data-name="Intersection 7" d="M10780.619,4721a6,6,0,0,1-5.051-2.765l-18.886-29.5a6.006,6.006,0,0,1,0-6.47l18.886-29.5a6,6,0,0,1,5.051-2.765H10795v71Z" transform="translate(-10755.737 -4650)" fill="#646464"/>
  <path id="Intersection_9" data-name="Intersection 9" d="M10774.227,4705a5.994,5.994,0,0,1-5.2-3.019l-12.314-21.5a6,6,0,0,1,0-5.964l12.314-21.5a6,6,0,0,1,5.2-3.016H10796a5,5,0,0,1,5,5v45a5,5,0,0,1-5,5Z" transform="translate(-10746.737 -4642)" fill="#5aa1db"/>
  <path id="Polygon_94" data-name="Polygon 94" d="M9.269,2.99a2,2,0,0,1,3.462,0L20.262,16a2,2,0,0,1-1.731,3H3.469a2,2,0,0,1-1.731-3Z" transform="translate(46.263 24) rotate(90)" fill="#fff"/>
</svg>
