<svg id="Slide_btn-Hover" xmlns="http://www.w3.org/2000/svg" width="54.264" height="71" viewBox="0 0 54.264 71">
  <path id="Intersection_7" data-name="Intersection 7" d="M10780.619,4721a6,6,0,0,1-5.051-2.765l-18.886-29.5a6.006,6.006,0,0,1,0-6.47l18.886-29.5a6,6,0,0,1,5.051-2.765H10795v71Z" transform="translate(-10755.737 -4650)" fill="#646464"/>
  <g id="Intersection_9" data-name="Intersection 9" transform="translate(-10746.737 -4642)" fill="#fff">
    <path d="M 10796 4704 L 10774.2265625 4704 C 10772.4384765625 4704 10770.77734375 4703.03662109375 10769.890625 4701.4853515625 L 10757.576171875 4679.98583984375 C 10756.697265625 4678.45166015625 10756.697265625 4676.54736328125 10757.5751953125 4675.01611328125 L 10769.890625 4653.51416015625 C 10770.77734375 4651.9638671875 10772.4384765625 4651.0009765625 10774.2265625 4651.0009765625 L 10796 4651.0009765625 C 10798.2060546875 4651.0009765625 10800 4652.79443359375 10800 4654.9990234375 L 10800 4699.99951171875 C 10800 4702.20556640625 10798.2060546875 4704 10796 4704 Z" stroke="none"/>
    <path d="M 10796 4703 C 10797.654296875 4703 10799 4701.65380859375 10799 4699.99951171875 L 10799 4654.9990234375 C 10799 4653.345703125 10797.654296875 4652.0009765625 10796 4652.0009765625 L 10774.2265625 4652.0009765625 C 10772.796875 4652.0009765625 10771.4677734375 4652.77099609375 10770.7578125 4654.01123046875 L 10758.443359375 4675.513671875 C 10757.740234375 4676.73828125 10757.7412109375 4678.26171875 10758.443359375 4679.48876953125 L 10770.7587890625 4700.9892578125 C 10771.4677734375 4702.2294921875 10772.796875 4703 10774.2265625 4703 L 10796 4703 M 10796 4705 L 10774.2265625 4705 C 10772.0771484375 4705 10770.08984375 4703.84912109375 10769.0224609375 4701.9814453125 L 10756.7080078125 4680.48291015625 C 10755.6494140625 4678.6337890625 10755.6494140625 4676.3642578125 10756.7080078125 4674.5185546875 L 10769.0224609375 4653.01708984375 C 10770.08984375 4651.15185546875 10772.0771484375 4650.0009765625 10774.2265625 4650.0009765625 L 10796 4650.0009765625 C 10798.7607421875 4650.0009765625 10801 4652.23779296875 10801 4654.9990234375 L 10801 4699.99951171875 C 10801 4702.76025390625 10798.7607421875 4705 10796 4705 Z" stroke="none" fill="#5aa1db"/>
  </g>
  <path id="Polygon_94" data-name="Polygon 94" d="M9.269,2.99a2,2,0,0,1,3.462,0L20.262,16a2,2,0,0,1-1.731,3H3.469a2,2,0,0,1-1.731-3Z" transform="translate(46.263 24) rotate(90)" fill="#5aa1db"/>
</svg>
