<?xml version="1.0" encoding="utf-8"?>
<!-- Generator: Adobe Illustrator 27.5.0, SVG Export Plug-In . SVG Version: 6.00 Build 0)  -->
<svg version="1.1" id="Layer_1" xmlns="http://www.w3.org/2000/svg" xmlns:xlink="http://www.w3.org/1999/xlink" x="0px" y="0px"
	 viewBox="0 0 31.8 48.6" style="enable-background:new 0 0 31.8 48.6;" xml:space="preserve">
<style type="text/css">
	.st0{fill:#0062B8;}
</style>
<g>
	<path class="st0" d="M20,12.2c-0.4-0.1-0.7-0.2-0.9-0.5c-1-0.9-2.4-1-3.5-0.4c-1.1,0.6-1.7,1.8-1.5,3.1c0.2,1.2,1.1,2.2,2.5,2.5
		c1.1,0.2,2-0.1,2.9-1c0.1-0.2,0.1-0.2,0.3-0.1c0.2,0.1,0.5,0.2,0.7,0.3c-0.8,1.5-2.8,2.4-4.7,1.7c-1.8-0.6-3-2.6-2.7-4.5
		c0.3-1.9,2-3.4,4-3.4c1.7,0,3.6,1.3,3.8,2.7C20.5,12.4,20.2,12.3,20,12.2z M28.3,19.5c-1.4-2.7-3.4-4.7-6-6.2c0,0-0.1-0.1-0.1-0.2
		C21.5,10,18.6,8.1,15.6,9c-0.1,0-0.1,0.1-0.2,0.1c0-0.8,0-1.5,0-2.2c0-0.6-0.3-0.9-0.9-1.1c-0.1,0-0.1-0.1-0.1-0.2
		c0-0.4,0-0.8,0-1.1V3.7c0.2,0,0.3,0,0.5,0c0.1,0,0.2,0,0.4,0C15.7,3.7,16,3.4,16,3c0-0.2,0-0.3,0-0.4c0-0.5-0.3-0.8-0.8-0.8
		c-0.3,0-0.6,0-0.9,0c-1.5,0-3.2,0-4.7,0c-0.4,0-0.7,0.3-0.7,0.7c0,0.2,0,0.3,0,0.4c0,0.5,0.2,0.8,0.8,0.8c0.2,0,0.5,0,0.7,0
		c0,0.1,0,0.1,0,0.2c0,0.5,0,1,0,1.6c0,0,0,0.1-0.1,0.1C9.7,6,9.5,6.2,9.5,7c0,5.2,0,10.4,0,15.8c0,0.1,0,0.1,0,0.2
		c0,0.5,0.3,0.9,0.8,1c0.1,0,0.1,0,0.2,0.1v0.2c0,2.4,0,4.6,0,7c0,0.2,0.1,0.3,0.2,0.3c0.3,0.2,0.6,0.3,0.9,0.4
		c0.8,0.1,1.6,0.1,2.4-0.3c0.2-0.1,0.3-0.2,0.3-0.5c0-2.3,0-4.5,0-6.9v-0.2c0.7-0.2,1.1-0.6,1.1-1.3c-0.1-1.2,0-2.5,0-3.7v-0.3
		c1.1,0.4,2.3,0.4,3.4,0c1.1-0.4,1.9-1.1,2.7-2.1c0.8,0.6,1.6,1.2,2.3,1.9c2.1,2.7,3.2,5.6,3,9c-0.1,2.1-0.8,4.2-2,6.1
		c-0.1,0.1-0.2,0.1-0.3,0.2c-0.9,0.4-1.9,0.7-2.9,1.1c-0.3,0.1-0.5,0.2-0.9,0.2c-4.7,0-9.4,0-14.2,0c-0.1,0-0.1,0-0.2,0v1.5h14.7
		c0-0.1,0-0.3,0-0.4c-0.1-0.2,0-0.3,0.1-0.3c0.7-0.3,1.4-0.6,2.1-0.9c0.2,0,0.3-0.1,0.4-0.1v0.1c-0.3,0.2-0.5,0.4-0.7,0.6
		c-2,1.9-4.5,2.9-7.4,2.9c-0.9,0-1.7,0-2.7,0h-0.3v3.9H1.8v4.3h23.1v-4.4h-5.8c0-0.2,0-0.4,0-0.7c0-0.1,0-0.2,0.2-0.2
		c3-0.9,5.4-2.6,7.4-4.9c1.9-2.6,3.1-5.5,3.3-8.7C30.1,24.9,29.6,22.2,28.3,19.5z"/>
</g>
<g>
</g>
<g>
</g>
<g>
</g>
<g>
</g>
<g>
</g>
<g>
</g>
<g>
</g>
<g>
</g>
<g>
</g>
<g>
</g>
<g>
</g>
</svg>
