<?xml version="1.0" encoding="utf-8"?>
<!-- Generator: Adobe Illustrator 27.5.0, SVG Export Plug-In . SVG Version: 6.00 Build 0)  -->
<svg version="1.1" id="Layer_1" xmlns="http://www.w3.org/2000/svg" xmlns:xlink="http://www.w3.org/1999/xlink" x="0px" y="0px"
	 viewBox="0 0 69.1 76.5" style="enable-background:new 0 0 69.1 76.5;" xml:space="preserve">
<style type="text/css">
	.st0{fill:#FFFFFF;}
	.st1{fill:#123557;}
	.st2{fill:none;stroke:#123557;stroke-width:3.6;stroke-linecap:round;stroke-linejoin:round;stroke-miterlimit:10;}
</style>
<g>
	<g id="Group_503" transform="translate(63.26 82.362)">
		<path id="Path_1509" class="st0" d="M-58.4-66.8c-2.8,1.9-4.6,5-4.8,8.4v28.7c0.2,3.4,2,6.5,4.8,8.4L-33.5-7c3,1.5,6.6,1.5,9.7,0
			L1-21.4c2.8-1.9,4.6-5,4.8-8.4v-28.7c-0.2-3.4-2-6.5-4.8-8.4l-24.9-14.4c-3-1.5-6.6-1.5-9.7,0L-58.4-66.8z"/>
	</g>
	<g>
		<path class="st1" d="M38.7,26.2c-0.4-0.1-0.7-0.2-0.9-0.5c-1-0.9-2.4-1-3.5-0.4c-1.1,0.6-1.7,1.8-1.5,3.1c0.2,1.2,1.1,2.2,2.5,2.5
			c1.1,0.2,2-0.1,2.9-1c0.1-0.2,0.1-0.2,0.3-0.1c0.2,0.1,0.5,0.2,0.7,0.3c-0.8,1.5-2.8,2.4-4.7,1.7c-1.8-0.6-3-2.6-2.7-4.5
			c0.3-1.9,2-3.4,4-3.4c1.7,0,3.6,1.3,3.8,2.7C39.2,26.4,38.9,26.3,38.7,26.2z M46.9,33.4c-1.4-2.7-3.4-4.7-6-6.2
			c0,0-0.1-0.1-0.1-0.2c-0.6-3.1-3.6-4.9-6.5-4.1c-0.1,0-0.1,0.1-0.2,0.1c0-0.8,0-1.5,0-2.2c0-0.6-0.3-0.9-0.9-1.1
			c-0.1,0-0.1-0.1-0.1-0.2c0-0.4,0-0.8,0-1.1v-0.6c0.2,0,0.3,0,0.5,0c0.1,0,0.2,0,0.4,0c0.4,0,0.7-0.3,0.7-0.7c0-0.2,0-0.3,0-0.4
			c0-0.5-0.3-0.8-0.8-0.8c-0.3,0-0.6,0-0.9,0c-1.5,0-3.2,0-4.7,0c-0.4,0-0.7,0.3-0.7,0.7c0,0.2,0,0.3,0,0.4c0,0.5,0.2,0.8,0.8,0.8
			c0.2,0,0.5,0,0.7,0c0,0.1,0,0.1,0,0.2c0,0.5,0,1,0,1.6c0,0,0,0.1-0.1,0.1c-0.6,0.3-0.8,0.5-0.8,1.3c0,5.2,0,10.4,0,15.8
			c0,0.1,0,0.1,0,0.2c0,0.5,0.3,0.9,0.8,1c0.1,0,0.1,0,0.2,0.1v0.2c0,2.4,0,4.6,0,7c0,0.2,0.1,0.3,0.2,0.3c0.3,0.2,0.6,0.3,0.9,0.4
			c0.8,0.1,1.6,0.1,2.4-0.3c0.2-0.1,0.3-0.2,0.3-0.5c0-2.3,0-4.5,0-6.9V38c0.7-0.2,1.1-0.6,1.1-1.3c-0.1-1.2,0-2.5,0-3.7v-0.3
			c1.1,0.4,2.3,0.4,3.4,0c1.1-0.4,1.9-1.1,2.7-2.1c0.8,0.6,1.6,1.2,2.3,1.9c2.1,2.7,3.2,5.6,3,9c-0.1,2.1-0.8,4.2-2,6.1
			c-0.1,0.1-0.2,0.1-0.3,0.2C42,48.3,41,48.6,40.1,49c-0.3,0.1-0.5,0.2-0.9,0.2c-4.7,0-9.4,0-14.2,0c-0.1,0-0.1,0-0.2,0v1.5h14.7
			c0-0.1,0-0.3,0-0.4c-0.1-0.2,0-0.3,0.1-0.3c0.7-0.3,1.4-0.6,2.1-0.9c0.2,0,0.3-0.1,0.4-0.1v0.1c-0.3,0.2-0.5,0.4-0.7,0.6
			c-2,1.9-4.5,2.9-7.4,2.9c-0.9,0-1.7,0-2.7,0h-0.3v3.9H20.5v4.3h23.1v-4.4h-5.8c0-0.2,0-0.4,0-0.7c0-0.1,0-0.2,0.2-0.2
			c3-0.9,5.4-2.6,7.4-4.9c1.9-2.6,3.1-5.5,3.3-8.7C48.8,38.9,48.3,36.1,46.9,33.4z"/>
		<path class="st2" d="M46.9,33.4c-1.4-2.7-3.4-4.7-6-6.2c0,0-0.1-0.1-0.1-0.2c-0.6-3.1-3.6-4.9-6.5-4.1c-0.1,0-0.1,0.1-0.2,0.1
			c0-0.8,0-1.5,0-2.2c0-0.6-0.3-0.9-0.9-1.1c-0.1,0-0.1-0.1-0.1-0.2c0-0.4,0-0.8,0-1.1v-0.6c0.2,0,0.3,0,0.5,0c0.1,0,0.2,0,0.4,0
			c0.4,0,0.7-0.3,0.7-0.7c0-0.2,0-0.3,0-0.4c0-0.5-0.3-0.8-0.8-0.8c-0.3,0-0.6,0-0.9,0c-1.5,0-3.2,0-4.7,0c-0.4,0-0.7,0.3-0.7,0.7
			c0,0.2,0,0.3,0,0.4c0,0.5,0.2,0.8,0.8,0.8c0.2,0,0.5,0,0.7,0c0,0.1,0,0.1,0,0.2c0,0.5,0,1,0,1.6c0,0,0,0.1-0.1,0.1
			c-0.6,0.3-0.8,0.5-0.8,1.3c0,5.2,0,10.4,0,15.8c0,0.1,0,0.1,0,0.2c0,0.5,0.3,0.9,0.8,1c0.1,0,0.1,0,0.2,0.1v0.2c0,2.4,0,4.6,0,7
			c0,0.2,0.1,0.3,0.2,0.3c0.3,0.2,0.6,0.3,0.9,0.4c0.8,0.1,1.6,0.1,2.4-0.3c0.2-0.1,0.3-0.2,0.3-0.5c0-2.3,0-4.5,0-6.9V38
			c0.7-0.2,1.1-0.6,1.1-1.3c-0.1-1.2,0-2.5,0-3.7v-0.3c1.1,0.4,2.3,0.4,3.4,0c1.1-0.4,1.9-1.1,2.7-2.1c0.8,0.6,1.6,1.2,2.3,1.9
			c2.1,2.7,3.2,5.6,3,9c-0.1,2.1-0.8,4.2-2,6.1c-0.1,0.1-0.2,0.1-0.3,0.2C42,48.3,41,48.6,40.1,49c-0.3,0.1-0.5,0.2-0.9,0.2
			c-4.7,0-9.4,0-14.2,0c-0.1,0-0.1,0-0.2,0v1.5h14.7c0-0.1,0-0.3,0-0.4c-0.1-0.2,0-0.3,0.1-0.3c0.7-0.3,1.4-0.6,2.1-0.9
			c0.2,0,0.3-0.1,0.4-0.1v0.1c-0.3,0.2-0.5,0.4-0.7,0.6c-2,1.9-4.5,2.9-7.4,2.9c-0.9,0-1.7,0-2.7,0h-0.3v3.9H20.5v4.3h23.1v-4.4
			h-5.8c0-0.2,0-0.4,0-0.7c0-0.1,0-0.2,0.2-0.2c3-0.9,5.4-2.6,7.4-4.9c1.9-2.6,3.1-5.5,3.3-8.7C48.8,38.9,48.3,36.1,46.9,33.4z"/>
		<path class="st2" d="M38.7,26.2c-0.4-0.1-0.7-0.2-0.9-0.5c-1-0.9-2.4-1-3.5-0.4s-1.7,1.8-1.5,3.1c0.2,1.2,1.1,2.2,2.5,2.5
			c1.1,0.2,2-0.1,2.9-1c0.1-0.2,0.1-0.2,0.3-0.1s0.5,0.2,0.7,0.3c-0.8,1.5-2.8,2.4-4.7,1.7c-1.8-0.6-3-2.6-2.7-4.5s2-3.4,4-3.4
			c1.7,0,3.6,1.3,3.8,2.7C39.2,26.4,38.9,26.3,38.7,26.2z"/>
		<path class="st0" d="M38.7,26.2c-0.4-0.1-0.7-0.2-0.9-0.5c-1-0.9-2.4-1-3.5-0.4c-1.1,0.6-1.7,1.8-1.5,3.1c0.2,1.2,1.1,2.2,2.5,2.5
			c1.1,0.2,2-0.1,2.9-1c0.1-0.2,0.1-0.2,0.3-0.1c0.2,0.1,0.5,0.2,0.7,0.3c-0.8,1.5-2.8,2.4-4.7,1.7c-1.8-0.6-3-2.6-2.7-4.5
			c0.3-1.9,2-3.4,4-3.4c1.7,0,3.6,1.3,3.8,2.7C39.2,26.4,38.9,26.3,38.7,26.2z M46.9,33.4c-1.4-2.7-3.4-4.7-6-6.2
			c0,0-0.1-0.1-0.1-0.2c-0.6-3.1-3.6-4.9-6.5-4.1c-0.1,0-0.1,0.1-0.2,0.1c0-0.8,0-1.5,0-2.2c0-0.6-0.3-0.9-0.9-1.1
			c-0.1,0-0.1-0.1-0.1-0.2c0-0.4,0-0.8,0-1.1v-0.6c0.2,0,0.3,0,0.5,0c0.1,0,0.2,0,0.4,0c0.4,0,0.7-0.3,0.7-0.7c0-0.2,0-0.3,0-0.4
			c0-0.5-0.3-0.8-0.8-0.8c-0.3,0-0.6,0-0.9,0c-1.5,0-3.2,0-4.7,0c-0.4,0-0.7,0.3-0.7,0.7c0,0.2,0,0.3,0,0.4c0,0.5,0.2,0.8,0.8,0.8
			c0.2,0,0.5,0,0.7,0c0,0.1,0,0.1,0,0.2c0,0.5,0,1,0,1.6c0,0,0,0.1-0.1,0.1c-0.6,0.3-0.8,0.5-0.8,1.3c0,5.2,0,10.4,0,15.8
			c0,0.1,0,0.1,0,0.2c0,0.5,0.3,0.9,0.8,1c0.1,0,0.1,0,0.2,0.1v0.2c0,2.4,0,4.6,0,7c0,0.2,0.1,0.3,0.2,0.3c0.3,0.2,0.6,0.3,0.9,0.4
			c0.8,0.1,1.6,0.1,2.4-0.3c0.2-0.1,0.3-0.2,0.3-0.5c0-2.3,0-4.5,0-6.9V38c0.7-0.2,1.1-0.6,1.1-1.3c-0.1-1.2,0-2.5,0-3.7v-0.3
			c1.1,0.4,2.3,0.4,3.4,0c1.1-0.4,1.9-1.1,2.7-2.1c0.8,0.6,1.6,1.2,2.3,1.9c2.1,2.7,3.2,5.6,3,9c-0.1,2.1-0.8,4.2-2,6.1
			c-0.1,0.1-0.2,0.1-0.3,0.2C42,48.3,41,48.6,40.1,49c-0.3,0.1-0.5,0.2-0.9,0.2c-4.7,0-9.4,0-14.2,0c-0.1,0-0.1,0-0.2,0v1.5h14.7
			c0-0.1,0-0.3,0-0.4c-0.1-0.2,0-0.3,0.1-0.3c0.7-0.3,1.4-0.6,2.1-0.9c0.2,0,0.3-0.1,0.4-0.1v0.1c-0.3,0.2-0.5,0.4-0.7,0.6
			c-2,1.9-4.5,2.9-7.4,2.9c-0.9,0-1.7,0-2.7,0h-0.3v3.9H20.5v4.3h23.1v-4.4h-5.8c0-0.2,0-0.4,0-0.7c0-0.1,0-0.2,0.2-0.2
			c3-0.9,5.4-2.6,7.4-4.9c1.9-2.6,3.1-5.5,3.3-8.7C48.8,38.9,48.3,36.1,46.9,33.4z"/>
	</g>
</g>
<g>
</g>
<g>
</g>
<g>
</g>
<g>
</g>
<g>
</g>
<g>
</g>
<g>
</g>
<g>
</g>
<g>
</g>
<g>
</g>
<g>
</g>
</svg>
