<?xml version="1.0" encoding="utf-8"?>
<!-- Generator: Adobe Illustrator 26.5.0, SVG Export Plug-In . SVG Version: 6.00 Build 0)  -->
<svg version="1.1" id="Image_icon" xmlns="http://www.w3.org/2000/svg" xmlns:xlink="http://www.w3.org/1999/xlink" x="0px" y="0px"
	width="40" height="33"  viewBox="0 0 33 40" style="enable-background:new 0 0 33 40;" xml:space="preserve">
<style type="text/css">
	.st0{fill:#C6E2FF;}
	.st1{fill:#0062B8;}
</style>
<circle id="Ellipse_39" class="st0" cx="-50" cy="14" r="3.5"/>
<g>
	<rect class="st1" width="33" height="40"/>
	<rect x="1.6" y="1.7" class="st0" width="29.8" height="36.7"/>
	<g>
		<path id="Rectangle_1525_00000089576063982297799460000008006272215166810752_" class="st1" d="M6.1,5.3h7.2
			c0.2,0,0.4,0.2,0.4,0.4v5.8c0,0.2-0.2,0.4-0.4,0.4H6.1c-0.2,0-0.4-0.2-0.4-0.4V5.7C5.7,5.5,5.9,5.3,6.1,5.3z"/>
		<circle id="Ellipse_39_00000144330177751430512460000000607576162466788796_" class="st0" cx="8.4" cy="7.4" r="0.7"/>
		<path id="Path_1512_00000034082272064616139700000010147761268179973517_" class="st0" d="M8.5,9.7c0.8,0,1.6-2.4,3-2.4
			s1.8,1,1.8,1.8v2.2c0,0.2-0.2,0.3-0.3,0.3H6.4c-0.2,0-0.3-0.1-0.3-0.3V9.7c0-0.4,0.3-1,0.8-1C7.7,8.7,7.7,9.7,8.5,9.7z"/>
	</g>
	<rect x="5.7" y="29.7" class="st1" width="23.2" height="5"/>
	<rect x="17.3" y="13" class="st1" width="11.6" height="1"/>
	<rect x="17.3" y="16.8" class="st1" width="11.6" height="1"/>
	<rect x="17.3" y="20.6" class="st1" width="11.6" height="1"/>
	<rect x="17.3" y="24.4" class="st1" width="11.6" height="1"/>
	<rect x="17.3" y="5.4" class="st1" width="11.6" height="1"/>
	<rect x="17.3" y="9.2" class="st1" width="11.6" height="1"/>
</g>
</svg>
