<?xml version="1.0" encoding="utf-8"?>
<!-- Generator: Adobe Illustrator 26.5.0, SVG Export Plug-In . SVG Version: 6.00 Build 0)  -->
<svg version="1.1" id="Image_icon" xmlns="http://www.w3.org/2000/svg" xmlns:xlink="http://www.w3.org/1999/xlink" x="0px" y="0px" width="40px" height="33px"
	 viewBox="0 0 32 40" style="enable-background:new 0 0 32 40;" xml:space="preserve">
<style type="text/css">
	.st0{fill:#0062B8;stroke:#0062B8;stroke-width:2;stroke-linecap:round;stroke-linejoin:round;stroke-miterlimit:10;}
	.st1{fill:#FFFFFF;}
	.st2{fill:#C6E2FF;}
	.st3{fill:none;stroke:#0062B8;stroke-width:2;stroke-linecap:round;stroke-linejoin:round;stroke-miterlimit:10;}
	.st4{fill:none;stroke:#0062B8;stroke-linecap:round;stroke-linejoin:round;stroke-miterlimit:10;}
</style>
<g>
	<g>
		<rect x="2.5" y="30.3" class="st0" width="27.2" height="8"/>
		<g>
			<path class="st1" d="M8.7,31.4c0.4-0.1,0.9-0.1,1.6-0.1c0.8,0,1.4,0.2,1.8,0.5c0.3,0.3,0.6,0.8,0.6,1.3c0,0.6-0.2,1-0.5,1.3
				c-0.4,0.5-1.1,0.7-1.9,0.7c-0.2,0-0.5,0-0.7-0.1v2.5H8.7V31.4z M9.5,34.4c0.2,0,0.4,0.1,0.7,0.1c1,0,1.6-0.5,1.6-1.3
				c0-0.8-0.6-1.2-1.5-1.2c-0.4,0-0.6,0-0.8,0.1V34.4z"/>
			<path class="st1" d="M13.8,31.4c0.5-0.1,1.1-0.1,1.7-0.1c1.2,0,2,0.3,2.5,0.8c0.6,0.5,0.9,1.2,0.9,2.3c0,1-0.3,1.9-0.9,2.4
				c-0.6,0.6-1.6,0.9-2.8,0.9c-0.6,0-1.1,0-1.5-0.1V31.4z M14.6,37c0.2,0,0.5,0,0.8,0c1.7,0,2.7-1,2.7-2.7c0-1.5-0.8-2.4-2.5-2.4
				c-0.4,0-0.7,0-1,0.1V37z"/>
			<path class="st1" d="M20.2,31.3h3.4V32H21v2.1h2.4v0.7H21v2.8h-0.8V31.3z"/>
		</g>
	</g>
	<polygon class="st2" points="30.1,7.7 22.5,2 2,2 2,29.3 30.1,29.3 	"/>
	<path class="st2" d="M2,38.1"/>
	<path class="st2" d="M29.8,38.1"/>
	<g>
		<g>
			<path class="st3" d="M3.7,38.8c0,0-2.7,0-2.7-2.8C1,33.2,1,4,1,4S1,1.1,4,1.1s18.7,0,18.7,0L31,9.3v26.6c0,0,0.1,2.9-2.9,2.9
				S3.7,38.8,3.7,38.8z"/>
			<polygon class="st0" points="22.8,1.1 22.8,9.5 31,9.5 			"/>
		</g>
		<line class="st4" x1="6.2" y1="13.4" x2="26.1" y2="13.4"/>
		<line class="st4" x1="6.2" y1="18.7" x2="26.1" y2="18.7"/>
		<line class="st4" x1="6.2" y1="24.1" x2="26.1" y2="24.1"/>
	</g>
</g>
</svg>
