<?xml version="1.0" encoding="utf-8"?>
<!-- Generator: Adobe Illustrator 27.7.0, SVG Export Plug-In . SVG Version: 6.00 Build 0)  -->
<svg version="1.1" id="Layer_1" xmlns="http://www.w3.org/2000/svg" xmlns:xlink="http://www.w3.org/1999/xlink" x="0px" y="0px"
	 viewBox="0 0 45.6 42.4" style="enable-background:new 0 0 45.6 42.4;" xml:space="preserve">
<style type="text/css">
	.st0{display:none;fill:#0062B8;}
	.st1{fill:#0062B8;}
</style>
<g>
	<path class="st0" d="M37.6,19.4c-0.6-2.6-1.3-5.4-2-8.2l-0.1-0.5c-0.4-1.6-1.1-4.3-1.7-6.5H34c0.8,0,1.6,0.2,2.3,0.7
		c1.8,1.1,2.6,2.5,2.6,4.6v10.3C38.5,19.7,38,19.6,37.6,19.4z M17.6,13.2c0,2.4,0,4.9,0,7.3c-0.5,0.2-0.8,0.5-1.2,0.8
		c-0.2-0.4-0.7-0.6-1.1-0.8c0-4.7,0-11.2,0-16.2c0.7,0,1.6,0,2.3,0V13.2z M23.9,20.5c-0.4,0.2-0.8,0.5-1.1,0.8
		c-0.4-0.4-0.7-0.6-1.2-0.8c0-4.8,0-11.2,0-16.2h2.3v1C23.9,10.1,23.9,16.2,23.9,20.5z M11.4,20.5c-1.1,0.5-1.8,1.3-2.2,2.4
		C8.9,24,9,25.3,9.5,26.4c0.6,1,1.4,1.8,2.6,2.2c1.1,0.2,2.3,0.1,3.2-0.4c0.5-0.2,0.8-0.6,1.1-0.8c0.7,0.7,1.6,1.2,2.5,1.3
		c1.6,0.1,2.9-0.4,3.8-1.3c0.8,0.8,1.9,1.3,3.2,1.3c2,0,3.8-1.6,4.1-3.6c0.4-1.8-0.6-3.7-2.3-4.6c0-4,0-9.2,0-13.8V4.3h1.8l4.1,16.1
		c-1.2,1.1-1.7,2.8-1.2,4.4c0.4,1.7,1.8,2.9,3.5,3.1c1.1,0.1,2,0,2.9-0.5v6.7c-10.8,0-21.5,0-32.2-0.1v-5.6c0-6.5,0-13.4,0-19.2
		c0-2.5,2-4.7,4.7-4.9v1.8C11.4,10.8,11.4,16.4,11.4,20.5z M46.6,37.3c-0.1-0.1-0.2-0.2-0.2-0.4c-0.2-0.2-0.5-0.6-0.7-0.8
		s-0.4-0.5-0.6-0.7c-0.2-0.1-0.4-0.2-0.5-0.5c0,0-0.1,0-0.1-0.1v-3.4c0-7,0-15.1,0-21.4c0-0.7,0-1.6-0.1-2.3
		c-0.7-4.9-5.2-8.9-10.1-9c-5.3,0-10.7,0-16,0c-2.2,0-4.3,0-6.6,0C9.7-1.2,8-0.7,6.5,0.2C2.9,2.4,1.1,5.5,1.1,9.6v25.2
		C1,35,0.7,35.2,0.6,35.4c-0.2,0.2-0.4,0.4-0.5,0.5c-0.5,0.5-1,1-1.3,1.7V38v3.8l0.1,0.5c0.2,0.6,0.8,1.2,2,1.2c14.5,0,29,0,43.6,0
		c1.2,0,1.8-0.6,2-1.2l0.2-0.5V38L46.6,37.3z"/>
	<path class="st1" d="M5.5,35.3c0-7.8,0-18.2,0-26c0-3.2,2.8-6.1,6.1-6.1c0.2,0,0.6,0,1,0c0,5.2-0.1,12.5,0,17.4
		c0,0.6-0.1,0.8-0.7,1.1c-1.6,0.7-2.2,2.6-1.3,4.2c0.8,1.6,2.8,2.2,4.3,1.3c0.8-0.5,1.4-1.3,1.6-2.4c0.4,1.6,1.3,2.5,2.6,2.8
		c2,0.1,3.1-0.8,3.7-2.6V25c0.4,1.6,1.7,2.5,3.2,2.5c1.4,0,2.8-1.2,3-2.5c0.2-1.6-0.6-3.1-2-3.6c-0.2-0.1-0.4-0.2-0.4-0.5
		c0-5,0-12.5,0-17.8c1.3,0,2.6,0,4,0c1.3,5.4,3.2,12.6,4.6,17.8c-0.1,0.1-0.2,0.2-0.4,0.2c-1.1,0.8-1.4,2.2-1.2,3.4
		c0.4,1.2,1.4,2.2,2.5,2.3c1.3,0.2,2.6-0.4,3.2-1.6c1.2-1.9-0.1-4.3-2.4-4.7c-0.1,0-0.4,0-0.4-0.2c-0.8-3.1-1.6-6.1-2.4-9.2
		c-0.5-1.9-1.4-5.8-1.9-7.9c0.5,0,1.1,0,1.7,0c1.1,0,2,0.4,2.9,0.8c2.2,1.3,3.2,3.2,3.2,5.6c0,7.7,0,18,0,25.8
		C28.6,35.4,17,35.4,5.5,35.3z M18.8,20.9c0,0.1-0.1,0.5-0.2,0.5c-1.2,0.5-1.8,1.3-2.2,2.6c-0.2-1.3-1-2.2-2.2-2.6
		c-0.1,0-0.1-0.2-0.1-0.5c0-5,0-12.5,0-17.8c1.6,0,3.1,0,4.7,0v8.5C18.8,14.8,18.8,17.8,18.8,20.9z M25.1,3.1c0,5.2,0,12.6,0,17.6
		c0,0.4,0,0.6-0.4,0.7c-1,0.4-1.6,1.1-1.9,2c0,0.2-0.1,0.3-0.1,0.5c-0.4-1.3-1.1-2.2-2.2-2.6c-0.1,0-0.2-0.2-0.2-0.5
		c0-5,0-12.5,0-17.8C22,3.1,23.5,3.1,25.1,3.1z M44.6,36.8c-0.2-0.4-0.7-0.7-1.1-1.1c-0.1-0.1-0.2-0.2-0.4-0.4c0-7.6,0-17.9,0-25.3
		c0-0.7,0-1.4-0.1-2.2c-0.6-4.2-4.6-7.8-8.9-7.9c-7.4,0-15,0-22.6,0c-1.6,0-3.1,0.4-4.6,1.2C4,3.1,2.3,5.9,2.3,9.6
		c0,7.8,0,18.1,0,25.9c-0.2,0.1-0.5,0.4-0.8,0.7C1,36.8,0.2,37.2,0,38v3.8c0.2,0.4,0.5,0.5,1,0.5c14.5,0,29,0,43.6,0
		c0.5,0,0.8-0.1,1.1-0.5V38C45.2,37.7,45,37.2,44.6,36.8z"/>
</g>
<g>
</g>
<g>
</g>
<g>
</g>
<g>
</g>
<g>
</g>
<g>
</g>
<g>
</g>
<g>
</g>
<g>
</g>
<g>
</g>
<g>
</g>
</svg>
