<?xml version="1.0" encoding="utf-8"?>
<!-- Generator: Adobe Illustrator 27.6.1, SVG Export Plug-In . SVG Version: 6.00 Build 0)  -->
<svg version="1.1" id="Layer_1" xmlns="http://www.w3.org/2000/svg" xmlns:xlink="http://www.w3.org/1999/xlink" x="0px" y="0px"
	 viewBox="0 0 81 92.1" style="enable-background:new 0 0 81 92.1;" xml:space="preserve">
<style type="text/css">
	.st0{fill:#123457;}
	.st1{display:none;}
	.st2{display:inline;}
	.st3{fill:none;stroke:#FFFFFF;stroke-width:2;stroke-miterlimit:10;}
	.st4{display:inline;fill:none;stroke:#FFFFFF;stroke-width:2;stroke-miterlimit:10;}
	.st5{fill:#FFFFFF;}
	.st6{fill:#123557;}
</style>
<g>
	<g>
		<path id="Polygon_88_00000116206777653450988870000006612154428331284885_" class="st0" d="M81,66.1c0,2.1-1.1,4.1-3,5.2l-34.5,20
			c-1.9,1.1-4.2,1.1-6,0L3,71.3c-1.8-1.1-3-3.1-3-5.2V26c0-2.1,1.1-4.1,3-5.2l34.5-20c1.9-1.1,4.2-1.1,6,0l34.5,20
			c1.8,1.1,3,3.1,3,5.2V66.1z"/>
		<g class="st1">
			<g class="st2">
				<circle class="st3" cx="40.5" cy="19.7" r="9.4"/>
			</g>
			<path class="st4" d="M39.5,32.5h-8.4c0,0-13.8,3-14,17.9v16.4c0,0,0.1,3.8,2.7,5h1.9c0,0,3,0.4,3.1-5l-0.1-16.2
				c0,0,1.1-6.6,3.6-7V71h24.3V43c0,0,2.3,0.4,3.9,6.8v18.3c0,0,0.4,2.9,2.5,3.7h2.4c0,0,2.4-0.2,2.7-3.5V49.6c0,0-1.1-13-14-17
				H39.5z"/>
			<g class="st2">
				<path class="st5" d="M39.9,33.3v3.1c0,0,0.1,1.8-1.5,1.7c0,0-0.4-3.3-1.9-4.1c-0.4-0.3-1-0.1-1.4,0.3c-0.4,0.4-1,1.1-1.5,2
					l-3.6,9.5c0,0-0.9,3.2,1.6,3.1c0,0,4.7,0.6,6.8-1.9c0.2-0.2,0.2-0.4,0.3-0.6l0.7-6.8h0.6V49v0.6h0.7v2.3c0,0-3,3.7-4.6,4
					c-1.6,0.3-2.8,0.5-3.4,2.3s-0.2,0.3-0.2,0.3s-0.2,2.3,1.8,3.2h12.8c0,0,1.2,0.7,0,1.3H33.1c0,0-2.3,1.8-0.2,4.1h13.8
					c0,0,1.3,0.5,0,1.2h-6.9c0,0-1.1,0.9-1,1.9h1.2l0.1-0.7l6.8,0.1c0,0,1.6,0.1,2.2-1.3c0,0,0.6-2.5-2.4-2.4l-13.1-0.2
					c0,0-0.3-0.5-0.1-1.2h14.2c0,0,1.7,0,1.8-1.6s-1.1-2.4-1.7-2.4L35,60.6c0,0-1.5-1-0.5-2.6l1.1-0.1c0,0,1,1.7,2.7,1.8h2.5
					c0,0,3.5-0.6,4.5-4.3c0,0,1.3-4.2-3.1-6l-0.1-0.6l-0.6-0.1l-0.1-9.1l0.6,0.1v6.4c0,0.4,0.1,0.9,0.4,1.2c0.6,0.7,1.8,1.6,4.1,1.7
					c0,0,1.4,0.4,3-0.1c0,0,2.4-0.6,0.8-3.5L46.3,35c0,0-2-3.4-3.4,1.5l-0.1,1.2h-1.3l0.1-4.4H39.9z"/>
			</g>
		</g>
	</g>
	<g>
		<path class="st6" d="M55.3,44.3c-0.6-2.6-1.3-5.4-2-8.2l-0.1-0.5c-0.4-1.6-1.1-4.3-1.7-6.5h0.2c0.8,0,1.6,0.2,2.3,0.7
			c1.8,1.1,2.6,2.5,2.6,4.6v10.3C56.2,44.6,55.7,44.4,55.3,44.3z M35.3,38.1c0,2.4,0,4.9,0,7.3c-0.5,0.2-0.8,0.5-1.2,0.8
			c-0.2-0.4-0.7-0.6-1.1-0.8c0-4.7,0-11.2,0-16.2c0.7,0,1.6,0,2.3,0V38.1z M41.6,45.4c-0.4,0.2-0.8,0.5-1.1,0.8
			c-0.4-0.4-0.7-0.6-1.2-0.8c0-4.8,0-11.2,0-16.2h2.3v1C41.6,35,41.6,41.1,41.6,45.4z M29.1,45.4c-1.1,0.5-1.8,1.3-2.2,2.4
			c-0.4,1.1-0.2,2.4,0.2,3.5c0.6,1,1.4,1.8,2.6,2.2c1.1,0.2,2.3,0.1,3.2-0.4c0.5-0.2,0.8-0.6,1.1-0.8c0.7,0.7,1.6,1.2,2.5,1.3
			c1.6,0.1,2.9-0.4,3.8-1.3c0.8,0.8,1.9,1.3,3.2,1.3c2,0,3.8-1.6,4.1-3.6c0.4-1.8-0.6-3.7-2.3-4.6c0-4,0-9.2,0-13.8v-2.4h1.8
			l4.1,16.1c-1.2,1.1-1.7,2.8-1.2,4.4c0.4,1.7,1.8,2.9,3.5,3.1c1.1,0.1,2,0,2.9-0.5v6.7c-10.8,0-21.5,0-32.2-0.1v-5.6
			c0-6.5,0-13.4,0-19.2c0-2.5,2-4.7,4.7-4.9V31C29.1,35.7,29.1,41.3,29.1,45.4z M64.3,62.2C64.1,62.1,64,62,64,61.8
			c-0.2-0.2-0.5-0.6-0.7-0.8s-0.4-0.5-0.6-0.7c-0.2-0.1-0.4-0.2-0.5-0.5c0,0-0.1,0-0.1-0.1v-3.4c0-7,0-15.1,0-21.4
			c0-0.7,0-1.6-0.1-2.3c-0.7-4.9-5.2-8.9-10.1-9c-5.3,0-10.7,0-16,0c-2.2,0-4.3,0-6.6,0c-1.9,0-3.6,0.5-5.2,1.4
			c-3.6,2.2-5.4,5.3-5.4,9.4v25.2c-0.1,0.2-0.4,0.4-0.5,0.6c-0.2,0.2-0.4,0.4-0.5,0.5c-0.5,0.5-1,1-1.3,1.7v0.5v3.8l0.1,0.5
			c0.2,0.6,0.8,1.2,2,1.2c14.5,0,29,0,43.6,0c1.2,0,1.8-0.6,2-1.2l0.2-0.5v-3.8L64.3,62.2z"/>
		<path class="st5" d="M23.2,60.2c0-7.8,0-18.2,0-26c0-3.2,2.8-6.1,6.1-6.1c0.2,0,0.6,0,1,0c0,5.2-0.1,12.5,0,17.4
			c0,0.6-0.1,0.8-0.7,1.1c-1.6,0.7-2.2,2.6-1.3,4.2c0.8,1.6,2.8,2.2,4.3,1.3c0.8-0.5,1.4-1.3,1.6-2.4c0.4,1.6,1.3,2.5,2.6,2.8
			c2,0.1,3.1-0.8,3.7-2.6v0.1c0.4,1.6,1.7,2.5,3.2,2.5c1.4,0,2.8-1.2,3-2.5c0.2-1.6-0.6-3.1-2-3.6c-0.2-0.1-0.4-0.2-0.4-0.5
			c0-5,0-12.5,0-17.8c1.3,0,2.6,0,4,0c1.3,5.4,3.2,12.6,4.6,17.8c-0.1,0.1-0.2,0.2-0.4,0.2c-1.1,0.8-1.4,2.2-1.2,3.4
			c0.4,1.2,1.4,2.2,2.5,2.3c1.3,0.2,2.6-0.4,3.2-1.6c1.2-1.9-0.1-4.3-2.4-4.7c-0.1,0-0.4,0-0.4-0.2c-0.8-3.1-1.6-6.1-2.4-9.2
			C51.4,34,50.5,30.2,50,28c0.5,0,1.1,0,1.7,0c1.1,0,2,0.4,2.9,0.8c2.2,1.3,3.2,3.2,3.2,5.6c0,7.7,0,18,0,25.8
			C46.3,60.3,34.7,60.3,23.2,60.2z M36.5,45.8c0,0.1-0.1,0.5-0.2,0.5c-1.2,0.5-1.8,1.3-2.2,2.6c-0.2-1.3-1-2.2-2.2-2.6
			c-0.1,0-0.1-0.2-0.1-0.5c0-5,0-12.5,0-17.8c1.6,0,3.1,0,4.7,0v8.5C36.5,39.6,36.5,42.6,36.5,45.8z M42.8,28c0,5.2,0,12.6,0,17.6
			c0,0.4,0,0.6-0.4,0.7c-1,0.4-1.6,1.1-1.9,2c0,0.2-0.1,0.3-0.1,0.5c-0.4-1.3-1.1-2.2-2.2-2.6c-0.1,0-0.2-0.2-0.2-0.5
			c0-5,0-12.5,0-17.8C39.7,28,41.2,28,42.8,28z M62.3,61.7c-0.2-0.4-0.7-0.7-1.1-1.1c-0.1-0.1-0.2-0.2-0.4-0.4c0-7.6,0-17.9,0-25.3
			c0-0.7,0-1.4-0.1-2.2c-0.6-4.2-4.6-7.8-8.9-7.9c-7.4,0-15,0-22.6,0c-1.6,0-3.1,0.4-4.6,1.2C21.7,28,20,30.8,20,34.5
			c0,7.8,0,18.1,0,25.9c-0.2,0.1-0.5,0.4-0.8,0.7c-0.5,0.6-1.2,1-1.4,1.8v3.8c0.2,0.4,0.5,0.5,1,0.5c14.5,0,29,0,43.6,0
			c0.5,0,0.8-0.1,1.1-0.5v-3.8C62.9,62.6,62.7,62.1,62.3,61.7z"/>
	</g>
</g>
<g>
</g>
<g>
</g>
<g>
</g>
<g>
</g>
<g>
</g>
<g>
</g>
<g>
</g>
<g>
</g>
<g>
</g>
<g>
</g>
<g>
</g>
</svg>
