<svg xmlns="http://www.w3.org/2000/svg" width="25" height="25" viewBox="0 0 25 25">
  <path id="Pre-lab_icon" data-name="Pre-lab icon" d="M17.187,4.687A4.687,4.687,0,1,0,12.5,9.375,4.687,4.687,0,0,0,17.187,4.687Zm-5.782,7.085C8.509,10,3.816,9.512,1.455,9.377A1.351,1.351,0,0,0,0,10.7V21.579A1.343,1.343,0,0,0,1.293,22.9c2.132.112,6.445.521,9.426,2.023a.68.68,0,0,0,1-.58V12.332a.65.65,0,0,0-.313-.56Zm12.139-2.4c-2.361.134-7.054.622-9.95,2.4a.662.662,0,0,0-.313.568v12a.682.682,0,0,0,1,.581c2.98-1.5,7.291-1.91,9.422-2.021A1.344,1.344,0,0,0,25,21.58V10.7A1.352,1.352,0,0,0,23.545,9.377Z" fill="#0062b8"/>
</svg>
