<svg xmlns="http://www.w3.org/2000/svg" width="25" height="25" viewBox="0 0 25 25">
  <path id="Prepartion_icon" data-name="Prepartion icon" d="M3.375,5.46V26.29A2.086,2.086,0,0,0,5.46,28.375H26.29a2.086,2.086,0,0,0,2.085-2.085V5.46A2.086,2.086,0,0,0,26.29,3.375H5.46A2.082,2.082,0,0,0,3.375,5.46ZM8.74,23.31a1.2,1.2,0,1,1,1.033-1.033A1.2,1.2,0,0,1,8.74,23.31Zm0-6.248a1.2,1.2,0,1,1,1.033-1.033A1.2,1.2,0,0,1,8.74,17.062Zm0-6.248A1.2,1.2,0,1,1,9.774,9.78,1.2,1.2,0,0,1,8.74,10.813ZM23.6,22.962H12.79a.844.844,0,0,1-.841-.841h0a.844.844,0,0,1,.841-.841H23.6a.844.844,0,0,1,.841.841h0A.844.844,0,0,1,23.6,22.962Zm0-6.248H12.79a.844.844,0,0,1-.841-.841h0a.844.844,0,0,1,.841-.841H23.6a.844.844,0,0,1,.841.841h0A.844.844,0,0,1,23.6,16.713Zm0-6.248H12.79a.844.844,0,0,1-.841-.841h0a.844.844,0,0,1,.841-.841H23.6a.844.844,0,0,1,.841.841h0A.844.844,0,0,1,23.6,10.465Z" transform="translate(-3.375 -3.375)" fill="#0062b8"/>
</svg>
