<svg id="Resources-Hower" xmlns="http://www.w3.org/2000/svg" width="34" height="26.001" viewBox="0 0 34 26.001">
  <rect id="Rectangle_1518" data-name="Rectangle 1518" width="22" height="19" rx="2" transform="translate(6 4)" fill="#a4a4a4"/>
  <path id="Subtraction_14" data-name="Subtraction 14" d="M9964,8351h-19a2,2,0,0,1-2-2v-4h10a2,2,0,0,0,2-2v-11h9a2,2,0,0,1,2,2v15A2,2,0,0,1,9964,8351Z" transform="translate(-9932 -8325)" fill="#123457"/>
  <g id="Group_519" data-name="Group 519" transform="translate(0 1)">
    <rect id="Rectangle_1525" data-name="Rectangle 1525" width="22" height="19" rx="2" transform="translate(0 -1)" fill="#123457"/>
    <circle id="Ellipse_39" data-name="Ellipse 39" cx="2" cy="2" r="2" transform="translate(5 3)" fill="#c6e2ff"/>
    <path id="Path_1512" data-name="Path 1512" d="M6.74,7.456C8.79,7.38,11.181.52,15.009.52S19.786,3.541,19.786,5.6v6.491a.935.935,0,0,1-.942.927H.942A.935.935,0,0,1,0,12.092V7.456C0,6.233.834,4.69,2.3,4.69,4.484,4.824,4.69,7.532,6.74,7.456Z" transform="translate(1 4)" fill="#c6e2ff"/>
  </g>
  <path id="Subtraction_15" data-name="Subtraction 15" d="M9965,8346h-19a1,1,0,0,1-1-1h9a2,2,0,0,0,2-2v-10h9a1,1,0,0,1,1,1v11A1,1,0,0,1,9965,8346Z" transform="translate(-9933 -8325)" fill="#c6e2ff"/>
  <path id="Polygon_100" data-name="Polygon 100" d="M1.276.447a.25.25,0,0,1,.447,0l1.1,2.191A.25.25,0,0,1,2.6,3H.4a.25.25,0,0,1-.224-.362Z" transform="translate(16.5 22) rotate(90)" fill="#fff"/>
  <line id="Line_77" data-name="Line 77" x2="14" transform="translate(17.5 23.5)" fill="none" stroke="#fff" stroke-width="1"/>
</svg>
