<?xml version="1.0" encoding="utf-8"?>
<!-- Generator: Adobe Illustrator 26.5.0, SVG Export Plug-In . SVG Version: 6.00 Build 0)  -->
<svg version="1.1" id="Layer_1" xmlns="http://www.w3.org/2000/svg" xmlns:xlink="http://www.w3.org/1999/xlink" width="13" height="13" x="0px" y="0px"
	 viewBox="0 0 70 70" style="enable-background:new 0 0 70 70;" xml:space="preserve">
<g>
	<path d="M2.8,69.2v-6.9h14.5v-0.4C10.6,56.4,4.1,46.4,4.1,33.4c0-19.2,13.5-32.7,31.4-32.7c18.7,0,30.4,14.1,30.4,31.9
		c0,13.8-6.6,23.7-13.3,29.3v0.4h14.7v6.9H42v-5.5c8-5.5,14.9-16.2,14.9-29.7c0-12.3-7.3-26.2-21.6-26.2
		c-14.2,0-22.1,13.1-22.1,26.3c0,12.6,7,24.6,15,29.6v5.5H2.8z"/>
</g>
<g>
</g>
<g>
</g>
<g>
</g>
<g>
</g>
<g>
</g>
<g>
</g>
<g>
</g>
<g>
</g>
<g>
</g>
<g>
</g>
<g>
</g>
<g>
</g>
<g>
</g>
<g>
</g>
<g>
</g>
</svg>
