<?xml version="1.0" encoding="utf-8"?>
<!-- Generator: Adobe Illustrator 26.5.0, SVG Export Plug-In . SVG Version: 6.00 Build 0)  -->
<svg version="1.1" id="Table_icon" xmlns="http://www.w3.org/2000/svg" xmlns:xlink="http://www.w3.org/1999/xlink" width="40" height="33"
	 viewBox="0 0 40 33" style="enable-background:new 0 0 40 33;" xml:space="preserve">
<style type="text/css">
	.st0{fill:#0062B8;}
	.st1{fill:#C6E2FF;}
	.st2{fill:none;stroke:#0062B8;}
	.st3{fill:none;stroke:#C6E2FF;}
</style>
<path id="Rectangle_1525" class="st0" d="M2,0h36c1.1,0,2,0.9,2,2v29c0,1.1-0.9,2-2,2H2c-1.1,0-2-0.9-2-2V2C0,0.9,0.9,0,2,0z"/>
<path id="Rectangle_1549" class="st1" d="M2,9h36c0.6,0,1,0.4,1,1v21c0,0.6-0.4,1-1,1H2c-0.6,0-1-0.4-1-1V10C1,9.4,1.4,9,2,9z"/>
<g id="Group_541">
	<line id="Line_84" class="st2" x1="0" y1="14.5" x2="39" y2="14.5"/>
	<line id="Line_84-2" class="st2" x1="0" y1="20.5" x2="39" y2="20.5"/>
	<line id="Line_84-3" class="st2" x1="0" y1="26.5" x2="39" y2="26.5"/>
</g>
<g id="Group_540">
	<line id="Line_82" class="st2" x1="13.5" y1="32" x2="13.5" y2="8.5"/>
	<line id="Line_82-2" class="st2" x1="26.5" y1="32" x2="26.5" y2="8.5"/>
</g>
<g id="Group_542" transform="translate(0 -7)">
	<line id="Line_82-3" class="st3" x1="13.5" y1="14.8" x2="13.5" y2="8.5"/>
	<line id="Line_82-4" class="st3" x1="26.5" y1="14.8" x2="26.5" y2="8.5"/>
</g>
</svg>
