<svg xmlns="http://www.w3.org/2000/svg" width="13" height="13" viewBox="0 0 13 13"><g transform="translate(-100 -153)"><path d="M23.225,13.359l-1.051-1.081a.226.226,0,0,0-.167-.072h0a.217.217,0,0,0-.167.072l-7.285,7.339L11.9,16.965a.231.231,0,0,0-.334,0l-1.063,1.063a.238.238,0,0,0,0,.34l3.344,3.344a1.058,1.058,0,0,0,.7.34,1.108,1.108,0,0,0,.693-.328h.006L23.231,13.7A.255.255,0,0,0,23.225,13.359Z" transform="translate(89.565 142.005)" fill="#008d13"/><g transform="translate(100 153)" fill="#fff" stroke="#707070" stroke-width="1" opacity="0"><rect width="13" height="13" stroke="none"/><rect x="0.5" y="0.5" width="12" height="12" fill="none"/></g></g></svg>