<svg xmlns="http://www.w3.org/2000/svg" width="40" height="33" viewBox="0 0 40 33">
  <g id="Video_icon" transform="translate(-825 -241)">
    <rect id="Rectangle_1519" data-name="Rectangle 1519" width="40" height="33" rx="2" transform="translate(825 241)" fill="#0062b8"/>
    <rect id="Rectangle_1523" data-name="Rectangle 1523" width="36" height="22" rx="1" transform="translate(827 243)" fill="#c6e2ff"/>
    <path id="Polygon_100" data-name="Polygon 100" d="M2.374.447a.25.25,0,0,1,.447,0L5.014,4.833a.25.25,0,0,1-.224.362H.4a.25.25,0,0,1-.224-.362Z" transform="translate(833.573 267.099) rotate(90)" fill="#fff"/>
    <g id="Group_527" data-name="Group 527" transform="translate(0 1)">
      <circle id="Ellipse_51" data-name="Ellipse 51" cx="5" cy="5" r="5" transform="translate(840 248)" opacity="0.51"/>
      <path id="Polygon_102" data-name="Polygon 102" d="M2.387.331a.25.25,0,0,1,.422,0L4.951,3.7a.25.25,0,0,1-.211.384H.455A.25.25,0,0,1,.245,3.7Z" transform="translate(847.483 250.402) rotate(90)" fill="#fff"/>
    </g>
    <line id="Line_77" data-name="Line 77" x2="25.195" transform="translate(836.305 269.695)" fill="none" stroke="#fff" stroke-width="1"/>
  </g>
</svg>
