<?xml version="1.0" encoding="utf-8"?>
<!-- Generator: Adobe Illustrator 26.5.0, SVG Export Plug-In . SVG Version: 6.00 Build 0)  -->
<svg version="1.1" id="Layer_1" xmlns="http://www.w3.org/2000/svg" xmlns:xlink="http://www.w3.org/1999/xlink" x="0px" y="0px"
	 viewBox="0 0 464 374" style="enable-background:new 0 0 464 374;" xml:space="preserve">
<style type="text/css">
	.st0{fill:#D47B29;}
	.st1{enable-background:new    ;}
	.st2{fill:#FFFFFF;}
	.st3{fill:#123457;}
	.st4{fill:none;stroke:#FFFFFF;stroke-width:2;stroke-miterlimit:10;}
	.st5{display:none;}
	.st6{display:inline;fill:none;stroke:#FFFFFF;stroke-width:2;stroke-miterlimit:10;}
	.st7{fill:none;stroke:#FFFFFF;stroke-width:2;stroke-linecap:round;stroke-miterlimit:10;}
</style>
<g>
	<g>
		<g id="Group_440" transform="translate(-2 7.461)">
			<path id="Rectangle_1405" class="st0" d="M16.8,143.2h68c3.9,0,7,3.1,7,7v10c0,3.9-3.1,7-7,7h-68c-3.9,0-7-3.1-7-7v-10
				C9.8,146.4,12.9,143.2,16.8,143.2z"/>
			<g class="st1">
				<path class="st2" d="M34.8,152.5h-4.3l-0.4,2.4l0,0c0.6-0.6,1.2-0.8,2.1-0.8c2.1,0,3.2,1.6,3.2,3.6c0,2.2-1.8,3.8-3.9,3.8
					c-2,0-3.9-1.1-3.9-3.3h2.1c0.1,0.9,0.8,1.6,1.7,1.6c1.1,0,1.8-1,1.8-2c0-1.1-0.7-2-1.8-2c-0.8,0-1.2,0.3-1.6,0.8h-1.9l1-5.8h5.9
					V152.5z"/>
				<path class="st2" d="M40.7,153.5h2v1h0c0.6-0.8,1.4-1.3,2.4-1.3c1,0,1.8,0.4,2.3,1.3c0.4-0.7,1.3-1.3,2.3-1.3
					c1.6,0,2.8,0.8,2.8,2.8v5.2h-2.1v-4.4c0-1-0.1-1.9-1.3-1.9c-1.2,0-1.4,1-1.4,2v4.3h-2.1v-4.3c0-0.9,0.1-1.9-1.3-1.9
					c-0.4,0-1.4,0.3-1.4,1.8v4.5h-2.1V153.5z"/>
				<path class="st2" d="M56.4,152.3h-2.1v-1.8h2.1V152.3z M54.3,153.5h2.1v7.8h-2.1V153.5z"/>
				<path class="st2" d="M58.1,153.5h2v1.1h0c0.5-0.9,1.5-1.3,2.4-1.3c2.3,0,2.8,1.3,2.8,3.2v4.8h-2.1v-4.4c0-1.3-0.4-1.9-1.4-1.9
					c-1.2,0-1.6,0.6-1.6,2.2v4.1h-2.1V153.5z"/>
				<path class="st2" d="M68.6,158.7c0,0.9,0.8,1.3,1.6,1.3c0.6,0,1.4-0.2,1.4-1c0-0.6-0.9-0.9-2.4-1.2c-1.2-0.3-2.5-0.7-2.5-2.1
					c0-2,1.7-2.5,3.4-2.5c1.7,0,3.3,0.6,3.4,2.5h-2c-0.1-0.8-0.7-1-1.5-1c-0.5,0-1.2,0.1-1.2,0.7c0,0.8,1.2,0.9,2.4,1.2
					c1.2,0.3,2.5,0.7,2.5,2.2c0,2-1.8,2.7-3.5,2.7c-1.8,0-3.6-0.7-3.6-2.7H68.6z"/>
			</g>
		</g>
		<g class="st1">
			<path class="st3" d="M8,101.2h4.8c2.7,0,3.7,1.7,3.7,3.4c0,1.7-1,3.4-3.7,3.4h-2.5v3.8H8V101.2z M10.3,106.3h1.8
				c1.1,0,2.1-0.2,2.1-1.6c0-1.4-1-1.6-2.1-1.6h-1.8V106.3z"/>
			<path class="st3" d="M17.8,104.2h2v1.4h0c0.4-1,1.4-1.7,2.5-1.7c0.1,0,0.3,0,0.5,0.1v2c-0.2,0-0.5-0.1-0.8-0.1
				c-1.6,0-2.1,1.1-2.1,2.5v3.5h-2.1V104.2z"/>
			<path class="st3" d="M25.1,108.6c0.1,1.3,0.7,2,1.9,2c0.9,0,1.5-0.5,1.7-1h1.9c-0.6,1.8-1.9,2.6-3.6,2.6c-2.4,0-4-1.7-4-4.1
				c0-2.3,1.6-4.1,4-4.1c2.6,0,3.9,2.2,3.8,4.6H25.1z M28.5,107.2c-0.2-1.1-0.7-1.7-1.7-1.7c-1.4,0-1.7,1.1-1.8,1.7H28.5z"/>
			<path class="st3" d="M31.9,104.2h2v1h0c0.5-0.8,1.4-1.2,2.3-1.2c2.4,0,3.5,2,3.5,4.2c0,2.1-1.1,4-3.4,4c-0.9,0-1.8-0.4-2.3-1.2h0
				v3.7h-2.1V104.2z M37.7,108.1c0-1.2-0.5-2.5-1.9-2.5c-1.4,0-1.8,1.2-1.8,2.5c0,1.3,0.5,2.5,1.9,2.5
				C37.2,110.5,37.7,109.3,37.7,108.1z"/>
			<path class="st3" d="M41,106.6c0.1-2,1.9-2.6,3.6-2.6c1.5,0,3.4,0.3,3.4,2.2v4c0,0.7,0.1,1.4,0.3,1.7h-2.2
				c-0.1-0.2-0.1-0.5-0.1-0.8c-0.7,0.7-1.7,1-2.6,1c-1.5,0-2.6-0.7-2.6-2.3c0-1.8,1.3-2.2,2.6-2.4c1.3-0.2,2.5-0.2,2.5-1
				c0-0.9-0.6-1-1.4-1c-0.8,0-1.3,0.3-1.4,1.2H41z M45.9,108.1c-0.4,0.3-1.1,0.3-1.8,0.5c-0.7,0.1-1.3,0.4-1.3,1.1
				c0,0.8,0.6,1,1.3,1c1.7,0,1.7-1.3,1.7-1.8V108.1z"/>
			<path class="st3" d="M49.7,104.2h2v1.4h0c0.4-1,1.4-1.7,2.5-1.7c0.1,0,0.3,0,0.5,0.1v2c-0.2,0-0.5-0.1-0.8-0.1
				c-1.6,0-2.1,1.1-2.1,2.5v3.5h-2.1V104.2z"/>
			<path class="st3" d="M55.5,106.6c0.1-2,1.9-2.6,3.6-2.6c1.5,0,3.4,0.3,3.4,2.2v4c0,0.7,0.1,1.4,0.3,1.7h-2.2
				c-0.1-0.2-0.1-0.5-0.1-0.8c-0.7,0.7-1.7,1-2.6,1c-1.5,0-2.6-0.7-2.6-2.3c0-1.8,1.3-2.2,2.6-2.4c1.3-0.2,2.5-0.2,2.5-1
				c0-0.9-0.6-1-1.4-1c-0.8,0-1.3,0.3-1.4,1.2H55.5z M60.4,108.1c-0.4,0.3-1.1,0.3-1.8,0.5c-0.7,0.1-1.3,0.4-1.3,1.1
				c0,0.8,0.6,1,1.3,1c1.7,0,1.7-1.3,1.7-1.8V108.1z"/>
			<path class="st3" d="M66.9,104.2h1.6v1.4h-1.6v3.8c0,0.7,0.2,0.9,0.9,0.9c0.2,0,0.4,0,0.7-0.1v1.7c-0.4,0.1-0.8,0.1-1.2,0.1
				c-1.3,0-2.4-0.3-2.4-1.8v-4.6h-1.3v-1.4h1.3v-2.3h2.1V104.2z"/>
			<path class="st3" d="M71.6,103h-2.1v-1.8h2.1V103z M69.5,104.2h2.1v7.8h-2.1V104.2z"/>
			<path class="st3" d="M77.1,104c2.4,0,4,1.6,4,4.1c0,2.5-1.6,4.1-4,4.1c-2.4,0-4-1.6-4-4.1C73.1,105.6,74.6,104,77.1,104z
				 M77.1,110.5c1.5,0,1.9-1.2,1.9-2.5c0-1.2-0.4-2.5-1.9-2.5c-1.4,0-1.9,1.2-1.9,2.5C75.2,109.3,75.6,110.5,77.1,110.5z"/>
			<path class="st3" d="M82.5,104.2h2v1.1h0c0.5-0.9,1.5-1.3,2.4-1.3c2.3,0,2.8,1.3,2.8,3.2v4.8h-2.1v-4.4c0-1.3-0.4-1.9-1.4-1.9
				c-1.2,0-1.6,0.6-1.6,2.2v4.1h-2.1V104.2z"/>
		</g>
		<g>
			<path id="Polygon_88_00000079471638278171482530000008239176087983782078_" class="st3" d="M89.3,67.4c0,2.1-1.1,4.1-3,5.2
				l-34.5,20c-1.9,1.1-4.2,1.1-6,0l-34.5-20c-1.8-1.1-3-3.1-3-5.2V27.3c0-2.1,1.1-4.1,3-5.2l34.5-20c1.9-1.1,4.2-1.1,6,0l34.5,20
				c1.8,1.1,3,3.1,3,5.2V67.4z"/>
			<g>
				<path class="st4" d="M67.3,40.2V29.8c0,0-0.6-1.8-1.6-2s-31.1,0.5-31.1,0.5s0.1-1.4,1.2-3.2c0.8-1.3,2.3-2.2,3.8-2.2h26.6"/>
				<path class="st4" d="M34.6,28.3v7.9H48c0,0,1.5,0.5,2,1.8v3.8H37.9"/>
				<path class="st4" d="M50,41.8c0,0,2.2,0.8,2.2,1.8c0,1,0,3.1,0,3.1s-0.6,1.4-2.8,1l-10.9,0.1"/>
				<path class="st4" d="M50,47.8c0,0,3.3,1.9,0,5.2H37.4"/>
				<path class="st4" d="M47,53c0,0,1.9,3.2,0,4.9l-17.2,0c-2.4,0-4.8-0.6-6.8-1.9c-2-1.3-4-3.4-4.2-7.1v-4.2c0-2.6,1-5.1,2.8-7
					c1.6-1.7,4.1-3.4,7.7-4.4H34"/>
				<path class="st4" d="M33.8,57.8v4.7c0,0,0.4,1,1.7,1h17.4"/>
				<g class="st5">
					<polygon class="st6" points="51.8,71 51.8,66.9 53.2,66.1 73.9,66.1 74.9,66.9 74.9,71 73.7,71.8 53.1,71.8 					"/>
					<path class="st6" d="M53.9,66.1c0,0-1.8-3-2-6.6c0-0.1,0-0.1,0-0.2v-3c0-0.3,0-0.6,0.1-0.9c0.4-1.8,2.3-7.7,10.2-10.6V54
						c0,0-2.7-0.3-4.2,3.1c-0.3,0.6-0.4,1.3-0.4,2v2.5c0,0-0.1,1,2.8,3.1v-1.5h11.5"/>
					<path class="st6" d="M64.6,57.9c0-0.3,0-0.6,0-0.9c0-0.3-0.2-0.7-0.5-0.8c-0.8-0.3-1.9-1.1-1.9-2.2v-9.4c0-0.3,0.1-0.6,0.4-0.7
						c0.3-0.2,0.8-0.5,1.5-0.6c0.4-0.1,0.7-0.4,0.7-0.8v-3.1c0-0.5,0.4-0.9,0.9-0.9h2.1c0.5,0,0.9,0.4,0.9,0.9v3.4
						c0,0.4,0.2,0.7,0.6,0.8c0.4,0.1,0.9,0.5,1.3,1.5v9.6c0,0.1,0,0.2-0.1,0.3c-0.2,0.4-0.6,1.4-1.4,1.6c-0.3,0.1-0.6,0.3-0.6,0.6
						l-0.1,0.8c-0.1,0.4-0.4,0.8-0.9,0.8h-2C65,58.6,64.6,58.3,64.6,57.9z"/>
					<line class="st6" x1="64.7" y1="43.2" x2="68.6" y2="43.2"/>
					<line class="st6" x1="62.7" y1="55.4" x2="70.4" y2="55.4"/>
				</g>
				<g>
					<path class="st3" d="M75,57.7l3.2,4.8c1.6,3.9-2,4.7-3,4.8c-0.2,0-0.3,0-0.5,0H58.9c-1.8,0-3.2-1.6-2.9-3.4
						c0.1-0.8,0.5-1.5,0.5-1.5l3.3-4.8L75,57.7z"/>
					<path class="st4" d="M64.6,43.9v5.4l-8.1,13.2c0,0-0.4,0.6-0.5,1.5c-0.3,1.8,1.1,3.4,2.9,3.4h15.8c0.2,0,0.3,0,0.5,0
						c1-0.1,4.6-0.9,3-4.8l-8-13.4v-5.2"/>
					<line class="st7" x1="62.6" y1="43.9" x2="72" y2="43.9"/>
					<polygon class="st4" points="70.1,43.9 70.1,49.1 75.9,58.7 58.7,58.7 64.5,49.2 64.5,43.9 					"/>
				</g>
			</g>
		</g>
	</g>
	<g>
		<g id="Group_441" transform="translate(155 7.461)">
			<path id="Rectangle_1405-2" class="st0" d="M46.5,143.2h68c3.9,0,7,3.1,7,7v10c0,3.9-3.1,7-7,7h-68c-3.9,0-7-3.1-7-7v-10
				C39.5,146.4,42.6,143.2,46.5,143.2z"/>
			<g class="st1">
				<path class="st2" d="M52.9,154.8c-0.1-2.4,1.3-4.2,3.8-4.2c1.9,0,3.6,1.2,3.6,3.3c0,1.6-0.8,2.4-1.9,3.2c-1,0.7-2.3,1.3-3,2.4h5
					v1.8h-7.7c0-2.4,1.5-3.5,3.3-4.7c0.9-0.6,2.2-1.3,2.2-2.6c0-1-0.7-1.6-1.6-1.6c-1.3,0-1.7,1.3-1.7,2.4H52.9z"/>
				<path class="st2" d="M64.9,150.5c2.1,0,3.9,1.3,3.9,5.4c0,4.2-1.8,5.5-3.9,5.5c-2.1,0-3.8-1.3-3.8-5.5
					C61,151.9,62.8,150.5,64.9,150.5z M64.9,159.7c1.7,0,1.7-2.6,1.7-3.8c0-1.1,0-3.7-1.7-3.7c-1.7,0-1.7,2.6-1.7,3.7
					C63.2,157.1,63.2,159.7,64.9,159.7z"/>
				<path class="st2" d="M74.1,153.5h2v1h0c0.6-0.8,1.4-1.3,2.4-1.3c1,0,1.8,0.4,2.3,1.3c0.4-0.7,1.3-1.3,2.3-1.3
					c1.6,0,2.8,0.8,2.8,2.8v5.2h-2.1v-4.4c0-1-0.1-1.9-1.3-1.9c-1.2,0-1.4,1-1.4,2v4.3h-2.1v-4.3c0-0.9,0.1-1.9-1.3-1.9
					c-0.4,0-1.4,0.3-1.4,1.8v4.5h-2.1V153.5z"/>
				<path class="st2" d="M89.8,152.3h-2.1v-1.8h2.1V152.3z M87.7,153.5h2.1v7.8h-2.1V153.5z"/>
				<path class="st2" d="M91.5,153.5h2v1.1h0c0.5-0.9,1.5-1.3,2.4-1.3c2.3,0,2.8,1.3,2.8,3.2v4.8h-2.1v-4.4c0-1.3-0.4-1.9-1.4-1.9
					c-1.2,0-1.6,0.6-1.6,2.2v4.1h-2.1V153.5z"/>
				<path class="st2" d="M102,158.7c0,0.9,0.8,1.3,1.6,1.3c0.6,0,1.4-0.2,1.4-1c0-0.6-0.9-0.9-2.4-1.2c-1.2-0.3-2.5-0.7-2.5-2.1
					c0-2,1.7-2.5,3.4-2.5c1.7,0,3.3,0.6,3.4,2.5h-2c-0.1-0.8-0.7-1-1.5-1c-0.5,0-1.2,0.1-1.2,0.7c0,0.8,1.2,0.9,2.4,1.2
					c1.2,0.3,2.5,0.7,2.5,2.2c0,2-1.8,2.7-3.5,2.7c-1.8,0-3.6-0.7-3.6-2.7H102z"/>
			</g>
		</g>
		<g class="st1">
			<path class="st3" d="M204.7,101h2.4l4,10.7h-2.4l-0.8-2.4h-4l-0.8,2.4h-2.4L204.7,101z M204.5,107.6h2.8l-1.4-3.9h0L204.5,107.6z
				"/>
			<path class="st3" d="M217.1,106.7c-0.1-0.9-0.7-1.3-1.6-1.3c-1.4,0-1.8,1.4-1.8,2.5c0,1.1,0.4,2.4,1.8,2.4c1,0,1.6-0.6,1.7-1.6
				h2.1c-0.3,2.1-1.7,3.2-3.7,3.2c-2.3,0-3.9-1.6-3.9-4c0-2.4,1.4-4.2,4-4.2c1.8,0,3.5,1,3.6,2.9H217.1z"/>
			<path class="st3" d="M223.2,104h1.6v1.4h-1.6v3.8c0,0.7,0.2,0.9,0.9,0.9c0.2,0,0.4,0,0.7-0.1v1.7c-0.4,0.1-0.8,0.1-1.2,0.1
				c-1.3,0-2.4-0.3-2.4-1.8v-4.6h-1.3V104h1.3v-2.3h2.1V104z"/>
			<path class="st3" d="M227.9,102.8h-2.1V101h2.1V102.8z M225.8,104h2.1v7.8h-2.1V104z"/>
			<path class="st3" d="M233.9,111.7h-2.4l-2.7-7.8h2.2l1.6,5.3h0l1.6-5.3h2.1L233.9,111.7z"/>
			<path class="st3" d="M239.6,102.8h-2.1V101h2.1V102.8z M237.5,104h2.1v7.8h-2.1V104z"/>
			<path class="st3" d="M244,104h1.6v1.4H244v3.8c0,0.7,0.2,0.9,0.9,0.9c0.2,0,0.4,0,0.7-0.1v1.7c-0.4,0.1-0.8,0.1-1.2,0.1
				c-1.3,0-2.4-0.3-2.4-1.8v-4.6h-1.3V104h1.3v-2.3h2.1V104z"/>
			<path class="st3" d="M250.4,112.7c-0.5,1.2-1.2,1.8-2.7,1.8c-0.4,0-0.9,0-1.3-0.1v-1.8c0.4,0,0.8,0.1,1.2,0.1
				c0.7-0.1,1-0.8,0.7-1.5l-2.7-7.3h2.3l1.8,5.3h0l1.7-5.3h2.2L250.4,112.7z"/>
			<path class="st3" d="M263.6,111.7h-2.1v-6.8h-2.6v-1.6c1.5,0,2.9-0.5,3.1-2.1h1.7V111.7z"/>
			<path class="st3" d="M269.3,106.4H267v-2.3h2.4V106.4z M267,109.4h2.4v2.3H267V109.4z"/>
		</g>
		<g class="st1">
			<path d="M180.6,117.1h1.1v7.6h4.5v1h-5.7V117.1z"/>
			<path d="M192.3,123.7c-0.3,1.4-1.3,2.1-2.7,2.1c-2,0-2.9-1.4-3-3.3c0-1.9,1.2-3.2,2.9-3.2c2.2,0,2.9,2.1,2.8,3.5h-4.6
				c0,1.1,0.6,2,1.9,2c0.8,0,1.4-0.4,1.6-1.2H192.3z M191.4,122c0-1-0.8-1.8-1.8-1.8c-1.1,0-1.7,0.8-1.8,1.8H191.4z"/>
			<path d="M199,125.7c-0.2,0.1-0.4,0.2-0.7,0.2c-0.5,0-0.9-0.3-0.9-1c-0.6,0.7-1.3,1-2.2,1c-1.1,0-2.1-0.5-2.1-1.7
				c0-1.4,1-1.7,2.1-1.9c1.1-0.2,2.1-0.1,2.1-0.9c0-0.9-0.7-1-1.4-1c-0.9,0-1.5,0.3-1.5,1.2h-1c0.1-1.5,1.2-2.1,2.6-2.1
				c1.1,0,2.3,0.3,2.3,1.7v3.2c0,0.5,0,0.7,0.3,0.7c0.1,0,0.2,0,0.3-0.1V125.7z M197.3,122.5c-0.4,0.3-1.2,0.3-1.8,0.4
				c-0.7,0.1-1.2,0.4-1.2,1.1c0,0.7,0.6,0.9,1.2,0.9c1.3,0,1.9-0.8,1.9-1.4V122.5z"/>
			<path d="M199.9,119.5h1v1.3h0c0.5-1,1.2-1.5,2.3-1.5v1.1c-1.6,0-2.2,0.9-2.2,2.5v2.8h-1V119.5z"/>
			<path d="M204.2,119.5h1v1h0c0.4-0.8,1.1-1.1,2-1.1c1.6,0,2.1,0.9,2.1,2.3v4.1h-1v-4.2c0-0.8-0.5-1.2-1.3-1.2
				c-1.2,0-1.8,0.8-1.8,1.9v3.5h-1V119.5z"/>
			<path d="M211.9,118.4h-1v-1.2h1V118.4z M210.9,119.5h1v6.2h-1V119.5z"/>
			<path d="M213.5,119.5h1v1h0c0.4-0.8,1.1-1.1,2-1.1c1.6,0,2.1,0.9,2.1,2.3v4.1h-1v-4.2c0-0.8-0.5-1.2-1.3-1.2
				c-1.2,0-1.8,0.8-1.8,1.9v3.5h-1V119.5z"/>
			<path d="M225.5,125.2c0,2-0.9,3-2.9,3c-1.2,0-2.5-0.5-2.6-1.8h1c0,0.7,0.9,1,1.6,1c1.3,0,1.9-1,1.9-2.4v-0.4h0
				c-0.3,0.8-1.2,1.1-1.9,1.1c-1.8,0-2.8-1.5-2.8-3.1c0-1.5,0.7-3.3,2.9-3.3c0.8,0,1.5,0.3,1.8,1h0v-0.9h1V125.2z M224.5,122.5
				c0-1.1-0.5-2.2-1.8-2.2c-1.3,0-1.8,1.1-1.8,2.3c0,1.1,0.4,2.4,1.8,2.4S224.5,123.6,224.5,122.5z"/>
			<path d="M231.8,119.5h1.2v0.9h-1.2v3.8c0,0.5,0.1,0.6,0.8,0.6h0.5v0.9h-0.8c-1.1,0-1.5-0.2-1.5-1.4v-3.9h-1.1v-0.9h1.1v-1.9h1
				V119.5z"/>
			<path d="M236.8,119.4c2,0,3,1.4,3,3.2c0,1.8-1,3.2-3,3.2c-2,0-3-1.4-3-3.2C233.8,120.8,234.9,119.4,236.8,119.4z M236.8,125
				c1.1,0,1.9-0.8,1.9-2.3c0-1.5-0.9-2.4-1.9-2.4s-1.9,0.8-1.9,2.4C234.9,124.1,235.8,125,236.8,125z"/>
			<path d="M248.2,116.9c2.7,0,4.1,2.2,4.1,4.5c0,2.3-1.4,4.5-4.1,4.5c-2.7,0-4.1-2.2-4.1-4.5C244.1,119.1,245.5,116.9,248.2,116.9z
				 M248.2,125c2.1,0,3-1.8,3-3.5c0-1.7-0.9-3.5-3-3.5s-3,1.8-3,3.5C245.2,123.2,246.1,125,248.2,125z"/>
			<path d="M253.5,119.5h1v1.3h0c0.5-1,1.2-1.5,2.3-1.5v1.1c-1.6,0-2.2,0.9-2.2,2.5v2.8h-1V119.5z"/>
			<path d="M262.5,125.2c0,2-0.9,3-2.9,3c-1.2,0-2.5-0.5-2.6-1.8h1c0,0.7,0.9,1,1.6,1c1.3,0,1.9-1,1.9-2.4v-0.4h0
				c-0.3,0.8-1.2,1.1-1.9,1.1c-1.8,0-2.8-1.5-2.8-3.1c0-1.5,0.7-3.3,2.9-3.3c0.8,0,1.5,0.3,1.8,1h0v-0.9h1V125.2z M261.5,122.5
				c0-1.1-0.5-2.2-1.8-2.2c-1.3,0-1.8,1.1-1.8,2.3c0,1.1,0.4,2.4,1.8,2.4S261.5,123.6,261.5,122.5z"/>
			<path d="M269.6,125.7c-0.2,0.1-0.4,0.2-0.7,0.2c-0.5,0-0.9-0.3-0.9-1c-0.6,0.7-1.3,1-2.2,1c-1.1,0-2.1-0.5-2.1-1.7
				c0-1.4,1-1.7,2.1-1.9c1.1-0.2,2.1-0.1,2.1-0.9c0-0.9-0.7-1-1.4-1c-0.9,0-1.5,0.3-1.5,1.2h-1c0.1-1.5,1.2-2.1,2.6-2.1
				c1.1,0,2.3,0.3,2.3,1.7v3.2c0,0.5,0,0.7,0.3,0.7c0.1,0,0.2,0,0.3-0.1V125.7z M267.9,122.5c-0.4,0.3-1.2,0.3-1.8,0.4
				c-0.7,0.1-1.2,0.4-1.2,1.1c0,0.7,0.6,0.9,1.2,0.9c1.3,0,1.9-0.8,1.9-1.4V122.5z"/>
			<path d="M270.5,119.5h1v1h0c0.4-0.8,1.1-1.1,2-1.1c1.6,0,2.1,0.9,2.1,2.3v4.1h-1v-4.2c0-0.8-0.5-1.2-1.3-1.2
				c-1.2,0-1.8,0.8-1.8,1.9v3.5h-1V119.5z"/>
			<path d="M278.3,118.4h-1v-1.2h1V118.4z M277.2,119.5h1v6.2h-1V119.5z"/>
			<path d="M279.3,124.9l3.7-4.5h-3.5v-0.9h4.8v0.7l-3.8,4.6h4v0.9h-5.2V124.9z"/>
			<path d="M290.9,123.7c-0.3,1.4-1.3,2.1-2.7,2.1c-2,0-2.9-1.4-3-3.3c0-1.9,1.2-3.2,2.9-3.2c2.2,0,2.9,2.1,2.8,3.5h-4.6
				c0,1.1,0.6,2,1.9,2c0.8,0,1.4-0.4,1.6-1.2H290.9z M289.9,122c0-1-0.8-1.8-1.8-1.8c-1.1,0-1.7,0.8-1.8,1.8H289.9z"/>
		</g>
		<g>
			<path id="Polygon_88_00000135673955715493250690000013451492653433787805_" class="st3" d="M275.9,67.4c0,2.1-1.1,4.1-3,5.2
				l-34.5,20c-1.9,1.1-4.2,1.1-6,0l-34.5-20c-1.8-1.1-3-3.1-3-5.2V27.3c0-2.1,1.1-4.1,3-5.2l34.5-20c1.9-1.1,4.2-1.1,6,0l34.5,20
				c1.8,1.1,3,3.1,3,5.2V67.4z"/>
			<g>
				<path class="st4" d="M211.7,70.7c0,0-2.6-13-1.3-16.6c1.3-3.6,7.7-4.3,9.7-5.2c2-0.9,10,10.9,10,10.9l4.3-13.4
					c0,0,4.9-0.2,7.4-1.1h16.1l3.6-3.4V31.8c0,0-0.8-2.2-3.3-3.2h-3.3c0,0-2.6,2.3-3.1,5.1l0.3,3.6c0,0,2,3.6,3.6,4.6h5.9"/>
				<line class="st4" x1="222.2" y1="70.7" x2="220.4" y2="63.5"/>
				<path class="st4" d="M226.3,54.5v-3c0,0-3.1-2.5-1.3-4.2c0,0,2.7-1.8,5.6,0c0,0,1.5,1.1,0,3.2c0,0-0.6,3.3,0.6,5.9"/>
				<path class="st4" d="M253.8,45.3v3.6c0,0-7.9,7.5-14,8.8l2.3,14.4"/>
				<path class="st4" d="M241.8,45.3c0,0,0.8-5.5,3.8-8.8v-13c0,0,4.3-3.8,8.2,0v5.4"/>
				<line class="st4" x1="245.6" y1="25.2" x2="253.8" y2="25.2"/>
				<line class="st4" x1="245.6" y1="28.6" x2="248.7" y2="28.6"/>
				<line class="st4" x1="245.6" y1="32.6" x2="248.7" y2="32.6"/>
				<line class="st4" x1="245.6" y1="36.6" x2="248.7" y2="36.6"/>
				<g>
					<circle class="st4" cx="225.4" cy="32.9" r="11.2"/>
				</g>
			</g>
		</g>
	</g>
	<g>
		<g class="st1">
			<path d="M27.9,315.1H31c0.8,0,1.8,0,2.3,0.3c0.6,0.3,1,0.9,1,1.8c0,0.9-0.5,1.6-1.3,1.9v0c1.1,0.2,1.6,1,1.6,2.1
				c0,1.3-0.9,2.5-2.6,2.5h-4.1V315.1z M29,318.8h2.3c1.3,0,1.8-0.5,1.8-1.4c0-1.2-0.8-1.4-1.8-1.4H29V318.8z M29,322.7h2.9
				c1,0,1.6-0.6,1.6-1.5c0-1.1-0.9-1.4-1.9-1.4H29V322.7z"/>
			<path d="M41.1,323.7h-1v-1h0c-0.4,0.8-1.1,1.1-2,1.1c-1.6,0-2.1-0.9-2.1-2.3v-4.1h1v4.2c0,0.8,0.5,1.2,1.3,1.2
				c1.2,0,1.8-0.8,1.8-1.9v-3.5h1V323.7z"/>
			<path d="M43.7,316.4h-1v-1.2h1V316.4z M42.7,317.5h1v6.2h-1V317.5z"/>
			<path d="M45.4,315.1h1v8.6h-1V315.1z"/>
			<path d="M53.5,323.7h-1v-0.8h0c-0.3,0.7-1.1,1-2,1c-1.9,0-2.9-1.5-2.9-3.3s0.9-3.2,2.8-3.2c0.6,0,1.5,0.2,2,1h0v-3.2h1V323.7z
				 M50.6,323c1.4,0,1.9-1.2,1.9-2.3c0-1.2-0.6-2.4-2-2.4c-1.4,0-1.9,1.2-1.9,2.4C48.7,321.8,49.3,323,50.6,323z"/>
			<path d="M56.2,316.4h-1v-1.2h1V316.4z M55.1,317.5h1v6.2h-1V317.5z"/>
			<path d="M57.7,317.5h1v1h0c0.4-0.8,1.1-1.1,2-1.1c1.6,0,2.1,0.9,2.1,2.3v4.1h-1v-4.2c0-0.8-0.5-1.2-1.3-1.2
				c-1.2,0-1.8,0.8-1.8,1.9v3.5h-1V317.5z"/>
			<path d="M69.8,323.2c0,2-0.9,3-2.9,3c-1.2,0-2.5-0.5-2.6-1.8h1c0,0.7,0.9,1,1.6,1c1.3,0,1.9-1,1.9-2.4v-0.4h0
				c-0.3,0.8-1.2,1.1-1.9,1.1c-1.8,0-2.8-1.5-2.8-3.1c0-1.5,0.7-3.3,2.9-3.3c0.8,0,1.5,0.3,1.8,1h0v-0.9h1V323.2z M68.7,320.5
				c0-1.1-0.5-2.2-1.8-2.2c-1.3,0-1.8,1.1-1.8,2.3c0,1.1,0.4,2.4,1.8,2.4S68.7,321.6,68.7,320.5z"/>
			<path d="M3,331.9h1.2v0.9H3v3.8c0,0.5,0.1,0.6,0.8,0.6h0.5v0.9H3.5c-1.1,0-1.5-0.2-1.5-1.4v-3.9H1v-0.9H2V330h1V331.9z"/>
			<path d="M5.4,329.5h1v3.3h0c0.3-0.7,1.2-1.1,2-1.1c1.6,0,2.1,0.9,2.1,2.3v4.1h-1v-4.2c0-0.8-0.5-1.2-1.3-1.2
				c-1.2,0-1.8,0.8-1.8,1.9v3.5h-1V329.5z"/>
			<path d="M17.4,336.1c-0.3,1.4-1.3,2.1-2.7,2.1c-2,0-2.9-1.4-3-3.3c0-1.9,1.2-3.2,2.9-3.2c2.2,0,2.9,2.1,2.8,3.5h-4.6
				c0,1.1,0.6,2,1.9,2c0.8,0,1.4-0.4,1.6-1.2H17.4z M16.4,334.4c0-1-0.8-1.8-1.8-1.8c-1.1,0-1.7,0.8-1.8,1.8H16.4z"/>
			<path d="M22,329.5h3.8c1.7,0,2.6,0.9,2.6,2.5c0,1.6-0.9,2.5-2.6,2.5h-2.6v3.5H22V329.5z M23.2,333.6h2.2c1.3,0,1.9-0.6,1.9-1.6
				c0-1-0.6-1.6-1.9-1.6h-2.2V333.6z"/>
			<path d="M34.9,336.1c-0.3,1.4-1.3,2.1-2.7,2.1c-2,0-2.9-1.4-3-3.3c0-1.9,1.2-3.2,2.9-3.2c2.2,0,2.9,2.1,2.8,3.5h-4.6
				c0,1.1,0.6,2,1.9,2c0.8,0,1.4-0.4,1.6-1.2H34.9z M33.9,334.4c0-1-0.8-1.8-1.8-1.8c-1.1,0-1.7,0.8-1.8,1.8H33.9z"/>
			<path d="M36,331.9h1v1.3h0c0.5-1,1.2-1.5,2.3-1.5v1.1c-1.6,0-2.2,0.9-2.2,2.5v2.8h-1V331.9z"/>
			<path d="M41.2,330.8h-1v-1.2h1V330.8z M40.1,331.9h1v6.2h-1V331.9z"/>
			<path d="M45.4,331.8c2,0,3,1.4,3,3.2c0,1.8-1,3.2-3,3.2c-2,0-3-1.4-3-3.2C42.4,333.2,43.4,331.8,45.4,331.8z M45.4,337.4
				c1.1,0,1.9-0.8,1.9-2.3c0-1.5-0.9-2.4-1.9-2.4c-1.1,0-1.9,0.8-1.9,2.4C43.5,336.5,44.3,337.4,45.4,337.4z"/>
			<path d="M55.2,338.1h-1v-0.8h0c-0.3,0.7-1.1,1-2,1c-1.9,0-2.9-1.5-2.9-3.3s0.9-3.2,2.8-3.2c0.6,0,1.5,0.2,2,1h0v-3.2h1V338.1z
				 M52.3,337.4c1.4,0,1.9-1.2,1.9-2.3c0-1.2-0.6-2.4-2-2.4c-1.4,0-1.9,1.2-1.9,2.4C50.4,336.2,51,337.4,52.3,337.4z"/>
			<path d="M57.8,330.8h-1v-1.2h1V330.8z M56.8,331.9h1v6.2h-1V331.9z"/>
			<path d="M63.6,333.9c-0.2-0.8-0.7-1.2-1.5-1.2c-1.5,0-1.9,1.2-1.9,2.4c0,1.1,0.5,2.3,1.8,2.3c1,0,1.6-0.6,1.7-1.5h1
				c-0.2,1.5-1.2,2.4-2.7,2.4c-1.9,0-2.9-1.3-2.9-3.2c0-1.9,1-3.3,2.9-3.3c1.4,0,2.5,0.7,2.7,2.1H63.6z"/>
			<path d="M71.3,330.5h-2.9v-1h6.8v1h-2.9v7.6h-1.1V330.5z"/>
			<path d="M80.2,338.1c-0.2,0.1-0.4,0.2-0.7,0.2c-0.5,0-0.9-0.3-0.9-1c-0.6,0.7-1.3,1-2.2,1c-1.1,0-2.1-0.5-2.1-1.7
				c0-1.4,1-1.7,2.1-1.9c1.1-0.2,2.1-0.1,2.1-0.9c0-0.9-0.7-1-1.4-1c-0.9,0-1.5,0.3-1.5,1.2h-1c0.1-1.5,1.2-2.1,2.6-2.1
				c1.1,0,2.3,0.3,2.3,1.7v3.2c0,0.5,0,0.7,0.3,0.7c0.1,0,0.2,0,0.3-0.1V338.1z M78.6,334.9c-0.4,0.3-1.2,0.3-1.8,0.4
				c-0.7,0.1-1.2,0.4-1.2,1.1c0,0.7,0.6,0.9,1.2,0.9c1.3,0,1.9-0.8,1.9-1.4V334.9z"/>
			<path d="M81.2,329.5h1v3.2h0c0.3-0.7,1.1-1,2-1c1.9,0,2.9,1.5,2.9,3.3s-0.9,3.2-2.8,3.2c-0.6,0-1.5-0.2-2-1h0v0.8h-1V329.5z
				 M84.1,332.7c-1.4,0-1.9,1.2-1.9,2.3c0,1.2,0.6,2.4,2,2.4c1.4,0,1.9-1.2,1.9-2.4C86,333.8,85.4,332.7,84.1,332.7z"/>
			<path d="M88.4,329.5h1v8.6h-1V329.5z"/>
			<path d="M96.3,336.1c-0.3,1.4-1.3,2.1-2.7,2.1c-2,0-2.9-1.4-3-3.3c0-1.9,1.2-3.2,2.9-3.2c2.2,0,2.9,2.1,2.8,3.5h-4.6
				c0,1.1,0.6,2,1.9,2c0.8,0,1.4-0.4,1.6-1.2H96.3z M95.3,334.4c0-1-0.8-1.8-1.8-1.8c-1.1,0-1.7,0.8-1.8,1.8H95.3z"/>
		</g>
		<g class="st1">
			<path class="st3" d="M18,299h2.4l4,10.7H22l-0.8-2.4h-4l-0.8,2.4h-2.4L18,299z M17.8,305.6h2.8l-1.4-3.9h0L17.8,305.6z"/>
			<path class="st3" d="M30.4,304.7c-0.1-0.9-0.7-1.3-1.6-1.3c-1.4,0-1.8,1.4-1.8,2.5c0,1.1,0.4,2.4,1.8,2.4c1,0,1.6-0.6,1.7-1.6
				h2.1c-0.3,2.1-1.7,3.2-3.7,3.2c-2.3,0-3.9-1.6-3.9-4c0-2.4,1.4-4.2,4-4.2c1.8,0,3.5,1,3.6,2.9H30.4z"/>
			<path class="st3" d="M36.4,302H38v1.4h-1.6v3.8c0,0.7,0.2,0.9,0.9,0.9c0.2,0,0.4,0,0.7-0.1v1.7c-0.4,0.1-0.8,0.1-1.2,0.1
				c-1.3,0-2.4-0.3-2.4-1.8v-4.6H33V302h1.3v-2.3h2.1V302z"/>
			<path class="st3" d="M41.2,300.8h-2.1V299h2.1V300.8z M39.1,302h2.1v7.8h-2.1V302z"/>
			<path class="st3" d="M47.2,309.7h-2.4l-2.7-7.8h2.2l1.6,5.3h0l1.6-5.3h2.1L47.2,309.7z"/>
			<path class="st3" d="M52.9,300.8h-2.1V299h2.1V300.8z M50.7,302h2.1v7.8h-2.1V302z"/>
			<path class="st3" d="M57.2,302h1.6v1.4h-1.6v3.8c0,0.7,0.2,0.9,0.9,0.9c0.2,0,0.4,0,0.7-0.1v1.7c-0.4,0.1-0.8,0.1-1.2,0.1
				c-1.3,0-2.4-0.3-2.4-1.8v-4.6h-1.3V302h1.3v-2.3h2.1V302z"/>
			<path class="st3" d="M63.6,310.7c-0.5,1.2-1.2,1.8-2.7,1.8c-0.4,0-0.9,0-1.3-0.1v-1.8c0.4,0,0.8,0.1,1.2,0.1
				c0.7-0.1,1-0.8,0.7-1.5l-2.7-7.3h2.3l1.8,5.3h0l1.7-5.3h2.2L63.6,310.7z"/>
			<path class="st3" d="M74.4,303.5c0.9,0.1,2.2-0.1,2.2-1.3c0-0.9-0.7-1.4-1.5-1.4c-1.1,0-1.6,0.8-1.6,1.9h-2
				c0.1-2.1,1.5-3.6,3.6-3.6c1.7,0,3.5,1,3.5,2.9c0,1-0.5,1.9-1.5,2.1v0c1.2,0.3,1.9,1.2,1.9,2.4c0,2.2-1.8,3.5-3.9,3.5
				c-2.4,0-3.9-1.4-3.9-3.8h2c0,1.1,0.6,2.1,1.8,2.1c1,0,1.7-0.7,1.7-1.7c0-1.6-1.4-1.6-2.4-1.6V303.5z"/>
			<path class="st3" d="M82.6,304.4h-2.4v-2.3h2.4V304.4z M80.2,307.4h2.4v2.3h-2.4V307.4z"/>
		</g>
		<g id="Group_576" transform="translate(319 7.461)">
			<path id="Rectangle_1405-3" class="st0" d="M-304.3,341.2h68c3.9,0,7,3.1,7,7v10c0,3.9-3.1,7-7,7h-68c-3.9,0-7-3.1-7-7v-10
				C-311.3,344.4-308.1,341.2-304.3,341.2z"/>
			<g class="st1">
				<path class="st2" d="M-297.8,352.8c-0.1-2.4,1.3-4.2,3.8-4.2c1.9,0,3.6,1.2,3.6,3.3c0,1.6-0.8,2.4-1.9,3.2c-1,0.7-2.3,1.3-3,2.4
					h5v1.8h-7.7c0-2.4,1.5-3.5,3.3-4.7c0.9-0.6,2.2-1.3,2.2-2.6c0-1-0.7-1.6-1.6-1.6c-1.3,0-1.7,1.3-1.7,2.4H-297.8z"/>
				<path class="st2" d="M-285.9,348.5c2.1,0,3.9,1.3,3.9,5.4c0,4.2-1.8,5.5-3.9,5.5c-2.1,0-3.8-1.3-3.8-5.5
					C-289.7,349.9-288,348.5-285.9,348.5z M-285.9,357.7c1.7,0,1.7-2.6,1.7-3.8c0-1.1,0-3.7-1.7-3.7c-1.7,0-1.7,2.6-1.7,3.7
					C-287.6,355.1-287.6,357.7-285.9,357.7z"/>
				<path class="st2" d="M-276.7,351.5h2v1h0c0.6-0.8,1.4-1.3,2.4-1.3c1,0,1.8,0.4,2.3,1.3c0.4-0.7,1.3-1.3,2.3-1.3
					c1.6,0,2.8,0.8,2.8,2.8v5.2h-2.1v-4.4c0-1-0.1-1.9-1.3-1.9c-1.2,0-1.4,1-1.4,2v4.3h-2.1v-4.3c0-0.9,0.1-1.9-1.3-1.9
					c-0.4,0-1.4,0.3-1.4,1.8v4.5h-2.1V351.5z"/>
				<path class="st2" d="M-260.9,350.3h-2.1v-1.8h2.1V350.3z M-263.1,351.5h2.1v7.8h-2.1V351.5z"/>
				<path class="st2" d="M-259.3,351.5h2v1.1h0c0.5-0.9,1.5-1.3,2.4-1.3c2.3,0,2.8,1.3,2.8,3.2v4.8h-2.1v-4.4c0-1.3-0.4-1.9-1.4-1.9
					c-1.2,0-1.6,0.6-1.6,2.2v4.1h-2.1V351.5z"/>
				<path class="st2" d="M-248.7,356.7c0,0.9,0.8,1.3,1.6,1.3c0.6,0,1.4-0.2,1.4-1c0-0.6-0.9-0.9-2.4-1.2c-1.2-0.3-2.5-0.7-2.5-2.1
					c0-2,1.7-2.5,3.4-2.5c1.7,0,3.3,0.6,3.4,2.5h-2c-0.1-0.8-0.7-1-1.5-1c-0.5,0-1.2,0.1-1.2,0.7c0,0.8,1.2,0.9,2.4,1.2
					c1.2,0.3,2.5,0.7,2.5,2.2c0,2-1.8,2.7-3.5,2.7c-1.8,0-3.6-0.7-3.6-2.7H-248.7z"/>
			</g>
		</g>
		<g>
			<path id="Polygon_88_00000130645050201217455590000009162481855613464978_" class="st3" d="M89.2,265.4c0,2.1-1.1,4.1-3,5.2
				l-34.5,20c-1.9,1.1-4.2,1.1-6,0l-34.5-20c-1.8-1.1-3-3.1-3-5.2v-40.1c0-2.1,1.1-4.1,3-5.2l34.5-20c1.9-1.1,4.2-1.1,6,0l34.5,20
				c1.8,1.1,3,3.1,3,5.2V265.4z"/>
			<g>
				<path class="st4" d="M24.9,268.7c0,0-2.6-13-1.3-16.6c1.3-3.6,7.7-4.3,9.7-5.2s10,10.9,10,10.9l4.3-13.4c0,0,4.9-0.2,7.4-1.1
					h16.1l3.6-3.4v-10.1c0,0-0.8-2.2-3.3-3.2h-3.3c0,0-2.6,2.3-3.1,5.1l0.3,3.6c0,0,2,3.6,3.6,4.6h5.9"/>
				<line class="st4" x1="35.4" y1="268.7" x2="33.6" y2="261.5"/>
				<path class="st4" d="M39.5,252.5v-3c0,0-3.1-2.5-1.3-4.2c0,0,2.7-1.8,5.6,0c0,0,1.5,1.1,0,3.2c0,0-0.6,3.3,0.6,5.9"/>
				<path class="st4" d="M67.1,243.3v3.6c0,0-7.9,7.5-14,8.8l2.3,14.4"/>
				<path class="st4" d="M55.1,243.3c0,0,0.8-5.5,3.8-8.8v-13c0,0,4.3-3.8,8.2,0v5.4"/>
				<line class="st4" x1="58.9" y1="223.2" x2="67.1" y2="223.2"/>
				<line class="st4" x1="58.9" y1="226.6" x2="62" y2="226.6"/>
				<line class="st4" x1="58.9" y1="230.6" x2="62" y2="230.6"/>
				<line class="st4" x1="58.9" y1="234.6" x2="62" y2="234.6"/>
				<g>
					<circle class="st4" cx="38.7" cy="230.9" r="11.2"/>
				</g>
			</g>
		</g>
	</g>
	<g>
		<g class="st1">
			<path d="M398,116.9c2.7,0,4.1,2.2,4.1,4.5c0,2.3-1.4,4.5-4.1,4.5s-4.1-2.2-4.1-4.5C393.9,119.1,395.3,116.9,398,116.9z M398,125
				c2.1,0,3-1.8,3-3.5c0-1.7-0.9-3.5-3-3.5s-3,1.8-3,3.5C395,123.2,395.9,125,398,125z"/>
			<path d="M403.3,119.5h1v1.3h0c0.5-1,1.2-1.5,2.3-1.5v1.1c-1.6,0-2.2,0.9-2.2,2.5v2.8h-1V119.5z"/>
			<path d="M412.3,125.2c0,2-0.9,3-2.9,3c-1.2,0-2.5-0.5-2.6-1.8h1c0,0.7,0.9,1,1.6,1c1.3,0,1.9-1,1.9-2.4v-0.4h0
				c-0.3,0.8-1.2,1.1-1.9,1.1c-1.8,0-2.8-1.5-2.8-3.1c0-1.5,0.7-3.3,2.9-3.3c0.8,0,1.5,0.3,1.8,1h0v-0.9h1V125.2z M411.3,122.5
				c0-1.1-0.5-2.2-1.8-2.2c-1.3,0-1.8,1.1-1.8,2.3c0,1.1,0.4,2.4,1.8,2.4C410.8,124.9,411.3,123.6,411.3,122.5z"/>
			<path d="M419.4,125.7c-0.2,0.1-0.4,0.2-0.7,0.2c-0.5,0-0.9-0.3-0.9-1c-0.6,0.7-1.3,1-2.2,1c-1.1,0-2.1-0.5-2.1-1.7
				c0-1.4,1-1.7,2.1-1.9c1.1-0.2,2.1-0.1,2.1-0.9c0-0.9-0.7-1-1.4-1c-0.9,0-1.5,0.3-1.5,1.2h-1c0.1-1.5,1.2-2.1,2.6-2.1
				c1.1,0,2.3,0.3,2.3,1.7v3.2c0,0.5,0,0.7,0.3,0.7c0.1,0,0.2,0,0.3-0.1V125.7z M417.7,122.5c-0.4,0.3-1.2,0.3-1.8,0.4
				c-0.7,0.1-1.2,0.4-1.2,1.1c0,0.7,0.6,0.9,1.2,0.9c1.3,0,1.9-0.8,1.9-1.4V122.5z"/>
			<path d="M420.3,119.5h1v1h0c0.4-0.8,1.1-1.1,2-1.1c1.6,0,2.1,0.9,2.1,2.3v4.1h-1v-4.2c0-0.8-0.5-1.2-1.3-1.2
				c-1.2,0-1.8,0.8-1.8,1.9v3.5h-1V119.5z"/>
			<path d="M428.1,118.4h-1v-1.2h1V118.4z M427,119.5h1v6.2h-1V119.5z"/>
			<path d="M429.1,124.9l3.7-4.5h-3.5v-0.9h4.8v0.7l-3.8,4.6h4v0.9h-5.2V124.9z"/>
			<path d="M436.5,118.4h-1v-1.2h1V118.4z M435.5,119.5h1v6.2h-1V119.5z"/>
			<path d="M438.1,119.5h1v1h0c0.4-0.8,1.1-1.1,2-1.1c1.6,0,2.1,0.9,2.1,2.3v4.1h-1v-4.2c0-0.8-0.5-1.2-1.3-1.2
				c-1.2,0-1.8,0.8-1.8,1.9v3.5h-1V119.5z"/>
			<path d="M450.1,125.2c0,2-0.9,3-2.9,3c-1.2,0-2.5-0.5-2.6-1.8h1c0,0.7,0.9,1,1.6,1c1.3,0,1.9-1,1.9-2.4v-0.4h0
				c-0.3,0.8-1.2,1.1-1.9,1.1c-1.8,0-2.8-1.5-2.8-3.1c0-1.5,0.7-3.3,2.9-3.3c0.8,0,1.5,0.3,1.8,1h0v-0.9h1V125.2z M449.1,122.5
				c0-1.1-0.5-2.2-1.8-2.2c-1.3,0-1.8,1.1-1.8,2.3c0,1.1,0.4,2.4,1.8,2.4C448.6,124.9,449.1,123.6,449.1,122.5z"/>
			<path d="M389.4,133.9h1.2v0.9h-1.2v3.8c0,0.5,0.1,0.6,0.8,0.6h0.5v0.9h-0.8c-1.1,0-1.5-0.2-1.5-1.4v-3.9h-1.1v-0.9h1.1V132h1
				V133.9z"/>
			<path d="M391.8,131.5h1v3.3h0c0.3-0.7,1.2-1.1,2-1.1c1.6,0,2.1,0.9,2.1,2.3v4.1h-1v-4.2c0-0.8-0.5-1.2-1.3-1.2
				c-1.2,0-1.8,0.8-1.8,1.9v3.5h-1V131.5z"/>
			<path d="M403.7,138.1c-0.3,1.4-1.3,2.1-2.7,2.1c-2,0-2.9-1.4-3-3.3c0-1.9,1.2-3.2,2.9-3.2c2.2,0,2.9,2.1,2.8,3.5h-4.6
				c0,1.1,0.6,2,1.9,2c0.8,0,1.4-0.4,1.6-1.2H403.7z M402.8,136.4c0-1-0.8-1.8-1.8-1.8c-1.1,0-1.7,0.8-1.8,1.8H402.8z"/>
			<path d="M408.4,131.5h5.9v1h-4.8v2.7h4.5v1h-4.5v3h4.8v1h-5.9V131.5z"/>
			<path d="M415.6,131.5h1v8.6h-1V131.5z"/>
			<path d="M423.5,138.1c-0.3,1.4-1.3,2.1-2.7,2.1c-2,0-2.9-1.4-3-3.3c0-1.9,1.2-3.2,2.9-3.2c2.2,0,2.9,2.1,2.8,3.5H419
				c0,1.1,0.6,2,1.9,2c0.8,0,1.4-0.4,1.6-1.2H423.5z M422.5,136.4c0-1-0.8-1.8-1.8-1.8c-1.1,0-1.7,0.8-1.8,1.8H422.5z"/>
			<path d="M424.7,133.9h1v0.9h0c0.5-0.7,1.2-1.1,2-1.1c0.8,0,1.5,0.3,1.7,1.1c0.4-0.7,1.2-1.1,1.9-1.1c1.2,0,2.1,0.5,2.1,1.8v4.5
				h-1V136c0-0.8-0.2-1.4-1.2-1.4c-1,0-1.6,0.6-1.6,1.6v3.9h-1V136c0-0.8-0.3-1.4-1.2-1.4c-1.2,0-1.7,1.1-1.7,1.6v3.9h-1V133.9z"/>
			<path d="M440.2,138.1c-0.3,1.4-1.3,2.1-2.7,2.1c-2,0-2.9-1.4-3-3.3c0-1.9,1.2-3.2,2.9-3.2c2.2,0,2.9,2.1,2.8,3.5h-4.6
				c0,1.1,0.6,2,1.9,2c0.8,0,1.4-0.4,1.6-1.2H440.2z M439.2,136.4c0-1-0.8-1.8-1.8-1.8c-1.1,0-1.7,0.8-1.8,1.8H439.2z"/>
			<path d="M441.4,133.9h1v1h0c0.4-0.8,1.1-1.1,2-1.1c1.6,0,2.1,0.9,2.1,2.3v4.1h-1v-4.2c0-0.8-0.5-1.2-1.3-1.2
				c-1.2,0-1.8,0.8-1.8,1.9v3.5h-1V133.9z"/>
			<path d="M449.4,133.9h1.2v0.9h-1.2v3.8c0,0.5,0.1,0.6,0.8,0.6h0.5v0.9h-0.8c-1.1,0-1.5-0.2-1.5-1.4v-3.9h-1.1v-0.9h1.1V132h1
				V133.9z"/>
			<path d="M452.4,138.2c0,0.9,0.8,1.2,1.7,1.2c0.6,0,1.5-0.1,1.5-0.9c0-0.8-1-0.9-2-1.2c-1-0.2-2-0.6-2-1.8c0-1.2,1.2-1.8,2.3-1.8
				c1.4,0,2.5,0.4,2.5,1.9h-1c-0.1-0.8-0.8-1-1.4-1c-0.6,0-1.3,0.2-1.3,0.8c0,0.7,1.1,0.9,2,1.1c1,0.2,2,0.6,2,1.8
				c0,1.5-1.4,2-2.6,2c-1.4,0-2.6-0.6-2.6-2.1H452.4z"/>
		</g>
		<g class="st1">
			<path class="st3" d="M391.4,101h2.4l4,10.7h-2.4l-0.8-2.4h-4l-0.8,2.4h-2.4L391.4,101z M391.2,107.6h2.8l-1.4-3.9h0L391.2,107.6z
				"/>
			<path class="st3" d="M403.8,106.7c-0.1-0.9-0.7-1.3-1.6-1.3c-1.4,0-1.8,1.4-1.8,2.5c0,1.1,0.4,2.4,1.8,2.4c1,0,1.6-0.6,1.7-1.6
				h2.1c-0.3,2.1-1.7,3.2-3.7,3.2c-2.3,0-3.9-1.6-3.9-4c0-2.4,1.4-4.2,4-4.2c1.8,0,3.5,1,3.6,2.9H403.8z"/>
			<path class="st3" d="M409.8,104h1.6v1.4h-1.6v3.8c0,0.7,0.2,0.9,0.9,0.9c0.2,0,0.4,0,0.7-0.1v1.7c-0.4,0.1-0.8,0.1-1.2,0.1
				c-1.3,0-2.4-0.3-2.4-1.8v-4.6h-1.3V104h1.3v-2.3h2.1V104z"/>
			<path class="st3" d="M414.6,102.8h-2.1V101h2.1V102.8z M412.5,104h2.1v7.8h-2.1V104z"/>
			<path class="st3" d="M420.6,111.7h-2.4l-2.7-7.8h2.2l1.6,5.3h0l1.6-5.3h2.1L420.6,111.7z"/>
			<path class="st3" d="M426.3,102.8h-2.1V101h2.1V102.8z M424.1,104h2.1v7.8h-2.1V104z"/>
			<path class="st3" d="M430.6,104h1.6v1.4h-1.6v3.8c0,0.7,0.2,0.9,0.9,0.9c0.2,0,0.4,0,0.7-0.1v1.7c-0.4,0.1-0.8,0.1-1.2,0.1
				c-1.3,0-2.4-0.3-2.4-1.8v-4.6h-1.3V104h1.3v-2.3h2.1V104z"/>
			<path class="st3" d="M437,112.7c-0.5,1.2-1.2,1.8-2.7,1.8c-0.4,0-0.9,0-1.3-0.1v-1.8c0.4,0,0.8,0.1,1.2,0.1
				c0.7-0.1,1-0.8,0.7-1.5l-2.7-7.3h2.3l1.8,5.3h0l1.7-5.3h2.2L437,112.7z"/>
			<path class="st3" d="M444.9,105.2c-0.1-2.4,1.3-4.2,3.8-4.2c1.9,0,3.6,1.2,3.6,3.3c0,1.6-0.8,2.4-1.9,3.2c-1,0.7-2.3,1.3-3,2.4h5
				v1.8h-7.7c0-2.4,1.5-3.5,3.3-4.7c0.9-0.6,2.2-1.3,2.2-2.6c0-1-0.7-1.6-1.6-1.6c-1.3,0-1.7,1.3-1.7,2.4H444.9z"/>
			<path class="st3" d="M456,106.4h-2.4v-2.3h2.4V106.4z M453.6,109.4h2.4v2.3h-2.4V109.4z"/>
		</g>
		<g id="Group_576_00000093165191250778730890000011115959379891574165_" transform="translate(319 7.461)">
			<path id="Rectangle_1405-3_00000035499402548512502930000001368019378814089858_" class="st0" d="M69.1,143.2h68c3.9,0,7,3.1,7,7
				v10c0,3.9-3.1,7-7,7h-68c-3.9,0-7-3.1-7-7v-10C62.1,146.4,65.3,143.2,69.1,143.2z"/>
			<g class="st1">
				<path class="st2" d="M75.6,154.8c-0.1-2.4,1.3-4.2,3.8-4.2c1.9,0,3.6,1.2,3.6,3.3c0,1.6-0.8,2.4-1.9,3.2c-1,0.7-2.3,1.3-3,2.4h5
					v1.8h-7.7c0-2.4,1.5-3.5,3.3-4.7c0.9-0.6,2.2-1.3,2.2-2.6c0-1-0.7-1.6-1.6-1.6c-1.3,0-1.7,1.3-1.7,2.4H75.6z"/>
				<path class="st2" d="M87.5,150.5c2.1,0,3.9,1.3,3.9,5.4c0,4.2-1.8,5.5-3.9,5.5c-2.1,0-3.8-1.3-3.8-5.5
					C83.7,151.9,85.4,150.5,87.5,150.5z M87.5,159.7c1.7,0,1.7-2.6,1.7-3.8c0-1.1,0-3.7-1.7-3.7c-1.7,0-1.7,2.6-1.7,3.7
					C85.8,157.1,85.8,159.7,87.5,159.7z"/>
				<path class="st2" d="M96.7,153.5h2v1h0c0.6-0.8,1.4-1.3,2.4-1.3c1,0,1.8,0.4,2.3,1.3c0.5-0.7,1.3-1.3,2.3-1.3
					c1.7,0,2.8,0.8,2.8,2.8v5.2h-2.1v-4.4c0-1-0.1-1.9-1.3-1.9c-1.2,0-1.4,1-1.4,2v4.3h-2.1v-4.3c0-0.9,0.1-1.9-1.3-1.9
					c-0.4,0-1.4,0.3-1.4,1.8v4.5h-2.1V153.5z"/>
				<path class="st2" d="M112.5,152.3h-2.1v-1.8h2.1V152.3z M110.3,153.5h2.1v7.8h-2.1V153.5z"/>
				<path class="st2" d="M114.1,153.5h2v1.1h0c0.5-0.9,1.5-1.3,2.4-1.3c2.3,0,2.8,1.3,2.8,3.2v4.8h-2.1v-4.4c0-1.3-0.4-1.9-1.4-1.9
					c-1.2,0-1.6,0.6-1.6,2.2v4.1h-2.1V153.5z"/>
				<path class="st2" d="M124.7,158.7c0,0.9,0.8,1.3,1.6,1.3c0.6,0,1.4-0.2,1.4-1c0-0.6-0.9-0.9-2.4-1.2c-1.2-0.3-2.5-0.7-2.5-2.1
					c0-2,1.7-2.5,3.4-2.5c1.7,0,3.3,0.6,3.4,2.5h-2c-0.1-0.8-0.7-1-1.5-1c-0.5,0-1.2,0.1-1.2,0.7c0,0.8,1.2,0.9,2.4,1.2
					c1.2,0.3,2.5,0.7,2.5,2.2c0,2-1.8,2.7-3.5,2.7c-1.8,0-3.6-0.7-3.6-2.7H124.7z"/>
			</g>
		</g>
		<g>
			<path id="Polygon_88_00000116204957510913884330000013347204568902202025_" class="st3" d="M462.6,67.4c0,2.1-1.1,4.1-3,5.2
				l-34.5,20c-1.9,1.1-4.2,1.1-6,0l-34.5-20c-1.8-1.1-3-3.1-3-5.2V27.3c0-2.1,1.1-4.1,3-5.2l34.5-20c1.9-1.1,4.2-1.1,6,0l34.5,20
				c1.8,1.1,3,3.1,3,5.2V67.4z"/>
			<g>
				<path class="st4" d="M398.3,70.7c0,0-2.6-13-1.3-16.6c1.3-3.6,7.7-4.3,9.7-5.2c2-0.9,10,10.9,10,10.9l4.3-13.4
					c0,0,4.9-0.2,7.4-1.1h16.1l3.6-3.4V31.8c0,0-0.8-2.2-3.3-3.2h-3.3c0,0-2.6,2.3-3.1,5.1l0.3,3.6c0,0,2,3.6,3.6,4.6h5.9"/>
				<line class="st4" x1="408.8" y1="70.7" x2="407" y2="63.5"/>
				<path class="st4" d="M412.9,54.5v-3c0,0-3.1-2.5-1.3-4.2c0,0,2.7-1.8,5.6,0c0,0,1.5,1.1,0,3.2c0,0-0.6,3.3,0.6,5.9"/>
				<path class="st4" d="M440.5,45.3v3.6c0,0-7.9,7.5-14,8.8l2.3,14.4"/>
				<path class="st4" d="M428.5,45.3c0,0,0.8-5.5,3.8-8.8v-13c0,0,4.3-3.8,8.2,0v5.4"/>
				<line class="st4" x1="432.3" y1="25.2" x2="440.5" y2="25.2"/>
				<line class="st4" x1="432.3" y1="28.6" x2="435.4" y2="28.6"/>
				<line class="st4" x1="432.3" y1="32.6" x2="435.4" y2="32.6"/>
				<line class="st4" x1="432.3" y1="36.6" x2="435.4" y2="36.6"/>
				<g>
					<circle class="st4" cx="412" cy="32.9" r="11.2"/>
				</g>
			</g>
		</g>
	</g>
	<g>
		<g class="st1">
			<path d="M211.5,323.7h-1.3l-3-8.6h1.2l2.4,7.4h0l2.5-7.4h1.2L211.5,323.7z"/>
			<path d="M216.4,316.4h-1v-1.2h1V316.4z M215.4,317.5h1v6.2h-1V317.5z"/>
			<path d="M218.6,321.8c0,0.9,0.8,1.2,1.7,1.2c0.6,0,1.5-0.1,1.5-0.9c0-0.8-1-0.9-2-1.2c-1-0.2-2-0.6-2-1.8c0-1.2,1.2-1.8,2.3-1.8
				c1.4,0,2.5,0.4,2.5,1.9h-1c-0.1-0.8-0.8-1-1.4-1c-0.6,0-1.3,0.2-1.3,0.8c0,0.7,1.1,0.9,2,1.1c1,0.2,2,0.6,2,1.8
				c0,1.5-1.4,2-2.6,2c-1.4,0-2.6-0.6-2.6-2.1H218.6z"/>
			<path d="M229.1,323.7h-1v-1h0c-0.4,0.8-1.1,1.1-2,1.1c-1.6,0-2.1-0.9-2.1-2.3v-4.1h1v4.2c0,0.8,0.5,1.2,1.3,1.2
				c1.2,0,1.8-0.8,1.8-1.9v-3.5h1V323.7z"/>
			<path d="M236.2,323.7c-0.2,0.1-0.4,0.2-0.7,0.2c-0.5,0-0.9-0.3-0.9-1c-0.6,0.7-1.3,1-2.2,1c-1.1,0-2.1-0.5-2.1-1.7
				c0-1.4,1-1.7,2.1-1.9c1.1-0.2,2.1-0.1,2.1-0.9c0-0.9-0.7-1-1.4-1c-0.9,0-1.5,0.3-1.5,1.2h-1c0.1-1.5,1.2-2.1,2.6-2.1
				c1.1,0,2.3,0.3,2.3,1.7v3.2c0,0.5,0,0.7,0.3,0.7c0.1,0,0.2,0,0.3-0.1V323.7z M234.5,320.5c-0.4,0.3-1.2,0.3-1.8,0.4
				c-0.7,0.1-1.2,0.4-1.2,1.1c0,0.7,0.6,0.9,1.2,0.9c1.3,0,1.9-0.8,1.9-1.4V320.5z"/>
			<path d="M237.2,315.1h1v8.6h-1V315.1z"/>
			<path d="M240.9,316.4h-1v-1.2h1V316.4z M239.8,317.5h1v6.2h-1V317.5z"/>
			<path d="M241.9,322.9l3.7-4.5h-3.5v-0.9h4.8v0.7l-3.8,4.6h4v0.9h-5.2V322.9z"/>
			<path d="M249.3,316.4h-1v-1.2h1V316.4z M248.3,317.5h1v6.2h-1V317.5z"/>
			<path d="M250.9,317.5h1v1h0c0.4-0.8,1.1-1.1,2-1.1c1.6,0,2.1,0.9,2.1,2.3v4.1h-1v-4.2c0-0.8-0.5-1.2-1.3-1.2
				c-1.2,0-1.8,0.8-1.8,1.9v3.5h-1V317.5z"/>
			<path d="M262.9,323.2c0,2-0.9,3-2.9,3c-1.2,0-2.5-0.5-2.6-1.8h1c0,0.7,0.9,1,1.6,1c1.3,0,1.9-1,1.9-2.4v-0.4h0
				c-0.3,0.8-1.2,1.1-1.9,1.1c-1.8,0-2.8-1.5-2.8-3.1c0-1.5,0.7-3.3,2.9-3.3c0.8,0,1.5,0.3,1.8,1h0v-0.9h1V323.2z M261.9,320.5
				c0-1.1-0.5-2.2-1.8-2.2c-1.3,0-1.8,1.1-1.8,2.3c0,1.1,0.4,2.4,1.8,2.4S261.9,321.6,261.9,320.5z"/>
			<path d="M199.3,331.9h1.2v0.9h-1.2v3.8c0,0.5,0.1,0.6,0.8,0.6h0.5v0.9h-0.8c-1.1,0-1.5-0.2-1.5-1.4v-3.9h-1.1v-0.9h1.1V330h1
				V331.9z"/>
			<path d="M201.7,329.5h1v3.3h0c0.3-0.7,1.2-1.1,2-1.1c1.6,0,2.1,0.9,2.1,2.3v4.1h-1v-4.2c0-0.8-0.5-1.2-1.3-1.2
				c-1.2,0-1.8,0.8-1.8,1.9v3.5h-1V329.5z"/>
			<path d="M213.6,336.1c-0.3,1.4-1.3,2.1-2.7,2.1c-2,0-2.9-1.4-3-3.3c0-1.9,1.2-3.2,2.9-3.2c2.2,0,2.9,2.1,2.8,3.5h-4.6
				c0,1.1,0.6,2,1.9,2c0.8,0,1.4-0.4,1.6-1.2H213.6z M212.6,334.4c0-1-0.8-1.8-1.8-1.8c-1.1,0-1.7,0.8-1.8,1.8H212.6z"/>
			<path d="M218.3,329.5h3.8c1.7,0,2.6,0.9,2.6,2.5c0,1.6-0.9,2.5-2.6,2.5h-2.6v3.5h-1.1V329.5z M219.4,333.6h2.2
				c1.3,0,1.9-0.6,1.9-1.6c0-1-0.6-1.6-1.9-1.6h-2.2V333.6z"/>
			<path d="M231.2,336.1c-0.3,1.4-1.3,2.1-2.7,2.1c-2,0-2.9-1.4-3-3.3c0-1.9,1.2-3.2,2.9-3.2c2.2,0,2.9,2.1,2.8,3.5h-4.6
				c0,1.1,0.6,2,1.9,2c0.8,0,1.4-0.4,1.6-1.2H231.2z M230.2,334.4c0-1-0.8-1.8-1.8-1.8c-1.1,0-1.7,0.8-1.8,1.8H230.2z"/>
			<path d="M232.3,331.9h1v1.3h0c0.5-1,1.2-1.5,2.3-1.5v1.1c-1.6,0-2.2,0.9-2.2,2.5v2.8h-1V331.9z"/>
			<path d="M237.4,330.8h-1v-1.2h1V330.8z M236.4,331.9h1v6.2h-1V331.9z"/>
			<path d="M241.7,331.8c2,0,3,1.4,3,3.2c0,1.8-1,3.2-3,3.2c-2,0-3-1.4-3-3.2C238.7,333.2,239.7,331.8,241.7,331.8z M241.7,337.4
				c1.1,0,1.9-0.8,1.9-2.3c0-1.5-0.9-2.4-1.9-2.4c-1.1,0-1.9,0.8-1.9,2.4C239.7,336.5,240.6,337.4,241.7,337.4z"/>
			<path d="M251.4,338.1h-1v-0.8h0c-0.3,0.7-1.1,1-2,1c-1.9,0-2.9-1.5-2.9-3.3s0.9-3.2,2.8-3.2c0.6,0,1.5,0.2,2,1h0v-3.2h1V338.1z
				 M248.5,337.4c1.4,0,1.9-1.2,1.9-2.3c0-1.2-0.6-2.4-2-2.4c-1.4,0-1.9,1.2-1.9,2.4C246.6,336.2,247.2,337.4,248.5,337.4z"/>
			<path d="M254.1,330.8h-1v-1.2h1V330.8z M253.1,331.9h1v6.2h-1V331.9z"/>
			<path d="M259.9,333.9c-0.2-0.8-0.7-1.2-1.5-1.2c-1.5,0-1.9,1.2-1.9,2.4c0,1.1,0.5,2.3,1.8,2.3c1,0,1.6-0.6,1.7-1.5h1
				c-0.2,1.5-1.2,2.4-2.7,2.4c-1.9,0-2.9-1.3-2.9-3.2c0-1.9,1-3.3,2.9-3.3c1.4,0,2.5,0.7,2.7,2.1H259.9z"/>
			<path d="M263.2,330.8h-1v-1.2h1V330.8z M262.2,331.9h1v6.2h-1V331.9z"/>
			<path d="M266.2,331.9h1.2v0.9h-1.2v3.8c0,0.5,0.1,0.6,0.8,0.6h0.5v0.9h-0.8c-1.1,0-1.5-0.2-1.5-1.4v-3.9h-1.1v-0.9h1.1V330h1
				V331.9z"/>
			<path d="M271,338.9c-0.5,1.2-0.9,1.7-1.8,1.7c-0.2,0-0.5,0-0.7-0.1v-0.9c0.2,0.1,0.4,0.1,0.6,0.1c0.4,0,0.6-0.2,0.8-0.6l0.4-1.1
				l-2.5-6.2h1.2l1.8,5.1h0l1.7-5.1h1.1L271,338.9z"/>
		</g>
		<g class="st1">
			<path class="st3" d="M204.7,299h2.4l4,10.7h-2.4l-0.8-2.4h-4l-0.8,2.4h-2.4L204.7,299z M204.5,305.6h2.8l-1.4-3.9h0L204.5,305.6z
				"/>
			<path class="st3" d="M217.1,304.7c-0.1-0.9-0.7-1.3-1.6-1.3c-1.4,0-1.8,1.4-1.8,2.5c0,1.1,0.4,2.4,1.8,2.4c1,0,1.6-0.6,1.7-1.6
				h2.1c-0.3,2.1-1.7,3.2-3.7,3.2c-2.3,0-3.9-1.6-3.9-4c0-2.4,1.4-4.2,4-4.2c1.8,0,3.5,1,3.6,2.9H217.1z"/>
			<path class="st3" d="M223.1,302h1.6v1.4h-1.6v3.8c0,0.7,0.2,0.9,0.9,0.9c0.2,0,0.4,0,0.7-0.1v1.7c-0.4,0.1-0.8,0.1-1.2,0.1
				c-1.3,0-2.4-0.3-2.4-1.8v-4.6h-1.3V302h1.3v-2.3h2.1V302z"/>
			<path class="st3" d="M227.9,300.8h-2.1V299h2.1V300.8z M225.8,302h2.1v7.8h-2.1V302z"/>
			<path class="st3" d="M233.9,309.7h-2.4l-2.7-7.8h2.2l1.6,5.3h0l1.6-5.3h2.1L233.9,309.7z"/>
			<path class="st3" d="M239.6,300.8h-2.1V299h2.1V300.8z M237.4,302h2.1v7.8h-2.1V302z"/>
			<path class="st3" d="M243.9,302h1.6v1.4h-1.6v3.8c0,0.7,0.2,0.9,0.9,0.9c0.2,0,0.4,0,0.7-0.1v1.7c-0.4,0.1-0.8,0.1-1.2,0.1
				c-1.3,0-2.4-0.3-2.4-1.8v-4.6h-1.3V302h1.3v-2.3h2.1V302z"/>
			<path class="st3" d="M250.3,310.7c-0.5,1.2-1.2,1.8-2.7,1.8c-0.4,0-0.9,0-1.3-0.1v-1.8c0.4,0,0.8,0.1,1.2,0.1
				c0.7-0.1,1-0.8,0.7-1.5l-2.7-7.3h2.3l1.8,5.3h0l1.7-5.3h2.2L250.3,310.7z"/>
			<path class="st3" d="M262.3,307.3h-4.4v-2l4.6-6.1h1.9v6.3h1.4v1.8h-1.4v2.4h-2V307.3z M262.3,301.9L262.3,301.9l-2.8,3.6h2.8
				V301.9z"/>
			<path class="st3" d="M269.3,304.4h-2.4v-2.3h2.4V304.4z M266.9,307.4h2.4v2.3h-2.4V307.4z"/>
		</g>
		<g id="Group_576_00000032610777334512756480000014094004117813204875_" transform="translate(319 7.461)">
			<path id="Rectangle_1405-3_00000028296007191099942820000000278603938356539801_" class="st0" d="M-117.6,341.2h68
				c3.9,0,7,3.1,7,7v10c0,3.9-3.1,7-7,7h-68c-3.9,0-7-3.1-7-7v-10C-124.6,344.4-121.4,341.2-117.6,341.2z"/>
			<g class="st1">
				<path class="st2" d="M-105.9,351.4c-0.1-0.7-0.7-1.3-1.4-1.3c-1.5,0-1.9,2-2,3.2l0,0c0.6-0.8,1.4-1.2,2.4-1.2
					c0.9,0,1.8,0.4,2.4,1.1c0.6,0.6,0.8,1.5,0.8,2.3c0,2.1-1.5,3.8-3.7,3.8c-3.2,0-4-2.8-4-5.4c0-2.6,1.1-5.5,4.1-5.5
					c1.8,0,3.2,1.1,3.4,2.9H-105.9z M-109.1,355.8c0,1,0.6,2,1.7,2c1,0,1.6-1,1.6-1.9c0-1-0.5-2-1.6-2
					C-108.5,353.8-109.1,354.7-109.1,355.8z"/>
				<path class="st2" d="M-99.2,348.5c2.1,0,3.9,1.3,3.9,5.4c0,4.2-1.8,5.5-3.9,5.5c-2.1,0-3.8-1.3-3.8-5.5
					C-103,349.9-101.3,348.5-99.2,348.5z M-99.2,357.7c1.7,0,1.7-2.6,1.7-3.8c0-1.1,0-3.7-1.7-3.7c-1.7,0-1.7,2.6-1.7,3.7
					C-100.9,355.1-100.9,357.7-99.2,357.7z"/>
				<path class="st2" d="M-90,351.5h2v1h0c0.6-0.8,1.4-1.3,2.4-1.3c1,0,1.8,0.4,2.3,1.3c0.4-0.7,1.3-1.3,2.3-1.3
					c1.6,0,2.8,0.8,2.8,2.8v5.2h-2.1v-4.4c0-1-0.1-1.9-1.3-1.9c-1.2,0-1.4,1-1.4,2v4.3h-2.1v-4.3c0-0.9,0.1-1.9-1.3-1.9
					c-0.4,0-1.4,0.3-1.4,1.8v4.5H-90V351.5z"/>
				<path class="st2" d="M-74.2,350.3h-2.1v-1.8h2.1V350.3z M-76.4,351.5h2.1v7.8h-2.1V351.5z"/>
				<path class="st2" d="M-72.6,351.5h2v1.1h0c0.5-0.9,1.5-1.3,2.4-1.3c2.3,0,2.8,1.3,2.8,3.2v4.8h-2.1v-4.4c0-1.3-0.4-1.9-1.4-1.9
					c-1.2,0-1.6,0.6-1.6,2.2v4.1h-2.1V351.5z"/>
				<path class="st2" d="M-62,356.7c0,0.9,0.8,1.3,1.6,1.3c0.6,0,1.4-0.2,1.4-1c0-0.6-0.9-0.9-2.4-1.2c-1.2-0.3-2.5-0.7-2.5-2.1
					c0-2,1.7-2.5,3.4-2.5c1.7,0,3.3,0.6,3.4,2.5h-2c-0.1-0.8-0.7-1-1.5-1c-0.5,0-1.2,0.1-1.2,0.7c0,0.8,1.2,0.9,2.4,1.2
					c1.2,0.3,2.5,0.7,2.5,2.2c0,2-1.8,2.7-3.5,2.7c-1.8,0-3.6-0.7-3.6-2.7H-62z"/>
			</g>
		</g>
		<g>
			<path id="Polygon_88_00000109014955898631688360000004361348266574281150_" class="st3" d="M275.9,265.4c0,2.1-1.1,4.1-3,5.2
				l-34.5,20c-1.9,1.1-4.2,1.1-6,0l-34.5-20c-1.8-1.1-3-3.1-3-5.2v-40.1c0-2.1,1.1-4.1,3-5.2l34.5-20c1.9-1.1,4.2-1.1,6,0l34.5,20
				c1.8,1.1,3,3.1,3,5.2V265.4z"/>
			<g>
				<path class="st4" d="M211.6,268.7c0,0-2.6-13-1.3-16.6c1.3-3.6,7.7-4.3,9.7-5.2c2-0.9,10,10.9,10,10.9l4.3-13.4
					c0,0,4.9-0.2,7.4-1.1h16.1l3.6-3.4v-10.1c0,0-0.8-2.2-3.3-3.2h-3.3c0,0-2.6,2.3-3.1,5.1l0.3,3.6c0,0,2,3.6,3.6,4.6h5.9"/>
				<line class="st4" x1="222.1" y1="268.7" x2="220.3" y2="261.5"/>
				<path class="st4" d="M226.2,252.5v-3c0,0-3.1-2.5-1.3-4.2c0,0,2.7-1.8,5.6,0c0,0,1.5,1.1,0,3.2c0,0-0.6,3.3,0.6,5.9"/>
				<path class="st4" d="M253.8,243.3v3.6c0,0-7.9,7.5-14,8.8l2.3,14.4"/>
				<path class="st4" d="M241.8,243.3c0,0,0.8-5.5,3.8-8.8v-13c0,0,4.3-3.8,8.2,0v5.4"/>
				<line class="st4" x1="245.6" y1="223.2" x2="253.8" y2="223.2"/>
				<line class="st4" x1="245.6" y1="226.6" x2="248.7" y2="226.6"/>
				<line class="st4" x1="245.6" y1="230.6" x2="248.7" y2="230.6"/>
				<line class="st4" x1="245.6" y1="234.6" x2="248.7" y2="234.6"/>
				<g>
					<circle class="st4" cx="225.4" cy="230.9" r="11.2"/>
				</g>
			</g>
		</g>
	</g>
</g>
<g>
</g>
<g>
</g>
<g>
</g>
<g>
</g>
<g>
</g>
<g>
</g>
<g>
</g>
<g>
</g>
<g>
</g>
<g>
</g>
<g>
</g>
<g>
</g>
<g>
</g>
<g>
</g>
<g>
</g>
</svg>
