<svg xmlns="http://www.w3.org/2000/svg" xmlns:xlink="http://www.w3.org/1999/xlink" width="134.969" height="50.853" viewBox="0 0 134.969 50.853">
  <defs>
    <clipPath id="clip-path">
      <rect id="Rectangle_1252" data-name="Rectangle 1252" width="134.969" height="50.853" fill="none"/>
    </clipPath>
  </defs>
  <g id="Logo" transform="translate(-1 -22.415)">
    <g id="Group_200" data-name="Group 200" transform="translate(1 22.416)">
      <g id="Group_199" data-name="Group 199" transform="translate(0 0)" clip-path="url(#clip-path)">
        <path id="Path_940" data-name="Path 940" d="M76.739.665h6.1C84.4,2.788,85.24,5.253,86.567,7.594V.7h6.787V31.245H86.593c.082-6.548.313-13.026-3.057-18.948V31.339c-2.364.056-4.565.023-6.725.023-.4-1.442-.453-28.792-.071-30.7" transform="translate(22.585 0.197)" fill="#004e9c"/>
        <path id="Path_941" data-name="Path 941" d="M46.179,31.3H39.044c-.589-4.509-1.179-9.028-1.754-13.438a2.162,2.162,0,0,0-1.51-.146V31.262H29.036V.825c.378-.351.887-.175,1.348-.179C32.746.628,35.108.666,37.47.626a15.344,15.344,0,0,1,3.422.354,5.318,5.318,0,0,1,4.4,4.062,17.294,17.294,0,0,1,.438,7.172,6.621,6.621,0,0,1-1.993,4.047c.806,4.953,1.614,9.935,2.444,15.039M35.522,12.19c1.365.035,2.749.376,3.3-1.08a4.384,4.384,0,0,0-.238-4.149c-.714-1.019-1.9-1-3.062-.732Z" transform="translate(8.575 0.179)" fill="#004e9c"/>
        <path id="Path_942" data-name="Path 942" d="M91.235,31.115c.117-4.746-.157-9.514.333-14.287A42.251,42.251,0,0,1,94.184,5.22,20.768,20.768,0,0,1,96.6.686h6.059a26.447,26.447,0,0,1,3.865,8.98,47.555,47.555,0,0,1,1.436,10.747c.093,3.567.021,7.137.021,10.7a22.294,22.294,0,0,1-6.784-.005V26.412a11.858,11.858,0,0,0-3.1-.092v4.718a20.373,20.373,0,0,1-6.863.078m8.25-23.5a45.007,45.007,0,0,0-1.348,12.629,7.958,7.958,0,0,0,2.922-.075c.29-3.811-.426-9.866-1.574-12.554" transform="translate(26.943 0.203)" fill="#004e9c"/>
        <path id="Path_943" data-name="Path 943" d="M31.131,31.255H24.349V26.486a7.735,7.735,0,0,0-3.061-.155c-.346,1.584.022,3.163-.216,4.683a19.062,19.062,0,0,1-6.771.142c0-2.2,0-4.423,0-6.65A60.923,60.923,0,0,1,15.774,9.941,28.205,28.205,0,0,1,19.647.7h6.138a26.106,26.106,0,0,1,3.8,8.878,56.347,56.347,0,0,1,1.545,14.2c-.012,2.469,0,4.938,0,7.475M21.21,20.234a9.7,9.7,0,0,0,3.01-.044A39.148,39.148,0,0,0,22.686,7.9,40.215,40.215,0,0,0,21.21,20.234" transform="translate(4.223 0.209)" fill="#004e9c"/>
        <path id="Path_944" data-name="Path 944" d="M17.036,12.838H10.293c-.448-2.071.323-4.186-.552-6.122A2.536,2.536,0,0,0,7.623,6.5a2.113,2.113,0,0,0-.7,1.96q.008,7.634,0,15.269A2.562,2.562,0,0,0,7.433,25.6c2.074.536,2.677.119,2.715-1.968.034-1.874.008-3.75.008-5.745h6.929c.009,3.4.355,6.895-1.073,10.216a5.484,5.484,0,0,1-3.556,3.145,13.172,13.172,0,0,1-7.5.106,5.854,5.854,0,0,1-4.3-4.246A13.5,13.5,0,0,1,.019,23.2C.025,18.469.034,13.744.012,9.017a11.965,11.965,0,0,1,.478-3.4C1.451,2.306,2.963.867,7.24.382a13.107,13.107,0,0,1,4.509.324,5.938,5.938,0,0,1,4.6,4.18,21.393,21.393,0,0,1,.685,7.952" transform="translate(0.004 0.092)" fill="#004e9c"/>
        <path id="Path_945" data-name="Path 945" d="M43.506,18.182c0-3.15-.005-6.3,0-9.449a9.113,9.113,0,0,1,2.725-6.51A7.409,7.409,0,0,1,57.3,2.768,8.814,8.814,0,0,1,59.506,8.4c.054,6.541.045,13.083.019,19.624a8.767,8.767,0,0,1-1.816,5.227c-3.69,4.98-10.326,4.144-13.131-1.095a8.891,8.891,0,0,1-1.08-4.344c.026-3.21.008-6.421.008-9.631m12.053.087c0-2.97-.012-5.94.006-8.91a6.128,6.128,0,0,0-.674-2.97A3.772,3.772,0,0,0,51.348,4a3.84,3.84,0,0,0-3.324,2.461,7.4,7.4,0,0,0-.587,3.544q0,8.275,0,16.549c0,.6.061,1.209.084,1.813A4.652,4.652,0,0,0,48.6,31.02a3.5,3.5,0,0,0,5.943-.241,6.28,6.28,0,0,0,1.028-3.6c-.026-2.97-.008-5.94-.008-8.91" transform="translate(12.845 0)" fill="#004e9c"/>
        <path id="Path_946" data-name="Path 946" d="M64.655,25.318h6.863a55.742,55.742,0,0,1,.167,5.929H57.918V.707h6.54a1.068,1.068,0,0,1,.088.084c.04.043.1.092.1.139,0,8.053,0,16.107,0,24.388" transform="translate(17.104 0.209)" fill="#004e9c"/>
        <path id="Path_947" data-name="Path 947" d="M75.79.733V31.021a19.512,19.512,0,0,1-6.673.13V.733Z" transform="translate(20.411 0.217)" fill="#004e9c"/>
        <path id="Path_948" data-name="Path 948" d="M.056,39.549V38.277h134.7c.315.341.18.758.11,1.272Z" transform="translate(0.017 11.304)" fill="#6d6c70"/>
        <path id="Path_949" data-name="Path 949" d="M58.543,28.388H.316c-.487-.447-.282-.99-.221-1.63h57.17c.4.352,1.126.693,1.278,1.63" transform="translate(0 7.902)" fill="#79787c"/>
        <path id="Path_950" data-name="Path 950" d="M54.148,28.079l1.26-1.352h63.335c.346.413.218.828.139,1.352Z" transform="translate(15.99 7.893)" fill="#6d6c70"/>
        <path id="Path_951" data-name="Path 951" d="M86.717,37.931h-2.21c-1.159-1.3-1.817-3.1-3.214-4.745v4.6a2.528,2.528,0,0,1-1.922.047v-7.65a7.287,7.287,0,0,1,2.521-.113l2.927,4.657V30.409a1.991,1.991,0,0,1,1.9-.269Z" transform="translate(23.439 8.865)" fill="#0054a1"/>
        <path id="Path_952" data-name="Path 952" d="M34.7,34.562V30.188a3.164,3.164,0,0,1,1.956-.021v7.561a3.763,3.763,0,0,1-2.4.193l-2.845-4.5-.289.1v4.19a1.923,1.923,0,0,1-1.889.085V30.14A9.879,9.879,0,0,1,31.6,30.05c1.2,1.3,1.759,3.015,3.1,4.512" transform="translate(8.633 8.866)" fill="#0054a1"/>
        <path id="Path_953" data-name="Path 953" d="M90.7,37.831V30.244c.821-.409,1.662-.079,2.5-.25l2.947,4.686V30.359a2.38,2.38,0,0,1,1.984-.21V37.71c-.681.583-1.478.148-2.281.326-1-1.578-1.952-3.085-2.905-4.593l-.339.076v4.275a2.483,2.483,0,0,1-1.908.036" transform="translate(26.785 8.858)" fill="#0054a1"/>
        <path id="Path_954" data-name="Path 954" d="M105.7,30.914l-1.2,1.418c-2.11-.9-3.325-.7-3.988.579a2.325,2.325,0,0,0,.791,3.023,1.674,1.674,0,0,0,2.543-.466c-.038-.745-.812-.337-1.095-.694a2.854,2.854,0,0,1-.071-1.483,9.19,9.19,0,0,1,3.115-.14,20.31,20.31,0,0,1,.076,4.144,5.642,5.642,0,0,1-4.57.755c-1.8-.411-3.246-1.659-3.05-4.479a3.847,3.847,0,0,1,3.339-3.708,4.792,4.792,0,0,1,4.107,1.052" transform="translate(29.009 8.795)" fill="#0054a1"/>
        <path id="Path_955" data-name="Path 955" d="M.174,37.9V30.153a14.953,14.953,0,0,1,4.334,0,3.586,3.586,0,0,1,3.005,3.746,3.884,3.884,0,0,1-2.992,3.822A11.36,11.36,0,0,1,.174,37.9m2.047-1.942c1.259.071,2.4.088,3.006-1.175a1.821,1.821,0,0,0-.2-2.032,2.4,2.4,0,0,0-2.883-.683,26.606,26.606,0,0,0,.075,3.89" transform="translate(0.051 8.858)" fill="#0054a1"/>
        <path id="Path_956" data-name="Path 956" d="M77.254,38c-.957-.942-1.095-2.264-2.131-3.229-.49,1.047-.062,2.079-.356,3.04a2.071,2.071,0,0,1-1.94-.047c-.009-2.427-.01-4.929.005-7.54a12.112,12.112,0,0,1,4.5-.062c1.53.247,2.188,2.238,1.3,3.626a6.166,6.166,0,0,1-.913.918c.2,1.145,1.206,1.909,1.506,3.15A5.624,5.624,0,0,1,77.254,38m-2.132-6.343A1.084,1.084,0,0,0,75.088,33a2.127,2.127,0,0,0,1.786-.323c-.161-1.131-.937-1.071-1.753-1.027" transform="translate(21.504 8.854)" fill="#0054a1"/>
        <path id="Path_957" data-name="Path 957" d="M64.378,34.861H61.586a.906.906,0,0,0-.04,1.044c1.04.281,2.2-.044,3.291.175.392.611.171,1.185.155,1.837h-5.6v-7.8a36.728,36.728,0,0,1,5.352,0c.347.6.162,1.11.118,1.758H61.488c-.126.65-.135,1.062.579,1.069.786.008,1.573,0,2.4,0a1.778,1.778,0,0,1-.093,1.921" transform="translate(17.539 8.865)" fill="#0054a1"/>
        <path id="Path_958" data-name="Path 958" d="M43.9,30.089h5.151a1.786,1.786,0,0,1,.076,1.677c-1.126.266-2.3-.113-3.4.254.315.736.315.736,3.22,1.01a1.9,1.9,0,0,1,.047,1.706H46.036a.862.862,0,0,0-.218,1.109c1.089.389,2.334-.091,3.4.256a1.753,1.753,0,0,1,.141,1.743H43.9Z" transform="translate(12.964 8.886)" fill="#0054a1"/>
        <path id="Path_959" data-name="Path 959" d="M24.532,30.167a3.869,3.869,0,0,1,1.812-.056c1.087,2.475,2.21,5.037,3.343,7.62-.715.471-1.365.154-1.856.242-.725-.4-.649-1.144-1.127-1.6a11.83,11.83,0,0,0-2.55-.058c-.237.5-.487,1.027-.745,1.571a3.393,3.393,0,0,1-2.127-.106c1.092-2.558,2.167-5.072,3.25-7.609m1.5,4.109c-.324-.258-.095-.9-.742-.938-.275.347-.407.654-.193,1.019a.78.78,0,0,0,.935-.082" transform="translate(6.285 8.869)" fill="#0054a1"/>
        <path id="Path_960" data-name="Path 960" d="M73.4,37.757a2.837,2.837,0,0,1-1.964.13c-.62-.359-.571-1.08-.986-1.556H68c-.593.4-.456,1.188-1.113,1.592a4.319,4.319,0,0,1-1.952-.061c1.135-2.622,2.232-5.154,3.3-7.629a2.789,2.789,0,0,1,1.854-.1c1.06,2.44,2.153,4.962,3.307,7.623m-3.854-3.435a1.143,1.143,0,0,0-.6-1.29c.083.536-.483.83-.3,1.365a.908.908,0,0,0,.9-.075" transform="translate(19.176 8.868)" fill="#0054a1"/>
        <path id="Path_961" data-name="Path 961" d="M10.625,37.13a2.652,2.652,0,0,1,1.228-1.449c1.5.767,1.5.767,2.493-.036-.347-.769-1.166-.772-1.789-1.047-1.282-.565-1.841-1.2-1.812-2.206a2.6,2.6,0,0,1,2.074-2.455,3.3,3.3,0,0,1,3.407.745c-.095.664-.641.961-1.054,1.383-.782-.108-1.619-.912-2.277.273.277.622.909.648,1.461.841,1.58.556,2.265,1.513,2.043,2.776a2.784,2.784,0,0,1-2.917,2.219,3.375,3.375,0,0,1-2.856-1.044" transform="translate(3.138 8.793)" fill="#0054a1"/>
        <path id="Path_962" data-name="Path 962" d="M43.739,31.085l-1.3,1.135c-1.738-.767-2.517-.681-3.228.325a2.581,2.581,0,0,0,.187,3.179c.778.782,1.525.756,2.949-.131a2.735,2.735,0,0,1,1.4.988,3.825,3.825,0,0,1-5.512.758,4.4,4.4,0,0,1-.788-5.859c1.574-2.034,4.149-2.241,6.294-.4" transform="translate(10.828 8.806)" fill="#004e9c"/>
        <path id="Path_963" data-name="Path 963" d="M20.448,37.826a2.9,2.9,0,0,1-1.94.006V31.9l-1.925-.139c-.46-.456-.268-.988-.194-1.627,2.022-.221,4.048-.044,6.027-.113a1.264,1.264,0,0,1,.17,1.536c-.538.474-1.2.1-1.863.4-.4,1.865.088,3.863-.275,5.865" transform="translate(4.809 8.866)" fill="#0054a1"/>
        <path id="Path_964" data-name="Path 964" d="M53.954,30.172a2.64,2.64,0,0,1,1.81.036V36h3.015a2.5,2.5,0,0,1,.057,1.9H53.954Z" transform="translate(15.933 8.869)" fill="#0054a1"/>
        <path id="Path_965" data-name="Path 965" d="M89.138,37.836a3.651,3.651,0,0,1-1.843.089c-.417-1.258-.128-2.582-.181-3.876-.053-1.256-.012-2.515-.012-3.732.712-.484,1.338-.221,2.036-.223Z" transform="translate(25.711 8.867)" fill="#0054a1"/>
        <path id="Path_966" data-name="Path 966" d="M9.4,37.851a2.625,2.625,0,0,1-1.667.038,25.611,25.611,0,0,1-.162-7.69c.566-.312,1.153-.11,1.829-.133Z" transform="translate(2.176 8.866)" fill="#0054a1"/>
        <path id="Path_967" data-name="Path 967" d="M53.435,6.021c-1.236,2.115-.687,4.6-1.4,6.822a.779.779,0,0,0,.075.521,2.756,2.756,0,0,1-.276,2.738c.272.4.5.741.754,1.109-.256.806-.455,1.633-.781,2.405a2.072,2.072,0,0,0,.5,2.46c1.46,1.58,1.468,1.971.271,3.753-.6.9-1.255,1.758-1.918,2.68A22.6,22.6,0,0,1,48.3,25.015a2.087,2.087,0,0,1,.29-2.668c1.369-1.306.953-2.71.383-4.141-.389-.977-.42-.965.326-1.881-.447-.948-1.013-1.9-.259-3.009.238-.351-.016-.817-.166-1.218a8.033,8.033,0,0,1-.481-2.29c-.1-1.4.014-2.864-1.266-4.071,2.087.409,2.282.654,2.32,2.791.644-.082,1.139.439,1.886.56.6-1.136-.335-3.263,2-3.168Z" transform="translate(13.917 1.695)" fill="#0054a1"/>
        <path id="Path_968" data-name="Path 968" d="M51.917,5.921c.073-.069.194-.2.209-.194.256.192.036.232-.1.3Z" transform="translate(15.332 1.692)" fill="#0054a1"/>
      </g>
    </g>
  </g>
</svg>
